<svg width="33" height="33" viewBox="0 0 33 33" fill="none" xmlns="http://www.w3.org/2000/svg">
<rect width="33" height="33" rx="16.5" fill="white"/>
<path d="M16.5 0C12.1239 0 7.92713 1.73838 4.83281 4.83282C1.73838 7.92701 0 12.124 0 16.5C0 20.876 1.73838 25.0729 4.83281 28.1672C7.92701 31.2616 12.124 33 16.5 33C20.876 33 25.0729 31.2616 28.1672 28.1672C31.2616 25.073 33 20.876 33 16.5C33 13.6038 32.2376 10.7584 30.7895 8.25006C29.3411 5.74172 27.2584 3.65897 24.7499 2.21051C22.2416 0.762412 19.3962 0 16.5 0V0ZM16.2077 8.25701C18.2089 8.17092 20.1482 8.91648 21.578 10.2896C22.9416 11.6 23.6922 13.34 23.6934 15.1857C23.6934 21.3107 17.3857 26.0726 17.117 26.2712L16.7786 26.5221L16.431 26.285C16.1398 26.0859 9.30425 21.3318 9.30425 15.7169C9.30425 11.6897 12.336 8.41331 16.2077 8.25656L16.2077 8.25701ZM16.5 9.43098C16.4199 9.43098 16.3361 9.43213 16.256 9.43558C13.0184 9.56633 10.4829 12.3256 10.4829 15.7173C10.4829 20.0425 15.3826 24.0303 16.7487 25.0586C18.0274 24.0014 22.5126 19.9496 22.5126 15.1858C22.5126 13.6643 21.8934 12.2269 20.7631 11.1414C19.6223 10.0452 18.0805 9.4311 16.5 9.4311L16.5 9.43098ZM16.4056 12.9644C17.6797 12.9172 18.8019 13.9261 18.8548 15.2248C18.9066 16.5235 17.8908 17.6245 16.5921 17.6763C16.5603 17.6775 16.5295 17.6786 16.4977 17.6786C15.2413 17.6786 14.197 16.6829 14.1452 15.4159C14.0934 14.1172 15.1069 13.0162 16.4056 12.9644L16.4056 12.9644ZM16.454 14.1429C15.8035 14.1689 15.2977 14.7182 15.3237 15.3675C15.3486 16.0169 15.9296 16.5095 16.546 16.4978C17.1965 16.4717 17.7022 15.9237 17.6762 15.2732C17.6514 14.6404 17.1282 14.1429 16.5 14.1429H16.454Z" fill="#EC483F"/>
</svg>
