<svg version="1.0" xmlns="http://www.w3.org/2000/svg" width="1288" height="1288" viewBox="0 0 966 966"><path d="M415.8 44.2l-.3 44.2-13 2.6c-53 11-101.9 31.9-146.8 62.6l-10.8 7.4-11.7-3.9c-14.7-5-24.5-7-38-7.8-24.3-1.4-51.3 5.1-72.7 17.4-8.1 4.6-22.2 15.1-26.2 19.5l-2.2 2.4 30.9 30.9c17.1 17.1 31 31.3 31 31.7 0 .3-3.1 5.3-6.8 11-29.4 44.3-50.1 95.4-59.7 147.5-1.4 7.4-2.5 13.9-2.5 14.4s-.5.9-1.1.9c-.6 0-5 1.8-9.7 4-43.5 20.4-73 63.2-75.8 110.2L-.3 550l44.3.2 44.2.3L91 564c10.7 52.2 34.5 107.5 64.2 149 5.8 8 6 8.6 4.9 11.5-3.4 8.4-6.3 17.7-8.3 26.9-3 13.3-3.2 37.7-.5 50.5 5.4 25.2 16.2 47.4 31.3 63.9l5.7 6.4 31.3-31.3 31.2-31.2 12.4 8c32.3 21.1 67.8 37.8 103.8 48.6 13.2 4 38.9 10 50.3 11.8 4.2.6 7.7 1.6 7.7 2.2 0 .5 2 5.2 4.4 10.3 12.4 26.2 34.6 48.8 60.4 61.8 15.7 7.9 38.1 13.6 53.5 13.6h6.7v-43.9c0-41 .1-44 1.8-44.5.9-.2 5.5-1.2 10.2-2.1 49-9.4 101.7-31.6 145.4-61.2l13.9-9.4 8.1 3c29.3 11 60.8 11.9 89.4 2.5 17.5-5.9 35.3-16.1 47.3-27.2l6-5.5-31-31.1C824 729.5 810 715.2 810 714.8c0-.3 3.1-5.3 6.8-11 29.5-44.4 50.1-95.3 59.7-147.5 1.4-7.4 2.5-13.9 2.5-14.4s.6-.9 1.4-.9c.8 0 6.4-2.5 12.4-5.5 31.9-16 55.4-42.9 66.6-76.6 4-11.8 6.6-26.2 6.6-36.2V416h-88l-.5-2.3c-.2-1.2-1.9-8.7-3.6-16.7-10.8-50.1-32.9-100.6-63.2-143.9l-5.9-8.4 3.1-8.1c11.3-30.1 12-60 2-90.1-6.1-18.4-14.5-33-27-46.8l-5.2-5.9-31.1 31.1C729.5 142 715.1 156 714.7 156c-.5 0-3.6-2-7-4.4-16.2-11.5-45.5-27.4-68.3-37.1-24-10.3-61.8-21.4-88.6-26-5.8-1-9.8-2.2-9.8-2.9 0-2.8-11.4-24-17.1-31.7-12-16.3-29.7-31.3-47.7-40.3C460.7 5.8 437.9 0 422.8 0H416l-.2 44.2zM509 142c45.9 3.9 85.2 14.8 126 35.1 45.8 22.8 83.1 52.8 114.9 92.4 40.5 50.4 64.7 108.7 73.3 176.5 1.7 13.9 1.7 60 0 74.5-6.9 56.5-25.6 107.4-56.2 153-12.4 18.5-24.4 32.9-42 50.6-30 30.1-55.3 48.2-92.5 66.4-45.1 22-89.5 32.8-140.5 34.2-80.8 2.2-155.2-22.5-221-73.3-14.4-11.1-43.9-40.4-55.4-54.9-39.8-50.4-63.7-107.4-72.3-172-2.1-16.3-2.4-62.8-.5-78.5 6.9-56.5 25.2-106.7 55.3-152 14-21 25-34.3 44.3-53.5 18.2-18.1 32.5-29.8 52.6-43.1 49.4-32.5 105.4-51.5 165-55.7 10.6-.8 38.4-.6 49 .3z"/><path d="M446.1 176.6c-1.8.8-3.1 1.7-2.9 1.9.5.5 9.8-2.4 9.8-3.1 0-.8-3.6-.2-6.9 1.2zm-41.7 3.9c-1.7 1.3-1.5 1.3 2.1.4 4.9-1.4 5.6-1.9 2.4-1.9-1.4 0-3.4.7-4.5 1.5zm40.5 1.7c-3.8 2-5.7 3.4-4.7 3.6 1.8.3 11.2-4.1 12.3-5.8 1.1-1.7-.9-1.1-7.6 2.2zm-38.9 2.5c-5.4 1.9-13 5.7-13 6.5 0 1.2 2.8.4 10.3-2.9 3.1-1.4 5.7-3 5.7-3.4 0-1-.7-1-3-.2zm44.5.9c-5.5 2.9-9.5 5.9-9.5 7.1 0 1.7.5 1.6 4.3-.3 4.3-2.3 9.7-6.4 9.7-7.5 0-1.2-1-1.1-4.5.7zm-86.2 3.4c-1.3.5-2.3 1.2-2.3 1.5 0 .9 1.6.5 3.6-1 2.2-1.6 1.9-1.8-1.3-.5zm88.6 4.2c-4.7 3.7-6.7 6.3-5.6 7.5 1.9 1.9 11.7-6.2 11.7-9.6 0-1.8-1.6-1.3-6.1 2.1zm-49.4-.4c-6.9 2.9-13.5 7.2-13.5 8.8 0 1.8 2.2 1.3 9.5-2.4 6.2-3.1 10.5-6 10.5-7.3 0-1.3-1.9-1-6.5.9zm-47.7 5.9c-6.2 3.2-8.4 5.3-5.8 5.3 1.4 0 11.9-5.4 14.5-7.4l2-1.5h-2c-1.1 0-5 1.6-8.7 3.6zm104.8 2.3c-3.4 3.8-4.3 5.9-3 7.3 1.9 1.9 9.4-5.8 9.4-9.6 0-2.8-2.6-1.9-6.4 2.3zm-55.2.5c-9.1 4.5-16.7 12.5-11.9 12.5 4.3 0 20.5-11.2 20.5-14.1 0-1.6-3.5-.9-8.6 1.6zm-51.3 6c-6.3 3.4-12.1 8-12.1 9.7 0 2.5 8.2-1.1 16.7-7.4 8.9-6.6 6-8-4.6-2.3zm118.9-.1c-2.4 4-2.3 6.9.2 7.4 2.1.4 6-5.4 5.6-8.3-.5-3.4-3.4-2.9-5.8.9zM319.2 211c-3.4 2.2-6.2 4.4-6.2 5 0 1.3 6.2-2 10.6-5.5 5-4 2-3.7-4.4.5zm94.4-1.9c-5.8 3.1-10.4 7-12.7 10.6-5.8 9.3 6.3 5.4 15.9-5.1 6.2-6.7 4.5-9.7-3.2-5.5zm76.4 4c-1.6 3-.9 6.4 1.4 6.4 2.5 0 4.3-4.9 2.6-7-1.7-2-2.7-1.9-4 .6zm-131.9 3.4c-11.5 6.6-17.9 13.1-15.3 15.7 2.8 2.8 26.8-13.8 24.8-17.1-1.2-1.8-4.8-1.2-9.5 1.4zm63.6 3c-5.1 3.9-10.2 11.6-9.3 14 .3.9 1.8 1.5 3.4 1.5 5.5 0 17.4-13.3 15.8-17.6-.9-2.4-5.1-1.5-9.9 2.1zM313 221.6c-11.4 7.6-16.8 15.2-7 9.8 6.9-3.8 17.2-13.3 14.5-13.4-1.1 0-4.5 1.6-7.5 3.6zm-18.6 3.6l-1.9 2.3 2.3-1.9c1.2-1.1 2.2-2.1 2.2-2.3 0-.8-.8-.2-2.6 1.9zm69 2.9c-9.1 5.7-16.3 14.1-15 17.5.6 1.7 4.9 1.8 7.9.3 7.7-4 18.7-15.3 18.7-19.3 0-2.7-6.1-1.9-11.6 1.5zm73.3.9c-6.7 6.1-8.6 12.8-4.5 15.4 4.7 2.9 15.2-8.1 14.6-15.4-.3-3-.7-3.5-3-3.8-2-.2-3.8.7-7.1 3.8zm-127.3 5.9c-7.2 5-9.9 7.7-12.9 12.3-1.6 2.6-1.6 2.8 0 3.5 1.1.4 3.6-.3 6.3-1.7 5.4-2.9 18.2-15.1 18.2-17.4 0-3-4.5-1.7-11.6 3.3zm-30.1 5.6c-4.3 4.2-6.8 7.1-5.5 6.5 3.3-1.6 14.8-12.7 14-13.5-.3-.4-4.2 2.8-8.5 7zm179.1-5.6c-3.2 1.9-7.4 9.2-7.4 12.7 0 2.8 2.8 6.4 4.9 6.4 2.5 0 6.8-3.6 8.6-7 2-3.8 1.9-10.4-.1-12.4s-2.2-2-6 .3zm-81.4 3c-7.7 4.1-16 14.2-16 19.3 0 3.7 2.6 4.9 7.1 3.4 5.6-1.9 9.7-5.3 14.6-11.9 3.3-4.6 4.3-6.8 4.1-9.1-.3-2.6-.7-3.1-3.3-3.3-1.6-.2-4.6.6-6.5 1.6zm104.7 5.2c-4.5 2.6-6.4 13.1-2.9 16.2 6.6 6 15-7.3 9.2-14.6-2.3-2.9-3.5-3.2-6.3-1.6zM316.9 245c-9 4.7-20.2 18.2-18.6 22.3 1.8 4.8 14.9-2.7 22.9-13.1 5.6-7.4 6.3-11.2 2.1-11.2-1.6.1-4.4 1-6.4 2zm-41.6 4.9c-5.5 4.3-11.7 11.2-13.9 15.3-1.3 2.6-1.3 2.8.3 2.8 2.2 0 20.3-18.2 20.3-20.4 0-2.4-1.4-2-6.7 2.3zm118.2-1.1c-7.2 4.5-14.5 14.9-14.5 20.5 0 2.7 2.8 5.7 5.4 5.7 2.7 0 8.8-3.6 12.3-7.2 4.7-4.9 8.8-14.4 7.7-17.7-1.2-3.4-6.5-4-10.9-1.3zm114 4.2c-4 4.4-1.2 13 4.1 13 3.8 0 5.8-4 4.4-8.9-1.6-5.9-5.3-7.6-8.5-4.1zm-180.4 5.2c-10.3 5.1-21.4 20.3-19.1 26.2 3.9 10.3 30-11.9 28.8-24.6-.4-4.2-3.5-4.8-9.7-1.6zm88.4 1.2c-3.4 1.5-9.6 8-12 12.6-2.5 4.8-1.7 11.8 1.6 14.3 2.4 1.7 3.1 1.8 6.4.7 10.5-3.5 18.6-20.9 12.5-27-2.3-2.3-4.3-2.4-8.5-.6zm123.2 1.3c-1.2 1.2-.7 6 .8 7.3 1.9 1.6 4.9.9 5.3-1.3.7-3.6-4-8.2-6.1-6zM275.2 263c-7.8 4.8-19.2 19.1-19.2 24.2 0 5.2 5.3 2.6 14.2-7.1 7.1-7.7 11.5-14.9 10.5-17.4-.8-2.2-1.5-2.1-5.5.3zm-26.5 8.2c-5.8 7-9.7 12.3-9.7 13.3 0 .8 9.2-10.2 13-15.5 3.4-4.7 1.6-3.5-3.3 2.2zm193.3-1.1c-3.9 1.6-7.1 5-9.6 10.4-2.7 5.8-3 9.4-.9 13.4 3.8 7.5 14.3 4.3 19.6-6 3.3-6.5 1.8-15.3-3-17.9-2.3-1.2-2.8-1.2-6.1.1zm-101.3 3c-8.6 5.7-16.7 17.4-16.7 24.1 0 3.5 3.2 6.8 6.6 6.8 12 0 29.9-25.4 22.8-32.4-2.5-2.5-7.6-1.9-12.7 1.5zm-61.4 5.8c-4.6 2.9-11 9.7-15.1 16-6 9.4-5.3 17.3 1.5 15.6 4-.9 16.3-13.9 19.6-20.7 3.6-7.1 3.5-12.2-.3-12.6-1.4-.1-3.9.7-5.7 1.7zm193 .9c-3 .5-8 6.3-9.4 11.1-1.6 5.5-.5 10.5 3.2 13.5 3.5 3 5.8 3.2 10 1.1 4.5-2.4 6.9-7 6.9-13.7 0-8.2-4.3-13-10.7-12zm-230.5 4.4c-4.7 5.1-14.8 20.8-14.8 23.1 0 1.9.4 1.7 3.5-1.3 4-3.9 13.8-18.1 15.4-22.3 1.4-3.7-.2-3.5-4.1.5zm123.8.3c-8.7 3.1-18.6 17.1-18.6 26.3 0 8.2 6.7 11.5 14.9 7.2 12.3-6.2 20.5-27.2 13.1-33.2-2.6-2.1-4.2-2.2-9.4-.3zm135.9 8.1c-9.6 10.4 2.8 27.3 12.7 17.4 2.8-2.9 3-3.5 2.6-8.6-.9-10.1-9.5-15.1-15.3-8.8zm-212.7 3.3c-13.2 8.4-22.1 30.6-13.9 34.7 7 3.6 20.8-8.4 26.2-22.7 4.9-12.9-1.3-18.9-12.3-12zm98.5 4c-7.8 5.6-12.3 13.9-12.3 22.3 0 4.3.4 5.4 3.4 8.4 3.9 3.9 7 4.3 13.1 1.5 12.4-5.6 19-27.4 10.2-33.6-3.6-2.5-9.8-1.9-14.4 1.4zm-150.1 3.7c-9.6 10.7-16.6 28.4-11.3 28.4 3.9 0 15.9-16.4 19.6-27 3.1-8.8-1.1-9.6-8.3-1.4zm302-3.3c-4.1 4.9-3.1 12.6 2.1 15.7 4.2 2.6 5.3 2.5 8.2-.5 1.8-1.7 2.5-3.5 2.5-6.1 0-6.6-9.4-13.3-12.8-9.1zm40.4 9.3c-1.1 2.8-.6 5 1.2 6.7 5.1 4.6 10.1-1.4 5.2-6.3-2.4-2.4-5.6-2.6-6.4-.4zm-271.9 2.5c-5.5 3.6-9.4 8.1-13.3 15.3-2.3 4.1-2.9 6.4-2.9 11.8 0 5.7.4 7 2.4 9.2 4.7 5 12.8 2.9 20.6-5.5 6.8-7.2 10-14.8 10-23.2 0-6-.3-7.1-2.4-8.8-3.5-2.9-8.9-2.5-14.4 1.2zm115.5-2.3c-6.7 2.1-13.9 11.6-14.8 19.9-2.2 18.2 18.4 22.1 27.4 5.2 2-3.7 2.3-5.5 2-11.7-.3-6.4-.7-7.5-3.3-10.2-3.2-3.1-7.5-4.3-11.3-3.2zm-176.8 7.1c-6.6 4-16.2 20-17.1 28.5-1.1 9 1.3 11.8 7.4 9 10.1-4.8 22.3-32.2 16.8-37.7-2.1-2.2-3.3-2.1-7.1.2zm-37.3 18.2c-3.9 7.8-7.1 15.1-7.1 16.3.1 2.1.1 2.1 1.7.1 1.8-2.3 11.5-22.4 13.1-27.3 2.5-7.4-1.1-2.3-7.7 10.9zm248.4-12.7c-6.6 2.9-11.5 11.3-11.5 19.5 0 7 6.6 14.1 13.1 14.1 1.2 0 4.2-.9 6.6-2.1 13.6-6.6 12-30-2.2-32.4-1.6-.3-4.4.1-6 .9zm-123 4.2c-4.8 2.4-11 9.2-14 15-4.9 9.6-4.6 19.1.6 24.4 2.5 2.4 3.9 3 7.5 3 8.3 0 15.7-5.7 21-16.3 3.2-6.2 4.3-16.1 2.4-20.7-2.7-6.6-10.6-9-17.5-5.4zm162 6.8c-3.8 1.7-6 4.1-8 8.9-2 4.9-1.9 8.2.6 13.3 6.8 14.2 24.9 8.8 24.9-7.4 0-5.7-2.7-10.4-7.9-13.9-3.9-2.6-5.4-2.8-9.6-.9zm-237 1.4c-9 5.6-16.7 19.3-17.3 30.9-.4 7-.3 7.3 2.7 10.4 2.7 2.6 3.7 3 6.4 2.5 10-2 20.9-19.4 21.1-33.8.1-5.7-.2-7-2.3-9.2-2.9-3.1-6.4-3.3-10.6-.8zm-49.4 10.1c-4.3 6.7-9.5 20.1-10.6 27.2-.5 3.4-.3 4.8.8 5.7 2.2 1.9 6.9-4.3 11.2-14.7 4.3-10.3 5.8-15.7 5.3-20.1-.5-5.2-2.4-4.7-6.7 1.9zm152.7-2c-15.2 9.6-18.7 33.5-5.8 40.1 4.5 2.3 6 2.4 11.3.9 12.4-3.4 21.2-22.6 16.2-35.5-3.3-8.7-12.9-11.1-21.7-5.5zm173.9 2.1c-5.1 4-5.8 13.1-1.5 18.5 7.3 9.3 19.8 5.3 19.8-6.3 0-10.8-10.9-18-18.3-12.2z"/><path d="M280.2 353.1c-12.3 6.1-20.8 28-15.5 40.1 2.7 5.9 7.8 8.6 13.4 6.9 4.5-1.4 9.1-5.1 13-10.5 1.6-2.1 2.9-3.7 2.9-3.5 0 .2-.7 2.2-1.5 4.4-1.9 5.5-1.8 12.9.4 19.2 1.1 3.4 1.4 5.3.7 5.3-3.7 0-9.4 2.7-13.1 6.1l-4.2 3.9-.6-7.3c-1-13.2-5.2-19.7-12.9-19.7-5.4 0-10.2 2.4-14.3 7.3l-3.4 4 1.1-3.9c1.5-5.4 1.4-17.4-.2-20.4-4.2-8.2-9.6-9.2-15.9-3.2-14.9 14.1-15.7 47.2-1.3 47.2 2.9 0 4.3-.8 7.7-4.4l4.3-4.4-.5 6.2c-.3 4.1.2 8.5 1.5 13.3l1.8 7.3h-2.4c-3.5 0-7.6 2.8-10.4 7.1l-2.5 3.9-.5-9.3c-.8-14-4.9-21.7-11.7-21.7-7.8 0-15.3 19.1-13.5 34.4 1.3 11.4 6.1 19.6 11.3 19.6 2.7 0 6.9-3.6 9.1-7.8l1.9-3.7.1 8c.1 7.2 1.2 12.3 4.4 19.7.6 1.3.2 2-1.5 2.7-2.6 1-7 5.3-8.7 8.6-.9 1.7-1.1 1.5-1.6-2-1.9-11.7-2.9-15.5-5.4-20.5-1.5-3-3.9-6.3-5.4-7.4-2.6-1.8-2.8-1.8-5.3-.2-4.6 3-5.9 7.8-6 20.6 0 14.1 2.6 23.8 7.9 29.4 5.1 5.4 8.7 4.5 11.9-3.2l1.3-3.2 1.7 7.4c2 9.4 5.9 17.6 10.6 22.6 6.3 6.6 11.9 6.3 16.8-.9 1.9-2.9 2.3-3.1 2.3-1.3 0 3.8 4.1 13.1 8.1 18.4 4.3 5.7 4.3 5.5-2 9-1.6.9-3.9 3.4-5 5.5-1.5 2.8-2 3.3-2.1 1.7 0-3.9-4.2-14.4-8-20.3-4.9-7.6-10.9-11.9-14.8-10.5-5.7 2-7.5 10.4-4.7 22.2 3.7 15.6 13.5 27.8 21.7 27 2.8-.3 3.6-1 5.5-4.8 1.3-2.6 2.2-3.7 2.3-2.6 0 2.9 6.6 14.6 11.1 19.9 13.8 16 28.3 8.2 23.5-12.7-1.9-8-5.3-14.6-10.1-19.7l-3.4-3.7 4.1-.6c3.1-.5 5.1-1.7 7.8-4.6 4-4.3 5-4.8 5-2.5 0 3.3 5.2 12.7 9.5 17.4l4.6 4.9-3.5.6c-7.8 1.5-12.4 8.7-11.1 17.4 1.5 10.3 10.3 23 18.9 27.4 4.8 2.5 11.6 2.7 15 .4 4.6-2.9 6.1-6.4 6-13.7 0-8.6-4.2-17.6-11.3-24.3-3.4-3.1-4.5-4.6-3.3-4.6 7.6 0 15.5-5.8 17.5-12.8l1.4-4.6.6 5.3c1.2 10.5 7.4 19.3 16.9 24 10.3 5.2 20 3.3 25.5-5 3.5-5.2 4.4-15.3 2-22.3-5-14.7-19.7-23.7-31.9-19.7-4.4 1.5-9.6 6.8-11.3 11.7l-1.3 3.8-.7-4.5c-1.1-6.8-3.4-12.9-7.1-19-1.9-3.1-3.4-5.9-3.4-6.2 0-.2 1.5-.8 3.4-1.1 4.1-.8 7.9-3.6 11.6-8.7l2.7-3.8 1.3 4.2c4.2 14.3 13.1 22.7 24 22.7 9.4 0 17.2-5.3 21-14.2 4.2-9.7 1.6-23.5-6-32.2-9.5-10.7-24.9-11.3-33.7-1.3l-2.8 3.2-1.8-7c-.9-3.8-3.3-9.3-5.1-12.1l-3.4-5.1 3.9-1.2c4.4-1.3 10.1-5.9 12.6-10.2 2.1-3.5 3.3-3.7 3.3-.5 0 4.2 3.7 14.5 6.5 18.1 4.1 5.4 9.6 7.8 16.9 7.3 11.2-.7 18.9-7.1 22.2-18.6 3.3-11.2-1.4-24.5-10.8-30.8-10.3-7-20.8-4.7-30 6.4l-2.8 3.4v-4.4c0-6.4-2.6-14.1-6.4-19.1l-3.3-4.3 4.8-1.7c10.9-3.9 18.9-13.3 19.7-23.4.9-11.1-3.7-22.2-10.9-25.9-7.2-3.7-18.5.2-24.7 8.6l-2.7 3.7.3-8.7c.3-7.2 0-9.5-1.8-13.8-4.9-11.4-15.4-11.9-26-1.2-3 3-6 6.4-6.6 7.5-.7 1.1-.3-.7.8-4 2.6-7.6 2.8-17.8.5-22.2-3.5-6.5-8.9-7.9-16.5-4.2zm45.7 57.2c-1 5.8.1 11.8 3.6 18.8 1.7 3.3 2.1 4.9 1.3 4.9-3.4 0-9.2 2.4-13.3 5.5L313 443v-3.3c0-4.6-2.6-12.9-5-16-2.4-3-2.5-3.7-.5-3.7 4.8 0 18.5-10.5 18.5-14.2 0-.6.2-.9.4-.7.2.2 0 2.6-.5 5.2zm-54.4 49.5l1.4 4.2-3.7 1.6c-2 .8-4.9 2.6-6.3 4l-2.7 2.5-.6-4.3c-.4-2.4-1.7-6.7-3.1-9.6l-2.4-5.2h2.3c2.7 0 11.5-5.4 11.7-7.2.1-.7.6 1.2 1.1 4.2.5 3 1.6 7.4 2.3 9.8zm35.5 10.5c0 1.2 1.4 5.1 3 8.5 3.5 7.4 3.5 7.2 1.5 7.2-2.1 0-7.5 2.8-10.1 5.2l-2.1 1.9-1.2-4.7c-.7-2.6-2.1-6.4-3.1-8.5-1.1-2.1-2-4-2-4.3 0-.2 2-1.4 4.4-2.5 2.4-1.2 5.1-3 6.1-4.1 2.1-2.3 3.5-1.8 3.5 1.3zM258.4 516c1.5 2.8 1.6 3.5.5 3.8-.8.3-3.1 2.2-5.2 4.4-2.3 2.5-3.9 3.4-4.1 2.6-.2-.7-.9-3.3-1.6-5.8-.7-2.5-2.3-6.6-3.6-9.2-2.9-5.8-2.9-5.8 0-5.8 1.2 0 3.8-1 5.7-2.3l3.4-2.3 1.6 5.6c.8 3 2.3 7.1 3.3 9zm36.1 10.7c1 2.7 3.2 6.9 5 9.4l3.2 4.5-4.8 2.3c-2.9 1.3-5.9 3.6-7.2 5.6l-2.3 3.4-1.2-5.7c-.7-3.1-2.4-7.9-3.8-10.6-1.3-2.7-2.3-5-2.2-5.1.2-.1 2.2-1.2 4.6-2.4 2.3-1.2 4.8-3 5.4-4.1.7-1.1 1.3-2 1.4-2 .1 0 .9 2.1 1.9 4.7zm287.6-171.1c-1.2 1.5-2.1 3.8-2.1 5.1 0 6.3 6.5 12.2 11.4 10.3 6.4-2.4 7.2-10.7 1.5-15.4-4-3.4-8.1-3.4-10.8 0zm-180.6.2c-8.1 3.8-13.6 12.3-14.3 22.3-.5 7.9 1.3 12.7 6.5 16.6 12.4 9.4 30.3-3.1 30.3-21.2 0-14.6-10.9-23.1-22.5-17.7zm-183.3 4.7c-3.5 2.9-9.4 13.8-11.6 21.4-.9 3-1.6 8.2-1.6 11.6 0 14.5 8.3 13.7 16-1.5 6-11.8 8-28 4-32-2.6-2.6-3.2-2.5-6.8.5zm-23.1 5.6c-.1.4-2.1 7.8-4.6 16.4-2.5 8.7-4.4 16-4.1 16.2.2.3.7-.4 1-1.4.3-1 2.3-8 4.6-15.6s3.9-14.3 3.6-15c-.2-.7-.5-.9-.5-.6zm245.8 4.2c-12.5 6.7-14.8 28-3.7 35.8 3.7 2.7 10.4 3.5 15.2 1.9 7.2-2.3 13.5-11.5 13.6-19.5 0-15.9-12.4-24.9-25.1-18.2zm45.4 11.6c-7.5 3.4-11.7 13-9.9 22.6.9 4.6 6.6 11 11.2 12.5 7.4 2.5 16.9-2.1 20-9.7 2.9-6.8.7-18.1-4.2-22.5-2.4-2.1-8.7-4.8-11.1-4.8-1 0-3.7.9-6 1.9zm-295.1 7.3c-4.7 10.2-9.1 36.5-6.4 38.2 3.6 2.2 12.8-32 10.8-39.9-.9-3.6-2.1-3.1-4.4 1.7zm342.9 3.5c-14 7.3-9.3 30.6 6.2 30.6 8.5 0 14.7-6.3 14.7-15.1 0-11.5-11.8-20.3-20.9-15.5zm47.2 11.8c-3.4 3.4-3.5 3.8-3.1 9.2.4 4.9 1 6.1 4.1 9 10.8 9.9 24.7-4.5 15.6-16.1-5-6.4-11.5-7.2-16.6-2.1z"/><path d="M382.1 404.7c-10.7 5.3-17.4 20.2-14.2 31.9 5.8 21.5 33.5 20.8 40.7-1 2.4-7 1.5-17-2-23-5-8.6-16-12.1-24.5-7.9zm-186.5 5.5c-5.6 9.6-8.4 30.8-5.1 39.3 1.5 4 2 4.6 4.4 4.3 5.3-.6 11.1-17.7 11-32.8 0-10-1.6-14.4-5.1-14.8-2.2-.3-3.1.4-5.2 4zm437.1 1.6c-2.5 2.8-2.1 7.8.8 10.7 3 3.1 5.8 3.2 8.6.4 1.7-1.7 2-2.9 1.5-5.8-1-6.2-7.3-9.3-10.9-5.3zm-201.9 6.6c-10.2 2.8-16.8 11.8-16.8 23.1 0 24.4 28.2 31.2 39.6 9.5 2.7-5.1 2.5-16.2-.3-21.6-4.9-9.2-13.6-13.5-22.5-11zm46.8 14.1c-5.8 2.1-8.8 4.6-11.6 10.1-7.3 14.1 2.1 30.4 17.4 30.4 15-.1 24-16.6 16.7-30.8-2.4-4.7-4.5-6.6-10.1-9.1-5.3-2.4-7.1-2.5-12.4-.6zm-296.7 3c-1.9 3.1-3.9 30-3 38 1.1 8.6 2.9 2.5 4.2-14.1 1-13.7.4-26.7-1.2-23.9zm345.6 9.3c-4.8 2.3-6.9 4.5-9 9.5-2.1 5-1.9 9.3.6 14.5 5.5 11.3 19.6 14.4 27.6 6 4.4-4.7 5.6-7.5 5.7-13.2.1-13.3-13.3-22.3-24.9-16.8zm51.1 12.5c-5.9 5.6-6.9 10.4-3.6 17.2 5 10.3 18.1 11 24 1.2 3.8-6.1 2.1-13.9-4-19.1-2.5-2-4.2-2.6-8-2.6-4.1 0-5.4.5-8.4 3.3zm-393.4 2.4c-2.5 5.7-2.3 31.7.4 39.3 2.3 6.6 4.5 7.5 7 2.8 2.3-4.3 3.2-26.1 1.4-35.1-2.1-10.9-5.7-13.8-8.8-7zm448.5 4.4c-5.2 3-5.8 12.1-1 15.9 5.8 4.5 14.3.1 14.3-7.5 0-6.8-7.7-11.7-13.3-8.4zm-217.6 6.2c-4.8 1.9-10.8 7.2-13.3 12-3.3 6.1-3.1 16.4.4 23.2 3.2 6.1 5.9 8.7 11.8 11.4 5.9 2.7 11.4 2.6 17.5-.3 9.6-4.4 14.1-12.8 13.3-24.6-.7-8.8-4.3-15.1-10.9-19.3-5.4-3.3-13.6-4.4-18.8-2.4zm47.9 15.9c-6.7 3.6-11 11.2-11 19.3 0 22.3 25.9 31.5 38.5 13.7 2.8-4 3-5 3-12.6 0-7.3-.3-8.7-2.8-12.4-6.2-9.5-18.3-12.9-27.7-8zM178.5 496c1.3 16.3 2.9 27.3 3.6 25.5.6-1.5.8-1.1.8 1.7.1 4.4 2.5 16.4 4.7 23.3 2 6 4.4 9.2 5.6 7.3 2.7-4.4-1.7-32.1-6.6-41.7-2-3.8-3.4-4-4.2-.4-.3 1.6-.7 3.2-.8 3.8-.2.5-.6-3.1-1-8-.4-5-1.2-10.8-1.6-13-.8-3.6-.9-3.5-.5 1.5zm342.1 1.4c-7.8 2.9-12.6 9.9-12.6 18.4 0 6.2 1.3 9.8 4.8 13.6 4.9 5.2 13.2 7.1 19.9 4.5 6.8-2.5 12.3-11 12.3-18.9 0-12.1-13.3-21.7-24.4-17.6zm54.4 11.7c-12.4 5-13.6 23.3-2 29.1 4.7 2.4 8.7 2.2 13.5-.5 7.7-4.4 10.9-15.3 6.5-22.4-3.5-5.8-11.8-8.6-18-6.2zm50.4 12.3c-2.9 2.9-3.4 4.1-3.4 8.1 0 3.8.5 5.2 2.9 7.6 3.3 3.2 6.7 3.7 11 1.5 7.3-3.8 8.8-14.9 2.6-19-4.2-2.8-9.2-2.1-13.1 1.8zM404 523.9c-12.2 4-18.8 15.6-16 28.4 4.1 19.7 26.2 28.1 39.4 15 6.4-6.3 8.8-18.9 5.2-27.5-4.7-11.2-18.9-19.1-28.6-15.9zm-206.4 9.3c-4.8 6.9 1.7 35 10.2 44 3.6 3.9 6 3.6 7.9-.9 3.8-9.2-4.7-38-12.9-43.7-2.9-2.1-3.4-2-5.2.6zm257.9 6.3c-8.5 3.3-13.9 11.4-13.9 21 0 7.2 2.4 12.5 8.3 17.8 14.2 12.8 36.3 1.3 34.9-18.2-1.1-15-16.1-25.6-29.3-20.6zm54 13.9c-3.8 1.7-9 7.2-10.4 10.9-1.4 3.6-1.4 10.8 0 14.4 2.5 6.8 9.7 11.6 17.4 11.6 12.7 0 21.5-11 19.1-23.8-.8-4.3-6.8-11.3-11.3-13.2-4.1-1.7-10.9-1.6-14.8.1zM191 563.2c-.1 6.2 12.5 39.3 13.7 36.1 1-2.6-6.8-25.8-11.7-35.2-1.9-3.5-1.9-3.5-2-.9zm376.1.5c-3.7.7-10.9 8.6-11.7 12.8-.9 5.2 1 10.8 5.1 14.4 3 2.6 4.4 3.1 8.9 3.1 9.6 0 16.6-7 16.6-16.6 0-4.2-.5-5.9-2.6-8.4-4.5-5.3-8.8-6.7-16.3-5.3zm52.9 10.1c-6.7 3.3-10 11.9-6.5 16.8 3.8 5.5 12 5.1 17-.7 4.8-5.8 4.3-11.7-1.5-15.7-4-2.7-4.5-2.7-9-.4zm-228.6 6.1c-7.4 3.4-12.2 12.4-11 20.9 1.9 13.8 13.9 24.1 26.8 22.9 11.3-1 18.2-8.6 18-19.8-.1-7-1.9-11.4-6.9-16.9-7.3-8.2-18.2-11-26.9-7.1zm-187 4.5c-1.3 3.4 5.2 22.2 10.6 30.6 11.8 18.5 13.8 4.4 2.5-18.1-5.5-10.8-11.5-16.6-13.1-12.5zm243.4 9.5c-8.7 2.8-13.8 9.4-13.8 18 0 13.7 14.1 24.6 27.2 21 5.6-1.5 12.2-8 13.7-13.6 2.2-8.2-2.2-18.1-10.3-22.8-4.8-2.8-12.4-4-16.8-2.6zm-220.4 12.7c-2.6 10.1 10.4 34.2 20.6 38.4 9.8 4.1 7.4-13.9-4-30.5-6.2-9-15.3-13.3-16.6-7.9zm272.1 1.3c-4.6 2-9.2 7-10.1 10.7-1 4.1.2 11 2.5 14.2 4.8 6.9 17.1 9.3 24.3 4.9 12.7-7.7 12.4-23.4-.5-29.6-5.3-2.6-10.9-2.6-16.2-.2zM209 612.2c0 1 10.1 19.8 10.6 19.8s-4.2-9.4-8-16c-1.4-2.5-2.6-4.2-2.6-3.8zm129 1.7c-5.4 2.8-8.2 8.4-7.7 15.2.8 10.2 7 18.9 16.9 23.9 7.2 3.6 12.8 3.9 17.6 1 5.3-3.3 7.4-7.5 7-14.5-.7-10.9-7.2-20-18.2-25.1-6.1-2.9-10.9-3-15.6-.5zm219.3 3.1c-10.2 2.4-16 12-12 20 5.2 10.2 21.8 8.7 27.2-2.6 3.2-6.7.2-13.9-7.2-17-3.5-1.5-3.4-1.5-8-.4zm-299.4 8.7c-.8.9-1.4 3.8-1.3 6.7.2 16.8 25.6 40.5 31.5 29.4 2.8-5.2-1-17.4-8.3-26.6-7.4-9.3-18.2-14-21.9-9.5zm349.4.7c-3.6 1.6-7.3 6.9-7.3 10.4 0 3.3 4.3 7.2 8 7.2 6.6 0 12-5.3 12-11.8 0-5.5-6.6-8.5-12.7-5.8zm-219.8 3.1c-4.5 1.6-9.1 6.5-10 10.7-3 13.2 13.6 29.7 27.4 27.3 8.5-1.4 13.5-7.3 13.4-15.7-.1-9.7-7.8-19.4-17.7-22.3-6-1.8-7.9-1.8-13.1 0zm-166.2 2.9c.1 1.9.4 3.2.6 3 .2-.2 1.8 2.1 3.5 5.1 4.6 8.1 13.5 20.5 15.2 21.2 2.6 1 2.6-.4 0-5.9-4.6-9.8-16.5-26.8-18.7-26.8-.5 0-.8 1.5-.6 3.4zm222.2 10.1c-.5.2-2.2.6-3.7.9-4.1.9-9.6 6.3-10.8 10.5-3.8 14.2 15.6 27.6 29.7 20.4 5.2-2.6 8.8-9.6 7.8-15.2-.9-5.5-5.5-11.4-10.7-13.9-4.3-2.1-10.4-3.4-12.3-2.7zm-148.4 3.1c-4.3 5.5-.9 16.8 7.7 25.7 16.9 17.4 32.9 9.8 22.5-10.6-6.9-13.7-24.4-22.4-30.2-15.1zm-52.1 5.9c0 5.7 10.8 22 18.2 27.4 7.5 5.5 9.9 3.2 5.7-5.2-6.3-12.4-17.7-24.7-22.9-24.7-.5 0-1 1.1-1 2.5zm250.5 3.4c-10.6 2.7-15.2 13-9.5 21.1 8.8 12.3 30 6.9 30-7.7 0-8.8-10.8-15.8-20.5-13.4zm-153.2 5.6c-12.4 5.4-2.3 27.7 15 33 6.1 1.8 10.1 1 13.2-2.7 3.4-4 3.2-8.1-.6-15.7-3.6-7.2-9.6-12.2-17.3-14.6-5.9-1.8-6.2-1.8-10.3 0zm201 6c-3.6 1.5-7.3 6.7-7.3 10.2 0 3.5 1.9 6.8 5 8.6 10.1 6 25.2-5.6 20-15.4-2.5-4.5-11.3-6.2-17.7-3.4zm-268.5 1.6c-1 .5-1.8 1.8-1.8 2.7 0 3.7 5.2 12.6 10.7 18.3 8.5 9 14.8 12.3 17.7 9.4 3.1-3.1-.6-11.3-9-20.4-7.9-8.5-14.1-12.1-17.6-10zm-25.8 4.4c0 1.1 11.5 14.7 16.1 19 5.1 4.7 3.9 3-5.7-8.5-7.2-8.6-10.4-11.8-10.4-10.5zm342.9 3.4c-3.7 3.7-3.8 7.5-.4 9.7 5.2 3.4 13.5-1.4 13.5-7.8 0-5.5-8.3-6.7-13.1-1.9zm-204.6-.4c-10.3 4.5-6.5 19.9 6.6 26.7 6.7 3.5 14.5 3.9 18.4.8 13.5-10.7-8.4-34.8-25-27.5zm-77.7 11.1c-3.6 3.5-.2 11.9 7.9 19.3 8.8 7.9 16.6 10.9 19.9 7.5 2.2-2.1 2-4.2-.9-10.1-3.1-6.1-9.4-12.2-16.4-15.7-5.8-3-8.3-3.2-10.5-1zm125.7 1.9c-3.3 1.4-6.3 5.9-6.3 9.5 0 7.1 10.5 16 19 16 4.2 0 9.4-2.3 11.4-5.1.9-1.3 1.6-4.3 1.6-6.6 0-10.4-15-18.5-25.7-13.8zM267 690.3c0 4.2 21.6 25.4 23.7 23.3 1-1-4.5-8.1-12-15.3-8-7.8-11.7-10.3-11.7-8zm214.3 9.7c-6.6 4-7.1 9.4-1.4 15.1 3.6 3.6 4.3 3.9 9.5 3.9 7.1 0 11.3-2.1 13.2-6.6 1.2-3 1.2-3.9 0-6.9-3-7-14.1-9.9-21.3-5.5zm-132.3.9c-2.9.8-4.6 4.7-3.6 8.5 1.7 6.8 15.9 17.6 23.1 17.6 6.2 0 8.4-6.2 4.4-12.6-3.1-5-10.4-11.1-15.6-12.8-2.6-.9-4.9-1.6-5.2-1.5-.3.1-1.7.4-3.1.8zm-55.5 6.2c-2.2 3.5 17.8 21.9 24 21.9 5.2 0-4.2-12.1-14.9-19.1-6.1-4.1-8-4.6-9.1-2.8zm239-.4c-3.4.9-6.3 3.3-7.5 6.3-1 2.5-1 3.4.4 5.5 3.4 5.2 10.9 5.6 16.6.9 3.6-3.1 4.1-8.1 1.1-10.8-2-1.8-7.4-2.8-10.6-1.9zm-141 7c-3.5.9-5.5 3.4-5.5 7.1 0 2.8.9 4.4 4.8 8.2 8.7 8.6 19.8 10.4 23 3.6 4-8.3-11.6-21.5-22.3-18.9zm186.5 0c-4.8 1.8-6.5 6.4-3 8.3 2.5 1.3 6.6-.4 8.7-3.6 1.2-1.9 1.2-2.4-.2-3.8-1.7-1.6-2.9-1.8-5.5-.9zm-252.3 8c-1.8 1.7-.2 4.9 4.6 9.8 7.6 7.6 18.3 12.6 20.2 9.5 3-4.9-20.8-23.4-24.8-19.3zM303 728c5.3 4.7 14.8 11.5 15.4 10.9.5-.4-15.5-12.8-18.3-14.2-.9-.5.4 1 2.9 3.3zm128.5-.5c-1.4 1.3-2.5 3.2-2.5 4.1 0 3.3 4.1 8.3 8.6 10.5 11.5 5.5 22.2-2.3 14.9-10.9-5.4-6.4-16.4-8.4-21-3.7zm-71.5 8c-1.8 2.2 1.6 7.3 8 11.8 7.3 5.1 12.5 6.6 14.8 4.4 1.5-1.6 1.5-1.9-.2-5.2-2.2-4-6.7-7.8-12.8-10.5-5.2-2.4-8.1-2.5-9.8-.5zm118.3-.5c-1.2.5-2.9 2-3.8 3.3-4.8 7.4 10.5 14.8 17 8.2 1.4-1.3 2.5-3.1 2.5-4 0-6-8.9-10.2-15.7-7.5zM323 738.7c0 2.1 19.7 15 20.9 13.7.8-.7-6.3-6.6-12.4-10.3-6-3.6-8.5-4.6-8.5-3.4zm195.7 5.1c-2.7 2.9-2.1 5.8 1.3 7.2 3.6 1.5 8.4-.1 10.1-3.2 2.5-4.7-7.6-8.2-11.4-4zm-119.4 2.3c-5.1 1.9-1.4 8.4 7.4 12.8 5 2.5 8.6 2.7 10.7.5 2.1-2 2.1-2.1-1-6.1-4-5.3-12.7-9-17.1-7.2zm-48.3 5.8c0 2.3 18.3 13.2 19.7 11.7 1.1-1.1-4.7-6.3-10.7-9.5-5.8-3.1-9-3.9-9-2.2zm85.8 4.2c-5.8 3.3 4.8 12.3 12.7 10.7 2.7-.5 4.2-3.4 2.9-5.6-3.1-4.9-11.3-7.6-15.6-5.1zm-55.8 6.3c0 1.6 3.5 4.3 9.7 7.5 4.4 2.2 8.3 2.8 8.3 1.2 0-1.4-5.9-5.7-11-8-5.4-2.4-7-2.6-7-.7zm-20.7 1.7c3.1 1.8 12.7 5.9 12.7 5.4 0-.3-3-1.8-6.6-3.5-6.6-3-9.5-3.9-6.1-1.9zm114-.4c-2.1.8-1.5 4.2 1.1 5.8 3 2 8.5 1.6 10-.7 2.3-3.8-5.5-7.4-11.1-5.1zm36.7 6.8c-1 1.2-.9 1.6.3 2.1 1.9.7 6-1.4 5.2-2.7-.9-1.4-4.1-1.1-5.5.6zm-97.6.7c-1.6 2.5 10.8 9 13 6.8 1.3-1.3-1.2-4-5.9-6.1-4.7-2.2-6.1-2.3-7.1-.7zm-28.2 2.9c2.5 1.4 9.8 3.9 9.8 3.3 0-.8-8.3-4.4-10-4.3-1.2 0-1.1.2.2 1zm59.8 4.8c0 1.7 4.3 4.1 7.2 4.1 3.2 0 3.6-1.6 1.1-3.6-2.1-1.5-8.3-1.9-8.3-.5zm-36 1.6c0 1 6.3 3.6 7.8 3.3 1-.2-.3-1.1-3-2-2.7-.9-4.8-1.5-4.8-1.3zm67.7 3.1c-1.2 1.2.3 2.2 2.3 1.7 1.1-.3 1.7-.9 1.4-1.4-.6-1-2.8-1.2-3.7-.3zm-42.2 3.2c.6.6 2.4 1.3 4 1.7 2.1.4 2.5.3 1.5-.3-2.4-1.5-6.7-2.6-5.5-1.4z"/></svg>