<?xml version="1.0" standalone="no"?>
<!DOCTYPE svg PUBLIC "-//W3C//DTD SVG 20010904//EN"
 "http://www.w3.org/TR/2001/REC-SVG-20010904/DTD/svg10.dtd">
<svg version="1.0" xmlns="http://www.w3.org/2000/svg"
 width="966.000000pt" height="966.000000pt" viewBox="0 0 966.000000 966.000000"
 preserveAspectRatio="xMidYMid meet">
<metadata>
Created by potrace 1.14, written by Peter Selinger 2001-2017
</metadata>
<g transform="translate(0.000000,966.000000) scale(0.100000,-0.100000)"
fill="#000000" stroke="none">
<path d="M4158 9218 l-3 -442 -130 -26 c-530 -110 -1019 -319 -1468 -626
l-108 -74 -117 39 c-147 50 -245 70 -380 78 -243 14 -513 -51 -727 -174 -81
-46 -222 -151 -262 -195 l-22 -24 309 -309 c171 -171 310 -313 310 -317 0 -3
-31 -53 -68 -110 -294 -443 -501 -954 -597 -1475 -14 -74 -25 -139 -25 -144 0
-5 -5 -9 -11 -9 -6 0 -50 -18 -97 -40 -435 -204 -730 -632 -758 -1102 l-7
-108 443 -2 442 -3 28 -135 c107 -522 345 -1075 642 -1490 58 -80 60 -86 49
-115 -34 -84 -63 -177 -83 -269 -30 -133 -32 -377 -5 -505 54 -252 162 -474
313 -639 l57 -64 313 313 312 312 124 -80 c323 -211 678 -378 1038 -486 132
-40 389 -100 503 -118 42 -6 77 -16 77 -22 0 -5 20 -52 44 -103 124 -262 346
-488 604 -618 157 -79 381 -136 535 -136 l67 0 0 439 c0 410 1 440 18 445 9 2
55 12 102 21 490 94 1017 316 1454 612 l139 94 81 -30 c293 -110 608 -119 894
-25 175 59 353 161 473 272 l60 55 -310 311 c-171 171 -311 314 -311 318 0 3
31 53 68 110 295 444 501 953 597 1475 14 74 25 139 25 144 0 5 6 9 14 9 8 0
64 25 124 55 319 160 554 429 666 766 40 118 66 262 66 362 l0 67 -440 0 -440
0 -5 23 c-2 12 -19 87 -36 167 -108 501 -329 1006 -632 1439 l-59 84 31 81
c113 301 120 600 20 901 -61 184 -145 330 -270 468 l-52 59 -311 -311 c-171
-171 -315 -311 -319 -311 -5 0 -36 20 -70 44 -162 115 -455 274 -683 371 -240
103 -618 214 -886 260 -58 10 -98 22 -98 29 0 28 -114 240 -171 317 -120 163
-297 313 -477 403 -155 78 -383 136 -534 136 l-68 0 -2 -442z m932 -978 c459
-39 852 -148 1260 -351 458 -228 831 -528 1149 -924 405 -504 647 -1087 733
-1765 17 -139 17 -600 0 -745 -69 -565 -256 -1074 -562 -1530 -124 -185 -244
-329 -420 -506 -300 -301 -553 -482 -925 -664 -451 -220 -895 -328 -1405 -342
-808 -22 -1552 225 -2210 733 -144 111 -439 404 -554 549 -398 504 -637 1074
-723 1720 -21 163 -24 628 -5 785 69 565 252 1067 553 1520 140 210 250 343
443 535 182 181 325 298 526 431 494 325 1054 515 1650 557 106 8 384 6 490
-3z"/>
<path d="M4461 7894 c-18 -8 -31 -17 -29 -19 5 -5 98 24 98 31 0 8 -36 2 -69
-12z"/>
<path d="M4044 7855 c-17 -13 -15 -13 21 -4 49 14 56 19 24 19 -14 0 -34 -7
-45 -15z"/>
<path d="M4449 7838 c-38 -20 -57 -34 -47 -36 18 -3 112 41 123 58 11 17 -9
11 -76 -22z"/>
<path d="M4060 7813 c-54 -19 -130 -57 -130 -65 0 -12 28 -4 103 29 31 14 57
30 57 34 0 10 -7 10 -30 2z"/>
<path d="M4505 7804 c-55 -29 -95 -59 -95 -71 0 -17 5 -16 43 3 43 23 97 64
97 75 0 12 -10 11 -45 -7z"/>
<path d="M3643 7770 c-13 -5 -23 -12 -23 -15 0 -9 16 -5 36 10 22 16 19 18
-13 5z"/>
<path d="M4529 7728 c-47 -37 -67 -63 -56 -75 19 -19 117 62 117 96 0 18 -16
13 -61 -21z"/>
<path d="M4035 7732 c-69 -29 -135 -72 -135 -88 0 -18 22 -13 95 24 62 31 105
60 105 73 0 13 -19 10 -65 -9z"/>
<path d="M3558 7673 c-62 -32 -84 -53 -58 -53 14 0 119 54 145 74 l20 15 -20
0 c-11 0 -50 -16 -87 -36z"/>
<path d="M4606 7650 c-34 -38 -43 -59 -30 -73 19 -19 94 58 94 96 0 28 -26 19
-64 -23z"/>
<path d="M4054 7645 c-91 -45 -167 -125 -119 -125 43 0 205 112 205 141 0 16
-35 9 -86 -16z"/>
<path d="M3541 7585 c-63 -34 -121 -80 -121 -97 0 -25 82 11 167 74 89 66 60
80 -46 23z"/>
<path d="M4730 7586 c-24 -40 -23 -69 2 -74 21 -4 60 54 56 83 -5 34 -34 29
-58 -9z"/>
<path d="M3192 7550 c-34 -22 -62 -44 -62 -50 0 -13 62 20 106 55 50 40 20 37
-44 -5z"/>
<path d="M4136 7569 c-58 -31 -104 -70 -127 -106 -58 -93 63 -54 159 51 62 67
45 97 -32 55z"/>
<path d="M4900 7529 c-16 -30 -9 -64 14 -64 25 0 43 49 26 70 -17 20 -27 19
-40 -6z"/>
<path d="M3581 7495 c-115 -66 -179 -131 -153 -157 28 -28 268 138 248 171
-12 18 -48 12 -95 -14z"/>
<path d="M4217 7465 c-51 -39 -102 -116 -93 -140 3 -9 18 -15 34 -15 55 0 174
133 158 176 -9 24 -51 15 -99 -21z"/>
<path d="M3130 7444 c-114 -76 -168 -152 -70 -98 69 38 172 133 145 134 -11 0
-45 -16 -75 -36z"/>
<path d="M2944 7408 l-19 -23 23 19 c12 11 22 21 22 23 0 8 -8 2 -26 -19z"/>
<path d="M3634 7379 c-91 -57 -163 -141 -150 -175 6 -17 49 -18 79 -3 77 40
187 153 187 193 0 27 -61 19 -116 -15z"/>
<path d="M4367 7370 c-67 -61 -86 -128 -45 -154 47 -29 152 81 146 154 -3 30
-7 35 -30 38 -20 2 -38 -7 -71 -38z"/>
<path d="M3094 7311 c-72 -50 -99 -77 -129 -123 -16 -26 -16 -28 0 -35 11 -4
36 3 63 17 54 29 182 151 182 174 0 30 -45 17 -116 -33z"/>
<path d="M2793 7255 c-43 -42 -68 -71 -55 -65 33 16 148 127 140 135 -3 4 -42
-28 -85 -70z"/>
<path d="M4584 7311 c-32 -19 -74 -92 -74 -127 0 -28 28 -64 49 -64 25 0 68
36 86 70 20 38 19 104 -1 124 -20 20 -22 20 -60 -3z"/>
<path d="M3770 7281 c-77 -41 -160 -142 -160 -193 0 -37 26 -49 71 -34 56 19
97 53 146 119 33 46 43 68 41 91 -3 26 -7 31 -33 33 -16 2 -46 -6 -65 -16z"/>
<path d="M4817 7229 c-45 -26 -64 -131 -29 -162 66 -60 150 73 92 146 -23 29
-35 32 -63 16z"/>
<path d="M3169 7210 c-90 -47 -202 -182 -186 -223 18 -48 149 27 229 131 56
74 63 112 21 112 -16 -1 -44 -10 -64 -20z"/>
<path d="M2753 7161 c-55 -43 -117 -112 -139 -153 -13 -26 -13 -28 3 -28 22 0
203 182 203 204 0 24 -14 20 -67 -23z"/>
<path d="M3935 7172 c-72 -45 -145 -149 -145 -205 0 -27 28 -57 54 -57 27 0
88 36 123 72 47 49 88 144 77 177 -12 34 -65 40 -109 13z"/>
<path d="M5075 7130 c-40 -44 -12 -130 41 -130 38 0 58 40 44 89 -16 59 -53
76 -85 41z"/>
<path d="M3271 7078 c-103 -51 -214 -203 -191 -262 39 -103 300 119 288 246
-4 42 -35 48 -97 16z"/>
<path d="M4155 7066 c-34 -15 -96 -80 -120 -126 -25 -48 -17 -118 16 -143 24
-17 31 -18 64 -7 105 35 186 209 125 270 -23 23 -43 24 -85 6z"/>
<path d="M5387 7053 c-12 -12 -7 -60 8 -73 19 -16 49 -9 53 13 7 36 -40 82
-61 60z"/>
<path d="M2752 7030 c-78 -48 -192 -191 -192 -242 0 -52 53 -26 142 71 71 77
115 149 105 174 -8 22 -15 21 -55 -3z"/>
<path d="M2487 6948 c-58 -70 -97 -123 -97 -133 0 -8 92 102 130 155 34 47 16
35 -33 -22z"/>
<path d="M4420 6959 c-39 -16 -71 -50 -96 -104 -27 -58 -30 -94 -9 -134 38
-75 143 -43 196 60 33 65 18 153 -30 179 -23 12 -28 12 -61 -1z"/>
<path d="M3407 6929 c-86 -57 -167 -174 -167 -241 0 -35 32 -68 66 -68 120 0
299 254 228 324 -25 25 -76 19 -127 -15z"/>
<path d="M2793 6871 c-46 -29 -110 -97 -151 -160 -60 -94 -53 -173 15 -156 40
9 163 139 196 207 36 71 35 122 -3 126 -14 1 -39 -7 -57 -17z"/>
<path d="M4723 6862 c-30 -5 -80 -63 -94 -111 -16 -55 -5 -105 32 -135 35 -30
58 -32 100 -11 45 24 69 70 69 137 0 82 -43 130 -107 120z"/>
<path d="M2418 6818 c-47 -51 -148 -208 -148 -231 0 -19 4 -17 35 13 40 39
138 181 154 223 14 37 -2 35 -41 -5z"/>
<path d="M3656 6815 c-87 -31 -186 -171 -186 -263 0 -82 67 -115 149 -72 123
62 205 272 131 332 -26 21 -42 22 -94 3z"/>
<path d="M5015 6734 c-96 -104 28 -273 127 -174 28 29 30 35 26 86 -9 101 -95
151 -153 88z"/>
<path d="M2888 6701 c-132 -84 -221 -306 -139 -347 70 -36 208 84 262 227 49
129 -13 189 -123 120z"/>
<path d="M3873 6661 c-78 -56 -123 -139 -123 -223 0 -43 4 -54 34 -84 39 -39
70 -43 131 -15 124 56 190 274 102 336 -36 25 -98 19 -144 -14z"/>
<path d="M2372 6624 c-96 -107 -166 -284 -113 -284 39 0 159 164 196 270 31
88 -11 96 -83 14z"/>
<path d="M5392 6657 c-41 -49 -31 -126 21 -157 42 -26 53 -25 82 5 18 17 25
35 25 61 0 66 -94 133 -128 91z"/>
<path d="M5796 6564 c-11 -28 -6 -50 12 -67 51 -46 101 14 52 63 -24 24 -56
26 -64 4z"/>
<path d="M3077 6539 c-55 -36 -94 -81 -133 -153 -23 -41 -29 -64 -29 -118 0
-57 4 -70 24 -92 47 -50 128 -29 206 55 68 72 100 148 100 232 0 60 -3 71 -24
88 -35 29 -89 25 -144 -12z"/>
<path d="M4232 6562 c-67 -21 -139 -116 -148 -199 -22 -182 184 -221 274 -52
20 37 23 55 20 117 -3 64 -7 75 -33 102 -32 31 -75 43 -113 32z"/>
<path d="M2464 6491 c-66 -40 -162 -200 -171 -285 -11 -90 13 -118 74 -90 101
48 223 322 168 377 -21 22 -33 21 -71 -2z"/>
<path d="M2091 6309 c-39 -78 -71 -151 -71 -163 1 -21 1 -21 17 -1 18 23 115
224 131 273 25 74 -11 23 -77 -109z"/>
<path d="M4575 6436 c-66 -29 -115 -113 -115 -195 0 -70 66 -141 131 -141 12
0 42 9 66 21 136 66 120 300 -22 324 -16 3 -44 -1 -60 -9z"/>
<path d="M3345 6394 c-48 -24 -110 -92 -140 -150 -49 -96 -46 -191 6 -244 25
-24 39 -30 75 -30 83 0 157 57 210 163 32 62 43 161 24 207 -27 66 -106 90
-175 54z"/>
<path d="M4965 6326 c-38 -17 -60 -41 -80 -89 -20 -49 -19 -82 6 -133 68 -142
249 -88 249 74 0 57 -27 104 -79 139 -39 26 -54 28 -96 9z"/>
<path d="M2595 6312 c-90 -56 -167 -193 -173 -309 -4 -70 -3 -73 27 -104 27
-26 37 -30 64 -25 100 20 209 194 211 338 1 57 -2 70 -23 92 -29 31 -64 33
-106 8z"/>
<path d="M2101 6211 c-43 -67 -95 -201 -106 -272 -5 -34 -3 -48 8 -57 22 -19
69 43 112 147 43 103 58 157 53 201 -5 52 -24 47 -67 -19z"/>
<path d="M3628 6231 c-152 -96 -187 -335 -58 -401 45 -23 60 -24 113 -9 124
34 212 226 162 355 -33 87 -129 111 -217 55z"/>
<path d="M5367 6210 c-51 -40 -58 -131 -15 -185 73 -93 198 -53 198 63 0 108
-109 180 -183 122z"/>
<path d="M2802 6129 c-123 -61 -208 -280 -155 -401 27 -59 78 -86 134 -69 45
14 91 51 130 105 16 21 29 37 29 35 0 -2 -7 -22 -15 -44 -19 -55 -18 -129 4
-192 11 -34 14 -53 7 -53 -37 0 -94 -27 -131 -61 l-42 -39 -6 73 c-10 132 -52
197 -129 197 -54 0 -102 -24 -143 -73 l-34 -40 11 39 c15 54 14 174 -2 204
-42 82 -96 92 -159 32 -149 -141 -157 -472 -13 -472 29 0 43 8 77 44 l43 44
-5 -62 c-3 -41 2 -85 15 -133 l18 -73 -24 0 c-35 0 -76 -28 -104 -71 l-25 -39
-5 93 c-8 140 -49 217 -117 217 -78 0 -153 -191 -135 -344 13 -114 61 -196
113 -196 27 0 69 36 91 78 l19 37 1 -80 c1 -72 12 -123 44 -197 6 -13 2 -20
-15 -27 -26 -10 -70 -53 -87 -86 -9 -17 -11 -15 -16 20 -19 117 -29 155 -54
205 -15 30 -39 63 -54 74 -26 18 -28 18 -53 2 -46 -30 -59 -78 -60 -206 0
-141 26 -238 79 -294 51 -54 87 -45 119 32 l13 32 17 -74 c20 -94 59 -176 106
-226 63 -66 119 -63 168 9 19 29 23 31 23 13 0 -38 41 -131 81 -184 43 -57 43
-55 -20 -90 -16 -9 -39 -34 -50 -55 -15 -28 -20 -33 -21 -17 0 39 -42 144 -80
203 -49 76 -109 119 -148 105 -57 -20 -75 -104 -47 -222 37 -156 135 -278 217
-270 28 3 36 10 55 48 13 26 22 37 23 26 0 -29 66 -146 111 -199 138 -160 283
-82 235 127 -19 80 -53 146 -101 197 l-34 37 41 6 c31 5 51 17 78 46 40 43 50
48 50 25 0 -33 52 -127 95 -174 l46 -49 -35 -6 c-78 -15 -124 -87 -111 -174
15 -103 103 -230 189 -274 48 -25 116 -27 150 -4 46 29 61 64 60 137 0 86 -42
176 -113 243 -34 31 -45 46 -33 46 76 0 155 58 175 128 l14 46 6 -53 c12 -105
74 -193 169 -240 103 -52 200 -33 255 50 35 52 44 153 20 223 -50 147 -197
237 -319 197 -44 -15 -96 -68 -113 -117 l-13 -38 -7 45 c-11 68 -34 129 -71
190 -19 31 -34 59 -34 62 0 2 15 8 34 11 41 8 79 36 116 87 l27 38 13 -42 c42
-143 131 -227 240 -227 94 0 172 53 210 142 42 97 16 235 -60 322 -95 107
-249 113 -337 13 l-28 -32 -18 70 c-9 38 -33 93 -51 121 l-34 51 39 12 c44 13
101 59 126 102 21 35 33 37 33 5 0 -42 37 -145 65 -181 41 -54 96 -78 169 -73
112 7 189 71 222 186 33 112 -14 245 -108 308 -103 70 -208 47 -300 -64 l-28
-34 0 44 c0 64 -26 141 -64 191 l-33 43 48 17 c109 39 189 133 197 234 9 111
-37 222 -109 259 -72 37 -185 -2 -247 -86 l-27 -37 3 87 c3 72 0 95 -18 138
-49 114 -154 119 -260 12 -30 -30 -60 -64 -66 -75 -7 -11 -3 7 8 40 26 76 28
178 5 222 -35 65 -89 79 -165 42z m457 -572 c-10 -58 1 -118 36 -188 17 -33
21 -49 13 -49 -34 0 -92 -24 -133 -55 l-45 -35 0 33 c0 46 -26 129 -50 160
-24 30 -25 37 -5 37 48 0 185 105 185 142 0 6 2 9 4 7 2 -2 0 -26 -5 -52z
m-544 -495 l14 -42 -37 -16 c-20 -8 -49 -26 -63 -40 l-27 -25 -6 43 c-4 24
-17 67 -31 96 l-24 52 23 0 c27 0 115 54 117 72 1 7 6 -12 11 -42 5 -30 16
-74 23 -98z m355 -105 c0 -12 14 -51 30 -85 35 -74 35 -72 15 -72 -21 0 -75
-28 -101 -52 l-21 -19 -12 47 c-7 26 -21 64 -31 85 -11 21 -20 40 -20 43 0 2
20 14 44 25 24 12 51 30 61 41 21 23 35 18 35 -13z m-486 -457 c15 -28 16 -35
5 -38 -8 -3 -31 -22 -52 -44 -23 -25 -39 -34 -41 -26 -2 7 -9 33 -16 58 -7 25
-23 66 -36 92 -29 58 -29 58 0 58 12 0 38 10 57 23 l34 23 16 -56 c8 -30 23
-71 33 -90z m361 -107 c10 -27 32 -69 50 -94 l32 -45 -48 -23 c-29 -13 -59
-36 -72 -56 l-23 -34 -12 57 c-7 31 -24 79 -38 106 -13 27 -23 50 -22 51 2 1
22 12 46 24 23 12 48 30 54 41 7 11 13 20 14 20 1 0 9 -21 19 -47z"/>
<path d="M5821 6104 c-12 -15 -21 -38 -21 -51 0 -63 65 -122 114 -103 64 24
72 107 15 154 -40 34 -81 34 -108 0z"/>
<path d="M4015 6102 c-81 -38 -136 -123 -143 -223 -5 -79 13 -127 65 -166 124
-94 303 31 303 212 0 146 -109 231 -225 177z"/>
<path d="M2182 6055 c-35 -29 -94 -138 -116 -214 -9 -30 -16 -82 -16 -116 0
-145 83 -137 160 15 60 118 80 280 40 320 -26 26 -32 25 -68 -5z"/>
<path d="M1951 5999 c-1 -4 -21 -78 -46 -164 -25 -87 -44 -160 -41 -162 2 -3
7 4 10 14 3 10 23 80 46 156 23 76 39 143 36 150 -2 7 -5 9 -5 6z"/>
<path d="M4409 5957 c-125 -67 -148 -280 -37 -358 37 -27 104 -35 152 -19 72
23 135 115 136 195 0 159 -124 249 -251 182z"/>
<path d="M4863 5841 c-75 -34 -117 -130 -99 -226 9 -46 66 -110 112 -125 74
-25 169 21 200 97 29 68 7 181 -42 225 -24 21 -87 48 -111 48 -10 0 -37 -9
-60 -19z"/>
<path d="M1912 5768 c-47 -102 -91 -365 -64 -382 36 -22 128 320 108 399 -9
36 -21 31 -44 -17z"/>
<path d="M5341 5733 c-140 -73 -93 -306 62 -306 85 0 147 63 147 151 0 115
-118 203 -209 155z"/>
<path d="M5813 5615 c-34 -34 -35 -38 -31 -92 4 -49 10 -61 41 -90 108 -99
247 45 156 161 -50 64 -115 72 -166 21z"/>
<path d="M3821 5613 c-107 -53 -174 -202 -142 -319 58 -215 335 -208 407 10
24 70 15 170 -20 230 -50 86 -160 121 -245 79z"/>
<path d="M1956 5558 c-56 -96 -84 -308 -51 -393 15 -40 20 -46 44 -43 53 6
111 177 110 328 0 100 -16 144 -51 148 -22 3 -31 -4 -52 -40z"/>
<path d="M6327 5542 c-25 -28 -21 -78 8 -107 30 -31 58 -32 86 -4 17 17 20 29
15 58 -10 62 -73 93 -109 53z"/>
<path d="M4308 5476 c-102 -28 -168 -118 -168 -231 0 -244 282 -312 396 -95
27 51 25 162 -3 216 -49 92 -136 135 -225 110z"/>
<path d="M4776 5335 c-58 -21 -88 -46 -116 -101 -73 -141 21 -304 174 -304
150 1 240 166 167 308 -24 47 -45 66 -101 91 -53 24 -71 25 -124 6z"/>
<path d="M1809 5305 c-19 -31 -39 -300 -30 -380 11 -86 29 -25 42 141 10 137
4 267 -12 239z"/>
<path d="M5265 5212 c-48 -23 -69 -45 -90 -95 -21 -50 -19 -93 6 -145 55 -113
196 -144 276 -60 44 47 56 75 57 132 1 133 -133 223 -249 168z"/>
<path d="M5776 5087 c-59 -56 -69 -104 -36 -172 50 -103 181 -110 240 -12 38
61 21 139 -40 191 -25 20 -42 26 -80 26 -41 0 -54 -5 -84 -33z"/>
<path d="M1842 5063 c-25 -57 -23 -317 4 -393 23 -66 45 -75 70 -28 23 43 32
261 14 351 -21 109 -57 138 -88 70z"/>
<path d="M6327 5019 c-52 -30 -58 -121 -10 -159 58 -45 143 -1 143 75 0 68
-77 117 -133 84z"/>
<path d="M4151 4957 c-48 -19 -108 -72 -133 -120 -33 -61 -31 -164 4 -232 32
-61 59 -87 118 -114 59 -27 114 -26 175 3 96 44 141 128 133 246 -7 88 -43
151 -109 193 -54 33 -136 44 -188 24z"/>
<path d="M4630 4798 c-67 -36 -110 -112 -110 -193 0 -223 259 -315 385 -137
28 40 30 50 30 126 0 73 -3 87 -28 124 -62 95 -183 129 -277 80z"/>
<path d="M1785 4700 c13 -163 29 -273 36 -255 6 15 8 11 8 -17 1 -44 25 -164
47 -233 20 -60 44 -92 56 -73 27 44 -17 321 -66 417 -20 38 -34 40 -42 4 -3
-16 -7 -32 -8 -38 -2 -5 -6 31 -10 80 -4 50 -12 108 -16 130 -8 36 -9 35 -5
-15z"/>
<path d="M5206 4686 c-78 -29 -126 -99 -126 -184 0 -62 13 -98 48 -136 49 -52
132 -71 199 -45 68 25 123 110 123 189 0 121 -133 217 -244 176z"/>
<path d="M5750 4569 c-124 -50 -136 -233 -20 -291 47 -24 87 -22 135 5 77 44
109 153 65 224 -35 58 -118 86 -180 62z"/>
<path d="M6254 4446 c-29 -29 -34 -41 -34 -81 0 -38 5 -52 29 -76 33 -32 67
-37 110 -15 73 38 88 149 26 190 -42 28 -92 21 -131 -18z"/>
<path d="M4040 4421 c-122 -40 -188 -156 -160 -284 41 -197 262 -281 394 -150
64 63 88 189 52 275 -47 112 -189 191 -286 159z"/>
<path d="M1976 4328 c-48 -69 17 -350 102 -440 36 -39 60 -36 79 9 38 92 -47
380 -129 437 -29 21 -34 20 -52 -6z"/>
<path d="M4555 4265 c-85 -33 -139 -114 -139 -210 0 -72 24 -125 83 -178 142
-128 363 -13 349 182 -11 150 -161 256 -293 206z"/>
<path d="M5095 4126 c-38 -17 -90 -72 -104 -109 -14 -36 -14 -108 0 -144 25
-68 97 -116 174 -116 127 0 215 110 191 238 -8 43 -68 113 -113 132 -41 17
-109 16 -148 -1z"/>
<path d="M1910 4028 c-1 -62 125 -393 137 -361 10 26 -68 258 -117 352 -19 35
-19 35 -20 9z"/>
<path d="M5671 4023 c-37 -7 -109 -86 -117 -128 -9 -52 10 -108 51 -144 30
-26 44 -31 89 -31 96 0 166 70 166 166 0 42 -5 59 -26 84 -45 53 -88 67 -163
53z"/>
<path d="M6200 3922 c-67 -33 -100 -119 -65 -168 38 -55 120 -51 170 7 48 58
43 117 -15 157 -40 27 -45 27 -90 4z"/>
<path d="M3914 3861 c-74 -34 -122 -124 -110 -209 19 -138 139 -241 268 -229
113 10 182 86 180 198 -1 70 -19 114 -69 169 -73 82 -182 110 -269 71z"/>
<path d="M2044 3816 c-13 -34 52 -222 106 -306 118 -185 138 -44 25 181 -55
108 -115 166 -131 125z"/>
<path d="M4478 3721 c-87 -28 -138 -94 -138 -180 0 -137 141 -246 272 -210 56
15 122 80 137 136 22 82 -22 181 -103 228 -48 28 -124 40 -168 26z"/>
<path d="M2274 3594 c-26 -101 104 -342 206 -384 98 -41 74 139 -40 305 -62
90 -153 133 -166 79z"/>
<path d="M4995 3581 c-46 -20 -92 -70 -101 -107 -10 -41 2 -110 25 -142 48
-69 171 -93 243 -49 127 77 124 234 -5 296 -53 26 -109 26 -162 2z"/>
<path d="M2090 3538 c0 -10 101 -198 106 -198 5 0 -42 94 -80 160 -14 25 -26
42 -26 38z"/>
<path d="M3380 3521 c-54 -28 -82 -84 -77 -152 8 -102 70 -189 169 -239 72
-36 128 -39 176 -10 53 33 74 75 70 145 -7 109 -72 200 -182 251 -61 29 -109
30 -156 5z"/>
<path d="M5573 3490 c-102 -24 -160 -120 -120 -200 52 -102 218 -87 272 26 32
67 2 139 -72 170 -35 15 -34 15 -80 4z"/>
<path d="M2579 3403 c-8 -9 -14 -38 -13 -67 2 -168 256 -405 315 -294 28 52
-10 174 -83 266 -74 93 -182 140 -219 95z"/>
<path d="M6073 3396 c-36 -16 -73 -69 -73 -104 0 -33 43 -72 80 -72 66 0 120
53 120 118 0 55 -66 85 -127 58z"/>
<path d="M3875 3365 c-45 -16 -91 -65 -100 -107 -30 -132 136 -297 274 -273
85 14 135 73 134 157 -1 97 -78 194 -177 223 -60 18 -79 18 -131 0z"/>
<path d="M2213 3336 c1 -19 4 -32 6 -30 2 2 18 -21 35 -51 46 -81 135 -205
152 -212 26 -10 26 4 0 59 -46 98 -165 268 -187 268 -5 0 -8 -15 -6 -34z"/>
<path d="M4435 3235 c-5 -2 -22 -6 -37 -9 -41 -9 -96 -63 -108 -105 -38 -142
156 -276 297 -204 52 26 88 96 78 152 -9 55 -55 114 -107 139 -43 21 -104 34
-123 27z"/>
<path d="M2951 3204 c-43 -55 -9 -168 77 -257 169 -174 329 -98 225 106 -69
137 -244 224 -302 151z"/>
<path d="M2430 3145 c0 -57 108 -220 182 -274 75 -55 99 -32 57 52 -63 124
-177 247 -229 247 -5 0 -10 -11 -10 -25z"/>
<path d="M4935 3111 c-106 -27 -152 -130 -95 -211 88 -123 300 -69 300 77 0
88 -108 158 -205 134z"/>
<path d="M3403 3055 c-124 -54 -23 -277 150 -330 61 -18 101 -10 132 27 34 40
32 81 -6 157 -36 72 -96 122 -173 146 -59 18 -62 18 -103 0z"/>
<path d="M5413 2995 c-36 -15 -73 -67 -73 -102 0 -35 19 -68 50 -86 101 -60
252 56 200 154 -25 45 -113 62 -177 34z"/>
<path d="M2728 2979 c-10 -5 -18 -18 -18 -27 0 -37 52 -126 107 -183 85 -90
148 -123 177 -94 31 31 -6 113 -90 204 -79 85 -141 121 -176 100z"/>
<path d="M2470 2935 c0 -11 115 -147 161 -190 51 -47 39 -30 -57 85 -72 86
-104 118 -104 105z"/>
<path d="M5899 2901 c-37 -37 -38 -75 -4 -97 52 -34 135 14 135 78 0 55 -83
67 -131 19z"/>
<path d="M3853 2905 c-103 -45 -65 -199 66 -267 67 -35 145 -39 184 -8 135
107 -84 348 -250 275z"/>
<path d="M3076 2794 c-36 -35 -2 -119 79 -193 88 -79 166 -109 199 -75 22 21
20 42 -9 101 -31 61 -94 122 -164 157 -58 30 -83 32 -105 10z"/>
<path d="M4333 2775 c-33 -14 -63 -59 -63 -95 0 -71 105 -160 190 -160 42 0
94 23 114 51 9 13 16 43 16 66 0 104 -150 185 -257 138z"/>
<path d="M2670 2757 c0 -42 216 -254 237 -233 10 10 -45 81 -120 153 -80 78
-117 103 -117 80z"/>
<path d="M4813 2660 c-66 -40 -71 -94 -14 -151 36 -36 43 -39 95 -39 71 0 113
21 132 66 12 30 12 39 0 69 -30 70 -141 99 -213 55z"/>
<path d="M3490 2651 c-29 -8 -46 -47 -36 -85 17 -68 159 -176 231 -176 62 0
84 62 44 126 -31 50 -104 111 -156 128 -26 9 -49 16 -52 15 -3 -1 -17 -4 -31
-8z"/>
<path d="M2935 2589 c-22 -35 178 -219 240 -219 52 0 -42 121 -149 191 -61 41
-80 46 -91 28z"/>
<path d="M5325 2593 c-34 -9 -63 -33 -75 -63 -10 -25 -10 -34 4 -55 34 -52
109 -56 166 -9 36 31 41 81 11 108 -20 18 -74 28 -106 19z"/>
<path d="M3915 2523 c-35 -9 -55 -34 -55 -71 0 -28 9 -44 48 -82 87 -86 198
-104 230 -36 40 83 -116 215 -223 189z"/>
<path d="M5780 2523 c-48 -18 -65 -64 -30 -83 25 -13 66 4 87 36 12 19 12 24
-2 38 -17 16 -29 18 -55 9z"/>
<path d="M3257 2443 c-18 -17 -2 -49 46 -98 76 -76 183 -126 202 -95 30 49
-208 234 -248 193z"/>
<path d="M3030 2380 c53 -47 148 -115 154 -109 5 4 -155 128 -183 142 -9 5 4
-10 29 -33z"/>
<path d="M4315 2385 c-14 -13 -25 -32 -25 -41 0 -33 41 -83 86 -105 115 -55
222 23 149 109 -54 64 -164 84 -210 37z"/>
<path d="M3600 2305 c-18 -22 16 -73 80 -118 73 -51 125 -66 148 -44 15 16 15
19 -2 52 -22 40 -67 78 -128 105 -52 24 -81 25 -98 5z"/>
<path d="M4783 2310 c-12 -5 -29 -20 -38 -33 -48 -74 105 -148 170 -82 14 13
25 31 25 40 0 60 -89 102 -157 75z"/>
<path d="M3230 2273 c0 -21 197 -150 209 -137 8 7 -63 66 -124 103 -60 36 -85
46 -85 34z"/>
<path d="M5187 2222 c-27 -29 -21 -58 13 -72 36 -15 84 1 101 32 25 47 -76 82
-114 40z"/>
<path d="M3993 2199 c-51 -19 -14 -84 74 -128 50 -25 86 -27 107 -5 21 20 21
21 -10 61 -40 53 -127 90 -171 72z"/>
<path d="M3510 2141 c0 -23 183 -132 197 -117 11 11 -47 63 -107 95 -58 31
-90 39 -90 22z"/>
<path d="M4368 2099 c-58 -33 48 -123 127 -107 27 5 42 34 29 56 -31 49 -113
76 -156 51z"/>
<path d="M3810 2036 c0 -16 35 -43 97 -75 44 -22 83 -28 83 -12 0 14 -59 57
-110 80 -54 24 -70 26 -70 7z"/>
<path d="M3603 2019 c31 -18 127 -59 127 -54 0 3 -30 18 -66 35 -66 30 -95 39
-61 19z"/>
<path d="M4743 2023 c-21 -8 -15 -42 11 -58 30 -20 85 -16 100 7 23 38 -55 74
-111 51z"/>
<path d="M5110 1955 c-10 -12 -9 -16 3 -21 19 -7 60 14 52 27 -9 14 -41 11
-55 -6z"/>
<path d="M4134 1948 c-16 -25 108 -90 130 -68 13 13 -12 40 -59 61 -47 22 -61
23 -71 7z"/>
<path d="M3852 1919 c25 -14 98 -39 98 -33 0 8 -83 44 -100 43 -12 0 -11 -2 2
-10z"/>
<path d="M4450 1871 c0 -17 43 -41 72 -41 32 0 36 16 11 36 -21 15 -83 19 -83
5z"/>
<path d="M4090 1855 c0 -10 63 -36 78 -33 10 2 -3 11 -30 20 -27 9 -48 15 -48
13z"/>
<path d="M4767 1824 c-12 -12 3 -22 23 -17 11 3 17 9 14 14 -6 10 -28 12 -37
3z"/>
<path d="M4345 1792 c6 -6 24 -13 40 -17 21 -4 25 -3 15 3 -24 15 -67 26 -55
14z"/>
</g>
</svg>
