<svg width="427" height="229" fill="none" xmlns="http://www.w3.org/2000/svg"><path d="M308.152 44h-1.76l1.776-11.2h1.76l-.704 4.416h5.84l.704-4.416h1.76L315.752 44h-1.76l.816-5.168h-5.84L308.152 44zm14.637-8.064c1.216 0 2.197.373 2.944 1.12.768.736 1.152 1.67 1.152 2.8 0 1.195-.422 2.219-1.264 3.072-.854.853-1.904 1.28-3.152 1.28-1.206 0-2.182-.373-2.928-1.12-.758-.757-1.136-1.69-1.136-2.8 0-1.195.421-2.213 1.264-3.056.853-.864 1.893-1.296 3.12-1.296zm-.304 6.752c.746 0 1.381-.277 1.904-.832.522-.555.784-1.243.784-2.064 0-.693-.219-1.253-.656-1.68-.438-.437-1.008-.656-1.712-.656-.747 0-1.382.277-1.904.832-.523.555-.784 1.232-.784 2.032 0 .704.218 1.275.656 1.712.448.437 1.018.656 1.712.656zm7.573.128l-.688 4.384h-1.728l1.744-11.056h1.728l-.16 1.024c.79-.821 1.734-1.232 2.832-1.232 1.014 0 1.83.357 2.448 1.072.619.715.928 1.59.928 2.624 0 1.237-.389 2.31-1.168 3.216-.778.907-1.797 1.36-3.056 1.36-1.226 0-2.186-.464-2.88-1.392zm3.104-5.36c-.469 0-.938.133-1.408.4a3.117 3.117 0 00-1.072.992l-.384 2.48c.182.363.491.677.928.944a2.8 2.8 0 001.472.416c.747 0 1.382-.277 1.904-.832.534-.565.8-1.248.8-2.048 0-.693-.208-1.259-.624-1.696-.405-.437-.944-.656-1.616-.656zm6.97 6.544h-1.728l1.232-7.856h1.728l-.48 3.072h3.984l.48-3.072h1.728L345.844 44h-1.728l.512-3.264h-3.984L340.132 44zm9.779 0h-1.616l1.232-7.856h1.728l-.832 5.312 5.072-5.312h1.616L355.878 44h-1.727l.832-5.328L349.911 44zm10.143 0h-1.728l1.248-7.856h1.744l-.496 2.944 3.616-2.944h2.224l-4.384 3.664L366.054 44h-2.112l-3.312-3.68-.576 3.68zm11.173-1.312c.875 0 1.707-.219 2.496-.656l-.224 1.504c-.618.448-1.498.672-2.64.672-1.194 0-2.17-.341-2.928-1.024-.757-.693-1.136-1.61-1.136-2.752 0-1.237.411-2.299 1.232-3.184.811-.875 1.851-1.312 3.12-1.312 1.078 0 1.931.33 2.56.992.619.65.928 1.45.928 2.4 0 .48-.032.896-.096 1.248h-6.064c.011.661.267 1.179.768 1.552.512.373 1.174.56 1.984.56zm-.16-5.296c-.608 0-1.141.17-1.6.512a2.29 2.29 0 00-.864 1.36h4.368v-.176c0-.49-.176-.896-.528-1.216-.341-.32-.8-.48-1.376-.48zm11.51.272h-2.96a45.565 45.565 0 01-.208 1.152c-.086.48-.16.843-.224 1.088-.107.49-.208.859-.304 1.104a17.83 17.83 0 01-.384.96c-.139.33-.294.603-.464.816-.16.203-.384.427-.672.672-.448.384-1.062.576-1.84.576-.224 0-.406-.021-.544-.064l.24-1.488c.085.032.202.048.352.048.565 0 1.013-.293 1.344-.88.33-.587.613-1.568.848-2.944l.432-2.56h6.352L383.297 44h-1.728l1.008-6.336zm6.146-1.52l-.352 2.384h2.032c.886 0 1.584.224 2.096.672.523.437.784 1.024.784 1.76 0 .896-.314 1.627-.944 2.192-.629.565-1.44.848-2.432.848h-4.144l1.232-7.856h1.728zm-.592 3.84l-.416 2.56h2.144c.502 0 .912-.123 1.232-.368.32-.256.48-.608.48-1.056 0-.757-.565-1.136-1.696-1.136h-1.744zm23.204.384h-11.456l.24-1.552h11.456l-.24 1.552zM424.515 44h-1.728l.464-2.928h-5.808l.224-1.344 6.896-6.928h1.728l-1.072 6.768h1.744l-.24 1.504h-1.744L424.515 44zm-.32-8.864l-4.416 4.432h3.712l.704-4.432z" fill="#2B7EE0"/><mask id="path-2-outside-1_8_93" maskUnits="userSpaceOnUse" x="123" y="27" width="184" height="184" fill="#000"><path fill="#fff" d="M123 27h184v184H123z"/><path d="M305 119c0 49.706-40.294 90-90 90s-90-40.294-90-90 40.294-90 90-90 90 40.294 90 90zm-144 0c0 29.823 24.177 54 54 54s54-24.177 54-54-24.177-54-54-54-54 24.177-54 54z"/></mask><path d="M305 119c0 49.706-40.294 90-90 90s-90-40.294-90-90 40.294-90 90-90 90 40.294 90 90zm-144 0c0 29.823 24.177 54 54 54s54-24.177 54-54-24.177-54-54-54-54 24.177-54 54z" fill="url(#paint0_linear_8_93)"/><path d="M305 119c0 49.706-40.294 90-90 90s-90-40.294-90-90 40.294-90 90-90 90 40.294 90 90zm-144 0c0 29.823 24.177 54 54 54s54-24.177 54-54-24.177-54-54-54-54 24.177-54 54z" stroke="#131E33" stroke-width="4" mask="url(#path-2-outside-1_8_93)"/><mask id="path-3-outside-2_8_93" maskUnits="userSpaceOnUse" x="123" y="27" width="185" height="184" fill="#000"><path fill="#fff" d="M123 27h185v184H123z"/><path d="M215 29a90 90 0 11-48.658 14.287l19.463 30.285a54.002 54.002 0 00-19.925 67.86 54.006 54.006 0 0064.334 29.381A54.001 54.001 0 00215 65V29z"/></mask><path d="M215 29a90 90 0 11-48.658 14.287l19.463 30.285a54.002 54.002 0 00-19.925 67.86 54.006 54.006 0 0064.334 29.381A54.001 54.001 0 00215 65V29z" fill="url(#paint1_linear_8_93)"/><path d="M215 29a90 90 0 11-48.658 14.287l19.463 30.285a54.002 54.002 0 00-19.925 67.86 54.006 54.006 0 0064.334 29.381A54.001 54.001 0 00215 65V29z" stroke="#131E33" stroke-width="4" mask="url(#path-3-outside-2_8_93)"/><mask id="path-4-outside-3_8_93" maskUnits="userSpaceOnUse" x="123" y="27" width="184" height="184" fill="#000"><path fill="#fff" d="M123 27h184v184H123z"/><path d="M215 29a90.003 90.003 0 0181.867 52.613 89.992 89.992 0 01-13.85 96.324 89.998 89.998 0 01-157.101-46.129l35.634-5.123a54.002 54.002 0 0068.664 44.128 54.002 54.002 0 0013.981-97.24A54.002 54.002 0 00215 65V29z"/></mask><path d="M215 29a90.003 90.003 0 0181.867 52.613 89.992 89.992 0 01-13.85 96.324 89.998 89.998 0 01-157.101-46.129l35.634-5.123a54.002 54.002 0 0068.664 44.128 54.002 54.002 0 0013.981-97.24A54.002 54.002 0 00215 65V29z" fill="url(#paint2_linear_8_93)"/><path d="M215 29a90.003 90.003 0 0181.867 52.613 89.992 89.992 0 01-13.85 96.324 89.998 89.998 0 01-157.101-46.129l35.634-5.123a54.002 54.002 0 0068.664 44.128 54.002 54.002 0 0013.981-97.24A54.002 54.002 0 00215 65V29z" stroke="#131E33" stroke-width="4" mask="url(#path-4-outside-3_8_93)"/><mask id="path-5-outside-4_8_93" maskUnits="userSpaceOnUse" x="187" y="27" width="120" height="184" fill="#000"><path fill="#fff" d="M187 27h120v184H187z"/><path d="M215 29a89.998 89.998 0 0189.084 102.808 90.006 90.006 0 01-40.426 62.905 90.006 90.006 0 01-74.014 10.641l10.142-34.541a54.01 54.01 0 0044.409-6.385A54 54 0 00215 65V29z"/></mask><path d="M215 29a89.998 89.998 0 0189.084 102.808 90.006 90.006 0 01-40.426 62.905 90.006 90.006 0 01-74.014 10.641l10.142-34.541a54.01 54.01 0 0044.409-6.385A54 54 0 00215 65V29z" fill="url(#paint3_linear_8_93)"/><path d="M215 29a89.998 89.998 0 0189.084 102.808 90.006 90.006 0 01-40.426 62.905 90.006 90.006 0 01-74.014 10.641l10.142-34.541a54.01 54.01 0 0044.409-6.385A54 54 0 00215 65V29z" stroke="#131E33" stroke-width="4" mask="url(#path-5-outside-4_8_93)"/><mask id="path-6-outside-5_8_93" maskUnits="userSpaceOnUse" x="213" y="27" width="94" height="154" fill="#000"><path fill="#fff" d="M213 27h94v154h-94z"/><path d="M215 29a90.003 90.003 0 0181.867 52.613 89.992 89.992 0 01-13.85 96.324l-27.207-23.575a53.986 53.986 0 0012.64-27.677A54 54 0 00215 65V29z"/></mask><path d="M215 29a90.003 90.003 0 0181.867 52.613 89.992 89.992 0 01-13.85 96.324l-27.207-23.575a53.986 53.986 0 0012.64-27.677A54 54 0 00215 65V29z" fill="url(#paint4_linear_8_93)"/><path d="M215 29a90.003 90.003 0 0181.867 52.613 89.992 89.992 0 01-13.85 96.324l-27.207-23.575a53.986 53.986 0 0012.64-27.677A54 54 0 00215 65V29z" stroke="#131E33" stroke-width="4" mask="url(#path-6-outside-5_8_93)"/><path d="M209.448 129h-2.336v-19.84l-5.024 2.88v-2.272l5.28-3.168h2.08V129zm11.937 0h-2.335v-19.84l-5.024 2.88v-2.272l5.28-3.168h2.079V129zm52.751 94h-1.064l-.77-2.702h-5.152L265.54 223h-1.12l5.922-9.856h.966l2.828 9.856zm-2.086-3.612l-1.386-4.942-2.968 4.942h4.354zm2.799 3.598l.154-.938c.056.009.163.014.322.014.933 0 1.624-1.223 2.072-3.668l.392-2.156h5.068L281.779 223h-1.008l.924-5.88h-3.08l-.238 1.302c-.168.971-.406 1.825-.714 2.562-.495 1.316-1.307 1.993-2.436 2.03-.084 0-.21-.009-.378-.028zm13.771-6.916c.924 0 1.661.308 2.212.924.56.616.84 1.372.84 2.268 0 1.073-.346 1.997-1.036 2.772-.691.756-1.578 1.134-2.66 1.134a3.244 3.244 0 01-1.568-.378 3.18 3.18 0 01-1.12-.98l-.644 3.99h-1.008l1.512-9.562h1.022l-.168.952c.662-.747 1.535-1.12 2.618-1.12zm-.77 6.188c.765 0 1.423-.275 1.974-.826.541-.551.812-1.241.812-2.072 0-.7-.215-1.269-.644-1.708-.43-.448-.994-.672-1.694-.672-.467 0-.943.135-1.428.406-.467.271-.817.597-1.05.98l-.378 2.436c.168.383.476.719.924 1.008.457.299.952.448 1.484.448zm9.08-6.188c1.027 0 1.853.322 2.478.966.635.635.952 1.423.952 2.366 0 1.027-.359 1.913-1.078 2.66-.709.737-1.605 1.106-2.688 1.106-1.027 0-1.857-.317-2.492-.952-.625-.635-.938-1.428-.938-2.38 0-1.027.359-1.913 1.078-2.66.709-.737 1.605-1.106 2.688-1.106zm-.336 6.188c.765 0 1.423-.275 1.974-.826a2.851 2.851 0 00.826-2.058c0-.7-.229-1.274-.686-1.722-.467-.448-1.059-.672-1.778-.672-.775 0-1.437.28-1.988.84-.541.541-.812 1.223-.812 2.044 0 .7.229 1.274.686 1.722.457.448 1.05.672 1.778.672zm8.695.91c-1.026 0-1.857-.308-2.492-.924-.625-.625-.938-1.4-.938-2.324 0-1.101.378-2.016 1.134-2.744.747-.737 1.676-1.106 2.786-1.106.868 0 1.61.196 2.226.588l-.154.924c-.569-.401-1.227-.602-1.974-.602-.84 0-1.549.275-2.128.826-.569.541-.854 1.227-.854 2.058 0 .709.243 1.288.728 1.736.495.439 1.12.658 1.876.658.663 0 1.293-.168 1.89-.504l-.154.966c-.578.299-1.227.448-1.946.448zm10.284-.966c.14 0 .266-.028.378-.084l-.126.812c-.196.093-.411.14-.644.14-.346 0-.63-.084-.854-.252-.215-.177-.327-.429-.336-.756-.738.737-1.638 1.106-2.702 1.106-.738 0-1.335-.196-1.792-.588-.458-.392-.686-.901-.686-1.526 0-.756.28-1.339.84-1.75.578-.411 1.264-.616 2.058-.616.942 0 1.81.238 2.604.714.084-.551.126-.891.126-1.022 0-.933-.649-1.4-1.946-1.4-.906 0-1.699.182-2.38.546l.168-.952c.625-.336 1.432-.504 2.422-.504.765 0 1.418.177 1.96.532.532.355.798.896.798 1.624 0 .233-.042.593-.126 1.078l-.28 1.75c-.038.233-.056.42-.056.56 0 .392.191.588.574.588zm-3.948.056c.457 0 .905-.107 1.344-.322a3.434 3.434 0 001.064-.812l.14-.91c-.663-.467-1.433-.7-2.31-.7-.607 0-1.102.126-1.484.378a1.203 1.203 0 00-.574 1.064c0 .42.163.742.49.966.326.224.77.336 1.33.336zm20.039-2.604h-9.87l.14-.924h9.884l-.154.924z" fill="#647391"/><path d="M337.896 215.566l.266-1.61a4.686 4.686 0 012.842-.924c.896 0 1.647.261 2.253.784.598.513.897 1.199.897 2.058 0 .663-.206 1.288-.616 1.876-.402.588-1.055 1.241-1.96 1.96l-2.408 1.918h4.648l-.196 1.372h-6.846l.168-1.12 3.444-2.842c.774-.616 1.339-1.148 1.694-1.596.345-.429.518-.873.518-1.33 0-.504-.173-.905-.518-1.204-.346-.299-.803-.448-1.372-.448-.943 0-1.881.369-2.814 1.106z" fill="#fff"/><path d="M37.316 76h-6.93l1.554-9.8h6.72l-.154.938h-5.684l-.49 3.136h4.662l-.154.938h-4.662l-.602 3.85h5.894l-.154.938zm8.603 0h-6.51l1.554-9.8H42l-1.4 8.862h5.474L45.92 76zm3.398-9.8h1.036l-.686 4.256 5.236-4.256h1.372l-5.586 4.592L55.463 76h-1.288l-4.606-4.984-.77 4.984h-1.036l1.554-9.8zm12.632-.168c1.39 0 2.51.439 3.36 1.316.849.859 1.274 1.97 1.274 3.332 0 1.503-.504 2.795-1.512 3.878-.99 1.073-2.236 1.61-3.738 1.61-1.391 0-2.511-.439-3.36-1.316-.85-.877-1.274-1.993-1.274-3.346 0-1.503.499-2.79 1.498-3.864 1.008-1.073 2.258-1.61 3.752-1.61zm-.588 9.17c1.176 0 2.16-.434 2.954-1.302.812-.868 1.218-1.937 1.218-3.206 0-1.045-.332-1.923-.994-2.632-.654-.71-1.526-1.064-2.618-1.064-1.167 0-2.156.434-2.968 1.302-.803.859-1.204 1.923-1.204 3.192 0 1.055.33 1.941.994 2.66.662.7 1.535 1.05 2.618 1.05zm20.88-2.548h-9.87l.14-.924h9.883l-.154.924z" fill="#647391"/><path d="M88.472 68.566l.266-1.61a4.687 4.687 0 012.842-.924c.896 0 1.647.261 2.254.784.597.513.896 1.2.896 2.058 0 .663-.206 1.288-.616 1.876-.402.588-1.055 1.241-1.96 1.96l-2.408 1.918h4.648L94.198 76h-6.846l.168-1.12 3.444-2.842c.774-.616 1.339-1.148 1.694-1.596.345-.43.518-.873.518-1.33 0-.504-.173-.905-.518-1.204-.346-.299-.803-.448-1.372-.448-.943 0-1.881.369-2.814 1.106z" fill="#fff"/><path d="M19.622 174.68c.532.149.966.429 1.302.84.336.401.504.887.504 1.456 0 .681-.21 1.274-.63 1.778-.793.943-1.988 1.414-3.584 1.414-1.279 0-2.37-.266-3.276-.798l.154-1.064c.933.597 1.979.896 3.136.896.504 0 .99-.07 1.456-.21a2.603 2.603 0 001.204-.756 1.83 1.83 0 00.49-1.26c0-.56-.224-.999-.672-1.316-.439-.327-1.045-.49-1.82-.49h-1.26l.14-.938h1.302c.663 0 1.223-.145 1.68-.434.467-.299.7-.733.7-1.302 0-.476-.205-.845-.616-1.106-.401-.261-.957-.392-1.666-.392-1.045 0-2.02.229-2.926.686l.14-1.022a7.18 7.18 0 012.926-.63c.961 0 1.731.21 2.31.63.588.42.882.989.882 1.708 0 .56-.173 1.05-.518 1.47-.345.411-.798.691-1.358.84zm3.304 5.32l1.078-6.762h3.528c.55 0 .984.145 1.302.434.326.289.49.653.49 1.092 0 .831-.388 1.409-1.162 1.736.345.103.616.285.812.546.196.252.294.555.294.91 0 .653-.234 1.157-.7 1.512-.458.355-1.078.532-1.862.532h-3.78zm4.34-5.88h-2.408l-.308 1.988h2.366c.382 0 .704-.103.966-.308.27-.215.406-.495.406-.84a.746.746 0 00-.28-.616c-.178-.149-.425-.224-.742-.224zm-3.178 4.998h2.66c.457-.009.821-.121 1.092-.336.28-.215.42-.518.42-.91a.824.824 0 00-.308-.672c-.196-.168-.476-.252-.84-.252h-2.688l-.336 2.17zm10.629.14c.728 0 1.432-.201 2.114-.602l-.126.952c-.55.373-1.279.56-2.184.56-.999 0-1.83-.294-2.492-.882-.654-.597-.98-1.377-.98-2.338 0-1.045.35-1.955 1.05-2.73.7-.765 1.586-1.148 2.66-1.148.933 0 1.661.294 2.184.882.513.569.77 1.251.77 2.044 0 .28-.024.569-.07.868h-5.586c0 .756.242 1.344.728 1.764.485.42 1.13.63 1.932.63zm-.014-5.278c-.626 0-1.18.191-1.666.574a2.559 2.559 0 00-.896 1.484h4.578c.01-.047.014-.117.014-.21 0-.485-.178-.915-.532-1.288-.346-.373-.845-.56-1.498-.56zm8.503 2.394c.392.093.71.275.952.546.243.261.364.593.364.994 0 .719-.322 1.274-.966 1.666-.644.392-1.442.588-2.394.588-1.036 0-1.876-.159-2.52-.476l.154-.952c.682.345 1.452.518 2.31.518.644 0 1.204-.107 1.68-.322.467-.215.7-.56.7-1.036 0-.672-.583-1.008-1.75-1.008h-1.148l.112-.882h1.134c.532 0 .952-.103 1.26-.308.308-.215.462-.481.462-.798 0-.616-.592-.924-1.778-.924-.756 0-1.502.149-2.24.448l.14-.924a6.247 6.247 0 012.352-.434c.756 0 1.372.154 1.848.462.476.308.714.714.714 1.218 0 .401-.135.751-.406 1.05-.26.299-.588.49-.98.574zM46 182.002h-.952l.462-2.884h.84c.905-.999 1.545-2.641 1.918-4.928l.168-.952h5.026l-.924 5.88h1.26l-.462 2.884h-.98l.322-2.002H46.32l-.322 2.002zm1.484-2.884h4.046l.784-4.998h-3.08l-.056.406c-.336 2.063-.9 3.593-1.694 4.592zm8.812.882h-1.008l1.078-6.762h1.008l-.448 2.842h4.158l.448-2.842h1.008L61.461 180h-1.008l.476-3.01h-4.158l-.476 3.01zm14.188 0l1.064-6.762h1.008L71.49 180h-1.008zm-4.97-4.494h1.834c.737 0 1.316.182 1.736.546.42.355.63.84.63 1.456 0 .737-.261 1.339-.784 1.806-.513.457-1.18.686-2.002.686H63.79l1.078-6.762h1.008l-.364 2.268zm-.574 3.612h1.974c.504 0 .929-.135 1.274-.406a1.34 1.34 0 00.518-1.092c0-.821-.597-1.232-1.792-1.232h-1.54l-.434 2.73zm10.092-.644l5.138-5.236h.938L80.029 180H79.02l.826-5.236L74.723 180h-.924l1.05-6.762h1.008l-.826 5.236zm3.136-6.398c-.616 0-1.12-.159-1.512-.476-.383-.317-.574-.742-.574-1.274 0-.019.01-.14.028-.364h.84c-.01.037-.014.117-.014.238 0 .327.116.593.35.798.233.196.546.294.938.294.42 0 .78-.121 1.078-.364a1.56 1.56 0 00.546-.966h.854c-.112.644-.402 1.157-.868 1.54-.467.383-1.022.574-1.666.574zm18.466 4.578h-9.87l.14-.924h9.884l-.154.924z" fill="#647391"/><path d="M102.864 172.566l.266-1.61a4.688 4.688 0 012.842-.924c.896 0 1.648.261 2.254.784.598.513.896 1.199.896 2.058 0 .663-.205 1.288-.616 1.876-.401.588-1.054 1.241-1.96 1.96l-2.408 1.918h4.648L108.59 180h-6.846l.168-1.12 3.444-2.842c.775-.616 1.34-1.148 1.694-1.596.346-.429.518-.873.518-1.33 0-.504-.172-.905-.518-1.204-.345-.299-.802-.448-1.372-.448-.942 0-1.88.369-2.814 1.106z" fill="#fff"/><path d="M7.364 9.492L9.772 14H8.596L6.244 9.59H3.122l-.7 4.41H1.386L2.94 4.2h4.186c.877 0 1.568.22 2.072.658.504.43.756 1.003.756 1.722 0 .737-.238 1.367-.714 1.89-.467.523-1.092.863-1.876 1.022zm-.392-4.354h-3.15l-.546 3.514h3.346c.635 0 1.176-.168 1.624-.504.448-.355.672-.83.672-1.428 0-.495-.173-.882-.518-1.162-.336-.28-.812-.42-1.428-.42zm11.023 8.064c.14 0 .266-.028.378-.084l-.126.812a1.48 1.48 0 01-.644.14c-.346 0-.63-.084-.854-.252-.215-.177-.327-.43-.336-.756-.738.737-1.638 1.106-2.702 1.106-.738 0-1.335-.196-1.792-.588-.458-.392-.686-.9-.686-1.526 0-.756.28-1.34.84-1.75.578-.41 1.264-.616 2.058-.616.942 0 1.81.238 2.604.714.084-.55.126-.891.126-1.022 0-.933-.65-1.4-1.946-1.4-.906 0-1.7.182-2.38.546l.168-.952c.625-.336 1.432-.504 2.422-.504.765 0 1.418.177 1.96.532.532.355.798.896.798 1.624 0 .233-.042.593-.126 1.078l-.28 1.75c-.038.233-.056.42-.056.56 0 .392.19.588.574.588zm-3.948.056c.457 0 .905-.107 1.344-.322a3.418 3.418 0 001.064-.812l.14-.91c-.663-.467-1.433-.7-2.31-.7-.607 0-1.102.126-1.484.378a1.203 1.203 0 00-.574 1.064c0 .42.163.742.49.966.326.224.77.336 1.33.336zm11.475-5.432l-.14.966c-.718-.541-1.568-.812-2.548-.812-.504 0-.914.089-1.232.266a.834.834 0 00-.462.784c0 .27.122.48.364.63.243.14.72.313 1.428.518.812.243 1.391.504 1.736.784.355.27.532.64.532 1.106 0 .7-.284 1.223-.854 1.568-.578.355-1.255.532-2.03.532a5.636 5.636 0 01-1.68-.252c-.54-.168-.975-.373-1.302-.616l.14-.98c.794.625 1.741.938 2.842.938.504 0 .948-.084 1.33-.252.383-.168.574-.453.574-.854 0-.261-.135-.471-.406-.63-.27-.159-.76-.34-1.47-.546-.746-.215-1.302-.462-1.666-.742-.364-.28-.546-.658-.546-1.134 0-.653.262-1.157.784-1.512.523-.345 1.167-.518 1.932-.518 1.064 0 1.956.252 2.674.756zm5.756-.756c.924 0 1.661.308 2.212.924.56.616.84 1.372.84 2.268 0 1.073-.346 1.997-1.036 2.772-.69.756-1.578 1.134-2.66 1.134a3.246 3.246 0 01-1.568-.378 3.18 3.18 0 01-1.12-.98l-.644 3.99h-1.008l1.512-9.562h1.022l-.168.952c.662-.747 1.535-1.12 2.618-1.12zm-.77 6.188c.765 0 1.423-.275 1.974-.826.541-.55.812-1.241.812-2.072 0-.7-.215-1.27-.644-1.708-.43-.448-.994-.672-1.694-.672-.467 0-.943.135-1.428.406-.467.27-.817.597-1.05.98l-.378 2.436c.168.383.476.719.924 1.008.457.299.952.448 1.484.448zm11.754-.056c.14 0 .266-.028.378-.084l-.126.812a1.48 1.48 0 01-.644.14c-.345 0-.63-.084-.854-.252-.215-.177-.326-.43-.336-.756-.737.737-1.638 1.106-2.702 1.106-.737 0-1.334-.196-1.792-.588-.457-.392-.686-.9-.686-1.526 0-.756.28-1.34.84-1.75.579-.41 1.265-.616 2.058-.616.943 0 1.81.238 2.604.714.084-.55.126-.891.126-1.022 0-.933-.648-1.4-1.946-1.4-.905 0-1.699.182-2.38.546l.168-.952c.626-.336 1.433-.504 2.422-.504.765 0 1.419.177 1.96.532.532.355.798.896.798 1.624 0 .233-.042.593-.126 1.078l-.28 1.75c-.037.233-.056.42-.056.56 0 .392.191.588.574.588zm-3.948.056c.458 0 .905-.107 1.344-.322a3.42 3.42 0 001.064-.812l.14-.91c-.663-.467-1.433-.7-2.31-.7-.606 0-1.101.126-1.484.378a1.203 1.203 0 00-.574 1.064c0 .42.163.742.49.966.327.224.77.336 1.33.336zm8.9.91c-.933 0-1.675-.303-2.226-.91-.55-.625-.826-1.386-.826-2.282 0-1.073.345-1.993 1.036-2.758.681-.765 1.568-1.148 2.66-1.148.588 0 1.11.126 1.568.378.467.252.835.574 1.106.966l.686-4.214h1.008l-1.54 9.8h-1.022l.154-.966c-.663.756-1.53 1.134-2.604 1.134zm.77-6.188c-.765 0-1.423.28-1.974.84-.541.541-.812 1.227-.812 2.058 0 .69.21 1.26.63 1.708.43.448.994.672 1.694.672.467 0 .943-.135 1.428-.406.476-.28.826-.616 1.05-1.008l.378-2.436c-.15-.364-.453-.695-.91-.994a2.593 2.593 0 00-1.484-.434zm10.72-.154l-.14.966c-.719-.541-1.568-.812-2.548-.812-.504 0-.915.089-1.232.266a.834.834 0 00-.462.784c0 .27.121.48.364.63.243.14.719.313 1.428.518.812.243 1.39.504 1.736.784.355.27.532.64.532 1.106 0 .7-.285 1.223-.854 1.568-.579.355-1.255.532-2.03.532a5.635 5.635 0 01-1.68-.252c-.541-.168-.975-.373-1.302-.616l.14-.98c.793.625 1.74.938 2.842.938.504 0 .947-.084 1.33-.252.383-.168.574-.453.574-.854 0-.261-.135-.471-.406-.63-.27-.159-.76-.34-1.47-.546-.747-.215-1.302-.462-1.666-.742-.364-.28-.546-.658-.546-1.134 0-.653.261-1.157.784-1.512.523-.345 1.167-.518 1.932-.518 1.064 0 1.955.252 2.674.756zM61.491 4.2H62.5l-.924 5.824 3.598-2.786h1.386l-4.032 3.15L66 14h-1.288l-3.234-3.36-.532 3.36h-1.008l1.554-9.8zm12.34 9.002c.14 0 .266-.028.377-.084l-.126.812c-.195.093-.41.14-.643.14-.346 0-.63-.084-.854-.252-.215-.177-.327-.43-.336-.756-.738.737-1.638 1.106-2.703 1.106-.737 0-1.334-.196-1.792-.588-.457-.392-.686-.9-.686-1.526 0-.756.28-1.34.84-1.75.58-.41 1.265-.616 2.058-.616.943 0 1.811.238 2.605.714.084-.55.126-.891.126-1.022 0-.933-.65-1.4-1.947-1.4-.905 0-1.698.182-2.38.546l.168-.952c.626-.336 1.433-.504 2.422-.504.766 0 1.42.177 1.96.532.532.355.799.896.799 1.624 0 .233-.042.593-.126 1.078l-.28 1.75c-.038.233-.056.42-.056.56 0 .392.19.588.573.588zm-3.949.056c.458 0 .906-.107 1.344-.322a3.417 3.417 0 001.064-.812l.14-.91c-.662-.467-1.432-.7-2.31-.7-.606 0-1.1.126-1.484.378a1.203 1.203 0 00-.573 1.064c0 .42.163.742.49.966.326.224.77.336 1.33.336zM81.6 7.238h1.12l-4.396 7.602c-.402.69-.822 1.2-1.26 1.526-.439.327-.938.49-1.498.49a2.15 2.15 0 01-1.022-.238l.154-.91c.27.159.56.238.868.238.429 0 .812-.168 1.148-.504.345-.327.751-.896 1.218-1.708L75.79 7.238h1.05l1.72 5.362 3.038-5.362zm8.105 5.964c.14 0 .266-.028.378-.084l-.126.812a1.48 1.48 0 01-.644.14c-.346 0-.63-.084-.854-.252-.215-.177-.327-.43-.336-.756-.738.737-1.638 1.106-2.702 1.106-.738 0-1.335-.196-1.792-.588-.458-.392-.686-.9-.686-1.526 0-.756.28-1.34.84-1.75.578-.41 1.264-.616 2.058-.616.942 0 1.81.238 2.604.714.084-.55.126-.891.126-1.022 0-.933-.65-1.4-1.946-1.4-.906 0-1.7.182-2.38.546l.168-.952c.625-.336 1.432-.504 2.422-.504.765 0 1.418.177 1.96.532.532.355.798.896.798 1.624 0 .233-.042.593-.126 1.078l-.28 1.75c-.038.233-.056.42-.056.56 0 .392.19.588.574.588zm-3.948.056c.457 0 .905-.107 1.344-.322a3.42 3.42 0 001.064-.812l.14-.91c-.663-.467-1.433-.7-2.31-.7-.607 0-1.102.126-1.484.378a1.203 1.203 0 00-.574 1.064c0 .42.163.742.49.966.326.224.77.336 1.33.336zm15.265-9.226c1.39 0 2.51.439 3.36 1.316.849.859 1.274 1.97 1.274 3.332 0 1.503-.504 2.795-1.512 3.878-.99 1.073-2.236 1.61-3.738 1.61-1.39 0-2.51-.439-3.36-1.316-.85-.877-1.274-1.993-1.274-3.346 0-1.503.5-2.79 1.498-3.864 1.008-1.073 2.258-1.61 3.752-1.61zm-.588 9.17c1.176 0 2.16-.434 2.954-1.302.812-.868 1.218-1.937 1.218-3.206 0-1.045-.332-1.923-.994-2.632-.654-.71-1.526-1.064-2.618-1.064-1.167 0-2.156.434-2.968 1.302-.803.859-1.204 1.923-1.204 3.192 0 1.055.331 1.941.994 2.66.663.7 1.535 1.05 2.618 1.05zM111.601 4.2h1.036l-1.092 6.958c-.326 2.007-1.493 3.01-3.5 3.01-.924 0-1.656-.229-2.198-.686l.154-1.05c.486.513 1.153.77 2.002.77.756 0 1.34-.182 1.75-.546.411-.364.682-.952.812-1.764l1.036-6.692zm9.476.672l-.154 1.036c-.905-.607-1.932-.91-3.08-.91-.672 0-1.269.15-1.792.448-.504.29-.756.723-.756 1.302 0 .364.205.695.616.994.009.01.313.135.91.378l.546.168.546.154c.495.159.849.29 1.064.392.289.112.588.27.896.476.625.392.938.975.938 1.75 0 .961-.387 1.722-1.162 2.282-.775.55-1.699.826-2.772.826a7.381 7.381 0 01-2.142-.308c-.719-.224-1.241-.471-1.568-.742l.168-1.106c.317.317.817.597 1.498.84.663.233 1.358.35 2.086.35.299 0 .602-.037.91-.112.317-.075.621-.182.91-.322.299-.15.541-.36.728-.63.187-.27.28-.583.28-.938 0-.42-.163-.765-.49-1.036a2.346 2.346 0 00-.588-.336 4.607 4.607 0 00-.658-.266 29.607 29.607 0 00-.812-.238c-.691-.196-1.265-.406-1.722-.63-.411-.205-.709-.448-.896-.728-.187-.28-.299-.649-.336-1.106 0-.905.355-1.6 1.064-2.086.719-.495 1.587-.742 2.604-.742 1.288 0 2.343.28 3.164.84zm2.691 4.62c0 1.064.341 1.95 1.022 2.66.681.7 1.577 1.05 2.688 1.05a4.904 4.904 0 002.898-.91l-.154 1.092c-.831.523-1.773.784-2.828.784-1.391 0-2.52-.434-3.388-1.302-.859-.887-1.288-1.993-1.288-3.318 0-1.53.499-2.833 1.498-3.906 1.008-1.073 2.296-1.61 3.864-1.61 1.148 0 2.133.27 2.954.812l-.168.994c-.812-.56-1.745-.84-2.8-.84-1.213 0-2.235.43-3.066 1.288-.821.85-1.232 1.918-1.232 3.206zm22.332 1.162h-9.87l.14-.924h9.884l-.154.924z" fill="#647391"/><path d="M158.388 14h-1.512l1.302-8.148L155.854 7l.238-1.498 2.506-1.302h1.344l-1.554 9.8z" fill="#fff"/><defs><linearGradient id="paint0_linear_8_93" x1="210.95" y1="29" x2="162.145" y2="43.13" gradientUnits="userSpaceOnUse"><stop stop-color="#647391"/><stop offset="1" stop-color="#0A1428"/></linearGradient><linearGradient id="paint1_linear_8_93" x1="166.4" y1="43.4" x2="123.442" y2="137.059" gradientUnits="userSpaceOnUse"><stop stop-color="#647391"/><stop offset="1" stop-color="#0A1428"/></linearGradient><linearGradient id="paint2_linear_8_93" x1="125" y1="131.6" x2="193.18" y2="216.781" gradientUnits="userSpaceOnUse"><stop stop-color="#647391"/><stop offset="1" stop-color="#0A1428"/></linearGradient><linearGradient id="paint3_linear_8_93" x1="190.25" y1="204.95" x2="288.656" y2="182.426" gradientUnits="userSpaceOnUse"><stop stop-color="#647391"/><stop offset="1" stop-color="#0A1428"/></linearGradient><linearGradient id="paint4_linear_8_93" x1="215" y1="29" x2="215.249" y2="209" gradientUnits="userSpaceOnUse"><stop stop-color="#2B7EE0"/><stop offset="1" stop-color="#0A1428"/></linearGradient></defs></svg>