<svg width="450" height="228" fill="none" xmlns="http://www.w3.org/2000/svg"><path d="M.5 0v200m-.5 0h450" stroke="#647391"/><path fill="url(#paint0_linear_5_39)" d="M50 126h50v74H50z"/><path transform="matrix(-1 0 0 1 250 82)" fill="url(#paint1_linear_5_39)" d="M0 0h50v118H0z"/><path transform="matrix(-1 0 0 1 400 52)" fill="url(#paint2_linear_5_39)" d="M0 0h50v148H0z"/><path d="M67.478 222h-5.844v-.96l2.64-2.472c.56-.52.972-.968 1.236-1.344.24-.36.36-.744.36-1.152 0-.424-.156-.764-.468-1.02-.304-.264-.704-.396-1.2-.396-.832 0-1.616.348-2.352 1.044v-1.38c.688-.584 1.516-.876 2.484-.876.792 0 1.464.228 2.016.684.56.456.84 1.052.84 1.788 0 .568-.14 1.084-.42 1.548-.296.472-.768 1.016-1.416 1.632l-1.812 1.728h3.936V222zm4.838.156c-1.064 0-1.92-.42-2.568-1.26-.64-.856-.96-1.888-.96-3.096 0-1.2.32-2.228.96-3.084.648-.848 1.504-1.272 2.568-1.272 1.08 0 1.936.424 2.568 1.272.648.848.972 1.876.972 3.084 0 1.216-.324 2.248-.972 3.096-.632.84-1.488 1.26-2.568 1.26zm0-1.236c.664 0 1.2-.3 1.608-.9.408-.6.612-1.34.612-2.22 0-.88-.204-1.62-.612-2.22-.408-.6-.944-.9-1.608-.9-.656 0-1.188.304-1.596.912-.408.6-.612 1.336-.612 2.208 0 .864.204 1.604.612 2.22.408.6.94.9 1.596.9zm7.68 1.08h-1.295v-6.984l-1.836.984v-1.284l1.98-1.116h1.152v8.4zm6.61-4.464c.513.168.917.44 1.213.816.304.376.456.812.456 1.308 0 .776-.316 1.384-.948 1.824-.632.448-1.408.672-2.328.672-.92 0-1.7-.224-2.34-.672-.632-.44-.948-1.048-.948-1.824 0-.496.152-.932.456-1.308.304-.376.712-.648 1.224-.816a2.196 2.196 0 01-.936-.732 1.858 1.858 0 01-.336-1.092c0-.664.272-1.208.816-1.632.544-.424 1.232-.636 2.064-.636.824 0 1.508.212 2.052.636.544.424.816.968.816 1.632 0 .408-.112.772-.336 1.092-.224.32-.532.564-.924.732zm-2.771-.792c.312.24.7.36 1.164.36.464 0 .848-.12 1.152-.36.304-.24.456-.548.456-.924s-.152-.684-.456-.924c-.304-.24-.688-.36-1.152-.36-.464 0-.852.12-1.164.36-.304.24-.456.548-.456.924s.152.684.456.924zm2.532 3.876c.368-.272.552-.62.552-1.044 0-.424-.184-.772-.552-1.044-.352-.272-.808-.408-1.368-.408-.552 0-1.012.136-1.38.408-.368.272-.552.62-.552 1.044 0 .424.184.772.552 1.044.376.28.836.42 1.38.42.536 0 .992-.14 1.368-.42zM217.502 222h-5.844v-.96l2.64-2.472c.56-.52.972-.968 1.236-1.344.24-.36.36-.744.36-1.152 0-.424-.156-.764-.468-1.02-.304-.264-.704-.396-1.2-.396-.832 0-1.616.348-2.352 1.044v-1.38c.688-.584 1.516-.876 2.484-.876.792 0 1.464.228 2.016.684.56.456.84 1.052.84 1.788 0 .568-.14 1.084-.42 1.548-.296.472-.768 1.016-1.416 1.632l-1.812 1.728h3.936V222zm4.838.156c-1.064 0-1.92-.42-2.568-1.26-.64-.856-.96-1.888-.96-3.096 0-1.2.32-2.228.96-3.084.648-.848 1.504-1.272 2.568-1.272 1.08 0 1.936.424 2.568 1.272.648.848.972 1.876.972 3.084 0 1.216-.324 2.248-.972 3.096-.632.84-1.488 1.26-2.568 1.26zm0-1.236c.664 0 1.2-.3 1.608-.9.408-.6.612-1.34.612-2.22 0-.88-.204-1.62-.612-2.22-.408-.6-.944-.9-1.608-.9-.656 0-1.188.304-1.596.912-.408.6-.612 1.336-.612 2.208 0 .864.204 1.604.612 2.22.408.6.94.9 1.596.9zm7.68 1.08h-1.296v-6.984l-1.836.984v-1.284l1.98-1.116h1.152v8.4zm4.81-8.556c1.024 0 1.824.348 2.4 1.044.584.688.876 1.652.876 2.892 0 1.344-.332 2.48-.996 3.408-.656.912-1.576 1.368-2.76 1.368-.696 0-1.312-.176-1.848-.528v-1.2c.52.352 1.088.528 1.704.528.816 0 1.432-.28 1.848-.84.432-.56.664-1.24.696-2.04-.488.632-1.212.948-2.172.948-.776 0-1.42-.244-1.932-.732s-.768-1.136-.768-1.944c0-.856.28-1.552.84-2.088.568-.544 1.272-.816 2.112-.816zm.084 1.164c-.496 0-.908.164-1.236.492-.328.328-.492.736-.492 1.224s.164.884.492 1.188c.328.296.744.444 1.248.444.416 0 .8-.128 1.152-.384.36-.256.596-.572.708-.948-.048-.632-.236-1.124-.564-1.476-.328-.36-.764-.54-1.308-.54z" fill="#647391"/><path d="M366.426 222h-5.844v-.96l2.64-2.472c.56-.52.972-.968 1.236-1.344.24-.36.36-.744.36-1.152 0-.424-.156-.764-.468-1.02-.304-.264-.704-.396-1.2-.396-.832 0-1.616.348-2.352 1.044v-1.38c.688-.584 1.516-.876 2.484-.876.792 0 1.464.228 2.016.684.56.456.84 1.052.84 1.788 0 .568-.14 1.084-.42 1.548-.296.472-.768 1.016-1.416 1.632l-1.812 1.728h3.936V222zm4.837.156c-1.064 0-1.92-.42-2.568-1.26-.64-.856-.96-1.888-.96-3.096 0-1.2.32-2.228.96-3.084.648-.848 1.504-1.272 2.568-1.272 1.08 0 1.936.424 2.568 1.272.648.848.972 1.876.972 3.084 0 1.216-.324 2.248-.972 3.096-.632.84-1.488 1.26-2.568 1.26zm0-1.236c.664 0 1.2-.3 1.608-.9.408-.6.612-1.34.612-2.22 0-.88-.204-1.62-.612-2.22-.408-.6-.944-.9-1.608-.9-.656 0-1.188.304-1.596.912-.408.6-.612 1.336-.612 2.208 0 .864.204 1.604.612 2.22.408.6.94.9 1.596.9zm10.561 1.08h-5.844v-.96l2.64-2.472c.56-.52.972-.968 1.236-1.344.24-.36.36-.744.36-1.152 0-.424-.156-.764-.468-1.02-.304-.264-.704-.396-1.2-.396-.832 0-1.616.348-2.352 1.044v-1.38c.688-.584 1.516-.876 2.484-.876.792 0 1.464.228 2.016.684.56.456.84 1.052.84 1.788 0 .568-.14 1.084-.42 1.548-.296.472-.768 1.016-1.416 1.632l-1.812 1.728h3.936V222zm4.838.156c-1.064 0-1.92-.42-2.568-1.26-.64-.856-.96-1.888-.96-3.096 0-1.2.32-2.228.96-3.084.648-.848 1.504-1.272 2.568-1.272 1.08 0 1.936.424 2.568 1.272.648.848.972 1.876.972 3.084 0 1.216-.324 2.248-.972 3.096-.632.84-1.488 1.26-2.568 1.26zm0-1.236c.664 0 1.2-.3 1.608-.9.408-.6.612-1.34.612-2.22 0-.88-.204-1.62-.612-2.22-.408-.6-.944-.9-1.608-.9-.656 0-1.188.304-1.596.912-.408.6-.612 1.336-.612 2.208 0 .864.204 1.604.612 2.22.408.6.94.9 1.596.9z" fill="#2B7EE0"/><path stroke="#2B7EE0" d="M27.913 88.967l393.923-69.459"/><path d="M63.202 67H61.69v-2.562h-5.082v-1.176L61.69 57.2h1.512v5.922h1.526v1.316h-1.526V67zm-1.512-7.826l-3.332 3.948h3.332v-3.948zm4.605 9.954h-1.19l1.162-3.92h1.736l-1.708 3.92zm7.195-1.946c-1.241 0-2.24-.49-2.996-1.47-.747-.999-1.12-2.203-1.12-3.612 0-1.4.373-2.6 1.12-3.598.756-.99 1.755-1.484 2.996-1.484 1.26 0 2.259.495 2.996 1.484.756.99 1.134 2.189 1.134 3.598 0 1.419-.378 2.623-1.134 3.612-.737.98-1.736 1.47-2.996 1.47zm0-1.442c.775 0 1.4-.35 1.876-1.05.476-.7.714-1.563.714-2.59s-.238-1.89-.714-2.59-1.102-1.05-1.876-1.05c-.765 0-1.386.355-1.862 1.064-.476.7-.714 1.559-.714 2.576 0 1.008.238 1.871.714 2.59.476.7 1.097 1.05 1.862 1.05zM85.81 67h-6.817v-1.12l3.08-2.884c.653-.607 1.134-1.13 1.442-1.568.28-.42.42-.868.42-1.344 0-.495-.182-.891-.546-1.19-.355-.308-.822-.462-1.4-.462-.971 0-1.886.406-2.744 1.218v-1.61c.802-.681 1.768-1.022 2.898-1.022.924 0 1.708.266 2.352.798.653.532.98 1.227.98 2.086 0 .663-.164 1.265-.49 1.806-.346.55-.896 1.185-1.652 1.904l-2.114 2.016h4.592V67zm4.217.182c-1.055 0-1.974-.224-2.758-.672v-1.442c.802.495 1.698.742 2.688.742.7 0 1.292-.177 1.778-.532.485-.364.728-.845.728-1.442 0-.57-.229-1.036-.686-1.4-.448-.364-1.041-.546-1.778-.546-.756 0-1.54.14-2.352.42l.644-5.11h5.04v1.344h-3.92l-.28 2.254a4.738 4.738 0 011.232-.154c1.054 0 1.927.294 2.618.882.69.588 1.036 1.358 1.036 2.31 0 1.027-.383 1.839-1.148 2.436-.766.607-1.713.91-2.842.91zm122.512-27c-1.054 0-1.974-.224-2.758-.672v-1.442c.803.495 1.699.742 2.688.742.7 0 1.293-.177 1.778-.532.486-.364.728-.845.728-1.442 0-.57-.228-1.036-.686-1.4-.448-.364-1.04-.546-1.778-.546-.756 0-1.54.14-2.352.42l.644-5.11h5.04v1.344h-3.92l-.28 2.254a4.743 4.743 0 011.232-.154c1.055 0 1.928.294 2.618.882.691.588 1.036 1.358 1.036 2.31 0 1.027-.382 1.839-1.148 2.436-.765.607-1.712.91-2.842.91zm5.951 1.946h-1.19l1.162-3.92h1.736l-1.708 3.92zM224.76 40h-1.512v-8.148L221.106 33v-1.498l2.31-1.302h1.344V40zm4.24 0h-1.652l4.242-8.414h-4.942V30.2h6.692v1.19L229 40zm8.422.182c-1.158 0-2.133-.247-2.926-.742v-1.498c.802.579 1.75.868 2.842.868.644 0 1.199-.177 1.666-.532.466-.364.7-.85.7-1.456 0-.57-.206-1.027-.616-1.372-.411-.355-.962-.532-1.652-.532-.448 0-.864.075-1.246.224v-1.05l2.632-2.548h-3.962V30.2h6.006v1.162l-2.506 2.408a3.421 3.421 0 012.044.952c.569.541.854 1.241.854 2.1 0 1.008-.369 1.82-1.106 2.436-.728.616-1.638.924-2.73.924z" fill="#2B7EE0"/><path d="M361.555 14.182c-1.055 0-1.974-.224-2.758-.672v-1.442c.803.495 1.699.742 2.688.742.7 0 1.293-.177 1.778-.532.485-.364.728-.845.728-1.442 0-.57-.229-1.036-.686-1.4-.448-.364-1.041-.546-1.778-.546-.756 0-1.54.14-2.352.42l.644-5.11h5.04v1.344h-3.92l-.28 2.254a4.74 4.74 0 011.232-.154c1.055 0 1.927.294 2.618.882.691.588 1.036 1.358 1.036 2.31 0 1.027-.383 1.839-1.148 2.436-.765.607-1.713.91-2.842.91zm5.95 1.946h-1.19l1.162-3.92h1.736l-1.708 3.92zM376.758 14h-1.512v-2.562h-5.082v-1.176l5.082-6.062h1.512v5.922h1.526v1.316h-1.526V14zm-1.512-7.826l-3.332 3.948h3.332V6.174zM382.69 14h-1.512V5.852L379.036 7V5.502l2.31-1.302h1.344V14zm5.612-9.982c1.194 0 2.128.406 2.8 1.218.681.803 1.022 1.927 1.022 3.374 0 1.568-.388 2.893-1.162 3.976-.766 1.064-1.839 1.596-3.22 1.596-.812 0-1.531-.205-2.156-.616v-1.4c.606.41 1.269.616 1.988.616.952 0 1.67-.327 2.156-.98.504-.653.774-1.447.812-2.38-.57.737-1.414 1.106-2.534 1.106-.906 0-1.657-.285-2.254-.854-.598-.57-.896-1.325-.896-2.268 0-.999.326-1.81.98-2.436.662-.635 1.484-.952 2.464-.952zm.098 1.358c-.579 0-1.06.191-1.442.574-.383.383-.574.859-.574 1.428 0 .57.191 1.031.574 1.386.382.345.868.518 1.456.518.485 0 .933-.15 1.344-.448.42-.299.695-.667.826-1.106-.056-.737-.276-1.311-.658-1.722-.383-.42-.892-.63-1.526-.63z" fill="#fff"/><circle cx="225" cy="54" r="3" fill="#2B7EE0" stroke="#0A1428" stroke-width="2"/><circle cx="375" cy="27.75" r="3" fill="#2B7EE0" stroke="#0A1428" stroke-width="2"/><circle cx="75" cy="80.75" r="3" fill="#2B7EE0" stroke="#0A1428" stroke-width="2"/><defs><linearGradient id="paint0_linear_5_39" x1="75" y1="126" x2="75.151" y2="200" gradientUnits="userSpaceOnUse"><stop stop-color="#647391"/><stop offset="1" stop-color="#647391" stop-opacity="0"/></linearGradient><linearGradient id="paint1_linear_5_39" x1="25" y1="0" x2="25.385" y2="117.999" gradientUnits="userSpaceOnUse"><stop stop-color="#647391"/><stop offset="1" stop-color="#647391" stop-opacity="0"/></linearGradient><linearGradient id="paint2_linear_5_39" x1="25" y1="0" x2="25.606" y2="147.998" gradientUnits="userSpaceOnUse"><stop stop-color="#2B7EE0"/><stop offset="1" stop-color="#2B7EE0" stop-opacity="0"/></linearGradient></defs></svg>