<svg width="155" height="50" fill="none" xmlns="http://www.w3.org/2000/svg"><path d="M62.838 4.806v3.9h-5.883v13.83h-3.922V4.805h9.805zM78.084 20.23a8.906 8.906 0 01-6.324 2.66 8.906 8.906 0 01-6.323-2.66c-1.737-1.773-2.605-3.96-2.605-6.559s.868-4.785 2.605-6.559a8.903 8.903 0 016.323-2.66 8.9 8.9 0 016.324 2.66c1.737 1.772 2.605 3.959 2.605 6.56 0 2.6-.868 4.786-2.605 6.559zm-9.89-2.761a5.093 5.093 0 003.566 1.47 5.093 5.093 0 003.566-1.47c.957-.979 1.435-2.245 1.435-3.798 0-1.552-.478-2.819-1.434-3.799a5.092 5.092 0 00-3.567-1.47 5.092 5.092 0 00-3.566 1.47c-.955.979-1.433 2.245-1.434 3.8-.002 1.554.477 2.82 1.434 3.797zM89.385 4.806c.79-.018 1.576.13 2.308.435.734.305 1.399.76 1.957 1.339a5.826 5.826 0 011.304 1.964c.3.741.447 1.538.433 2.34a5.98 5.98 0 01-.433 2.341 5.82 5.82 0 01-1.306 1.964 5.832 5.832 0 01-1.956 1.339 5.677 5.677 0 01-2.309.435H86.81v5.572h-3.92V4.805h6.496zm0 8.358c.28.008.56-.047.817-.16a1.95 1.95 0 00.678-.498 2.346 2.346 0 00.588-1.622 2.343 2.343 0 00-.588-1.62 1.95 1.95 0 00-.677-.499 1.893 1.893 0 00-.818-.16H86.81v4.555l2.575.004zm25.122-8.358v17.73h-3.921v-10.31l-4.437 7.522h-.441l-4.437-7.522v10.31H97.35V4.805h3.921l4.657 7.867 4.658-7.867h3.921zm14.127 17.729l-.92-2.787h-6.601l-.858 2.787h-4.29l5.835-17.73h5.01l5.845 17.73h-4.021zm-6.333-6.592h4.158l-2.148-6.502-2.01 6.502zm27.994-11.137h3.922v17.73h-20.1V4.805h3.922v13.828h4.166V4.806h3.922v13.828h4.168V4.806z" fill="#fff"/><path fill-rule="evenodd" clip-rule="evenodd" d="M94.262 42.894a8.91 8.91 0 01-6.325 2.658 8.91 8.91 0 01-6.324-2.658c-1.737-1.772-2.605-3.959-2.605-6.56 0-2.6.868-4.786 2.605-6.559a8.91 8.91 0 016.325-2.658 8.91 8.91 0 016.324 2.659c1.737 1.773 2.605 3.96 2.605 6.559s-.868 4.785-2.605 6.56zm-9.897-2.76a5.1 5.1 0 003.567 1.468 5.1 5.1 0 003.567-1.468c.955-.978 1.432-2.245 1.432-3.8 0-1.553-.477-2.82-1.432-3.797a5.094 5.094 0 00-3.567-1.47 5.094 5.094 0 00-3.567 1.47c-.956.98-1.433 2.245-1.433 3.798s.477 2.82 1.433 3.8zm-21.527-8.762v-3.9h-9.805v17.727h3.922V31.372h5.883zm-.735 10.038v3.789a7.095 7.095 0 002.415-.112 5.943 5.943 0 002.132-.973c.677-.485 1.216-1.25 1.617-2.294.4-1.045.601-2.32.601-3.823v-6.625h4.02v13.827h3.922V27.47H64.946v10.696c0 1.404-.237 2.333-.71 2.787-.475.454-1.186.606-2.133.456zm47.846-5.82c-1.08-1.023-2.501-1.535-4.265-1.535l-2.697.008v-2.691h7.106v-3.9H99.071v17.727h6.613c1.765-.002 3.186-.513 4.265-1.533 1.078-1.02 1.617-2.366 1.617-4.04.001-1.668-.538-3.014-1.617-4.037zm-2.305 4.037c0 1.183-.653 1.774-1.96 1.774l-2.697.008v-3.554h2.697c1.307-.002 1.96.589 1.96 1.772zm16.576 5.572l-.919-2.785h-6.599l-.86 2.785h-4.288l5.833-17.728h5.01l5.847 17.728h-4.024zm-6.33-6.585h4.158l-2.148-6.507-2.01 6.507zm10.833 2.796v3.789a7.095 7.095 0 002.415-.112 5.915 5.915 0 002.132-.973c.678-.485 1.217-1.25 1.617-2.294.401-1.045.602-2.32.602-3.823v-6.625h4.019v13.827h3.922V27.47h-11.863v10.696c-.001 1.404-.239 2.333-.712 2.787-.472.454-1.183.606-2.132.456z" fill="#647391"/><path fill-rule="evenodd" clip-rule="evenodd" d="M22.445 9.178c-.087.036-.177.06-.269.073.177-.1.369-.17.567-.207-.095.05-.195.092-.296.126l-.002.008zm-.047.305c-.26.132-.4.167-.376.126.203-.157.436-.267.683-.323 0 .036-.275.177-.308.193l-.002.002.003.002zm-2.69.408c-.019.047.146.002.4-.108l.045-.02c.11-.051.37-.171.356-.206-.05-.05-.768.249-.802.334zm2.374.11c-.002.061.19-.02.415-.175.074-.05.336-.244.284-.273-.098-.023-.7.321-.7.447zm.707.188c-.216.207-.4.271-.4.184 0-.139.442-.52.6-.51.073.03-.104.233-.2.326zm-2.705.078c-.339.189-.601.265-.56.17.063-.165.864-.577 1.023-.524.052.069-.457.352-.463.354zm.222.5c-.4.285-.68.358-.657.227.046-.236.896-.735 1.062-.677.094.06-.26.344-.4.45h-.005zm-.28.757c-.018.19.317.104.7-.25h-.009c.136-.12.457-.47.31-.534-.248-.044-.975.523-1.001.784zm-2.892.412c-.042.176.277.116.746-.238.006-.004.637-.482.505-.604-.19-.118-1.187.552-1.25.842zm.32.71c-.02.26.382.176.872-.283h.002c.173-.162.584-.607.401-.717-.32-.085-1.238.634-1.274 1zm1.6.369c-.459.542-.968.65-.966.315 0-.427.83-1.187 1.214-1.114.257.114-.092.62-.248.799zm-4.116.79c.012.251.419.092.855-.322.351-.336.642-.783.5-.89-.323-.154-1.373.788-1.355 1.213zm4.08.216c.092.379.665.164 1.022-.385v-.008c.194-.298.342-.762.064-.849-.455-.046-1.194.797-1.086 1.242zm-3.6.603c.009.414.558.244 1.049-.328.336-.387.557-.902.336-1.008-.422-.132-1.384.801-1.384 1.336zm2.043.455c-.189.277-.615.723-1.002.64-.533-.228.088-1.348.79-1.67a.516.516 0 01.36-.059c.325.141.116.72-.138 1.09h-.01zm-.06 1.126c.114.555.873.435 1.316-.372.265-.483.299-1.056-.07-1.145-.645-.09-1.36.963-1.246 1.517zm-3.776.675c.09.454.694.325 1.189-.43.248-.38.52-1.048.2-1.255-.587-.203-1.507 1.064-1.389 1.685zm1.004.953c.173.608.962.343 1.403-.47h.002c.244-.45.397-1.166-.026-1.352-.577-.186-1.613 1.004-1.379 1.822zm2.898.387c-.4.92-1.329 1.2-1.581.476-.279-.797.601-2.039 1.318-1.863.525.168.47.917.263 1.395v-.008zm-5.369 1.052c.169.586.834.323 1.235-.49.244-.477.409-1.253.044-1.494-.567-.294-1.51 1.18-1.278 1.984zm2.605.546c-.434 1.019-1.258 1.164-1.51.497-.307-.813.482-2.325 1.31-2.107.543.246.4 1.118.2 1.61zm4.132 10.846c-.016.401-.26 1.062-1.072.99-1.244-.256-1.602-1.924-.771-2.473a.9.9 0 01.641-.132c.868.178 1.226 1.052 1.202 1.615zm-7.83-8.752c.266.565.85.269 1.16-.586.178-.497.3-1.402-.135-1.706a.56.56 0 00-.062-.027c-.657-.213-1.364 1.478-.964 2.319zm1.326 8.485c.04.376-.02.968-.501.792-.874-.472-1.242-2.314-.68-2.521a.356.356 0 01.26.023c.536.292.867 1.19.92 1.706zm-2.184-3.028c.316.367.633.01.675-.766.032-.565-.11-1.509-.53-1.832a.253.253 0 00-.11-.043c-.584-.075-.612 1.975-.035 2.641zm10.308-5.008c-.22 1.085-1.403 1.435-1.93.57-.479-.796.066-2.127 1.078-2.071.802.145.946.998.846 1.503l.006-.002zm-1.926 11.11a.774.774 0 00.048-.343 1.615 1.615 0 00-.376-.913 1.528 1.528 0 00-.826-.504.793.793 0 00-.551.102c-.694.447-.249 1.873.88 2.118a.705.705 0 00.632-.174.752.752 0 00.193-.285zm3.15-4.83c-.134 1.076-1.332 1.42-2.004.571-.645-.814-.262-2.149.858-2.116a1.311 1.311 0 01.886.525 1.39 1.39 0 01.262 1.02h-.002zm-11.282 1.275c.275.255.435-.046.365-.679-.056-.511-.303-1.368-.675-1.677a.241.241 0 00-.135-.047c-.42.039-.072 1.925.445 2.403zm11.829-4.139c-.136 1.062-1.363 1.45-1.986.621-.623-.828-.174-2.122.93-2.101.894.118 1.122.971 1.056 1.48zm-4.69-6.257c.34.657 1.318.456 1.652-.548.148-.452.152-1.224-.479-1.377-.875-.087-1.538 1.221-1.174 1.925zM21.3 31.368c-.076.993-1.296 1.252-1.95.414-.583-.75-.258-1.89.782-1.85.334.044.64.216.856.482.217.265.328.606.312.953zm-6.871 2.348c.146.57-.112.828-.561.577-.79-.455-1.34-1.805-.802-1.981a.444.444 0 01.26.014c.574.23 1.003.965 1.107 1.387l-.004.002zM9.616 23.42c.164.25.432-.083.587-.727.118-.488.184-1.347-.046-1.643a.184.184 0 00-.069-.042c-.428-.095-.817 1.89-.472 2.412zm1.51-3.277c-.266.656-.637.948-.79.62-.288-.598.436-2.397.887-2.18a.16.16 0 01.038.027c.234.27.066 1.058-.129 1.532h-.006zm4.433 14.93c.577.356 1.002.124.874-.497a1.881 1.881 0 00-.425-.79 1.799 1.799 0 00-.735-.492.583.583 0 00-.315 0c-.557.178-.184 1.292.601 1.779zm-2.886-2.323c.155.542.016.793-.32.581-.635-.4-1.267-1.919-.854-2.055a.277.277 0 01.2.03c.488.276.854 1.036.97 1.45l.004-.006zm-3.298-6.665c.148.172.293-.162.335-.773h-.002c.042-.596-.022-1.384-.223-1.666a.118.118 0 00-.088-.046c-.335.038-.353 2.106-.022 2.485zm13.436-3.104c-.136 1.015-1.272 1.402-1.843.621-.533-.724-.095-1.987.91-1.979.757.095 1.001.847.933 1.35v.008zm-2.705-2.39c.683.032 1.018-.598 1.098-.935H21.2c.116-.485-.012-1.2-.657-1.313a.874.874 0 00-.601.193c-.746.565-.772 1.888.164 2.056zm.85 13.175c-.02.857-1.06 1.058-1.716.33-.6-.671-.328-1.56.481-1.557h.104c.3.03.577.17.785.395.207.225.33.518.346.828v.004zm-8.563-16.04c-.4.69-.822.828-.906.485-.15-.605.752-2.054 1.162-1.863a.315.315 0 01.036.02c.227.25-.06.969-.292 1.362v-.004zm5.02 17.966c.635.451 1.252.24 1.156-.396l-.008.007c-.062-.282-.2-.54-.4-.742a1.44 1.44 0 00-.726-.4.948.948 0 00-.249-.01c-.639.092-.503 1.021.227 1.54zm-6.229-4.05c.13.443.113.702-.044.621l-.036-.023c-.515-.447-1.036-2.05-.785-2.07a.17.17 0 01.1.041c.313.272.641 1.021.765 1.45v-.02zM9.598 28.68c.103.087.139-.211.085-.708h.004c-.054-.462-.213-1.28-.401-1.567-.018-.02-.04-.042-.062-.042-.227.04.106 2.087.374 2.317zm14.683.514a1.113 1.113 0 01-.24.61 1.055 1.055 0 01-.536.355c-.21.06-.432.05-.637-.026a1.063 1.063 0 01-.507-.4c-.518-.697-.154-1.833.838-1.862a1.156 1.156 0 01.812.418 1.207 1.207 0 01.27.894v.01zm.463-2.862a1.097 1.097 0 01-.209.587c-.124.17-.294.297-.49.367-.194.07-.404.078-.604.024a1.036 1.036 0 01-.515-.328c-.544-.633-.314-1.898.79-1.927a1.078 1.078 0 01.781.41 1.153 1.153 0 01.247.867zm-5.53-9.073c.522.044.869-.457.991-.76l.002.003c.15-.377.207-1.017-.282-1.135a.7.7 0 00-.487.139c-.626.405-.976 1.577-.225 1.753zm4.258 15.295a.985.985 0 00.332-.642l.008.004a1.166 1.166 0 00-.288-.827 1.067 1.067 0 00-.774-.365.991.991 0 00-.66.207c-.666.536-.346 1.751.712 1.848a.924.924 0 00.67-.225zm-.159-12.28c-.16.89-1.15 1.209-1.603.517-.423-.643-.018-1.736.836-1.74.51.033.877.62.77 1.223h-.003zM14.775 36.17c.277.097.35-.116.17-.493-.158-.337-.588-.898-1.047-1.09a.292.292 0 00-.2-.017c-.38.15.456 1.393 1.077 1.6zM9.581 21.456c-.128.468-.262.741-.324.66-.162-.206.256-2.138.473-2.167.02 0 .032.019.042.037.06.19-.028.878-.19 1.47zm6.766 15.456c.41.185.617.01.458-.403v.006a1.901 1.901 0 00-.437-.618 1.832 1.832 0 00-.639-.39.431.431 0 00-.274 0c-.369.186.214 1.105.892 1.405zm4.408-1.023v.009c.001.095.008.636-.687.59-.884-.139-1.329-1.08-.864-1.45a.747.747 0 01.521-.12c.251.025.488.133.674.309.186.175.312.409.358.665l-.002-.003zm-10.73-16.352c.067.145.28-.104.502-.592l-.006-.002c.175-.383.419-1.081.339-1.33l-.008-.01c-.008-.012-.017-.025-.026-.025-.255-.111-.964 1.62-.802 1.959zm3.292 15.247c.2.373.2.575 0 .505l-.044-.02c-.583-.344-1.29-1.562-1.058-1.657a.183.183 0 01.148.031c.385.226.777.806.948 1.14h.006zM8.97 24.727c.058-.051.1-.467.122-.71v-.002c.051-.49.057-.986.017-1.478a.131.131 0 00-.027-.041c-.086.07-.27 2.099-.112 2.231zm4.988-9.223c-.056.072-.561.704-.86.54-.35-.356.688-1.656 1.154-1.694a.177.177 0 01.113.027c.2.207-.149.797-.401 1.129l-.006-.002zm11.012 8.584c.115-.158.182-.347.192-.545a1.095 1.095 0 00-.216-.812 1.035 1.035 0 00-.32-.274 1.003 1.003 0 00-.4-.12c-.932.032-1.27 1.163-.747 1.805.125.149.29.256.476.307a.93.93 0 00.56-.02.962.962 0 00.455-.34zm-3.057-6.986c-.08.302-.366.807-.913.79-.756-.127-.67-1.229-.032-1.707a.688.688 0 01.474-.16c.5.087.574.684.465 1.077h.006zm-.232 17.483c.535.68 1.621.493 1.685-.29v.008c.03-.389-.258-.958-1.002-1.035-.831-.004-1.114.77-.683 1.317zm-11.55-4.112c.066.186.109.38.126.578h-.014c-.165-.166-.72-1.791-.682-1.998h.016l.029.035c.215.446.39.91.524 1.39v-.005zm1.739-13.87c-.31.474-.583.69-.635.505-.11-.4.833-1.863 1.074-1.675a.083.083 0 01.016.021c.08.207-.239.828-.457 1.149h.002zm6.482 20.999c.555.076.42-.396.401-.45h-.002a1.465 1.465 0 00-.398-.56 1.4 1.4 0 00-.604-.307.494.494 0 00-.348.044c-.349.238.202 1.105.951 1.273zm-6.4-3.839c.142.273.246.536.156.503-.242-.09-1.134-1.577-1.016-1.691.016-.017.046 0 .079.03.307.35.569.738.779 1.156l.002.002zm-2.819-6.455a21.315 21.315 0 00-.055-.616h-.002c0-.01-.108-1.103-.154-1.418v.005c.04.61.135 1.42.211 2.03zm0 0a.963.963 0 01.002.01l-.002-.01zm14.652-9.67a.882.882 0 01-.262.542.83.83 0 01-.54.235c-.8-.09-.763-1.16-.256-1.595a.663.663 0 01.455-.171c.535.06.65.637.601.99h.002zm.283 3.681c.455.545 1.374.294 1.432-.581l-.01-.002c.037-.377-.162-.994-.801-1.035-.723-.005-1.118 1.024-.621 1.619zm2.767 8.347a1.003 1.003 0 01-.21.525.953.953 0 01-.456.318.924.924 0 01-.55.004.951.951 0 01-.461-.31 1.029 1.029 0 01-.12-1.047.99.99 0 01.348-.413.946.946 0 01.507-.162.916.916 0 01.707.323 1.005 1.005 0 01.235.762zm.45-2.893a1.023 1.023 0 01-.29.642.962.962 0 01-.629.286c-.938-.035-1.202-1.189-.6-1.745a.906.906 0 01.59-.247.92.92 0 01.696.319 1.007 1.007 0 01.243.746h-.01zm-7.127-12.137c.142.451.776.217 1.058-.39.14-.303.198-.788-.128-.864-.415-.056-1.09.743-.93 1.254zm2.845 21.738c0 .576-.855.805-1.388.222-.433-.474-.15-1.05.503-1.025.611.064.89.517.884.803h.002zm-2.256 1.309c.088.414-.38.608-.938.254-.512-.327-.635-.844-.226-.969a.645.645 0 01.265-.016c.2.023.39.104.55.233.159.13.28.301.35.498zm5.248-4.775a.951.951 0 00.317-.561c.048-.383-.2-.934-.9-.965a.948.948 0 00-.647.267c-.527.514-.25 1.437.637 1.476a.896.896 0 00.593-.217zm-13.17-18.017c0 .223.307.058.686-.363h-.004c.325-.36.627-.828.55-.958-.201-.199-1.231.907-1.231 1.32zm2.99 22.487c.177.234.2.373.083.354-.379-.056-1.339-1.006-1.168-1.157.023-.021.065-.014.103-.006.018.003.035.006.049.006.362.194.68.465.934.795v.008zM9.33 20.676c.01-.027.04-.113.173-.568l-.004.002.012-.039c.056-.196.27-.933.323-1.155v-.03l-.018.053-.018.051c-.139.423-.288.98-.412 1.445l-.057.212v.033l.001-.004zm1.756 12.179c.051.097.102.194.15.293a37.888 37.888 0 01-.833-1.608l.02.033c.138.261.274.525.408.789l.153.298-.004-.009.106.203zm6.313 5.542c.19.033.214-.102.058-.33v.011a2.097 2.097 0 00-.934-.716.274.274 0 00-.186 0c-.245.14.579.95 1.062 1.035zm5.222-23.608c-.186.597-.792.84-1.002.414-.21-.426.23-1.258.713-1.242.285.03.427.43.299.845l-.01-.017zm-12.484 3.475c.125-.166.23-.346.314-.537l-.01-.002a7.17 7.17 0 00.45-1.087.056.056 0 000-.03c-.095.055-.849 1.544-.755 1.655zm17.475 5.7a.89.89 0 01-.166.496.845.845 0 01-.413.307.818.818 0 01-.508.006.843.843 0 01-.42-.296.933.933 0 01-.003-1.237.85.85 0 011.195-.084.909.909 0 01.258.362.933.933 0 01.058.446zM14.545 36.94c.062-.004-.062-.19-.2-.364h.008a4.611 4.611 0 00-.876-.857c-.036-.025-.074-.037-.092-.025-.11.075.68.965 1.092 1.22a.223.223 0 00.068.026zm11.206-2.246c-.088.662-1.054.871-1.475.32-.308-.4-.122-1.094.667-1.125.66.033.842.513.802.805h.006zm-6.587 3.94c.01.015.2.36-.2.298-.521-.124-1.114-.708-.896-.882a.278.278 0 01.234-.027c.349.09.654.307.86.611h.002zm5.43-20.075c.393.513 1.09.242 1.15-.445.041-.458-.282-.895-.66-.895-.567.035-.882.826-.49 1.34zm-12.782-3.046c-.2.267-.401.507-.427.44-.07-.17.824-1.48.956-1.399a.033.033 0 010 .025c-.022.178-.373.706-.537.934h.008zm1.597 20.512a2.651 2.651 0 00-.27-.35v-.002c-.157-.199-.534-.677-.734-.863-.03-.027-.03-.027-.042-.027.31.447.66.862 1.046 1.242zM15.5 12.63c-.383.32-.695.457-.683.3.026-.315 1.066-1.153 1.252-1.008.056.128-.359.532-.569.708zm6.214 25.628c.409.381 1.078.292 1.052-.14l.01-.003c-.014-.21-.25-.532-.733-.584h-.08c-.461.01-.595.404-.249.727zm6.076-17.12a.744.744 0 01-.102.426.708.708 0 01-.322.288.68.68 0 01-.792-.176c-.431-.464-.253-1.34.439-1.408a.78.78 0 01.565.266.834.834 0 01.212.603zm-4.513-5.465c.28.402.828.147.918-.414v-.008c.044-.288-.058-.73-.425-.77-.479.012-.773.79-.493 1.192zm1.934 21.082c-.074.522-.928.646-1.25.182-.215-.306-.069-.795.567-.813.555.033.71.403.679.631h.004zm-4.276 2.354c.1.253-.17.344-.537.178-.427-.192-.652-.563-.401-.662a.469.469 0 01.2-.017c.15.022.294.078.42.165.126.087.232.202.31.336h.008zm7.052-8.617c.414.517 1.286.203 1.372-.495v-.006a.755.755 0 00-.187-.6.708.708 0 00-.568-.228c-.714.087-.982.875-.617 1.329zm-6.596-18.73c-.302.38-.705.538-.719.284-.016-.3.583-.89.88-.863.18.06-.03.414-.16.58zm-8.342 2.102c.012.066.223-.073.5-.348h.001c.18-.18.56-.598.571-.735v-.012c-.042-.048-.294.12-.6.434-.271.272-.484.595-.472.66zm16.755 13.274a.88.88 0 01-.229.534.83.83 0 01-.505.263c-.76.012-1.001-.915-.515-1.394a.79.79 0 01.48-.227.73.73 0 01.564.236.781.781 0 01.209.592l-.004-.004zm-2.427 5.913c.363.51 1.23.26 1.349-.385a.663.663 0 00-.17-.55.618.618 0 00-.527-.187c-.652.066-.94.708-.652 1.122zm-5.116-20.813c-.094.166-.316.446-.56.433-.332-.076-.075-.679.322-.946a.36.36 0 01.242-.085c.18.027.143.338 0 .598h-.004zm-5.228 26.51c.06.05.25.208.2.208-.16 0-1.13-.69-1.038-.745.012 0 .042 0 .072.014.274.145.534.319.774.518l-.008.006zm12.913-14.106a.712.712 0 00.098-.389.759.759 0 00-.209-.545.713.713 0 00-.528-.214.717.717 0 00-.369.173.754.754 0 00-.222.35.776.776 0 00.204.775.652.652 0 00.736.118.68.68 0 00.29-.268zm-6.64-11.97c-.151.446-.544.579-.66.308-.142-.338.24-.9.515-.88.218.035.214.356.144.571zM18.55 39.51c.062-.002.02-.073-.114-.189a2.604 2.604 0 00-.744-.45l-.02-.002-.014-.002c-.028-.004-.058-.008-.072.003-.102.087.745.64.964.64zm9.203-20.743a.558.558 0 00.045-.324h-.004a.711.711 0 00-.185-.471.667.667 0 00-.444-.217c-.55.048-.631.847-.23 1.185a.516.516 0 00.818-.173zm.275 16.248c-.112.538-.947.724-1.202.269-.2-.335.082-.828.621-.857.461 0 .645.302.587.588h-.006zm-2.25-18.995a.528.528 0 00.113-.366h.006c.002-.232-.126-.627-.48-.646a.366.366 0 00-.247.1c-.32.287-.267 1.068.28 1.097a.497.497 0 00.328-.185zM15.739 38.06c.095.068.183.145.263.23a6.403 6.403 0 01-1.028-.803c.016 0 .016 0 .046.02.166.106.483.359.72.553zm6.283 1.504c.314.205.713.143.655-.104-.028-.126-.198-.325-.547-.364a.516.516 0 00-.164.012c-.225.06-.197.29.056.456zm2.709-1.116c-.046.354-.663.428-.92.111-.168-.207-.074-.538.401-.544.417.023.543.277.523.433h-.004zM17.144 11.26c.09.062.461-.16.573-.227l-.01-.013.005-.003c.057-.036.576-.364.532-.457-.076-.028-.394.108-.677.286-.176.116-.465.327-.423.414zm-4.95 3.201c-.08.116-.168.225-.264.327.237-.364.498-.71.784-1.035a.078.078 0 010 .023c-.057.089-.227.319-.51.683l-.01.002zm7.73 25.484c.076-.006.058-.069-.05-.168l-.002.008a1.642 1.642 0 00-.644-.352c-.038-.014-.104-.027-.13 0-.098.098.587.528.826.512zm-4.377-28.117c-.295.207-.49.304-.475.221.034-.186.938-.85 1.03-.758 0 .104-.4.414-.559.528l.004.009zm14.474 9.922a.567.567 0 00.056-.332.675.675 0 00-.197-.459.632.632 0 00-.452-.185c-.52.075-.609.777-.254 1.11a.527.527 0 00.613.102.542.542 0 00.234-.236zm-5.494-8.684c-.053.38-.39.565-.561.308-.2-.296.048-.828.308-.818.217.025.279.32.253.51zm1.805 24.125c.203.344.862.22.966-.182v-.002c.046-.18-.058-.437-.459-.437-.443.035-.653.377-.507.62zm-5.046 3.09c.116.007.142-.044.064-.131a.933.933 0 00-.503-.26c-.098-.014-.132.007-.144.022-.08.093.323.347.583.368zm-7.362-27.677a1.26 1.26 0 01-.297.232c.099-.17.74-.766.802-.743v.014a4.88 4.88 0 01-.495.505l-.01-.008zM30.75 30.562c.288.435.913.124.98-.364h-.004a.488.488 0 00-.12-.404.457.457 0 00-.385-.143c-.431.083-.692.578-.471.911zm-3.663-14.23c.27.234.597.025.555-.354h-.008a.535.535 0 00-.14-.33.503.503 0 00-.311-.16c-.337.039-.399.58-.096.844zm5.084 11.031c-.03.501-.602.758-.894.4a.613.613 0 01.102-.828.573.573 0 01.269-.124.456.456 0 01.392.143.49.49 0 01.129.41h.002zm-9.254-16.636c.02.114.208.037.368-.194.052-.077.179-.303.078-.33-.156-.002-.474.369-.446.524zm8.131 22.119c-.09.443-.697.654-.915.315-.17-.263.058-.727.48-.777.39-.022.473.27.435.462zm-1.17-14.094a.386.386 0 01-.016.23.372.372 0 01-.144.178.354.354 0 01-.425-.031c-.305-.232-.3-.79.09-.853a.498.498 0 01.336.14.53.53 0 01.16.336zm-4.409-5.05c.175.147.415.019.401-.29h-.012c-.006-.147-.088-.397-.288-.397-.253.017-.323.493-.1.687zm-1.136 26.026c0 .207-.42.236-.585.044-.11-.129-.016-.29.235-.284.25.006.352.155.35.24zm-5.747.05v-.001l-.074-.036h-.008l-.503-.247h-.028c.016.013.12.075.32.166l.401.18h.018c-.041-.022-.084-.042-.126-.063zm-.721-29.376c-.245.124-.401.178-.39.128.013-.05.774-.511.842-.426 0 .058-.328.234-.452.298zm5.763.652c.048.133.224.025.31-.182.049-.118.065-.292-.027-.31-.15.004-.331.36-.283.492zm8.72 13.39c0 .414-.434.685-.734.356a.506.506 0 01-.106-.489.504.504 0 01.134-.219.48.48 0 01.222-.12.446.446 0 01.343.13.475.475 0 01.142.348v-.006zM25.91 38.755c.115.222.57.162.65-.085.046-.145-.1-.267-.301-.267-.277.017-.423.207-.349.352zm-3.128 1.675c.048.08-.056.118-.216.077-.16-.042-.309-.17-.235-.222a.183.183 0 01.123-.018.443.443 0 01.328.163zm-2.942-.166a1.209 1.209 0 00-.144-.07v-.006a4.717 4.717 0 00-.453-.19h-.038c.201.114.414.203.636.267zm10.35-5.066c-.107.333-.636.464-.755.186-.07-.159.044-.488.435-.542.323-.017.367.207.319.356h.002zM15.668 11.203c.02.023.219-.101.28-.14l.01-.007c.144-.09.279-.194.402-.312-.044-.044-.68.377-.692.46zm5.286 29.38a1.5 1.5 0 01-.496-.182h.042c.127.035.252.081.373.137.07.033.079.042.081.045zm11.28-18.817a.312.312 0 000-.19.37.37 0 00-.121-.245.347.347 0 00-.253-.088c-.327.068-.297.505-.086.663a.287.287 0 00.349.012.302.302 0 00.11-.152zM29.257 37.17c-.088.207-.449.315-.533.114-.056-.132.116-.315.324-.342.16-.012.265.1.2.228h.009zm-4.713-25.825c.066.093.192.023.212-.163.01-.087.02-.226-.096-.228-.116-.002-.182.298-.116.391zm4.625 5.085c.166.114.3-.029.266-.207v-.002a.328.328 0 00-.099-.182.31.31 0 00-.185-.083h-.018c-.165.041-.165.342.036.474zm-1.888-2.73c.028.152-.07.279-.2.194-.175-.114-.17-.396-.034-.427h.006c.116 0 .2.137.222.234l.006-.002zm-5.22 27.118c.01-.002-.004-.014-.036-.029a1.075 1.075 0 00-.243-.076c-.004 0-.007-.003-.01-.005-.007-.005-.014-.01-.028.005-.02.023.273.12.317.105zm-7.389-29.09l-.114.095a7.42 7.42 0 01.4-.335v.01l-.268.23h-.018zm10.992 28.277c.2-.085.2-.085.21-.11.014-.035-.062-.068-.134-.068a.214.214 0 00-.076.014h-.001l-.003.003c-.027.015-.154.091.004.16zM20.427 9.332a.68.68 0 01-.219.051c0-.024.183-.085.185-.085.073-.017.147-.03.222-.037a2.086 2.086 0 01-.188.07zm3.483 31.32a.976.976 0 00.174-.046l.008-.002a.207.207 0 00-.122-.05h-.03c-.089.009-.099.042-.03.098zM18.299 9.816a.762.762 0 01-.175.056c0-.025.126-.077.319-.126l-.01.005c-.027.014-.073.038-.134.065zm-.045 13.748c.922-.499 1.892.52 1.604 1.677v-.008a1.57 1.57 0 01-.315.6c-.427.477-1.846.806-1.976-1.22-.288.56-.529.759-1.024.854.332.373.52.858.53 1.364a1.194 1.194 0 01.813-.621c1.064-.178 1.867 1.396 1.202 2.369-.359.517-1.717 1-2.162-.982-.275.508-.501.677-.97.733.906 1.145.816 2.617-.517 2.551.239.143.443.338.6.573.156.235.26.502.304.783.116.88-.561 1.247-1.27.686-.59-.464-1.297-2.03.053-2.19a2.084 2.084 0 01-.771-1.345c-.209.303-.302.438-.43.498-.104.049-.23.049-.458.049.336.301.58.697.703 1.139.25.88-.152 1.455-.765 1.103-.445-.256-1.771-2.08-.3-2.455a2.334 2.334 0 01-.69-1.4l-.004.009c-.129.248-.315.61-.711.422-.654-.315-1.38-2.588-.129-2.92-.284-.513-.342-.888-.284-1.604-.114.269-.293.677-.601.646-.682-.073-.714-2.222-.04-2.704.274-.197.897.012.735 1.68.264-.564.465-.73.866-.713-.543-1.299.166-2.137.314-2.29.014-.015 1.283-1.065 1.265 1.213.332-.435.567-.565 1.002-.553-.658-1.07.22-2.414 1.05-2.43l.015.003c.199.042.226.048.321.123.473.377.624 2.209-.93 2.557.287.35.377.635.401 1.221.35-.391.588-.505 1.016-.49a1.927 1.927 0 01-.34-.67c-.257-1.072.793-2.212 1.583-1.718.499.307 1.054 2.081-.786 2.584.437.462.547.818.495 1.586.125-.295.335-.543.601-.71zm-5.228.936c.146-.228.373-.387.631-.443h.004l.05-.017a2.022 2.022 0 01-.182-1.107c-.278.385-.517.526-.848.505.205.316.324.683.345 1.062zm1.944 1.064c.182-.232.446-.38.733-.414l.002-.006h.059a1.718 1.718 0 01-.401-1.09 1.219 1.219 0 01-.734.525c.185.297.302.634.341.985zm-2.262 1.572a.882.882 0 01.318-.22l.048-.02a2.392 2.392 0 01-.352-1.036.724.724 0 01-.283.263.696.696 0 01-.373.077c.25.378.403.817.443 1.273a.918.918 0 01.199-.337zm2.014 1.094c.13-.11.286-.18.452-.206l-.012-.008h.068a2.03 2.03 0 01-.54-1.048c-.073.12-.17.224-.282.305a.985.985 0 01-.376.163c.23.362.367.778.401 1.209a.97.97 0 01.289-.415z" fill="url(#paint0_linear_487_336)"/><path fill-rule="evenodd" clip-rule="evenodd" d="M20.875 4.59V0a6.5 6.5 0 01.88.064h.04a6.605 6.605 0 014.145 2.354 6.95 6.95 0 011.185 2.106 19.743 19.743 0 018.697 3.617l3.134-3.246c.208.214.402.443.581.683l.024.033.002.002.002-.002a7.033 7.033 0 011.329 4.615 7.056 7.056 0 01-.609 2.434 21.106 21.106 0 013.675 8.909h4.433c0 .303-.02.607-.058.908v.041a6.937 6.937 0 01-2.221 4.233 6.601 6.601 0 01-2.093 1.274 21.127 21.127 0 01-3.504 8.982l3.152 3.243a6.71 6.71 0 01-.663.6l-.032.025-.008.007v.002-.002a6.611 6.611 0 01-1.036.662 6.467 6.467 0 01-5.789.077 19.74 19.74 0 01-8.617 3.8V50c-.294 0-.588-.02-.88-.06h-.04a6.566 6.566 0 01-3.683-1.846 6.921 6.921 0 01-1.643-2.603 19.661 19.661 0 01-8.697-3.614L9.442 45.12a6.837 6.837 0 01-.58-.685l-.025-.034a7.064 7.064 0 01-.726-7.05 20.894 20.894 0 01-2.425-4.42 21.232 21.232 0 01-1.249-4.493H0a7.16 7.16 0 01.062-.909v-.044a6.965 6.965 0 012.221-4.23 6.607 6.607 0 012.092-1.273 21.064 21.064 0 013.501-8.986l-3.139-3.24c.208-.214.429-.415.662-.6l.032-.025.002-.002-.002-.002a6.502 6.502 0 014.467-1.373 6.48 6.48 0 012.356.63 19.73 19.73 0 018.62-3.795zM11.833 41.3L8.86 44.372l2.978-3.069a.073.073 0 00-.005-.003zm2.832-31.04A16.77 16.77 0 0124.2 7.274c4.55.005 8.91 1.875 12.127 5.199 3.217 3.323 5.026 7.83 5.03 12.53a18.15 18.15 0 01-2.891 9.85c-1.886 2.916-4.566 5.188-7.701 6.53a16.647 16.647 0 01-9.915 1.009 16.996 16.996 0 01-8.786-4.853 17.92 17.92 0 01-4.696-9.078 18.277 18.277 0 01.978-10.244c1.299-3.24 3.498-6.009 6.32-7.956z" fill="#fff"/><defs><linearGradient id="paint0_linear_487_336" x1="8.894" y1="24.934" x2="37.102" y2="24.996" gradientUnits="userSpaceOnUse"><stop stop-color="#647391"/><stop offset="1" stop-color="#647391" stop-opacity="0"/></linearGradient></defs></svg>