<svg width="205" height="28" fill="none" xmlns="http://www.w3.org/2000/svg"><path opacity=".5" d="M13.388 18.338l13.388 9.05V9.662L13.388.612v17.726z" fill="#fff"/><path d="M0 14c0 7.39 5.998 13.388 13.388 13.388V.612C5.998.612 0 6.61 0 14zM26.776.612v26.776c7.39 0 13.387-5.998 13.387-13.388S34.166.612 26.776.612zM55.72 15.74h-1.807v5.383h-3.957V7.065h3.956v5.463h1.908l3.354-5.463h4.177l-4.398 6.788 4.438 7.27h-4.478L55.72 15.74zm13.91 5.563c-1.164 0-2.215-.24-3.152-.723a5.53 5.53 0 01-2.209-2.008c-.522-.857-.783-1.827-.783-2.912 0-1.07.261-2.035.783-2.891a5.418 5.418 0 012.189-1.989c.937-.481 1.995-.722 3.173-.722s2.236.24 3.173.723c.937.468 1.667 1.13 2.189 1.988.522.843.783 1.807.783 2.891 0 1.085-.261 2.055-.783 2.912-.522.857-1.252 1.526-2.19 2.008-.936.482-1.994.723-3.172.723zm0-3.032c.67 0 1.22-.228 1.648-.683.428-.468.642-1.111.642-1.928 0-.803-.214-1.432-.642-1.887-.429-.455-.978-.683-1.647-.683-.67 0-1.218.228-1.647.683-.428.455-.642 1.084-.642 1.887 0 .817.214 1.46.642 1.928.429.455.978.683 1.647.683zm18.824-8.033v10.885H84.64V13.27h-2.751l-.08 1.666c-.054 1.42-.195 2.59-.422 3.515-.228.923-.603 1.646-1.125 2.168-.522.51-1.238.764-2.149.764-.468 0-1.084-.087-1.847-.261l.16-3.113c.241.027.402.04.482.04.415 0 .73-.134.944-.402.214-.267.362-.622.442-1.064.08-.455.134-1.057.16-1.807l.161-4.539h9.84zm8.95 3.374c1.446.013 2.55.335 3.314.964.763.63 1.145 1.526 1.145 2.69 0 1.206-.442 2.156-1.326 2.853-.87.682-2.075 1.017-3.615 1.004H91.02V10.238h3.795v3.374h2.59zm-.863 4.9c.964 0 1.446-.435 1.446-1.305 0-.429-.12-.743-.362-.944-.24-.201-.602-.308-1.084-.322h-1.727v2.55l1.727.02zm12.412 2.791c-1.205 0-2.282-.24-3.233-.723-.95-.482-1.693-1.151-2.229-2.008-.522-.857-.783-1.827-.783-2.912 0-1.084.261-2.048.783-2.891.536-.857 1.279-1.52 2.229-1.989.951-.481 2.028-.722 3.233-.722 1.232 0 2.296.267 3.193.803.897.522 1.533 1.252 1.908 2.189l-2.952 1.506c-.495-.977-1.218-1.466-2.169-1.466-.683 0-1.252.228-1.707.683-.442.455-.662 1.084-.662 1.887 0 .817.22 1.46.662 1.928.455.455 1.024.683 1.707.683.951 0 1.674-.489 2.169-1.466l2.952 1.506c-.375.937-1.011 1.674-1.908 2.21-.897.521-1.961.782-3.193.782zm11.798-4.056h-1.286v3.876h-3.815V10.238h3.815v4.017h1.366l2.671-4.017h4.036l-3.655 5.222 3.896 5.663h-4.498l-2.53-3.876zm12.535-7.19c1.807 0 3.186.416 4.137 1.246.95.816 1.426 2.075 1.426 3.775v6.045h-3.555v-1.406c-.549 1.058-1.62 1.586-3.213 1.586-.843 0-1.573-.147-2.189-.442-.616-.294-1.084-.689-1.405-1.184a3.269 3.269 0 01-.462-1.727c0-1.031.395-1.828 1.185-2.39.789-.576 2.008-.864 3.654-.864h2.169c-.067-1.15-.837-1.727-2.309-1.727a5.12 5.12 0 00-1.587.261c-.535.161-.99.389-1.365.683l-1.285-2.59c.602-.402 1.332-.71 2.188-.924a10.289 10.289 0 012.611-.341zm-.14 8.836c.441 0 .83-.107 1.164-.32.335-.215.576-.53.723-.945v-.944h-1.646c-1.112 0-1.667.369-1.667 1.105 0 .335.127.602.381.803.255.201.603.302 1.045.302zm18.24-8.655v10.885h-3.394V18.17h-1.727l-1.928 2.952h-4.036l2.41-3.475c-.723-.32-1.279-.756-1.667-1.305-.375-.562-.563-1.232-.563-2.008 0-1.299.482-2.303 1.446-3.012.964-.723 2.29-1.085 3.976-1.085h5.483zm-5.402 3.013c-1.071 0-1.607.408-1.607 1.225 0 .428.127.743.382.943.268.201.669.302 1.205.302h2.028v-2.47h-2.008zm24.313-3.033h-6.366v10.905h-3.916V7.065h10.302l-.02 3.153zm14.47 10.905l-.02-7.45-3.615 6.064h-1.767l-3.615-5.904v7.29h-3.655V7.065h3.274l4.94 8.113 4.819-8.113h3.274l.04 14.058h-3.675zm12.348-5.382h-1.807v5.382h-3.956V7.065h3.956v5.463h1.907l3.354-5.463h4.177l-4.398 6.788 4.438 7.27h-4.478l-3.193-5.382z" fill="#fff"/></svg>