<svg width="179" height="28" fill="none" xmlns="http://www.w3.org/2000/svg"><g clip-path="url(#clip0_140_1502)"><path fill-rule="evenodd" clip-rule="evenodd" d="M.636 17.929s5.41.051 7.861.49c7.805 1.382 8.104 8.597 8.104 8.597s-1.27.07-4.624.07c-7.822 0-11.34-9.157-11.34-9.157H.636zm33.006 0s-5.409.051-7.861.49c-7.802 1.382-8.1 8.597-8.1 8.597s1.269.07 4.622.07c7.823 0 11.34-9.157 11.34-9.157zm-13.587-.838c0 1.566-1.305 2.834-2.915 2.834-1.612 0-2.917-1.268-2.917-2.834 0-1.565 1.305-2.835 2.917-2.835 1.61 0 2.915 1.27 2.915 2.835zm5.958-2.79c0 1.565-1.305 2.835-2.915 2.835s-2.915-1.27-2.915-2.834c0-1.566 1.305-2.835 2.915-2.835s2.915 1.269 2.915 2.835zM23.362 3.006c0 1.564-1.305 2.834-2.915 2.834-1.611 0-2.916-1.27-2.916-2.834 0-1.566 1.305-2.835 2.916-2.835 1.61 0 2.915 1.269 2.915 2.835zm-6.614 0c0 1.564-1.306 2.834-2.916 2.834-1.61 0-2.915-1.27-2.915-2.834 0-1.566 1.305-2.835 2.915-2.835s2.916 1.269 2.916 2.835zm-2.652 11.297c0 1.564-1.305 2.834-2.915 2.834-1.611 0-2.916-1.27-2.916-2.834 0-1.566 1.305-2.835 2.916-2.835 1.61 0 2.915 1.269 2.915 2.835zm13.39-6.27c0 1.566-1.306 2.834-2.916 2.834-1.61 0-2.916-1.268-2.916-2.832 0-1.566 1.305-2.835 2.916-2.835 1.61 0 2.916 1.269 2.916 2.835v-.001zm-14.862 0c0 1.566-1.305 2.834-2.915 2.834-1.611 0-2.915-1.268-2.915-2.833 0-1.566 1.304-2.835 2.915-2.835 1.61 0 2.915 1.269 2.915 2.835zm35.548 16.54c-3.164.026-8.7-.872-8.7-7.176 0-6.228 5.536-7.28 8.7-7.177V8.245h5.167v1.974c3.163-.103 8.7.948 8.7 7.177 0 6.304-5.536 7.202-8.7 7.176v2.512h-5.167v-2.512zm.37-10.766c-1.293-.025-3.902.412-3.902 3.59 0 3.177 2.61 3.613 3.902 3.588v-7.178zm4.428 7.178c1.292.025 3.902-.41 3.902-3.588s-2.61-3.615-3.902-3.59v7.178zm10.985-2.871c0-4.793 3.163-9.484 9.912-9.484 6.749 0 9.911 4.69 9.911 9.484 0 4.793-3.162 9.483-9.912 9.483-6.748 0-9.91-4.69-9.91-9.483h-.002zm14.498 0c0-3.46-2.188-5.177-4.587-5.177-2.398 0-4.587 1.717-4.587 5.177 0 3.46 2.19 5.177 4.588 5.177s4.587-1.717 4.587-5.177zm21.648 8.151c-1.66 1.102-3.4 1.332-4.981 1.332-5.484 0-9.439-3.742-9.439-9.483 0-5.999 4.351-9.484 9.359-9.484 1.635 0 3.506.41 5.061 1.436v5.202c-.947-1.075-2.399-2.152-4.375-2.152-2.847 0-4.72 2.203-4.72 5.15 0 2.719 1.767 4.846 4.72 4.846 1.923 0 3.427-1 4.375-1.948v5.101zm7.902-17.122h6.273l6.565 17.942h-5.536l-1.029-3.102h-6.273l-1.029 3.102h-5.535l6.564-17.942zm1.028 10.893h4.218l-2.109-6.612-2.109 6.612zM122.64 9.142h11.072v4.306h-5.905v13.637h-5.167V9.142zm13.111 0h7.775c5.247 0 6.722 3.538 6.722 5.998 0 2.486-1.502 6.023-6.722 6.023h-2.609v5.92h-5.166V9.143zm5.166 8.074h1.475c2.295 0 2.532-1.308 2.532-2.077 0-.897-.317-2.049-2.531-2.049h-1.475v4.126h-.001zm11.074.897c0-4.793 3.164-9.484 9.913-9.484 6.748 0 9.911 4.69 9.911 9.484 0 4.793-3.163 9.483-9.911 9.483-6.749 0-9.913-4.69-9.913-9.483zm14.498 0c0-3.46-2.187-5.177-4.585-5.177-2.401 0-4.588 1.717-4.588 5.177 0 3.46 2.187 5.177 4.588 5.177 2.398 0 4.585-1.717 4.585-5.177zm12.105-7.022c0 1.619-1.237 2.837-2.916 2.837-1.68 0-2.918-1.218-2.918-2.836 0-1.626 1.238-2.851 2.918-2.851 1.68 0 2.916 1.226 2.916 2.851zm-5.352 0c0 1.368 1.005 2.416 2.436 2.416 1.43 0 2.434-1.047 2.434-2.415 0-1.375-1.004-2.43-2.434-2.43-1.431 0-2.435 1.055-2.435 2.43h-.001zm2.303-1.655c.371 0 1.206.062 1.206.992 0 .5-.305.82-.739.907l1.124 1.382h-.724l-.996-1.296h-.16v1.296h-.579V9.436h.868zm-.289 1.469h.217c.24 0 .699-.024.699-.477 0-.476-.466-.476-.683-.476h-.233v.953z" fill="#fff"/></g><defs><clipPath id="clip0_140_1502"><path fill="#fff" transform="translate(.115)" d="M0 0h178.769v28H0z"/></clipPath></defs></svg>