<svg width="159" height="51" fill="none" xmlns="http://www.w3.org/2000/svg"><g clip-path="url(#clip0_140_1506)" fill="#fff"><path d="M33.13 27.215h6.313a18.362 18.362 0 012.687.086c1.985.27 3.996 1.16 3.996 3.606 0 2.047-1.187 3.005-2.62 3.317v.124c2.073.376 3.263 1.502 3.263 3.723 0 3.643-3.423 4.65-6.198 4.785H33.13V27.215zM37.567 39.9h1.8c1.523 0 3.02-.466 3.02-1.953 0-1.398-1.132-1.879-3.238-1.879h-1.593l.01 3.832zm.092-6.608h1.338c1.848 0 2.927-.375 2.927-1.58 0-.959-.669-1.503-2.472-1.503h-1.804l.011 3.083zM11.24 43.183C4.562 43.183.93 38.299.93 32.139c0-6.202 4.272-11.288 11.29-11.288 1.848 0 3.475.248 4.883.992v4a8.617 8.617 0 00-4.716-1.333c-4.76 0-6.62 3.565-6.62 7.321 0 4.185 2.322 7.513 6.191 7.513a9.315 9.315 0 004.76-1.304l1.161 3.163a11.577 11.577 0 01-6.623 1.987l-.015-.007zm75.37 0c-4.941 0-7.473-3.693-7.473-8.095 0-4.932 3.356-8.189 7.843-8.189 1.98 0 3.023.402 3.843.898v3.538a4.88 4.88 0 00-3.2-1.085c-2.532 0-4.088 1.878-4.088 4.62 0 2.45 1.187 4.838 4.021 4.838a6.94 6.94 0 002.994-.901l1.035 2.884a10.002 10.002 0 01-4.975 1.503v-.011zm13.675-12.438v12.126h-4.394V30.745h-4.273v-3.534h13.486l-1.108 3.535h-3.711zm21.129-1.697c0 5.458-.214 8.309-1.19 9.612a3.193 3.193 0 01-2.044 1.21l1.22 3.32a5.632 5.632 0 003.629-1.555c1.405-1.393 1.867-3.159 2.077-5.022.197-1.688.299-3.386.307-5.086v-.782h3.434v12.126h4.394V27.21h-11.827v1.837zM21.77 36.264c.092 2.11 2.047 3.41 4.091 3.41 1.478 0 2.62-.278 4.365-1.127l.976 2.825a11.06 11.06 0 01-6.073 1.8c-5.495 0-7.761-3.971-7.761-8.095 0-4.403 2.587-8.19 7.2-8.19 4.213 0 7.144 3.164 7.144 8.002v1.363l-9.942.011zm2.687-6.09c-1.77 0-2.78 1.612-2.78 3.04h5.544c-.092-1.503-.916-3.04-2.775-3.04h.01zm27.582 6.108c.092 2.111 2.047 3.411 4.091 3.411 1.479 0 2.624-.278 4.365-1.127l.976 2.825a11.046 11.046 0 01-6.072 1.8c-5.493 0-7.762-3.971-7.762-8.096 0-4.402 2.587-8.188 7.2-8.188 4.21 0 7.14 3.162 7.14 8v1.364l-9.938.011zm2.687-6.107c-1.77 0-2.794 1.592-2.794 3.005h5.544c-.093-1.503-.92-3.04-2.78-3.04l.03.034zm58.802 11.321a5.846 5.846 0 01-1.952 1.29 5.766 5.766 0 01-2.291.415c-2.928 0-5.127-1.987-5.127-5.09 0-3.316 2.629-5.022 6.531-5.145l2.587-.094v-.308c0-1.646-1.308-2.296-2.83-2.296a7.47 7.47 0 00-3.911 1.086l-1.342-2.73c2.107-1.394 4.118-1.706 6.224-1.706 4.066 0 6.228 1.641 6.228 5.77V42.87h-3.419l-.698-1.375zm-2.218-5.634c-1.892.063-2.772.713-2.772 1.878 0 1.164.821 1.953 2.314 1.953.851.04 1.69-.21 2.384-.714v-3.17l-1.926.053zm-43.523 6.667v6.607L63.39 50.5V27.21h3.696l.488 1.424c1.127-.897 2.443-1.735 4.15-1.735 3.54 0 6.317 2.727 6.317 7.693 0 4.65-2.747 8.59-7.292 8.59a6.26 6.26 0 01-2.957-.653h-.004zm0-10.608v7.415c.552.395 1.21.606 1.885.605 2.99 0 3.966-2.76 3.966-5.428.007-3.212-1.01-4.338-2.802-4.338-1.156 0-2.528.961-3.049 1.765v-.019zm71.675.387v-5.77l-4.395 1.383v14.976h5.614c4.088 0 7.902-1.127 7.902-5.428 0-3.658-3.078-5.146-6.863-5.146l-2.258-.015zm0 7.475v-4.372h1.478c1.559 0 3.267.248 3.267 2.107 0 1.86-1.478 2.254-3.204 2.254l-1.541.011zm15.781-22.808c.287-.1.559-.244.805-.425.436-1.148.807-2.32 1.109-3.512.396-1.525.672-3.08.824-4.65a19.48 19.48 0 000-3.756c-.118-1.157-.413-2.333-1.108-3.005-.695-.673-1.826-.977-2.935-1.078a19.811 19.811 0 00-3.696.086c.271.124.52.29.739.492.681.631.995 1.71 1.132 2.765.108.839.146 1.686.114 2.532a23.968 23.968 0 01-.772 5.123 25.191 25.191 0 01-1.32 3.9c.696.439 1.426.822 2.181 1.145.98.406 2.055.665 2.927.383z"/><path d="M139.214 13.778c-.06.306-.074.619-.041.928a32.625 32.625 0 002.432 2.697 29.353 29.353 0 003.574 3.065 20.294 20.294 0 003.19 1.879c1.038.484 2.191.796 3.108.54.917-.255 1.737-1.126 2.391-2.092a19.17 19.17 0 001.786-3.298c-.25.189-.526.336-.821.436-.872.285-1.948.022-2.916-.376a15.302 15.302 0 01-2.218-1.168 23.578 23.578 0 01-3.973-3.242c-.971-.96-1.862-2-2.664-3.11a15.5 15.5 0 00-2.059 1.356c-.832.657-1.593 1.476-1.789 2.385z"/><path d="M149.939 1.251a2.895 2.895 0 00-.739-.473 30.2 30.2 0 00-3.566.785 29.173 29.173 0 00-4.369 1.566 19.117 19.117 0 00-3.194 1.878c-.934.684-1.803 1.544-2.04 2.487-.235.943.107 2.115.599 3.178a19.501 19.501 0 001.907 3.197 3.052 3.052 0 01.041-.94c.196-.912.958-1.731 1.785-2.381a15.232 15.232 0 012.118-1.367 22.906 22.906 0 014.753-1.878 24.146 24.146 0 013.954-.793 15.314 15.314 0 00-.114-2.505c-.137-1.056-.462-2.134-1.135-2.754z"/></g><defs><clipPath id="clip0_140_1506"><path fill="#fff" transform="translate(.929 .5)" d="M0 0h157.143v50H0z"/></clipPath></defs></svg>