<svg xmlns="http://www.w3.org/2000/svg" xmlns:xlink="http://www.w3.org/1999/xlink"><symbol viewBox="0 0 12 12" id="rightUpArrow"><defs><style/></defs><path d="M11.832.165v10h-1.5v-7.44l-9.106 9.107-1.061-1.06 9.107-9.107h-7.44v-1.5h10z" xmlns="http://www.w3.org/2000/svg"/></symbol><symbol viewBox="0 0 566 566" id="gear"><svg xmlns="http://www.w3.org/2000/svg"><path fill-rule="evenodd" clip-rule="evenodd" d="M185.471 71.686a77.245 77.245 0 00-79.24-8.103l-.039.025-.351.23a77.97 77.97 0 00-8.947 4.985l28.221 43.182a232.729 232.729 0 00-60.484 90.473A77.244 77.244 0 002.87 252.82l.035.012-.01.027-.158.438A80.03 80.03 0 000 263.148l50.444 10.548a232.727 232.727 0 0021.215 106.791 77.232 77.232 0 00-12.714 66.61 77.28 77.28 0 004.638 12.595l.025.039.23.35a77.997 77.997 0 004.985 8.947l43.137-28.191a232.748 232.748 0 0090.528 60.527 77.222 77.222 0 0037.586 55.736 77.17 77.17 0 0012.823 5.985l.438.159a77.463 77.463 0 009.863 2.756l10.573-50.454a232.722 232.722 0 00106.766-21.248 77.22 77.22 0 0079.141 8.022l.389-.255a78.071 78.071 0 008.923-5.023l-28.157-43.085a233.067 233.067 0 0060.407-90.505 77.184 77.184 0 0026.812-9.053 77.203 77.203 0 0029.025-28.514 77.223 77.223 0 005.964-12.738l.016.007-.012-.019.039-.11.159-.437a77.739 77.739 0 002.757-9.864l-50.587-10.488a233.062 233.062 0 00-21.169-106.779 77.23 77.23 0 008.076-79.213l-.026-.039-.229-.351a77.931 77.931 0 00-5.024-8.921l-43.092 28.161a232.71 232.71 0 00-90.507-60.473 77.242 77.242 0 00-50.34-61.75l-.013.034-.026-.01-.438-.158A80.033 80.033 0 00302.774 0l-10.505 50.456a232.714 232.714 0 00-106.798 21.23zm77.543 443.185l-.064-.006-10.004 47.748 10.068-47.742zM99.621 204.817a199.291 199.291 0 0174.319-88.677 199.495 199.495 0 01275.822 57.814 199.27 199.27 0 0132.454 111.056 199.286 199.286 0 11-382.595-80.193z"/></svg></symbol><symbol viewBox="0 0 22 9" id="sliderArrow"><path d="M1 8l10-6.667L21 8" stroke="#2B7EE0" stroke-linecap="round" stroke-linejoin="round" xmlns="http://www.w3.org/2000/svg"/></symbol><symbol viewBox="0 0 14 10" id="checkIcon"><path d="M13.863 0h-1.2a.57.57 0 00-.43.19L5.159 8.301 1.767 4.41a.542.542 0 00-.19-.14.597.597 0 00-.24-.05h-1.2c-.114 0-.178.12-.108.2l4.7 5.39c.22.252.641.252.862 0L13.971.2c.07-.08.006-.199-.108-.199z" fill="#647391" xmlns="http://www.w3.org/2000/svg"/></symbol><symbol viewBox="0 0 75 15" id="rusoText"><path d="M4.956.784c.661 0 1.216.085 1.664.256.459.17.923.448 1.392.832l-.832.976c-.672-.544-1.381-.816-2.128-.816-.917 0-1.659.352-2.224 1.056-.555.704-.832 1.835-.832 3.392 0 1.515.277 2.635.832 3.36.555.715 1.29 1.072 2.208 1.072.47 0 .875-.08 1.216-.24a6.78 6.78 0 001.12-.688l.768.976c-.33.352-.768.645-1.312.88-.533.235-1.147.352-1.84.352-.896 0-1.696-.219-2.4-.656-.693-.448-1.237-1.099-1.632-1.952C.572 8.72.38 7.685.38 6.48s.203-2.235.608-3.088c.405-.864.955-1.515 1.648-1.952a4.26 4.26 0 012.32-.656zM16.741 14.4h-1.2l-.24-2.4H9.893l-.24 2.4h-1.2v-3.584h.592c.256-.17.459-.363.608-.576.15-.224.283-.608.4-1.152.128-.544.23-1.339.304-2.384l.224-3.136h5.28v7.248h.88V14.4zM11.91 4.736l-.128 1.776c-.074.992-.16 1.755-.256 2.288-.096.533-.234.944-.416 1.232-.17.288-.421.55-.752.784h4.032v-6.08h-2.48zm13.354 2.8c0 .245-.01.496-.032.752h-5.376c.064.928.299 1.61.704 2.048.405.437.928.656 1.568.656.405 0 .779-.059 1.12-.176a4.513 4.513 0 001.072-.56l.64.88c-.896.704-1.877 1.056-2.944 1.056-1.173 0-2.09-.384-2.752-1.152-.65-.768-.976-1.824-.976-3.168 0-.875.139-1.648.416-2.32.288-.683.694-1.216 1.216-1.6.534-.384 1.157-.576 1.872-.576 1.12 0 1.979.368 2.576 1.104.598.736.896 1.755.896 3.056zm-1.456-.432c0-.832-.165-1.467-.496-1.904-.33-.437-.826-.656-1.488-.656-1.205 0-1.861.885-1.968 2.656h3.952v-.096zM33.556 12h-1.472V4.768h-2.609l-.24 2.816c-.095 1.141-.218 1.995-.367 2.56-.14.565-.363 1.003-.672 1.312-.3.299-.758.544-1.377.736l-.367-1.168c.362-.128.618-.293.767-.496.15-.203.262-.512.336-.928.075-.416.155-1.141.24-2.176l.336-3.856h5.425V12zm8.722-1.968c0 .341.059.597.176.768a1.1 1.1 0 00.528.368l-.336 1.024c-.437-.053-.79-.176-1.056-.368s-.464-.49-.592-.896c-.565.843-1.402 1.264-2.512 1.264-.832 0-1.488-.235-1.968-.704-.48-.47-.72-1.083-.72-1.84 0-.896.32-1.584.96-2.064.65-.48 1.568-.72 2.752-.72h1.296V6.24c0-.597-.144-1.024-.432-1.28-.288-.256-.73-.384-1.328-.384-.618 0-1.376.15-2.272.448l-.368-1.072c1.046-.384 2.016-.576 2.912-.576.992 0 1.734.245 2.224.736.49.48.736 1.168.736 2.064v3.856zm-3.456 1.056c.843 0 1.504-.437 1.984-1.312V7.84h-1.104c-1.557 0-2.336.576-2.336 1.728 0 .501.123.88.368 1.136.246.256.608.384 1.088.384zm7.951-2.8V12h-1.472V3.568h1.472v3.536h3.504V3.568h1.472V12h-1.472V8.288h-3.504zm11.18-4.912c1.185 0 2.102.395 2.753 1.184.661.79.992 1.861.992 3.216 0 .875-.15 1.648-.448 2.32-.299.661-.73 1.179-1.296 1.552-.566.363-1.238.544-2.016.544-1.184 0-2.107-.395-2.768-1.184-.662-.79-.992-1.861-.992-3.216 0-.875.15-1.643.448-2.304.298-.672.73-1.19 1.296-1.552.565-.373 1.242-.56 2.032-.56zm0 1.184c-1.46 0-2.191 1.077-2.191 3.232 0 2.144.725 3.216 2.176 3.216 1.45 0 2.176-1.077 2.176-3.232 0-2.144-.72-3.216-2.16-3.216zm14.859 2.864c.725.075 1.264.283 1.616.624.352.341.528.827.528 1.456 0 .843-.326 1.472-.976 1.888-.64.405-1.499.608-2.576.608h-3.04V3.68a13.881 13.881 0 012.768-.304c1.034 0 1.856.192 2.464.576.618.384.928.928.928 1.632 0 .459-.133.843-.4 1.152-.256.31-.694.539-1.312.688zm-1.664-2.912c-.448 0-.885.032-1.312.096v2.384h1.504c.533 0 .944-.096 1.232-.288.299-.192.448-.517.448-.976 0-.427-.155-.736-.464-.928-.31-.192-.779-.288-1.408-.288zm.016 6.336c.672 0 1.21-.085 1.616-.256.416-.181.624-.55.624-1.104 0-.544-.17-.912-.512-1.104-.341-.203-.827-.304-1.456-.304h-1.6v2.768h1.328z" fill="#fff" xmlns="http://www.w3.org/2000/svg"/></symbol><symbol viewBox="0 0 61 13" id="rusoLogo"><path d="M16.017 7.343V.291h2.533v6.964c0 1.636.95 2.761 2.762 2.761s2.744-1.126 2.744-2.761V.29h2.55v7.035c0 2.92-1.724 4.907-5.294 4.907-3.571 0-5.295-2.005-5.295-4.89zm16.608 3.025l1.353-1.899a5.142 5.142 0 003.73 1.583c1.372 0 2.04-.633 2.04-1.302 0-2.075-6.754-.65-6.754-5.065 0-1.952 1.688-3.57 4.45-3.57 1.865 0 3.412.562 4.573 1.636l-1.39 1.828c-.948-.879-2.216-1.283-3.412-1.283-1.073 0-1.67.474-1.67 1.178 0 1.864 6.735.616 6.735 4.995 0 2.146-1.53 3.764-4.695 3.764-2.25 0-3.87-.757-4.96-1.865zm15.515-4.25C48.14 2.553 50.748 0 54.313 0 57.894 0 60.5 2.553 60.5 6.118c0 3.564-2.606 6.117-6.188 6.117-3.565 0-6.171-2.553-6.171-6.117zm9.77 0c0-2.216-1.417-3.883-3.598-3.883-2.18 0-3.582 1.667-3.582 3.883 0 2.199 1.401 3.883 3.582 3.883 2.18 0 3.599-1.684 3.599-3.883zM7.36 7.554c1.267-.3 2.57-1.407 2.57-3.483 0-2.18-1.496-3.78-3.941-3.78H.5v2.197h5.12c1.003 0 1.758.598 1.758 1.583S6.621 5.655 5.62 5.655H.5v6.366H3V7.854h1.83l2.303 4.169H10l-2.64-4.47z" xmlns="http://www.w3.org/2000/svg"/></symbol><symbol viewBox="0 0 10 6" id="arrow"><path d="M1 1l4 4 4-4" fill="transparent" xmlns="http://www.w3.org/2000/svg"/></symbol><symbol viewBox="0 0 14 8" id="selectArrow"><path d="M1 .5l6 6 6-6" fill="transparent"/></symbol><symbol viewBox="0 0 18 18" id="searchIcon"><path fill-rule="evenodd" clip-rule="evenodd" d="M11.89 12.42a7.094 7.094 0 01-4.765 1.83A7.129 7.129 0 010 7.125 7.129 7.129 0 017.125 0a7.129 7.129 0 017.125 7.125 7.094 7.094 0 01-1.83 4.765L18 17.47l-.53.53-5.58-5.58zM7.125.75A6.378 6.378 0 0113.5 7.125 6.378 6.378 0 017.125 13.5 6.378 6.378 0 01.75 7.125 6.378 6.378 0 017.125.75z" xmlns="http://www.w3.org/2000/svg"/></symbol><symbol viewBox="0 0 19 19" id="filterIcon"><path d="M7.284 2.375H.5v.75h6.784A2.252 2.252 0 009.5 5a2.252 2.252 0 002.216-1.875H18.5v-.75h-6.784A2.251 2.251 0 009.5.5a2.252 2.252 0 00-2.216 1.875zM11 2.75c0 .827-.673 1.5-1.5 1.5S8 3.577 8 2.75s.673-1.5 1.5-1.5 1.5.673 1.5 1.5zM.5 16.625h2.659A2.252 2.252 0 005.375 18.5a2.252 2.252 0 002.216-1.875H18.5v-.75H7.591A2.252 2.252 0 005.375 14a2.252 2.252 0 00-2.216 1.875H.5v.75zm4.875-1.875c.827 0 1.5.673 1.5 1.5s-.673 1.5-1.5 1.5-1.5-.673-1.5-1.5.673-1.5 1.5-1.5zM.5 9.875h11.284A2.251 2.251 0 0014 11.75a2.252 2.252 0 002.216-1.875H18.5v-.75h-2.284A2.251 2.251 0 0014 7.25a2.252 2.252 0 00-2.216 1.875H.5v.75zM14 8c.827 0 1.5.673 1.5 1.5S14.827 11 14 11s-1.5-.673-1.5-1.5S13.173 8 14 8z" fill="#fff" xmlns="http://www.w3.org/2000/svg"/></symbol><symbol viewBox="0 0 16 15" id="closeBtn"><path fill-rule="evenodd" clip-rule="evenodd" d="M1.533.294a1.003 1.003 0 011.416 0l5.38 5.368L13.707.294a1.003 1.003 0 011.416 0 .997.997 0 010 1.412l-5.38 5.368 5.962 5.95a.997.997 0 010 1.412c-.391.39-1.025.39-1.416 0L8.328 8.487l-5.96 5.949c-.392.39-1.026.39-1.417 0a.997.997 0 010-1.413l5.962-5.949-5.38-5.368a.997.997 0 010-1.412z" fill="#fff" xmlns="http://www.w3.org/2000/svg"/></symbol><symbol viewBox="0 0 100 100" id="thxMessageIcon"><path fill-rule="evenodd" clip-rule="evenodd" d="M50 0c27.596 0 50 22.404 50 50s-22.404 50-50 50S0 77.596 0 50 22.404 0 50 0zm0 4.167c25.296 0 45.833 20.537 45.833 45.833S75.296 95.833 50 95.833 4.167 75.296 4.167 50 24.704 4.167 50 4.167zm29.167 31.07L41.646 75.093 20.833 50.654l3.171-2.704L41.8 68.85l34.333-36.467 3.034 2.854z" fill="#2B7EE0" xmlns="http://www.w3.org/2000/svg"/></symbol><symbol viewBox="0 0 11 12" id="closeSettingIcon"><path fill-rule="evenodd" clip-rule="evenodd" d="M5.5 5.646L10.646.5 11 .854 5.854 6 11 11.146l-.354.354L5.5 6.354.354 11.5 0 11.146 5.146 6 0 .854.353.5 5.5 5.646z" xmlns="http://www.w3.org/2000/svg"/></symbol><symbol viewBox="0 0 24 24" id="downloadIcon"><g xmlns="http://www.w3.org/2000/svg" fill="#2B7EE0"><path d="M5.28 15.838a.48.48 0 00-.48.48v2.944a.48.48 0 00.48.48h13.44a.48.48 0 00.48-.48v-2.944a.48.48 0 00-.96 0v2.464H5.76v-2.464a.48.48 0 00-.48-.48z"/><path d="M12 4.382a.48.48 0 00-.48.48v10.325l-3.045-2.941a.48.48 0 10-.666.69l3.85 3.72.002.001.005.006c.018.017.04.024.06.038.03.022.057.046.092.06a.475.475 0 00.363 0c.032-.013.058-.036.085-.056.022-.014.047-.024.067-.043l3.857-3.727a.48.48 0 10-.667-.69l-3.043 2.942V4.862a.48.48 0 00-.48-.48z"/></g></symbol><symbol viewBox="0 0 160 120" id="tunelkman"><path d="M48.91 17.553v6.522h.744c2.161 0 7.147.685 10.183 1.405 2.067.497 5.269 1.442 5.233 1.548-.023.047-.708.685-1.547 1.418-7.904 6.922-14.401 16.007-18.465 25.812-3.083 7.467-4.926 15.96-5.21 24.006l-.07 2.162h13.029v-1.217c0-.662.084-2.091.178-3.178 1.04-11.79 5.47-22.481 13.16-31.755 1.513-1.831 5.27-5.552 7.195-7.147 1.725-1.418 4.714-3.603 4.938-3.603.083 0 .78.46 1.571 1.015l1.43 1.028-1.808 1.217C68.661 44.1 60.83 55.216 57.592 67.832c-.803 3.143-1.417 7.089-1.535 9.948a91.633 91.633 0 01-.119 2.138l-.059.626h12.736l.082-1.276c.248-4.052.839-7.254 1.973-10.774 2.788-8.648 8.624-16.303 16.303-21.395 1.618-1.075 3.71-2.268 3.875-2.209.212.071 2.126 2.623 3.355 4.466 5.41 8.092 8.553 17.106 9.403 26.935.06.744.119 1.784.119 2.304 0 .52.035 1.146.071 1.382l.082.449h12.877l-.071-2.398c-.39-12.275-4.43-24.88-11.376-35.43-1.134-1.736-1.205-1.866-.957-1.925.248-.06 2.776-.296 3.189-.296.189 0 .201-.378.201-6.379 0-3.508-.035-6.38-.082-6.38-.059 0-.863.06-1.808.119-3.379.236-7.147.85-10.089 1.642l-1.276.343-1.5-1.312c-.815-.72-1.5-1.346-1.524-1.382-.035-.106 3.308-1.087 5.233-1.547 3.037-.721 8.022-1.406 10.184-1.406h.744V11.044l-1.76.083c-8.518.378-17.768 2.705-25.86 6.497l-1.701.804-2.221-1.016c-8.175-3.733-16.977-5.907-25.447-6.285l-1.725-.083v6.51zM24.336 82.906v1.89h3.426v-3.78h-3.426v1.89zm5.789.001v1.902l1.69-.036 1.677-.035v-3.662l-1.678-.036-1.689-.035v1.902zM0 88.105v1.89h6.852v18.311h4.725V89.995h6.616v-3.78H0v1.89zm19.965 5.635c0 6.167.035 7.738.177 8.636.544 3.343 2.34 5.375 5.576 6.308.815.236 1.193.272 3.166.272 1.985 0 2.351-.036 3.178-.272 2.28-.661 3.91-1.925 4.785-3.721.992-2.008 1.075-2.918 1.075-11.814v-6.934h-4.608v6.875c0 3.792-.059 7.372-.118 7.974-.272 2.54-1.146 3.533-3.379 3.816-2.87.366-4.737-.803-5.127-3.201-.07-.461-.118-3.627-.118-8.116v-7.348h-4.607v7.525zm19.728 3.52v11.046h4.608v-7.655c.011-6.793.023-7.62.189-7.407.094.13 2.138 3.567 4.548 7.643l4.383 7.419h4.583V86.215h-4.606v15.18l-4.56-7.596-4.548-7.584h-4.596V97.26zm20.084 0v11.046h16.894v-3.78H64.503v-5.671h10.75v-3.78h-10.75v-5.08h11.695v-3.78h-16.42V97.26zm18.547 0v11.046h15.358v-3.78H82.931V86.215h-4.606V97.26zm16.658 0v11.046h4.608V99.54c0-4.82.023-8.73.059-8.706.023.035.898 3.863 1.949 8.494 1.04 4.643 1.914 8.565 1.949 8.706.059.272.071.272 2.398.272h2.328l1.937-8.66c1.063-4.748 1.985-8.73 2.032-8.824.059-.095.106 3.792.106 8.647v8.837h4.608V86.215h-6.805l-2.044 8.293c-1.134 4.572-2.091 8.34-2.138 8.399-.059.071-.673-2.351-3.768-14.861l-.438-1.772-3.39-.036-3.39-.023V97.26zM122 97.178c-2.127 6.025-3.875 10.986-3.863 11.034 0 .059 1.051.094 2.339.094h2.327l.768-2.185.768-2.186h8.411l.756 2.186.756 2.185h2.328c1.795 0 2.339-.035 2.327-.153 0-.071-1.713-5.033-3.804-11.01l-3.804-10.87-2.717-.023-2.717-.035L122 97.178zm8.128-1.335c.768 2.209 1.417 4.087 1.453 4.158.035.118-.591.154-2.871.154-2.292 0-2.906-.036-2.859-.154.024-.07.544-1.654 1.134-3.508.603-1.855 1.193-3.71 1.335-4.112.13-.413.284-.709.331-.65.047.048.709 1.903 1.477 4.112zm10.1 1.417v11.046h4.607v-7.029l1.217-1.276 1.205-1.288 3.603 4.797 3.603 4.784 2.823.012c2.233 0 2.788-.035 2.706-.153-4.23-5.352-9.605-12.275-9.605-12.358 0-.07 1.867-2.126 4.147-4.583a663.83 663.83 0 004.395-4.737l.236-.26-2.765.011h-2.764L149.324 91c-2.374 2.623-4.347 4.773-4.395 4.773-.059.012-.094-2.138-.094-4.773v-4.784h-4.607V97.26z" xmlns="http://www.w3.org/2000/svg" fill="#fff"/></symbol><symbol viewBox="0 0 160 120" id="stellar"><svg xmlns="http://www.w3.org/2000/svg"><g clip-path="url(#clip0_65_150)" fill="#fff"><path d="M.452 113.022v-4.667h14.815a.602.602 0 00.4-.096.45.45 0 00.111-.363v-1.859a.436.436 0 00-.111-.341.666.666 0 00-.4-.089h-9.23c-2.227 0-3.708-.301-4.444-.903-.736-.603-1.109-1.795-1.119-3.578v-2.482c0-1.748.393-2.918 1.17-3.526.779-.607 2.223-.903 4.445-.903h15.245v4.481H7.304a.57.57 0 00-.407.111.533.533 0 00-.104.378v1.593a.5.5 0 00.104.363.67.67 0 00.407.096h9.311c2.193 0 3.674.291 4.445.874.77.583 1.158 1.756 1.163 3.519v2.837c0 1.886-.38 3.121-1.141 3.703-.76.583-2.242.869-4.445.86l-16.185-.008zm29.762 0V98.889h-7.689v-4.674h21.83v4.674h-7.689v14.133h-6.452zm15.305 0V94.215h20.585v4.481H51.852v2.593h9.311v4.207h-9.311v2.963h14.415v4.585l-20.748-.022zm21.888 0V94.215h6.445v13.933h12.896V113l-19.34.022zm20.527 0V94.215h6.451v13.933h12.897V113l-19.348.022zm40.503 0l-1.482-2.911h-10.096l-1.481 2.911h-6.934l10.193-18.807h6.667l10.2 18.807h-7.067zm-9.63-7.015h6.208l-3.104-5.8h-.052l-3.052 5.8zm33.044 7.015l-5.074-6.23h-3.748v6.23h-6.363V94.215h15.97c2.129 0 3.573.294 4.334.881.76.588 1.143 1.699 1.148 3.334v4.259c0 1.548-.348 2.6-1.045 3.148a5.59 5.59 0 01-3.14.955l5.452 6.23h-7.534zm.104-13.837a.59.59 0 00-.089-.392.556.556 0 00-.393-.097h-8.444v3.593h8.444c.13.02.263-.004.378-.067a.602.602 0 00.089-.392l.015-2.645zM78.504 76.363L63.911 82.2l-6.259-15.637-15.467-6.622 5.904-13.778 1.578.444 22.148 6.334.482 1.674H57.43v9.644h17.622l3.17 11.126.282.978zm39.148-46.63l-5.904 13.778-1.593-.444-22.14-6.334-.593-2.059h13.148v-9.252H84.785L81.6 14.29l-.282-.97 14.608-5.845 6.252 15.63 15.474 6.63zm-.379 31.111l-15.622 6.252-6.63 15.482-13.785-5.926.452-1.585 3.096-10.83h6.023c4.568 0 7.644-.595 9.229-1.785 1.586-1.19 2.373-3.733 2.363-7.63v-6.015l8.06-2.303.97-.274 5.844 14.614zM78.593 13l-.452 1.593-3.096 10.83h-6.074c-4.444 0-7.504.614-9.111 1.859-1.608 1.244-2.43 3.703-2.43 7.274v6.274l-8.081 2.318-.985.274-5.815-14.585 15.637-6.26 6.622-15.48L78.593 13z"/><path opacity=".5" d="M84.785 25.422l2.623 9.252h13.148v-9.252h-15.77zm-12.489 29.2H57.43v9.63h17.622l-2.756-9.63z"/><path opacity=".5" d="M102.401 48.83v5.985c0 3.896-.788 6.44-2.363 7.63-1.576 1.19-4.652 1.785-9.23 1.785h-6.022l2.755-9.63h.482a1.25 1.25 0 00.83-.2.947.947 0 00.23-.74v-3.838a.896.896 0 00-.23-.74 1.303 1.303 0 00-.83-.193H68.97c-4.607 0-7.684-.622-9.23-1.867-1.37-1.11-2.14-3.178-2.281-6.237v-6.229c0-3.61.81-6.035 2.43-7.274 1.607-1.245 4.651-1.86 9.11-1.86h6.075l-2.645 9.252h-.815a1.237 1.237 0 00-.837.215 1.133 1.133 0 00-.214.785v3.282a1.006 1.006 0 00.215.74c.247.16.543.232.837.2h19.259c4.54 0 7.607.593 9.192 1.8 1.586 1.208 2.319 3.578 2.334 7.134z"/></g><defs><clipPath id="clip0_65_150"><path fill="#fff" transform="translate(0 6.667)" d="M0 0h160v106.667H0z"/></clipPath></defs></svg></symbol></svg>