<svg width="160" height="120" fill="none" xmlns="http://www.w3.org/2000/svg"><g clip-path="url(#clip0_65_150)" fill="#fff"><path d="M.452 113.022v-4.667h14.815a.602.602 0 00.4-.096.45.45 0 00.111-.363v-1.859a.436.436 0 00-.111-.341.666.666 0 00-.4-.089h-9.23c-2.227 0-3.708-.301-4.444-.903-.736-.603-1.109-1.795-1.119-3.578v-2.482c0-1.748.393-2.918 1.17-3.526.779-.607 2.223-.903 4.445-.903h15.245v4.481H7.304a.57.57 0 00-.407.111.533.533 0 00-.104.378v1.593a.5.5 0 00.104.363.67.67 0 00.407.096h9.311c2.193 0 3.674.291 4.445.874.77.583 1.158 1.756 1.163 3.519v2.837c0 1.886-.38 3.121-1.141 3.703-.76.583-2.242.869-4.445.86l-16.185-.008zm29.762 0V98.889h-7.689v-4.674h21.83v4.674h-7.689v14.133h-6.452zm15.305 0V94.215h20.585v4.481H51.852v2.593h9.311v4.207h-9.311v2.963h14.415v4.585l-20.748-.022zm21.888 0V94.215h6.445v13.933h12.896V113l-19.34.022zm20.527 0V94.215h6.451v13.933h12.897V113l-19.348.022zm40.503 0l-1.482-2.911h-10.096l-1.481 2.911h-6.934l10.193-18.807h6.667l10.2 18.807h-7.067zm-9.63-7.015h6.208l-3.104-5.8h-.052l-3.052 5.8zm33.044 7.015l-5.074-6.23h-3.748v6.23h-6.363V94.215h15.97c2.129 0 3.573.294 4.334.881.76.588 1.143 1.699 1.148 3.334v4.259c0 1.548-.348 2.6-1.045 3.148a5.59 5.59 0 01-3.14.955l5.452 6.23h-7.534zm.104-13.837a.59.59 0 00-.089-.392.556.556 0 00-.393-.097h-8.444v3.593h8.444c.13.02.263-.004.378-.067a.602.602 0 00.089-.392l.015-2.645zM78.504 76.363L63.911 82.2l-6.259-15.637-15.467-6.622 5.904-13.778 1.578.444 22.148 6.334.482 1.674H57.43v9.644h17.622l3.17 11.126.282.978zm39.148-46.63l-5.904 13.778-1.593-.444-22.14-6.334-.593-2.059h13.148v-9.252H84.785L81.6 14.29l-.282-.97 14.608-5.845 6.252 15.63 15.474 6.63zm-.379 31.111l-15.622 6.252-6.63 15.482-13.785-5.926.452-1.585 3.096-10.83h6.023c4.568 0 7.644-.595 9.229-1.785 1.586-1.19 2.373-3.733 2.363-7.63v-6.015l8.06-2.303.97-.274 5.844 14.614zM78.593 13l-.452 1.593-3.096 10.83h-6.074c-4.444 0-7.504.614-9.111 1.859-1.608 1.244-2.43 3.703-2.43 7.274v6.274l-8.081 2.318-.985.274-5.815-14.585 15.637-6.26 6.622-15.48L78.593 13z"/><path opacity=".5" d="M84.785 25.422l2.623 9.252h13.148v-9.252h-15.77zm-12.489 29.2H57.43v9.63h17.622l-2.756-9.63z"/><path opacity=".5" d="M102.401 48.83v5.985c0 3.896-.788 6.44-2.363 7.63-1.576 1.19-4.652 1.785-9.23 1.785h-6.022l2.755-9.63h.482a1.25 1.25 0 00.83-.2.947.947 0 00.23-.74v-3.838a.896.896 0 00-.23-.74 1.303 1.303 0 00-.83-.193H68.97c-4.607 0-7.684-.622-9.23-1.867-1.37-1.11-2.14-3.178-2.281-6.237v-6.229c0-3.61.81-6.035 2.43-7.274 1.607-1.245 4.651-1.86 9.11-1.86h6.075l-2.645 9.252h-.815a1.237 1.237 0 00-.837.215 1.133 1.133 0 00-.214.785v3.282a1.006 1.006 0 00.215.74c.247.16.543.232.837.2h19.259c4.54 0 7.607.593 9.192 1.8 1.586 1.208 2.319 3.578 2.334 7.134z"/></g><defs><clipPath id="clip0_65_150"><path fill="#fff" transform="translate(0 6.667)" d="M0 0h160v106.667H0z"/></clipPath></defs></svg>