<svg width="80" height="6" fill="none" xmlns="http://www.w3.org/2000/svg"><g clip-path="url(#clip0_502_2)"><path d="M0 1c4.001 0 4.001 4 8.003 4 4.001 0 4.001-4 8.003-4 4.001 0 4.001 4 7.993 4 4.002 0 4.002-4 7.994-4 4.001 0 4.001 4 7.993 4 4.001 0 4.001-4 8.003-4 4.001 0 4.001 4 8.003 4 4 0 4-4 8.002-4 4.002 0 4.002 4 8.003 4C76 5 76 1 80 1" stroke="#2B7EE0" stroke-miterlimit="10" stroke-linecap="round" stroke-linejoin="round"/></g><defs><clipPath id="clip0_502_2"><path fill="#fff" d="M0 0h80v6H0z"/></clipPath></defs></svg>