<svg width="160" height="120" fill="none" xmlns="http://www.w3.org/2000/svg"><path d="M48.91 17.553v6.522h.744c2.161 0 7.147.685 10.183 1.405 2.067.497 5.269 1.442 5.233 1.548-.023.047-.708.685-1.547 1.418-7.904 6.922-14.401 16.007-18.465 25.812-3.083 7.467-4.926 15.96-5.21 24.006l-.07 2.162h13.029v-1.217c0-.662.084-2.091.178-3.178 1.04-11.79 5.47-22.481 13.16-31.755 1.513-1.831 5.27-5.552 7.195-7.147 1.725-1.418 4.714-3.603 4.938-3.603.083 0 .78.46 1.571 1.015l1.43 1.028-1.808 1.217C68.661 44.1 60.83 55.216 57.592 67.832c-.803 3.143-1.417 7.089-1.535 9.948a91.633 91.633 0 01-.119 2.138l-.059.626h12.736l.082-1.276c.248-4.052.839-7.254 1.973-10.774 2.788-8.648 8.624-16.303 16.303-21.395 1.618-1.075 3.71-2.268 3.875-2.209.212.071 2.126 2.623 3.355 4.466 5.41 8.092 8.553 17.106 9.403 26.935.06.744.119 1.784.119 2.304 0 .52.035 1.146.071 1.382l.082.449h12.877l-.071-2.398c-.39-12.275-4.43-24.88-11.376-35.43-1.134-1.736-1.205-1.866-.957-1.925.248-.06 2.776-.296 3.189-.296.189 0 .201-.378.201-6.379 0-3.508-.035-6.38-.082-6.38-.059 0-.863.06-1.808.119-3.379.236-7.147.85-10.089 1.642l-1.276.343-1.5-1.312c-.815-.72-1.5-1.346-1.524-1.382-.035-.106 3.308-1.087 5.233-1.547 3.037-.721 8.022-1.406 10.184-1.406h.744V11.044l-1.76.083c-8.518.378-17.768 2.705-25.86 6.497l-1.701.804-2.221-1.016c-8.175-3.733-16.977-5.907-25.447-6.285l-1.725-.083v6.51zM24.336 82.906v1.89h3.426v-3.78h-3.426v1.89zm5.789.001v1.902l1.69-.036 1.677-.035v-3.662l-1.678-.036-1.689-.035v1.902zM0 88.105v1.89h6.852v18.311h4.725V89.995h6.616v-3.78H0v1.89zm19.965 5.635c0 6.167.035 7.738.177 8.636.544 3.343 2.34 5.375 5.576 6.308.815.236 1.193.272 3.166.272 1.985 0 2.351-.036 3.178-.272 2.28-.661 3.91-1.925 4.785-3.721.992-2.008 1.075-2.918 1.075-11.814v-6.934h-4.608v6.875c0 3.792-.059 7.372-.118 7.974-.272 2.54-1.146 3.533-3.379 3.816-2.87.366-4.737-.803-5.127-3.201-.07-.461-.118-3.627-.118-8.116v-7.348h-4.607v7.525zm19.728 3.52v11.046h4.608v-7.655c.011-6.793.023-7.62.189-7.407.094.13 2.138 3.567 4.548 7.643l4.383 7.419h4.583V86.215h-4.606v15.18l-4.56-7.596-4.548-7.584h-4.596V97.26zm20.084 0v11.046h16.894v-3.78H64.503v-5.671h10.75v-3.78h-10.75v-5.08h11.695v-3.78h-16.42V97.26zm18.547 0v11.046h15.358v-3.78H82.931V86.215h-4.606V97.26zm16.658 0v11.046h4.608V99.54c0-4.82.023-8.73.059-8.706.023.035.898 3.863 1.949 8.494 1.04 4.643 1.914 8.565 1.949 8.706.059.272.071.272 2.398.272h2.328l1.937-8.66c1.063-4.748 1.985-8.73 2.032-8.824.059-.095.106 3.792.106 8.647v8.837h4.608V86.215h-6.805l-2.044 8.293c-1.134 4.572-2.091 8.34-2.138 8.399-.059.071-.673-2.351-3.768-14.861l-.438-1.772-3.39-.036-3.39-.023V97.26zM122 97.178c-2.127 6.025-3.875 10.986-3.863 11.034 0 .059 1.051.094 2.339.094h2.327l.768-2.185.768-2.186h8.411l.756 2.186.756 2.185h2.328c1.795 0 2.339-.035 2.327-.153 0-.071-1.713-5.033-3.804-11.01l-3.804-10.87-2.717-.023-2.717-.035L122 97.178zm8.128-1.335c.768 2.209 1.417 4.087 1.453 4.158.035.118-.591.154-2.871.154-2.292 0-2.906-.036-2.859-.154.024-.07.544-1.654 1.134-3.508.603-1.855 1.193-3.71 1.335-4.112.13-.413.284-.709.331-.65.047.048.709 1.903 1.477 4.112zm10.1 1.417v11.046h4.607v-7.029l1.217-1.276 1.205-1.288 3.603 4.797 3.603 4.784 2.823.012c2.233 0 2.788-.035 2.706-.153-4.23-5.352-9.605-12.275-9.605-12.358 0-.07 1.867-2.126 4.147-4.583a663.83 663.83 0 004.395-4.737l.236-.26-2.765.011h-2.764L149.324 91c-2.374 2.623-4.347 4.773-4.395 4.773-.059.012-.094-2.138-.094-4.773v-4.784h-4.607V97.26z" fill="#fff"/></svg>