<svg width="33" height="33" fill="none" xmlns="http://www.w3.org/2000/svg"><rect width="33" height="33" rx="16.5" fill="#fff"/><path d="M16.5 0a16.5 16.5 0 100 32.999A16.5 16.5 0 0016.5 0zm-.292 8.257a7.308 7.308 0 015.37 2.033c1.364 1.31 2.114 3.05 2.115 4.896 0 6.125-6.307 10.887-6.576 11.085l-.338.251-.348-.237c-.291-.2-7.127-4.953-7.127-10.568 0-4.027 3.032-7.304 6.904-7.46zm.292 1.174c-.08 0-.164.001-.244.005-3.238.13-5.773 2.89-5.773 6.281 0 4.325 4.9 8.313 6.266 9.342 1.278-1.058 5.764-5.11 5.764-9.873 0-1.522-.62-2.96-1.75-4.045a6.176 6.176 0 00-4.263-1.71zm-.094 3.533c1.274-.047 2.396.962 2.449 2.26a2.363 2.363 0 01-2.357 2.455 2.36 2.36 0 01-.092-4.715zm.048 1.179a1.179 1.179 0 00-1.13 1.224c.025.65.606 1.142 1.222 1.13a1.178 1.178 0 00-.046-2.354h-.046z" fill="#EC483F"/></svg>