<svg width="427" height="229" viewBox="0 0 427 229" fill="none" xmlns="http://www.w3.org/2000/svg">
<path d="M308.152 44H306.392L308.168 32.8H309.928L309.224 37.216H315.064L315.768 32.8H317.528L315.752 44H313.992L314.808 38.832H308.968L308.152 44ZM322.789 35.936C324.005 35.936 324.986 36.3093 325.733 37.056C326.501 37.792 326.885 38.7253 326.885 39.856C326.885 41.0507 326.463 42.0747 325.621 42.928C324.767 43.7813 323.717 44.208 322.469 44.208C321.263 44.208 320.287 43.8347 319.541 43.088C318.783 42.3307 318.405 41.3973 318.405 40.288C318.405 39.0933 318.826 38.0747 319.669 37.232C320.522 36.368 321.562 35.936 322.789 35.936ZM322.485 42.688C323.231 42.688 323.866 42.4107 324.389 41.856C324.911 41.3013 325.173 40.6133 325.173 39.792C325.173 39.0987 324.954 38.5387 324.517 38.112C324.079 37.6747 323.509 37.456 322.805 37.456C322.058 37.456 321.423 37.7333 320.901 38.288C320.378 38.8427 320.117 39.52 320.117 40.32C320.117 41.024 320.335 41.5947 320.773 42.032C321.221 42.4693 321.791 42.688 322.485 42.688ZM330.058 42.816L329.37 47.2H327.642L329.386 36.144H331.114L330.954 37.168C331.744 36.3467 332.688 35.936 333.786 35.936C334.8 35.936 335.616 36.2933 336.234 37.008C336.853 37.7227 337.162 38.5973 337.162 39.632C337.162 40.8693 336.773 41.9413 335.994 42.848C335.216 43.7547 334.197 44.208 332.938 44.208C331.712 44.208 330.752 43.744 330.058 42.816ZM333.162 37.456C332.693 37.456 332.224 37.5893 331.754 37.856C331.296 38.1227 330.938 38.4533 330.682 38.848L330.298 41.328C330.48 41.6907 330.789 42.0053 331.226 42.272C331.685 42.5493 332.176 42.688 332.698 42.688C333.445 42.688 334.08 42.4107 334.602 41.856C335.136 41.2907 335.402 40.608 335.402 39.808C335.402 39.1147 335.194 38.5493 334.778 38.112C334.373 37.6747 333.834 37.456 333.162 37.456ZM340.132 44H338.404L339.636 36.144H341.364L340.884 39.216H344.868L345.348 36.144H347.076L345.844 44H344.116L344.628 40.736H340.644L340.132 44ZM349.911 44H348.295L349.527 36.144H351.255L350.423 41.456L355.495 36.144H357.111L355.878 44H354.151L354.983 38.672L349.911 44ZM360.054 44H358.326L359.574 36.144H361.318L360.822 39.088L364.438 36.144H366.662L362.278 39.808L366.054 44H363.942L360.63 40.32L360.054 44ZM371.227 42.688C372.102 42.688 372.934 42.4693 373.723 42.032L373.499 43.536C372.881 43.984 372.001 44.208 370.859 44.208C369.665 44.208 368.689 43.8667 367.931 43.184C367.174 42.4907 366.795 41.5733 366.795 40.432C366.795 39.1947 367.206 38.1333 368.027 37.248C368.838 36.3733 369.878 35.936 371.147 35.936C372.225 35.936 373.078 36.2667 373.707 36.928C374.326 37.5787 374.635 38.3787 374.635 39.328C374.635 39.808 374.603 40.224 374.539 40.576H368.475C368.486 41.2373 368.742 41.7547 369.243 42.128C369.755 42.5013 370.417 42.688 371.227 42.688ZM371.067 37.392C370.459 37.392 369.926 37.5627 369.467 37.904C369.019 38.2453 368.731 38.6987 368.603 39.264H372.971V39.088C372.971 38.5973 372.795 38.192 372.443 37.872C372.102 37.552 371.643 37.392 371.067 37.392ZM382.577 37.664H379.617C379.585 37.856 379.542 38.096 379.489 38.384C379.435 38.6613 379.409 38.8053 379.409 38.816C379.323 39.296 379.249 39.6587 379.185 39.904C379.078 40.3947 378.977 40.7627 378.881 41.008C378.785 41.2747 378.657 41.5947 378.497 41.968C378.358 42.2987 378.203 42.5707 378.033 42.784C377.873 42.9867 377.649 43.2107 377.361 43.456C376.913 43.84 376.299 44.032 375.521 44.032C375.297 44.032 375.115 44.0107 374.977 43.968L375.217 42.48C375.302 42.512 375.419 42.528 375.569 42.528C376.134 42.528 376.582 42.2347 376.913 41.648C377.243 41.0613 377.526 40.08 377.761 38.704L378.193 36.144H384.545L383.297 44H381.569L382.577 37.664ZM388.723 36.144L388.371 38.528H390.403C391.289 38.528 391.987 38.752 392.499 39.2C393.022 39.6373 393.283 40.224 393.283 40.96C393.283 41.856 392.969 42.5867 392.339 43.152C391.71 43.7173 390.899 44 389.907 44H385.763L386.995 36.144H388.723ZM388.131 39.984L387.715 42.544H389.859C390.361 42.544 390.771 42.4213 391.091 42.176C391.411 41.92 391.571 41.568 391.571 41.12C391.571 40.3627 391.006 39.984 389.875 39.984H388.131ZM411.335 40.368H399.879L400.119 38.816H411.575L411.335 40.368ZM424.515 44H422.787L423.251 41.072H417.443L417.667 39.728L424.563 32.8H426.291L425.219 39.568H426.963L426.723 41.072H424.979L424.515 44ZM424.195 35.136L419.779 39.568H423.491L424.195 35.136Z" fill="#2B7EE0"/>
<mask id="path-2-outside-1_8_93" maskUnits="userSpaceOnUse" x="123" y="27" width="184" height="184" fill="black">
<rect fill="white" x="123" y="27" width="184" height="184"/>
<path d="M305 119C305 168.706 264.706 209 215 209C165.294 209 125 168.706 125 119C125 69.2944 165.294 29 215 29C264.706 29 305 69.2944 305 119ZM161 119C161 148.823 185.177 173 215 173C244.823 173 269 148.823 269 119C269 89.1766 244.823 65 215 65C185.177 65 161 89.1766 161 119Z"/>
</mask>
<path d="M305 119C305 168.706 264.706 209 215 209C165.294 209 125 168.706 125 119C125 69.2944 165.294 29 215 29C264.706 29 305 69.2944 305 119ZM161 119C161 148.823 185.177 173 215 173C244.823 173 269 148.823 269 119C269 89.1766 244.823 65 215 65C185.177 65 161 89.1766 161 119Z" fill="url(#paint0_linear_8_93)"/>
<path d="M305 119C305 168.706 264.706 209 215 209C165.294 209 125 168.706 125 119C125 69.2944 165.294 29 215 29C264.706 29 305 69.2944 305 119ZM161 119C161 148.823 185.177 173 215 173C244.823 173 269 148.823 269 119C269 89.1766 244.823 65 215 65C185.177 65 161 89.1766 161 119Z" stroke="#131E33" stroke-width="4" mask="url(#path-2-outside-1_8_93)"/>
<mask id="path-3-outside-2_8_93" maskUnits="userSpaceOnUse" x="123" y="27" width="185" height="184" fill="black">
<rect fill="white" x="123" y="27" width="185" height="184"/>
<path d="M215 29C236.65 29 257.575 36.8046 273.937 50.9825C290.3 65.1605 301.003 84.7617 304.084 106.192C307.165 127.622 302.418 149.444 290.713 167.658C279.008 185.871 261.129 199.255 240.356 205.354C219.583 211.454 197.307 209.861 177.613 200.867C157.919 191.873 142.127 176.081 133.133 156.387C124.139 136.693 122.546 114.417 128.646 93.6441C134.745 72.8707 148.129 54.9923 166.342 43.2872L185.805 73.5723C174.877 80.5954 166.847 91.3224 163.187 103.786C159.528 116.25 160.484 129.616 165.88 141.432C171.276 153.249 180.751 162.724 192.568 168.12C204.384 173.516 217.75 174.472 230.214 170.813C242.678 167.153 253.405 159.123 260.428 148.195C267.451 137.267 270.299 124.173 268.45 111.315C266.602 98.457 260.18 86.6963 250.362 78.1895C240.545 69.6827 227.99 65 215 65L215 29Z"/>
</mask>
<path d="M215 29C236.65 29 257.575 36.8046 273.937 50.9825C290.3 65.1605 301.003 84.7617 304.084 106.192C307.165 127.622 302.418 149.444 290.713 167.658C279.008 185.871 261.129 199.255 240.356 205.354C219.583 211.454 197.307 209.861 177.613 200.867C157.919 191.873 142.127 176.081 133.133 156.387C124.139 136.693 122.546 114.417 128.646 93.6441C134.745 72.8707 148.129 54.9923 166.342 43.2872L185.805 73.5723C174.877 80.5954 166.847 91.3224 163.187 103.786C159.528 116.25 160.484 129.616 165.88 141.432C171.276 153.249 180.751 162.724 192.568 168.12C204.384 173.516 217.75 174.472 230.214 170.813C242.678 167.153 253.405 159.123 260.428 148.195C267.451 137.267 270.299 124.173 268.45 111.315C266.602 98.457 260.18 86.6963 250.362 78.1895C240.545 69.6827 227.99 65 215 65L215 29Z" fill="url(#paint1_linear_8_93)"/>
<path d="M215 29C236.65 29 257.575 36.8046 273.937 50.9825C290.3 65.1605 301.003 84.7617 304.084 106.192C307.165 127.622 302.418 149.444 290.713 167.658C279.008 185.871 261.129 199.255 240.356 205.354C219.583 211.454 197.307 209.861 177.613 200.867C157.919 191.873 142.127 176.081 133.133 156.387C124.139 136.693 122.546 114.417 128.646 93.6441C134.745 72.8707 148.129 54.9923 166.342 43.2872L185.805 73.5723C174.877 80.5954 166.847 91.3224 163.187 103.786C159.528 116.25 160.484 129.616 165.88 141.432C171.276 153.249 180.751 162.724 192.568 168.12C204.384 173.516 217.75 174.472 230.214 170.813C242.678 167.153 253.405 159.123 260.428 148.195C267.451 137.267 270.299 124.173 268.45 111.315C266.602 98.457 260.18 86.6963 250.362 78.1895C240.545 69.6827 227.99 65 215 65L215 29Z" stroke="#131E33" stroke-width="4" mask="url(#path-3-outside-2_8_93)"/>
<mask id="path-4-outside-3_8_93" maskUnits="userSpaceOnUse" x="123" y="27" width="184" height="184" fill="black">
<rect fill="white" x="123" y="27" width="184" height="184"/>
<path d="M215 29C232.253 29 249.143 33.9593 263.658 43.2872C278.172 52.6151 289.7 65.9184 296.867 81.6127C304.034 97.3069 306.539 114.731 304.084 131.808C301.629 148.886 294.316 164.898 283.017 177.937C271.719 190.977 256.91 200.494 240.356 205.354C223.801 210.215 206.199 210.215 189.644 205.354C173.09 200.494 158.281 190.977 146.983 177.937C135.684 164.898 128.371 148.886 125.916 131.808L161.55 126.685C163.023 136.932 167.41 146.539 174.19 154.362C180.969 162.186 189.854 167.896 199.786 170.813C209.719 173.729 220.281 173.729 230.214 170.813C240.146 167.896 249.031 162.186 255.81 154.362C262.59 146.539 266.977 136.932 268.45 126.685C269.924 116.438 268.421 105.984 264.12 96.5676C259.82 87.151 252.903 79.169 244.195 73.5723C235.486 67.9756 225.352 65 215 65L215 29Z"/>
</mask>
<path d="M215 29C232.253 29 249.143 33.9593 263.658 43.2872C278.172 52.6151 289.7 65.9184 296.867 81.6127C304.034 97.3069 306.539 114.731 304.084 131.808C301.629 148.886 294.316 164.898 283.017 177.937C271.719 190.977 256.91 200.494 240.356 205.354C223.801 210.215 206.199 210.215 189.644 205.354C173.09 200.494 158.281 190.977 146.983 177.937C135.684 164.898 128.371 148.886 125.916 131.808L161.55 126.685C163.023 136.932 167.41 146.539 174.19 154.362C180.969 162.186 189.854 167.896 199.786 170.813C209.719 173.729 220.281 173.729 230.214 170.813C240.146 167.896 249.031 162.186 255.81 154.362C262.59 146.539 266.977 136.932 268.45 126.685C269.924 116.438 268.421 105.984 264.12 96.5676C259.82 87.151 252.903 79.169 244.195 73.5723C235.486 67.9756 225.352 65 215 65L215 29Z" fill="url(#paint2_linear_8_93)"/>
<path d="M215 29C232.253 29 249.143 33.9593 263.658 43.2872C278.172 52.6151 289.7 65.9184 296.867 81.6127C304.034 97.3069 306.539 114.731 304.084 131.808C301.629 148.886 294.316 164.898 283.017 177.937C271.719 190.977 256.91 200.494 240.356 205.354C223.801 210.215 206.199 210.215 189.644 205.354C173.09 200.494 158.281 190.977 146.983 177.937C135.684 164.898 128.371 148.886 125.916 131.808L161.55 126.685C163.023 136.932 167.41 146.539 174.19 154.362C180.969 162.186 189.854 167.896 199.786 170.813C209.719 173.729 220.281 173.729 230.214 170.813C240.146 167.896 249.031 162.186 255.81 154.362C262.59 146.539 266.977 136.932 268.45 126.685C269.924 116.438 268.421 105.984 264.12 96.5676C259.82 87.151 252.903 79.169 244.195 73.5723C235.486 67.9756 225.352 65 215 65L215 29Z" stroke="#131E33" stroke-width="4" mask="url(#path-4-outside-3_8_93)"/>
<mask id="path-5-outside-4_8_93" maskUnits="userSpaceOnUse" x="187" y="27" width="120" height="184" fill="black">
<rect fill="white" x="187" y="27" width="120" height="184"/>
<path d="M215 29C227.901 29 240.652 31.7737 252.387 37.1331C264.123 42.4925 274.569 50.3124 283.017 60.0625C291.466 69.8127 297.72 81.2653 301.354 93.6441C304.989 106.023 305.92 119.038 304.084 131.808C302.248 144.578 297.688 156.804 290.713 167.658C283.738 178.511 274.511 187.738 263.658 194.713C252.804 201.688 240.578 206.248 227.808 208.084C215.038 209.92 202.023 208.989 189.644 205.354L199.786 170.813C207.214 172.993 215.023 173.552 222.685 172.45C230.347 171.349 237.683 168.613 244.195 164.428C250.707 160.243 256.243 154.707 260.428 148.195C264.613 141.683 267.349 134.347 268.45 126.685C269.552 119.023 268.993 111.214 266.813 103.786C264.632 96.3592 260.88 89.4876 255.81 83.6375C250.741 77.7874 244.474 73.0955 237.432 69.8799C230.391 66.6642 222.741 65 215 65L215 29Z"/>
</mask>
<path d="M215 29C227.901 29 240.652 31.7737 252.387 37.1331C264.123 42.4925 274.569 50.3124 283.017 60.0625C291.466 69.8127 297.72 81.2653 301.354 93.6441C304.989 106.023 305.92 119.038 304.084 131.808C302.248 144.578 297.688 156.804 290.713 167.658C283.738 178.511 274.511 187.738 263.658 194.713C252.804 201.688 240.578 206.248 227.808 208.084C215.038 209.92 202.023 208.989 189.644 205.354L199.786 170.813C207.214 172.993 215.023 173.552 222.685 172.45C230.347 171.349 237.683 168.613 244.195 164.428C250.707 160.243 256.243 154.707 260.428 148.195C264.613 141.683 267.349 134.347 268.45 126.685C269.552 119.023 268.993 111.214 266.813 103.786C264.632 96.3592 260.88 89.4876 255.81 83.6375C250.741 77.7874 244.474 73.0955 237.432 69.8799C230.391 66.6642 222.741 65 215 65L215 29Z" fill="url(#paint3_linear_8_93)"/>
<path d="M215 29C227.901 29 240.652 31.7737 252.387 37.1331C264.123 42.4925 274.569 50.3124 283.017 60.0625C291.466 69.8127 297.72 81.2653 301.354 93.6441C304.989 106.023 305.92 119.038 304.084 131.808C302.248 144.578 297.688 156.804 290.713 167.658C283.738 178.511 274.511 187.738 263.658 194.713C252.804 201.688 240.578 206.248 227.808 208.084C215.038 209.92 202.023 208.989 189.644 205.354L199.786 170.813C207.214 172.993 215.023 173.552 222.685 172.45C230.347 171.349 237.683 168.613 244.195 164.428C250.707 160.243 256.243 154.707 260.428 148.195C264.613 141.683 267.349 134.347 268.45 126.685C269.552 119.023 268.993 111.214 266.813 103.786C264.632 96.3592 260.88 89.4876 255.81 83.6375C250.741 77.7874 244.474 73.0955 237.432 69.8799C230.391 66.6642 222.741 65 215 65L215 29Z" stroke="#131E33" stroke-width="4" mask="url(#path-5-outside-4_8_93)"/>
<mask id="path-6-outside-5_8_93" maskUnits="userSpaceOnUse" x="213" y="27" width="94" height="154" fill="black">
<rect fill="white" x="213" y="27" width="94" height="154"/>
<path d="M215 29C232.253 29 249.143 33.9593 263.658 43.2872C278.172 52.6151 289.7 65.9184 296.867 81.6127C304.034 97.3069 306.539 114.731 304.084 131.808C301.629 148.886 294.316 164.898 283.017 177.937L255.81 154.362C262.59 146.539 266.977 136.932 268.45 126.685C269.924 116.438 268.421 105.984 264.12 96.5676C259.82 87.151 252.903 79.169 244.195 73.5723C235.486 67.9756 225.352 65 215 65L215 29Z"/>
</mask>
<path d="M215 29C232.253 29 249.143 33.9593 263.658 43.2872C278.172 52.6151 289.7 65.9184 296.867 81.6127C304.034 97.3069 306.539 114.731 304.084 131.808C301.629 148.886 294.316 164.898 283.017 177.937L255.81 154.362C262.59 146.539 266.977 136.932 268.45 126.685C269.924 116.438 268.421 105.984 264.12 96.5676C259.82 87.151 252.903 79.169 244.195 73.5723C235.486 67.9756 225.352 65 215 65L215 29Z" fill="url(#paint4_linear_8_93)"/>
<path d="M215 29C232.253 29 249.143 33.9593 263.658 43.2872C278.172 52.6151 289.7 65.9184 296.867 81.6127C304.034 97.3069 306.539 114.731 304.084 131.808C301.629 148.886 294.316 164.898 283.017 177.937L255.81 154.362C262.59 146.539 266.977 136.932 268.45 126.685C269.924 116.438 268.421 105.984 264.12 96.5676C259.82 87.151 252.903 79.169 244.195 73.5723C235.486 67.9756 225.352 65 215 65L215 29Z" stroke="#131E33" stroke-width="4" mask="url(#path-6-outside-5_8_93)"/>
<path d="M209.448 129H207.112V109.16L202.088 112.04V109.768L207.368 106.6H209.448V129ZM221.385 129H219.05V109.16L214.026 112.04V109.768L219.306 106.6H221.385V129Z" fill="#647391"/>
<path d="M274.136 223H273.072L272.302 220.298H267.15L265.54 223H264.42L270.342 213.144H271.308L274.136 223ZM272.05 219.388L270.664 214.446L267.696 219.388H272.05ZM274.849 222.986L275.003 222.048C275.059 222.057 275.166 222.062 275.325 222.062C276.258 222.062 276.949 220.839 277.397 218.394L277.789 216.238H282.857L281.779 223H280.771L281.695 217.12H278.615L278.377 218.422C278.209 219.393 277.971 220.247 277.663 220.984C277.168 222.3 276.356 222.977 275.227 223.014C275.143 223.014 275.017 223.005 274.849 222.986ZM288.62 216.07C289.544 216.07 290.281 216.378 290.832 216.994C291.392 217.61 291.672 218.366 291.672 219.262C291.672 220.335 291.326 221.259 290.636 222.034C289.945 222.79 289.058 223.168 287.976 223.168C287.397 223.168 286.874 223.042 286.408 222.79C285.941 222.538 285.568 222.211 285.288 221.81L284.644 225.8H283.636L285.148 216.238H286.17L286.002 217.19C286.664 216.443 287.537 216.07 288.62 216.07ZM287.85 222.258C288.615 222.258 289.273 221.983 289.824 221.432C290.365 220.881 290.636 220.191 290.636 219.36C290.636 218.66 290.421 218.091 289.992 217.652C289.562 217.204 288.998 216.98 288.298 216.98C287.831 216.98 287.355 217.115 286.87 217.386C286.403 217.657 286.053 217.983 285.82 218.366L285.442 220.802C285.61 221.185 285.918 221.521 286.366 221.81C286.823 222.109 287.318 222.258 287.85 222.258ZM296.93 216.07C297.957 216.07 298.783 216.392 299.408 217.036C300.043 217.671 300.36 218.459 300.36 219.402C300.36 220.429 300.001 221.315 299.282 222.062C298.573 222.799 297.677 223.168 296.594 223.168C295.567 223.168 294.737 222.851 294.102 222.216C293.477 221.581 293.164 220.788 293.164 219.836C293.164 218.809 293.523 217.923 294.242 217.176C294.951 216.439 295.847 216.07 296.93 216.07ZM296.594 222.258C297.359 222.258 298.017 221.983 298.568 221.432C299.119 220.863 299.394 220.177 299.394 219.374C299.394 218.674 299.165 218.1 298.708 217.652C298.241 217.204 297.649 216.98 296.93 216.98C296.155 216.98 295.493 217.26 294.942 217.82C294.401 218.361 294.13 219.043 294.13 219.864C294.13 220.564 294.359 221.138 294.816 221.586C295.273 222.034 295.866 222.258 296.594 222.258ZM305.289 223.168C304.263 223.168 303.432 222.86 302.797 222.244C302.172 221.619 301.859 220.844 301.859 219.92C301.859 218.819 302.237 217.904 302.993 217.176C303.74 216.439 304.669 216.07 305.779 216.07C306.647 216.07 307.389 216.266 308.005 216.658L307.851 217.582C307.282 217.181 306.624 216.98 305.877 216.98C305.037 216.98 304.328 217.255 303.749 217.806C303.18 218.347 302.895 219.033 302.895 219.864C302.895 220.573 303.138 221.152 303.623 221.6C304.118 222.039 304.743 222.258 305.499 222.258C306.162 222.258 306.792 222.09 307.389 221.754L307.235 222.72C306.657 223.019 306.008 223.168 305.289 223.168ZM315.573 222.202C315.713 222.202 315.839 222.174 315.951 222.118L315.825 222.93C315.629 223.023 315.414 223.07 315.181 223.07C314.835 223.07 314.551 222.986 314.327 222.818C314.112 222.641 314 222.389 313.991 222.062C313.253 222.799 312.353 223.168 311.289 223.168C310.551 223.168 309.954 222.972 309.497 222.58C309.039 222.188 308.811 221.679 308.811 221.054C308.811 220.298 309.091 219.715 309.651 219.304C310.229 218.893 310.915 218.688 311.709 218.688C312.651 218.688 313.519 218.926 314.313 219.402C314.397 218.851 314.439 218.511 314.439 218.38C314.439 217.447 313.79 216.98 312.493 216.98C311.587 216.98 310.794 217.162 310.113 217.526L310.281 216.574C310.906 216.238 311.713 216.07 312.703 216.07C313.468 216.07 314.121 216.247 314.663 216.602C315.195 216.957 315.461 217.498 315.461 218.226C315.461 218.459 315.419 218.819 315.335 219.304L315.055 221.054C315.017 221.287 314.999 221.474 314.999 221.614C314.999 222.006 315.19 222.202 315.573 222.202ZM311.625 222.258C312.082 222.258 312.53 222.151 312.969 221.936C313.407 221.712 313.762 221.441 314.033 221.124L314.173 220.214C313.51 219.747 312.74 219.514 311.863 219.514C311.256 219.514 310.761 219.64 310.379 219.892C309.996 220.144 309.805 220.499 309.805 220.956C309.805 221.376 309.968 221.698 310.295 221.922C310.621 222.146 311.065 222.258 311.625 222.258ZM331.664 219.654H321.794L321.934 218.73H331.818L331.664 219.654Z" fill="#647391"/>
<path d="M337.896 215.566L338.162 213.956C339.002 213.34 339.949 213.032 341.004 213.032C341.9 213.032 342.651 213.293 343.257 213.816C343.855 214.329 344.154 215.015 344.154 215.874C344.154 216.537 343.948 217.162 343.538 217.75C343.136 218.338 342.483 218.991 341.578 219.71L339.17 221.628H343.818L343.622 223H336.776L336.944 221.88L340.388 219.038C341.162 218.422 341.727 217.89 342.082 217.442C342.427 217.013 342.6 216.569 342.6 216.112C342.6 215.608 342.427 215.207 342.082 214.908C341.736 214.609 341.279 214.46 340.71 214.46C339.767 214.46 338.829 214.829 337.896 215.566Z" fill="white"/>
<path d="M37.316 76H30.386L31.94 66.2H38.66L38.506 67.138H32.822L32.332 70.274H36.994L36.84 71.212H32.178L31.576 75.062H37.47L37.316 76ZM45.9194 76H39.4094L40.9634 66.2H41.9994L40.5994 75.062H46.0734L45.9194 76ZM49.317 66.2H50.353L49.667 70.456L54.903 66.2H56.275L50.689 70.792L55.463 76H54.175L49.569 71.016L48.799 76H47.763L49.317 66.2ZM61.9486 66.032C63.3392 66.032 64.4592 66.4707 65.3086 67.348C66.1579 68.2067 66.5826 69.3173 66.5826 70.68C66.5826 72.1827 66.0786 73.4753 65.0706 74.558C64.0812 75.6313 62.8352 76.168 61.3326 76.168C59.9419 76.168 58.8219 75.7293 57.9726 74.852C57.1232 73.9747 56.6986 72.8593 56.6986 71.506C56.6986 70.0033 57.1979 68.7153 58.1966 67.642C59.2046 66.5687 60.4552 66.032 61.9486 66.032ZM61.3606 75.202C62.5366 75.202 63.5212 74.768 64.3146 73.9C65.1266 73.032 65.5326 71.9633 65.5326 70.694C65.5326 69.6487 65.2012 68.7713 64.5386 68.062C63.8852 67.3527 63.0126 66.998 61.9206 66.998C60.7539 66.998 59.7646 67.432 58.9526 68.3C58.1499 69.1587 57.7486 70.2227 57.7486 71.492C57.7486 72.5467 58.0799 73.4333 58.7426 74.152C59.4052 74.852 60.2779 75.202 61.3606 75.202ZM82.2401 72.654H72.3701L72.5101 71.73H82.3941L82.2401 72.654Z" fill="#647391"/>
<path d="M88.4717 68.566L88.7377 66.956C89.5777 66.34 90.525 66.032 91.5797 66.032C92.4757 66.032 93.227 66.2933 93.8337 66.816C94.431 67.3293 94.7297 68.0153 94.7297 68.874C94.7297 69.5367 94.5243 70.162 94.1137 70.75C93.7123 71.338 93.059 71.9913 92.1537 72.71L89.7457 74.628H94.3937L94.1977 76H87.3517L87.5197 74.88L90.9637 72.038C91.7383 71.422 92.303 70.89 92.6577 70.442C93.003 70.0127 93.1757 69.5693 93.1757 69.112C93.1757 68.608 93.003 68.2067 92.6577 67.908C92.3123 67.6093 91.855 67.46 91.2857 67.46C90.343 67.46 89.405 67.8287 88.4717 68.566Z" fill="white"/>
<path d="M19.622 174.68C20.154 174.829 20.588 175.109 20.924 175.52C21.26 175.921 21.428 176.407 21.428 176.976C21.428 177.657 21.218 178.25 20.798 178.754C20.0047 179.697 18.81 180.168 17.214 180.168C15.9353 180.168 14.8433 179.902 13.938 179.37L14.092 178.306C15.0253 178.903 16.0707 179.202 17.228 179.202C17.732 179.202 18.2173 179.132 18.684 178.992C19.1693 178.843 19.5707 178.591 19.888 178.236C20.2147 177.872 20.378 177.452 20.378 176.976C20.378 176.416 20.154 175.977 19.706 175.66C19.2673 175.333 18.6607 175.17 17.886 175.17H16.626L16.766 174.232H18.068C18.7307 174.232 19.2907 174.087 19.748 173.798C20.2147 173.499 20.448 173.065 20.448 172.496C20.448 172.02 20.2427 171.651 19.832 171.39C19.4307 171.129 18.8753 170.998 18.166 170.998C17.1207 170.998 16.1453 171.227 15.24 171.684L15.38 170.662C16.332 170.242 17.3073 170.032 18.306 170.032C19.2673 170.032 20.0373 170.242 20.616 170.662C21.204 171.082 21.498 171.651 21.498 172.37C21.498 172.93 21.3253 173.42 20.98 173.84C20.6347 174.251 20.182 174.531 19.622 174.68ZM22.9257 180L24.0037 173.238H27.5317C28.0823 173.238 28.5163 173.383 28.8337 173.672C29.1603 173.961 29.3237 174.325 29.3237 174.764C29.3237 175.595 28.9363 176.173 28.1617 176.5C28.507 176.603 28.7777 176.785 28.9737 177.046C29.1697 177.298 29.2677 177.601 29.2677 177.956C29.2677 178.609 29.0343 179.113 28.5677 179.468C28.1103 179.823 27.4897 180 26.7057 180H22.9257ZM27.2657 174.12H24.8577L24.5497 176.108H26.9157C27.2983 176.108 27.6203 176.005 27.8817 175.8C28.1523 175.585 28.2877 175.305 28.2877 174.96C28.2877 174.699 28.1943 174.493 28.0077 174.344C27.8303 174.195 27.583 174.12 27.2657 174.12ZM24.0877 179.118H26.7477C27.205 179.109 27.569 178.997 27.8397 178.782C28.1197 178.567 28.2597 178.264 28.2597 177.872C28.2597 177.592 28.157 177.368 27.9517 177.2C27.7557 177.032 27.4757 176.948 27.1117 176.948H24.4237L24.0877 179.118ZM34.7167 179.258C35.4447 179.258 36.1494 179.057 36.8307 178.656L36.7047 179.608C36.1541 179.981 35.4261 180.168 34.5207 180.168C33.5221 180.168 32.6914 179.874 32.0287 179.286C31.3754 178.689 31.0487 177.909 31.0487 176.948C31.0487 175.903 31.3987 174.993 32.0987 174.218C32.7987 173.453 33.6854 173.07 34.7587 173.07C35.6921 173.07 36.4201 173.364 36.9427 173.952C37.4561 174.521 37.7127 175.203 37.7127 175.996C37.7127 176.276 37.6894 176.565 37.6427 176.864H32.0567C32.0567 177.62 32.2994 178.208 32.7847 178.628C33.2701 179.048 33.9141 179.258 34.7167 179.258ZM34.7027 173.98C34.0774 173.98 33.5221 174.171 33.0367 174.554C32.5701 174.937 32.2714 175.431 32.1407 176.038H36.7187C36.7281 175.991 36.7327 175.921 36.7327 175.828C36.7327 175.343 36.5554 174.913 36.2007 174.54C35.8554 174.167 35.3561 173.98 34.7027 173.98ZM43.2064 176.374C43.5984 176.467 43.9158 176.649 44.1584 176.92C44.4011 177.181 44.5224 177.513 44.5224 177.914C44.5224 178.633 44.2004 179.188 43.5564 179.58C42.9124 179.972 42.1144 180.168 41.1624 180.168C40.1264 180.168 39.2864 180.009 38.6424 179.692L38.7964 178.74C39.4778 179.085 40.2478 179.258 41.1064 179.258C41.7504 179.258 42.3104 179.151 42.7864 178.936C43.2531 178.721 43.4864 178.376 43.4864 177.9C43.4864 177.228 42.9031 176.892 41.7364 176.892H40.5884L40.7004 176.01H41.8344C42.3664 176.01 42.7864 175.907 43.0944 175.702C43.4024 175.487 43.5564 175.221 43.5564 174.904C43.5564 174.288 42.9638 173.98 41.7784 173.98C41.0224 173.98 40.2758 174.129 39.5384 174.428L39.6784 173.504C40.3971 173.215 41.1811 173.07 42.0304 173.07C42.7864 173.07 43.4024 173.224 43.8784 173.532C44.3544 173.84 44.5924 174.246 44.5924 174.75C44.5924 175.151 44.4571 175.501 44.1864 175.8C43.9251 176.099 43.5984 176.29 43.2064 176.374ZM45.9989 182.002H45.0469L45.5089 179.118H46.3489C47.2542 178.119 47.8935 176.477 48.2669 174.19L48.4349 173.238H53.4609L52.5369 179.118H53.7969L53.3349 182.002H52.3549L52.6769 180H46.3209L45.9989 182.002ZM47.4829 179.118H51.5289L52.3129 174.12H49.2329L49.1769 174.526C48.8409 176.589 48.2762 178.119 47.4829 179.118ZM56.295 180H55.287L56.365 173.238H57.373L56.925 176.08H61.083L61.531 173.238H62.539L61.461 180H60.453L60.929 176.99H56.771L56.295 180ZM70.4829 180L71.5469 173.238H72.5549L71.4909 180H70.4829ZM65.5129 175.506H67.3469C68.0842 175.506 68.6629 175.688 69.0829 176.052C69.5029 176.407 69.7129 176.892 69.7129 177.508C69.7129 178.245 69.4516 178.847 68.9289 179.314C68.4156 179.771 67.7482 180 66.9269 180H63.7909L64.8689 173.238H65.8769L65.5129 175.506ZM64.9389 179.118H66.9129C67.4169 179.118 67.8416 178.983 68.1869 178.712C68.5322 178.432 68.7049 178.068 68.7049 177.62C68.7049 176.799 68.1076 176.388 66.9129 176.388H65.3729L64.9389 179.118ZM75.0307 178.474L80.1687 173.238H81.1067L80.0287 180H79.0207L79.8467 174.764L74.7227 180H73.7987L74.8487 173.238H75.8567L75.0307 178.474ZM78.1667 172.076C77.5507 172.076 77.0467 171.917 76.6547 171.6C76.2721 171.283 76.0807 170.858 76.0807 170.326C76.0807 170.307 76.0901 170.186 76.1087 169.962H76.9487C76.9394 169.999 76.9347 170.079 76.9347 170.2C76.9347 170.527 77.0514 170.793 77.2847 170.998C77.5181 171.194 77.8307 171.292 78.2227 171.292C78.6427 171.292 79.0021 171.171 79.3007 170.928C79.5994 170.676 79.7814 170.354 79.8467 169.962H80.7007C80.5887 170.606 80.2994 171.119 79.8327 171.502C79.3661 171.885 78.8107 172.076 78.1667 172.076ZM96.6327 176.654H86.7627L86.9027 175.73H96.7867L96.6327 176.654Z" fill="#647391"/>
<path d="M102.864 172.566L103.13 170.956C103.97 170.34 104.918 170.032 105.972 170.032C106.868 170.032 107.62 170.293 108.226 170.816C108.824 171.329 109.122 172.015 109.122 172.874C109.122 173.537 108.917 174.162 108.506 174.75C108.105 175.338 107.452 175.991 106.546 176.71L104.138 178.628H108.786L108.59 180H101.744L101.912 178.88L105.356 176.038C106.131 175.422 106.696 174.89 107.05 174.442C107.396 174.013 107.568 173.569 107.568 173.112C107.568 172.608 107.396 172.207 107.05 171.908C106.705 171.609 106.248 171.46 105.678 171.46C104.736 171.46 103.798 171.829 102.864 172.566Z" fill="white"/>
<path d="M7.364 9.492L9.772 14H8.596L6.244 9.59H3.122L2.422 14H1.386L2.94 4.2H7.126C8.00333 4.2 8.694 4.41933 9.198 4.858C9.702 5.28733 9.954 5.86133 9.954 6.58C9.954 7.31733 9.716 7.94733 9.24 8.47C8.77333 8.99267 8.148 9.33333 7.364 9.492ZM6.972 5.138H3.822L3.276 8.652H6.622C7.25667 8.652 7.798 8.484 8.246 8.148C8.694 7.79333 8.918 7.31733 8.918 6.72C8.918 6.22533 8.74533 5.838 8.4 5.558C8.064 5.278 7.588 5.138 6.972 5.138ZM17.9946 13.202C18.1346 13.202 18.2606 13.174 18.3726 13.118L18.2466 13.93C18.0506 14.0233 17.8359 14.07 17.6026 14.07C17.2573 14.07 16.9726 13.986 16.7486 13.818C16.5339 13.6407 16.4219 13.3887 16.4126 13.062C15.6753 13.7993 14.7746 14.168 13.7106 14.168C12.9733 14.168 12.3759 13.972 11.9186 13.58C11.4613 13.188 11.2326 12.6793 11.2326 12.054C11.2326 11.298 11.5126 10.7147 12.0726 10.304C12.6513 9.89333 13.3373 9.688 14.1306 9.688C15.0733 9.688 15.9413 9.926 16.7346 10.402C16.8186 9.85133 16.8606 9.51067 16.8606 9.38C16.8606 8.44667 16.2119 7.98 14.9146 7.98C14.0093 7.98 13.2159 8.162 12.5346 8.526L12.7026 7.574C13.3279 7.238 14.1353 7.07 15.1246 7.07C15.8899 7.07 16.5433 7.24733 17.0846 7.602C17.6166 7.95667 17.8826 8.498 17.8826 9.226C17.8826 9.45933 17.8406 9.81867 17.7566 10.304L17.4766 12.054C17.4393 12.2873 17.4206 12.474 17.4206 12.614C17.4206 13.006 17.6119 13.202 17.9946 13.202ZM14.0466 13.258C14.5039 13.258 14.9519 13.1507 15.3906 12.936C15.8293 12.712 16.1839 12.4413 16.4546 12.124L16.5946 11.214C15.9319 10.7473 15.1619 10.514 14.2846 10.514C13.6779 10.514 13.1833 10.64 12.8006 10.892C12.4179 11.144 12.2266 11.4987 12.2266 11.956C12.2266 12.376 12.3899 12.698 12.7166 12.922C13.0433 13.146 13.4866 13.258 14.0466 13.258ZM25.5224 7.826L25.3824 8.792C24.6638 8.25067 23.8144 7.98 22.8344 7.98C22.3304 7.98 21.9198 8.06867 21.6024 8.246C21.2944 8.414 21.1404 8.67533 21.1404 9.03C21.1404 9.30067 21.2618 9.51067 21.5044 9.66C21.7471 9.8 22.2231 9.97267 22.9324 10.178C23.7444 10.4207 24.3231 10.682 24.6684 10.962C25.0231 11.2327 25.2004 11.6013 25.2004 12.068C25.2004 12.768 24.9158 13.2907 24.3464 13.636C23.7678 13.9907 23.0911 14.168 22.3164 14.168C21.7378 14.168 21.1778 14.084 20.6364 13.916C20.0951 13.748 19.6611 13.5427 19.3344 13.3L19.4744 12.32C20.2678 12.9453 21.2151 13.258 22.3164 13.258C22.8204 13.258 23.2638 13.174 23.6464 13.006C24.0291 12.838 24.2204 12.5533 24.2204 12.152C24.2204 11.8907 24.0851 11.6807 23.8144 11.522C23.5438 11.3633 23.0538 11.1813 22.3444 10.976C21.5978 10.7613 21.0424 10.514 20.6784 10.234C20.3144 9.954 20.1324 9.576 20.1324 9.1C20.1324 8.44667 20.3938 7.94267 20.9164 7.588C21.4391 7.24267 22.0831 7.07 22.8484 7.07C23.9124 7.07 24.8038 7.322 25.5224 7.826ZM31.2778 7.07C32.2018 7.07 32.9391 7.378 33.4898 7.994C34.0498 8.61 34.3298 9.366 34.3298 10.262C34.3298 11.3353 33.9844 12.2593 33.2938 13.034C32.6031 13.79 31.7164 14.168 30.6338 14.168C30.0551 14.168 29.5324 14.042 29.0658 13.79C28.5991 13.538 28.2258 13.2113 27.9458 12.81L27.3018 16.8H26.2938L27.8058 7.238H28.8278L28.6598 8.19C29.3224 7.44333 30.1951 7.07 31.2778 7.07ZM30.5078 13.258C31.2731 13.258 31.9311 12.9827 32.4818 12.432C33.0231 11.8813 33.2938 11.1907 33.2938 10.36C33.2938 9.66 33.0791 9.09067 32.6498 8.652C32.2204 8.204 31.6558 7.98 30.9558 7.98C30.4891 7.98 30.0131 8.11533 29.5278 8.386C29.0611 8.65667 28.7111 8.98333 28.4778 9.366L28.0998 11.802C28.2678 12.1847 28.5758 12.5207 29.0238 12.81C29.4811 13.1087 29.9758 13.258 30.5078 13.258ZM42.2622 13.202C42.4022 13.202 42.5282 13.174 42.6402 13.118L42.5142 13.93C42.3182 14.0233 42.1035 14.07 41.8702 14.07C41.5248 14.07 41.2402 13.986 41.0162 13.818C40.8015 13.6407 40.6895 13.3887 40.6802 13.062C39.9428 13.7993 39.0422 14.168 37.9782 14.168C37.2408 14.168 36.6435 13.972 36.1862 13.58C35.7288 13.188 35.5002 12.6793 35.5002 12.054C35.5002 11.298 35.7802 10.7147 36.3402 10.304C36.9188 9.89333 37.6048 9.688 38.3982 9.688C39.3408 9.688 40.2088 9.926 41.0022 10.402C41.0862 9.85133 41.1282 9.51067 41.1282 9.38C41.1282 8.44667 40.4795 7.98 39.1822 7.98C38.2768 7.98 37.4835 8.162 36.8022 8.526L36.9702 7.574C37.5955 7.238 38.4028 7.07 39.3922 7.07C40.1575 7.07 40.8108 7.24733 41.3522 7.602C41.8842 7.95667 42.1502 8.498 42.1502 9.226C42.1502 9.45933 42.1082 9.81867 42.0242 10.304L41.7442 12.054C41.7068 12.2873 41.6882 12.474 41.6882 12.614C41.6882 13.006 41.8795 13.202 42.2622 13.202ZM38.3142 13.258C38.7715 13.258 39.2195 13.1507 39.6582 12.936C40.0968 12.712 40.4515 12.4413 40.7222 12.124L40.8622 11.214C40.1995 10.7473 39.4295 10.514 38.5522 10.514C37.9455 10.514 37.4508 10.64 37.0682 10.892C36.6855 11.144 36.4942 11.4987 36.4942 11.956C36.4942 12.376 36.6575 12.698 36.9842 12.922C37.3108 13.146 37.7542 13.258 38.3142 13.258ZM47.214 14.168C46.2807 14.168 45.5387 13.8647 44.988 13.258C44.4373 12.6327 44.162 11.872 44.162 10.976C44.162 9.90267 44.5073 8.98333 45.198 8.218C45.8793 7.45267 46.766 7.07 47.858 7.07C48.446 7.07 48.9687 7.196 49.426 7.448C49.8927 7.7 50.2613 8.022 50.532 8.414L51.218 4.2H52.226L50.686 14H49.664L49.818 13.034C49.1553 13.79 48.2873 14.168 47.214 14.168ZM47.984 7.98C47.2187 7.98 46.5607 8.26 46.01 8.82C45.4687 9.36133 45.198 10.0473 45.198 10.878C45.198 11.5687 45.408 12.138 45.828 12.586C46.2573 13.034 46.822 13.258 47.522 13.258C47.9887 13.258 48.4647 13.1227 48.95 12.852C49.426 12.572 49.776 12.236 50 11.844L50.378 9.408C50.2287 9.044 49.9253 8.71267 49.468 8.414C49.0387 8.12467 48.544 7.98 47.984 7.98ZM58.7041 7.826L58.5641 8.792C57.8454 8.25067 56.9961 7.98 56.0161 7.98C55.5121 7.98 55.1014 8.06867 54.7841 8.246C54.4761 8.414 54.3221 8.67533 54.3221 9.03C54.3221 9.30067 54.4434 9.51067 54.6861 9.66C54.9287 9.8 55.4047 9.97267 56.1141 10.178C56.9261 10.4207 57.5047 10.682 57.8501 10.962C58.2047 11.2327 58.3821 11.6013 58.3821 12.068C58.3821 12.768 58.0974 13.2907 57.5281 13.636C56.9494 13.9907 56.2727 14.168 55.4981 14.168C54.9194 14.168 54.3594 14.084 53.8181 13.916C53.2767 13.748 52.8427 13.5427 52.5161 13.3L52.6561 12.32C53.4494 12.9453 54.3967 13.258 55.4981 13.258C56.0021 13.258 56.4454 13.174 56.8281 13.006C57.2107 12.838 57.4021 12.5533 57.4021 12.152C57.4021 11.8907 57.2667 11.6807 56.9961 11.522C56.7254 11.3633 56.2354 11.1813 55.5261 10.976C54.7794 10.7613 54.2241 10.514 53.8601 10.234C53.4961 9.954 53.3141 9.576 53.3141 9.1C53.3141 8.44667 53.5754 7.94267 54.0981 7.588C54.6207 7.24267 55.2647 7.07 56.0301 7.07C57.0941 7.07 57.9854 7.322 58.7041 7.826ZM61.4914 4.2H62.4994L61.5754 10.024L65.1734 7.238H66.5594L62.5274 10.388L65.9994 14H64.7114L61.4774 10.64L60.9454 14H59.9374L61.4914 4.2ZM73.8305 13.202C73.9705 13.202 74.0965 13.174 74.2085 13.118L74.0825 13.93C73.8865 14.0233 73.6719 14.07 73.4385 14.07C73.0932 14.07 72.8085 13.986 72.5845 13.818C72.3699 13.6407 72.2579 13.3887 72.2485 13.062C71.5112 13.7993 70.6105 14.168 69.5465 14.168C68.8092 14.168 68.2119 13.972 67.7545 13.58C67.2972 13.188 67.0685 12.6793 67.0685 12.054C67.0685 11.298 67.3485 10.7147 67.9085 10.304C68.4872 9.89333 69.1732 9.688 69.9665 9.688C70.9092 9.688 71.7772 9.926 72.5705 10.402C72.6545 9.85133 72.6965 9.51067 72.6965 9.38C72.6965 8.44667 72.0479 7.98 70.7505 7.98C69.8452 7.98 69.0519 8.162 68.3705 8.526L68.5385 7.574C69.1639 7.238 69.9712 7.07 70.9605 7.07C71.7259 7.07 72.3792 7.24733 72.9205 7.602C73.4525 7.95667 73.7185 8.498 73.7185 9.226C73.7185 9.45933 73.6765 9.81867 73.5925 10.304L73.3125 12.054C73.2752 12.2873 73.2565 12.474 73.2565 12.614C73.2565 13.006 73.4479 13.202 73.8305 13.202ZM69.8825 13.258C70.3399 13.258 70.7879 13.1507 71.2265 12.936C71.6652 12.712 72.0199 12.4413 72.2905 12.124L72.4305 11.214C71.7679 10.7473 70.9979 10.514 70.1205 10.514C69.5139 10.514 69.0192 10.64 68.6365 10.892C68.2539 11.144 68.0625 11.4987 68.0625 11.956C68.0625 12.376 68.2259 12.698 68.5525 12.922C68.8792 13.146 69.3225 13.258 69.8825 13.258ZM81.5987 7.238H82.7187L78.3227 14.84C77.9213 15.5307 77.5013 16.0393 77.0627 16.366C76.624 16.6927 76.1247 16.856 75.5647 16.856C75.182 16.856 74.8413 16.7767 74.5427 16.618L74.6967 15.708C74.9673 15.8667 75.2567 15.946 75.5647 15.946C75.994 15.946 76.3767 15.778 76.7127 15.442C77.058 15.1153 77.464 14.546 77.9307 13.734L75.7887 7.238H76.8387L78.5607 12.6L81.5987 7.238ZM89.7036 13.202C89.8436 13.202 89.9696 13.174 90.0816 13.118L89.9556 13.93C89.7596 14.0233 89.5449 14.07 89.3116 14.07C88.9662 14.07 88.6816 13.986 88.4576 13.818C88.2429 13.6407 88.1309 13.3887 88.1216 13.062C87.3842 13.7993 86.4836 14.168 85.4196 14.168C84.6822 14.168 84.0849 13.972 83.6276 13.58C83.1702 13.188 82.9416 12.6793 82.9416 12.054C82.9416 11.298 83.2216 10.7147 83.7816 10.304C84.3602 9.89333 85.0462 9.688 85.8396 9.688C86.7822 9.688 87.6502 9.926 88.4436 10.402C88.5276 9.85133 88.5696 9.51067 88.5696 9.38C88.5696 8.44667 87.9209 7.98 86.6236 7.98C85.7182 7.98 84.9249 8.162 84.2436 8.526L84.4116 7.574C85.0369 7.238 85.8442 7.07 86.8336 7.07C87.5989 7.07 88.2522 7.24733 88.7936 7.602C89.3256 7.95667 89.5916 8.498 89.5916 9.226C89.5916 9.45933 89.5496 9.81867 89.4656 10.304L89.1856 12.054C89.1482 12.2873 89.1296 12.474 89.1296 12.614C89.1296 13.006 89.3209 13.202 89.7036 13.202ZM85.7556 13.258C86.2129 13.258 86.6609 13.1507 87.0996 12.936C87.5382 12.712 87.8929 12.4413 88.1636 12.124L88.3036 11.214C87.6409 10.7473 86.8709 10.514 85.9936 10.514C85.3869 10.514 84.8922 10.64 84.5096 10.892C84.1269 11.144 83.9356 11.4987 83.9356 11.956C83.9356 12.376 84.0989 12.698 84.4256 12.922C84.7522 13.146 85.1956 13.258 85.7556 13.258ZM101.021 4.032C102.411 4.032 103.531 4.47067 104.381 5.348C105.23 6.20667 105.655 7.31733 105.655 8.68C105.655 10.1827 105.151 11.4753 104.143 12.558C103.153 13.6313 101.907 14.168 100.405 14.168C99.0142 14.168 97.8942 13.7293 97.0448 12.852C96.1955 11.9747 95.7708 10.8593 95.7708 9.506C95.7708 8.00333 96.2702 6.71533 97.2688 5.642C98.2768 4.56867 99.5275 4.032 101.021 4.032ZM100.433 13.202C101.609 13.202 102.593 12.768 103.387 11.9C104.199 11.032 104.605 9.96333 104.605 8.694C104.605 7.64867 104.273 6.77133 103.611 6.062C102.957 5.35267 102.085 4.998 100.993 4.998C99.8262 4.998 98.8368 5.432 98.0248 6.3C97.2222 7.15867 96.8208 8.22267 96.8208 9.492C96.8208 10.5467 97.1522 11.4333 97.8148 12.152C98.4775 12.852 99.3502 13.202 100.433 13.202ZM111.601 4.2H112.637L111.545 11.158C111.219 13.1647 110.052 14.168 108.045 14.168C107.121 14.168 106.389 13.9393 105.847 13.482L106.001 12.432C106.487 12.9453 107.154 13.202 108.003 13.202C108.759 13.202 109.343 13.02 109.753 12.656C110.164 12.292 110.435 11.704 110.565 10.892L111.601 4.2ZM121.077 4.872L120.923 5.908C120.018 5.30133 118.991 4.998 117.843 4.998C117.171 4.998 116.574 5.14733 116.051 5.446C115.547 5.73533 115.295 6.16933 115.295 6.748C115.295 7.112 115.5 7.44333 115.911 7.742C115.92 7.75133 116.224 7.87733 116.821 8.12L117.367 8.288L117.913 8.442C118.408 8.60067 118.762 8.73133 118.977 8.834C119.266 8.946 119.565 9.10467 119.873 9.31C120.498 9.702 120.811 10.2853 120.811 11.06C120.811 12.0213 120.424 12.782 119.649 13.342C118.874 13.8927 117.95 14.168 116.877 14.168C116.13 14.168 115.416 14.0653 114.735 13.86C114.016 13.636 113.494 13.3887 113.167 13.118L113.335 12.012C113.652 12.3293 114.152 12.6093 114.833 12.852C115.496 13.0853 116.191 13.202 116.919 13.202C117.218 13.202 117.521 13.1647 117.829 13.09C118.146 13.0153 118.45 12.908 118.739 12.768C119.038 12.6187 119.28 12.4087 119.467 12.138C119.654 11.8673 119.747 11.5547 119.747 11.2C119.747 10.78 119.584 10.4347 119.257 10.164C119.126 10.052 118.93 9.94 118.669 9.828C118.417 9.70667 118.198 9.618 118.011 9.562C117.675 9.45933 117.404 9.38 117.199 9.324C116.508 9.128 115.934 8.918 115.477 8.694C115.066 8.48867 114.768 8.246 114.581 7.966C114.394 7.686 114.282 7.31733 114.245 6.86C114.245 5.95467 114.6 5.25933 115.309 4.774C116.028 4.27933 116.896 4.032 117.913 4.032C119.201 4.032 120.256 4.312 121.077 4.872ZM123.768 9.492C123.768 10.556 124.109 11.4427 124.79 12.152C125.471 12.852 126.367 13.202 127.478 13.202C128.551 13.202 129.517 12.8987 130.376 12.292L130.222 13.384C129.391 13.9067 128.449 14.168 127.394 14.168C126.003 14.168 124.874 13.734 124.006 12.866C123.147 11.9793 122.718 10.8733 122.718 9.548C122.718 8.01733 123.217 6.71533 124.216 5.642C125.224 4.56867 126.512 4.032 128.08 4.032C129.228 4.032 130.213 4.30267 131.034 4.844L130.866 5.838C130.054 5.278 129.121 4.998 128.066 4.998C126.853 4.998 125.831 5.42733 125 6.286C124.179 7.13533 123.768 8.204 123.768 9.492ZM146.1 10.654H136.23L136.37 9.73H146.254L146.1 10.654Z" fill="#647391"/>
<path d="M158.388 14H156.876L158.178 5.852L155.854 7L156.092 5.502L158.598 4.2H159.942L158.388 14Z" fill="white"/>
<defs>
<linearGradient id="paint0_linear_8_93" x1="210.95" y1="29" x2="162.145" y2="43.13" gradientUnits="userSpaceOnUse">
<stop stop-color="#647391"/>
<stop offset="1" stop-color="#0A1428"/>
</linearGradient>
<linearGradient id="paint1_linear_8_93" x1="166.4" y1="43.4" x2="123.442" y2="137.059" gradientUnits="userSpaceOnUse">
<stop stop-color="#647391"/>
<stop offset="1" stop-color="#0A1428"/>
</linearGradient>
<linearGradient id="paint2_linear_8_93" x1="125" y1="131.6" x2="193.18" y2="216.781" gradientUnits="userSpaceOnUse">
<stop stop-color="#647391"/>
<stop offset="1" stop-color="#0A1428"/>
</linearGradient>
<linearGradient id="paint3_linear_8_93" x1="190.25" y1="204.95" x2="288.656" y2="182.426" gradientUnits="userSpaceOnUse">
<stop stop-color="#647391"/>
<stop offset="1" stop-color="#0A1428"/>
</linearGradient>
<linearGradient id="paint4_linear_8_93" x1="215" y1="29" x2="215.249" y2="209" gradientUnits="userSpaceOnUse">
<stop stop-color="#2B7EE0"/>
<stop offset="1" stop-color="#0A1428"/>
</linearGradient>
</defs>
</svg>
