<svg width="450" height="228" viewBox="0 0 450 228" fill="none" xmlns="http://www.w3.org/2000/svg">
<path d="M0.5 0V200" stroke="#647391"/>
<path d="M0 200L450 200" stroke="#647391"/>
<rect x="50" y="126" width="50" height="74" fill="url(#paint0_linear_5_39)"/>
<rect width="50" height="118" transform="matrix(-1 1.29386e-07 5.90694e-08 1 250 82)" fill="url(#paint1_linear_5_39)"/>
<rect width="50" height="148" transform="matrix(-1 1.29386e-07 5.90694e-08 1 400 52)" fill="url(#paint2_linear_5_39)"/>
<path d="M67.4783 222H61.6343V221.04L64.2743 218.568C64.8343 218.048 65.2463 217.6 65.5103 217.224C65.7503 216.864 65.8703 216.48 65.8703 216.072C65.8703 215.648 65.7143 215.308 65.4023 215.052C65.0983 214.788 64.6983 214.656 64.2023 214.656C63.3703 214.656 62.5863 215.004 61.8503 215.7V214.32C62.5383 213.736 63.3663 213.444 64.3343 213.444C65.1263 213.444 65.7983 213.672 66.3503 214.128C66.9103 214.584 67.1903 215.18 67.1903 215.916C67.1903 216.484 67.0503 217 66.7703 217.464C66.4743 217.936 66.0023 218.48 65.3543 219.096L63.5423 220.824H67.4783V222ZM72.3161 222.156C71.2521 222.156 70.3961 221.736 69.7481 220.896C69.1081 220.04 68.7881 219.008 68.7881 217.8C68.7881 216.6 69.1081 215.572 69.7481 214.716C70.3961 213.868 71.2521 213.444 72.3161 213.444C73.3961 213.444 74.2521 213.868 74.8841 214.716C75.5321 215.564 75.8561 216.592 75.8561 217.8C75.8561 219.016 75.5321 220.048 74.8841 220.896C74.2521 221.736 73.3961 222.156 72.3161 222.156ZM72.3161 220.92C72.9801 220.92 73.5161 220.62 73.9241 220.02C74.3321 219.42 74.5361 218.68 74.5361 217.8C74.5361 216.92 74.3321 216.18 73.9241 215.58C73.5161 214.98 72.9801 214.68 72.3161 214.68C71.6601 214.68 71.1281 214.984 70.7201 215.592C70.3121 216.192 70.1081 216.928 70.1081 217.8C70.1081 218.664 70.3121 219.404 70.7201 220.02C71.1281 220.62 71.6601 220.92 72.3161 220.92ZM79.9967 222H78.7007V215.016L76.8647 216V214.716L78.8447 213.6H79.9967V222ZM86.6068 217.536C87.1188 217.704 87.5228 217.976 87.8188 218.352C88.1228 218.728 88.2748 219.164 88.2748 219.66C88.2748 220.436 87.9588 221.044 87.3268 221.484C86.6948 221.932 85.9188 222.156 84.9988 222.156C84.0788 222.156 83.2988 221.932 82.6588 221.484C82.0268 221.044 81.7108 220.436 81.7108 219.66C81.7108 219.164 81.8628 218.728 82.1668 218.352C82.4708 217.976 82.8788 217.704 83.3908 217.536C82.9988 217.368 82.6868 217.124 82.4548 216.804C82.2308 216.484 82.1188 216.12 82.1188 215.712C82.1188 215.048 82.3908 214.504 82.9348 214.08C83.4788 213.656 84.1668 213.444 84.9988 213.444C85.8228 213.444 86.5068 213.656 87.0508 214.08C87.5948 214.504 87.8668 215.048 87.8668 215.712C87.8668 216.12 87.7548 216.484 87.5308 216.804C87.3068 217.124 86.9988 217.368 86.6068 217.536ZM83.8348 216.744C84.1468 216.984 84.5348 217.104 84.9988 217.104C85.4628 217.104 85.8468 216.984 86.1508 216.744C86.4548 216.504 86.6068 216.196 86.6068 215.82C86.6068 215.444 86.4548 215.136 86.1508 214.896C85.8468 214.656 85.4628 214.536 84.9988 214.536C84.5348 214.536 84.1468 214.656 83.8348 214.896C83.5308 215.136 83.3788 215.444 83.3788 215.82C83.3788 216.196 83.5308 216.504 83.8348 216.744ZM86.3668 220.62C86.7348 220.348 86.9188 220 86.9188 219.576C86.9188 219.152 86.7348 218.804 86.3668 218.532C86.0148 218.26 85.5588 218.124 84.9988 218.124C84.4468 218.124 83.9868 218.26 83.6188 218.532C83.2508 218.804 83.0668 219.152 83.0668 219.576C83.0668 220 83.2508 220.348 83.6188 220.62C83.9948 220.9 84.4548 221.04 84.9988 221.04C85.5348 221.04 85.9908 220.9 86.3668 220.62Z" fill="#647391"/>
<path d="M217.502 222H211.658V221.04L214.298 218.568C214.858 218.048 215.27 217.6 215.534 217.224C215.774 216.864 215.894 216.48 215.894 216.072C215.894 215.648 215.738 215.308 215.426 215.052C215.122 214.788 214.722 214.656 214.226 214.656C213.394 214.656 212.61 215.004 211.874 215.7V214.32C212.562 213.736 213.39 213.444 214.358 213.444C215.15 213.444 215.822 213.672 216.374 214.128C216.934 214.584 217.214 215.18 217.214 215.916C217.214 216.484 217.074 217 216.794 217.464C216.498 217.936 216.026 218.48 215.378 219.096L213.566 220.824H217.502V222ZM222.34 222.156C221.276 222.156 220.42 221.736 219.772 220.896C219.132 220.04 218.812 219.008 218.812 217.8C218.812 216.6 219.132 215.572 219.772 214.716C220.42 213.868 221.276 213.444 222.34 213.444C223.42 213.444 224.276 213.868 224.908 214.716C225.556 215.564 225.88 216.592 225.88 217.8C225.88 219.016 225.556 220.048 224.908 220.896C224.276 221.736 223.42 222.156 222.34 222.156ZM222.34 220.92C223.004 220.92 223.54 220.62 223.948 220.02C224.356 219.42 224.56 218.68 224.56 217.8C224.56 216.92 224.356 216.18 223.948 215.58C223.54 214.98 223.004 214.68 222.34 214.68C221.684 214.68 221.152 214.984 220.744 215.592C220.336 216.192 220.132 216.928 220.132 217.8C220.132 218.664 220.336 219.404 220.744 220.02C221.152 220.62 221.684 220.92 222.34 220.92ZM230.02 222H228.724V215.016L226.888 216V214.716L228.868 213.6H230.02V222ZM234.83 213.444C235.854 213.444 236.654 213.792 237.23 214.488C237.814 215.176 238.106 216.14 238.106 217.38C238.106 218.724 237.774 219.86 237.11 220.788C236.454 221.7 235.534 222.156 234.35 222.156C233.654 222.156 233.038 221.98 232.502 221.628V220.428C233.022 220.78 233.59 220.956 234.206 220.956C235.022 220.956 235.638 220.676 236.054 220.116C236.486 219.556 236.718 218.876 236.75 218.076C236.262 218.708 235.538 219.024 234.578 219.024C233.802 219.024 233.158 218.78 232.646 218.292C232.134 217.804 231.878 217.156 231.878 216.348C231.878 215.492 232.158 214.796 232.718 214.26C233.286 213.716 233.99 213.444 234.83 213.444ZM234.914 214.608C234.418 214.608 234.006 214.772 233.678 215.1C233.35 215.428 233.186 215.836 233.186 216.324C233.186 216.812 233.35 217.208 233.678 217.512C234.006 217.808 234.422 217.956 234.926 217.956C235.342 217.956 235.726 217.828 236.078 217.572C236.438 217.316 236.674 217 236.786 216.624C236.738 215.992 236.55 215.5 236.222 215.148C235.894 214.788 235.458 214.608 234.914 214.608Z" fill="#647391"/>
<path d="M366.426 222H360.582V221.04L363.222 218.568C363.782 218.048 364.194 217.6 364.458 217.224C364.698 216.864 364.818 216.48 364.818 216.072C364.818 215.648 364.662 215.308 364.35 215.052C364.046 214.788 363.646 214.656 363.15 214.656C362.318 214.656 361.534 215.004 360.798 215.7V214.32C361.486 213.736 362.314 213.444 363.282 213.444C364.074 213.444 364.746 213.672 365.298 214.128C365.858 214.584 366.138 215.18 366.138 215.916C366.138 216.484 365.998 217 365.718 217.464C365.422 217.936 364.95 218.48 364.302 219.096L362.49 220.824H366.426V222ZM371.263 222.156C370.199 222.156 369.343 221.736 368.695 220.896C368.055 220.04 367.735 219.008 367.735 217.8C367.735 216.6 368.055 215.572 368.695 214.716C369.343 213.868 370.199 213.444 371.263 213.444C372.343 213.444 373.199 213.868 373.831 214.716C374.479 215.564 374.803 216.592 374.803 217.8C374.803 219.016 374.479 220.048 373.831 220.896C373.199 221.736 372.343 222.156 371.263 222.156ZM371.263 220.92C371.927 220.92 372.463 220.62 372.871 220.02C373.279 219.42 373.483 218.68 373.483 217.8C373.483 216.92 373.279 216.18 372.871 215.58C372.463 214.98 371.927 214.68 371.263 214.68C370.607 214.68 370.075 214.984 369.667 215.592C369.259 216.192 369.055 216.928 369.055 217.8C369.055 218.664 369.259 219.404 369.667 220.02C370.075 220.62 370.607 220.92 371.263 220.92ZM381.824 222H375.98V221.04L378.62 218.568C379.18 218.048 379.592 217.6 379.856 217.224C380.096 216.864 380.216 216.48 380.216 216.072C380.216 215.648 380.06 215.308 379.748 215.052C379.444 214.788 379.044 214.656 378.548 214.656C377.716 214.656 376.932 215.004 376.196 215.7V214.32C376.884 213.736 377.712 213.444 378.68 213.444C379.472 213.444 380.144 213.672 380.696 214.128C381.256 214.584 381.536 215.18 381.536 215.916C381.536 216.484 381.396 217 381.116 217.464C380.82 217.936 380.348 218.48 379.7 219.096L377.888 220.824H381.824V222ZM386.662 222.156C385.598 222.156 384.742 221.736 384.094 220.896C383.454 220.04 383.134 219.008 383.134 217.8C383.134 216.6 383.454 215.572 384.094 214.716C384.742 213.868 385.598 213.444 386.662 213.444C387.742 213.444 388.598 213.868 389.23 214.716C389.878 215.564 390.202 216.592 390.202 217.8C390.202 219.016 389.878 220.048 389.23 220.896C388.598 221.736 387.742 222.156 386.662 222.156ZM386.662 220.92C387.326 220.92 387.862 220.62 388.27 220.02C388.678 219.42 388.882 218.68 388.882 217.8C388.882 216.92 388.678 216.18 388.27 215.58C387.862 214.98 387.326 214.68 386.662 214.68C386.006 214.68 385.474 214.984 385.066 215.592C384.658 216.192 384.454 216.928 384.454 217.8C384.454 218.664 384.658 219.404 385.066 220.02C385.474 220.62 386.006 220.92 386.662 220.92Z" fill="#2B7EE0"/>
<line x1="27.9132" y1="88.9668" x2="421.836" y2="19.5076" stroke="#2B7EE0"/>
<path d="M63.2021 67H61.6901V64.438H56.6081V63.262L61.6901 57.2H63.2021V63.122H64.7281V64.438H63.2021V67ZM61.6901 59.174L58.3581 63.122H61.6901V59.174ZM66.2952 69.128H65.1052L66.2672 65.208H68.0032L66.2952 69.128ZM73.4899 67.182C72.2485 67.182 71.2499 66.692 70.4939 65.712C69.7472 64.7133 69.3739 63.5093 69.3739 62.1C69.3739 60.7 69.7472 59.5007 70.4939 58.502C71.2499 57.5127 72.2485 57.018 73.4899 57.018C74.7499 57.018 75.7485 57.5127 76.4859 58.502C77.2419 59.4913 77.6199 60.6907 77.6199 62.1C77.6199 63.5187 77.2419 64.7227 76.4859 65.712C75.7485 66.692 74.7499 67.182 73.4899 67.182ZM73.4899 65.74C74.2645 65.74 74.8899 65.39 75.3659 64.69C75.8419 63.99 76.0799 63.1267 76.0799 62.1C76.0799 61.0733 75.8419 60.21 75.3659 59.51C74.8899 58.81 74.2645 58.46 73.4899 58.46C72.7245 58.46 72.1039 58.8147 71.6279 59.524C71.1519 60.224 70.9139 61.0827 70.9139 62.1C70.9139 63.108 71.1519 63.9713 71.6279 64.69C72.1039 65.39 72.7245 65.74 73.4899 65.74ZM85.8106 67H78.9926V65.88L82.0726 62.996C82.726 62.3893 83.2066 61.8667 83.5146 61.428C83.7946 61.008 83.9346 60.56 83.9346 60.084C83.9346 59.5893 83.7526 59.1927 83.3886 58.894C83.034 58.586 82.5673 58.432 81.9886 58.432C81.018 58.432 80.1033 58.838 79.2446 59.65V58.04C80.0473 57.3587 81.0133 57.018 82.1426 57.018C83.0666 57.018 83.8506 57.284 84.4946 57.816C85.148 58.348 85.4746 59.0433 85.4746 59.902C85.4746 60.5647 85.3113 61.1667 84.9846 61.708C84.6393 62.2587 84.0886 62.8933 83.3326 63.612L81.2186 65.628H85.8106V67ZM90.0267 67.182C88.972 67.182 88.0527 66.958 87.2687 66.51V65.068C88.0714 65.5627 88.9674 65.81 89.9567 65.81C90.6567 65.81 91.2494 65.6327 91.7347 65.278C92.22 64.914 92.4627 64.4333 92.4627 63.836C92.4627 63.2667 92.234 62.8 91.7767 62.436C91.3287 62.072 90.736 61.89 89.9987 61.89C89.2427 61.89 88.4587 62.03 87.6467 62.31L88.2907 57.2H93.3307V58.544H89.4107L89.1307 60.798C89.5134 60.6953 89.924 60.644 90.3627 60.644C91.4174 60.644 92.29 60.938 92.9807 61.526C93.6714 62.114 94.0167 62.884 94.0167 63.836C94.0167 64.8627 93.634 65.6747 92.8687 66.272C92.1034 66.8787 91.156 67.182 90.0267 67.182Z" fill="#2B7EE0"/>
<path d="M212.539 40.182C211.485 40.182 210.565 39.958 209.781 39.51V38.068C210.584 38.5627 211.48 38.81 212.469 38.81C213.169 38.81 213.762 38.6327 214.247 38.278C214.733 37.914 214.975 37.4333 214.975 36.836C214.975 36.2667 214.747 35.8 214.289 35.436C213.841 35.072 213.249 34.89 212.511 34.89C211.755 34.89 210.971 35.03 210.159 35.31L210.803 30.2H215.843V31.544H211.923L211.643 33.798C212.026 33.6953 212.437 33.644 212.875 33.644C213.93 33.644 214.803 33.938 215.493 34.526C216.184 35.114 216.529 35.884 216.529 36.836C216.529 37.8627 216.147 38.6747 215.381 39.272C214.616 39.8787 213.669 40.182 212.539 40.182ZM218.49 42.128H217.3L218.462 38.208H220.198L218.49 42.128ZM224.76 40H223.248V31.852L221.106 33V31.502L223.416 30.2H224.76V40ZM229 40H227.348L231.59 31.586H226.648V30.2H233.34V31.39L229 40ZM237.422 40.182C236.264 40.182 235.289 39.9347 234.496 39.44V37.942C235.298 38.5207 236.246 38.81 237.338 38.81C237.982 38.81 238.537 38.6327 239.004 38.278C239.47 37.914 239.704 37.4287 239.704 36.822C239.704 36.2527 239.498 35.7953 239.088 35.45C238.677 35.0953 238.126 34.918 237.436 34.918C236.988 34.918 236.572 34.9927 236.19 35.142V34.092L238.822 31.544H234.86V30.2H240.866V31.362L238.36 33.77C239.144 33.854 239.825 34.1713 240.404 34.722C240.973 35.2633 241.258 35.9633 241.258 36.822C241.258 37.83 240.889 38.642 240.152 39.258C239.424 39.874 238.514 40.182 237.422 40.182Z" fill="#2B7EE0"/>
<path d="M361.555 14.182C360.5 14.182 359.581 13.958 358.797 13.51V12.068C359.6 12.5627 360.496 12.81 361.485 12.81C362.185 12.81 362.778 12.6327 363.263 12.278C363.748 11.914 363.991 11.4333 363.991 10.836C363.991 10.2667 363.762 9.8 363.305 9.436C362.857 9.072 362.264 8.89 361.527 8.89C360.771 8.89 359.987 9.03 359.175 9.31L359.819 4.2H364.859V5.544H360.939L360.659 7.798C361.042 7.69533 361.452 7.644 361.891 7.644C362.946 7.644 363.818 7.938 364.509 8.526C365.2 9.114 365.545 9.884 365.545 10.836C365.545 11.8627 365.162 12.6747 364.397 13.272C363.632 13.8787 362.684 14.182 361.555 14.182ZM367.505 16.128H366.315L367.477 12.208H369.213L367.505 16.128ZM376.758 14H375.246V11.438H370.164V10.262L375.246 4.2H376.758V10.122H378.284V11.438H376.758V14ZM375.246 6.174L371.914 10.122H375.246V6.174ZM382.69 14H381.178V5.852L379.036 7V5.502L381.346 4.2H382.69V14ZM388.302 4.018C389.496 4.018 390.43 4.424 391.102 5.236C391.783 6.03867 392.124 7.16333 392.124 8.61C392.124 10.178 391.736 11.5033 390.962 12.586C390.196 13.65 389.123 14.182 387.742 14.182C386.93 14.182 386.211 13.9767 385.586 13.566V12.166C386.192 12.5767 386.855 12.782 387.574 12.782C388.526 12.782 389.244 12.4553 389.73 11.802C390.234 11.1487 390.504 10.3553 390.542 9.422C389.972 10.1593 389.128 10.528 388.008 10.528C387.102 10.528 386.351 10.2433 385.754 9.674C385.156 9.10467 384.858 8.34867 384.858 7.406C384.858 6.40733 385.184 5.59533 385.838 4.97C386.5 4.33533 387.322 4.018 388.302 4.018ZM388.4 5.376C387.821 5.376 387.34 5.56733 386.958 5.95C386.575 6.33267 386.384 6.80867 386.384 7.378C386.384 7.94733 386.575 8.40933 386.958 8.764C387.34 9.10933 387.826 9.282 388.414 9.282C388.899 9.282 389.347 9.13267 389.758 8.834C390.178 8.53533 390.453 8.16667 390.584 7.728C390.528 6.99067 390.308 6.41667 389.926 6.006C389.543 5.586 389.034 5.376 388.4 5.376Z" fill="white"/>
<circle cx="225" cy="54" r="3" fill="#2B7EE0" stroke="#0A1428" stroke-width="2"/>
<circle cx="375" cy="27.75" r="3" fill="#2B7EE0" stroke="#0A1428" stroke-width="2"/>
<circle cx="75" cy="80.75" r="3" fill="#2B7EE0" stroke="#0A1428" stroke-width="2"/>
<defs>
<linearGradient id="paint0_linear_5_39" x1="75" y1="126" x2="75.1514" y2="200" gradientUnits="userSpaceOnUse">
<stop stop-color="#647391"/>
<stop offset="1" stop-color="#647391" stop-opacity="0"/>
</linearGradient>
<linearGradient id="paint1_linear_5_39" x1="25" y1="2.67488e-08" x2="25.3851" y2="117.999" gradientUnits="userSpaceOnUse">
<stop stop-color="#647391"/>
<stop offset="1" stop-color="#647391" stop-opacity="0"/>
</linearGradient>
<linearGradient id="paint2_linear_5_39" x1="25" y1="3.35494e-08" x2="25.6058" y2="147.998" gradientUnits="userSpaceOnUse">
<stop stop-color="#2B7EE0"/>
<stop offset="1" stop-color="#2B7EE0" stop-opacity="0"/>
</linearGradient>
</defs>
</svg>
