<svg width="205" height="28" viewBox="0 0 205 28" fill="none" xmlns="http://www.w3.org/2000/svg">
<path opacity="0.5" d="M13.3877 18.3377L26.7755 27.3878V9.66243L13.3877 0.612305V18.3377Z" fill="white"/>
<path d="M0 14.0001C0 21.3901 5.99771 27.3878 13.3878 27.3878V0.612305C5.99771 0.612305 0 6.61002 0 14.0001ZM26.7755 0.612305V27.3878C34.1655 27.3878 40.1633 21.3901 40.1633 14.0001C40.1633 6.61002 34.1655 0.612305 26.7755 0.612305Z" fill="white"/>
<path d="M55.7199 15.7407H53.9125V21.1226H49.9564V7.06541H53.9125V12.5276H55.8203L59.1739 7.06541H63.3509L58.953 13.853L63.391 21.1226H58.9128L55.7199 15.7407ZM69.6309 21.3033C68.4662 21.3033 67.4153 21.0623 66.4781 20.5804C65.541 20.0984 64.8047 19.429 64.2691 18.5722C63.747 17.7154 63.486 16.7448 63.486 15.6604C63.486 14.5893 63.747 13.6254 64.2691 12.7686C64.8047 11.9118 65.5343 11.2491 66.458 10.7805C67.3952 10.2986 68.4528 10.0576 69.6309 10.0576C70.8091 10.0576 71.8667 10.2986 72.8038 10.7805C73.741 11.2491 74.4706 11.9118 74.9927 12.7686C75.5149 13.612 75.7759 14.5759 75.7759 15.6604C75.7759 16.7448 75.5149 17.7154 74.9927 18.5722C74.4706 19.429 73.741 20.0984 72.8038 20.5804C71.8667 21.0623 70.8091 21.3033 69.6309 21.3033ZM69.6309 18.271C70.3003 18.271 70.8492 18.0434 71.2776 17.5882C71.706 17.1196 71.9203 16.477 71.9203 15.6604C71.9203 14.8571 71.706 14.2279 71.2776 13.7727C70.8492 13.3175 70.3003 13.0899 69.6309 13.0899C68.9616 13.0899 68.4127 13.3175 67.9843 13.7727C67.5558 14.2279 67.3416 14.8571 67.3416 15.6604C67.3416 16.477 67.5558 17.1196 67.9843 17.5882C68.4127 18.0434 68.9616 18.271 69.6309 18.271ZM88.4543 10.2383V21.1226H84.6388V13.2706H81.8876L81.8073 14.9374C81.7538 16.3565 81.6132 17.5279 81.3856 18.4517C81.158 19.3755 80.7832 20.0984 80.261 20.6205C79.7389 21.1293 79.0227 21.3836 78.1123 21.3836C77.6437 21.3836 77.0279 21.2966 76.2648 21.1226L76.4254 18.0099C76.6664 18.0367 76.8271 18.0501 76.9074 18.0501C77.3224 18.0501 77.637 17.9162 77.8512 17.6484C78.0654 17.3807 78.2127 17.0259 78.293 16.5841C78.3734 16.1289 78.4269 15.5265 78.4537 14.7768L78.6143 10.2383H88.4543ZM97.4045 13.612C98.8503 13.6254 99.9548 13.9467 100.718 14.5759C101.481 15.2052 101.863 16.1022 101.863 17.2669C101.863 18.4718 101.421 19.4223 100.537 20.1185C99.667 20.8013 98.4621 21.1359 96.9225 21.1226H91.0185V10.2383H94.8139V13.612H97.4045ZM96.541 18.5119C97.5049 18.5119 97.9868 18.0768 97.9868 17.2066C97.9868 16.7782 97.8663 16.4636 97.6254 16.2628C97.3844 16.062 97.0229 15.9549 96.541 15.9415H94.8139V18.4919L96.541 18.5119ZM108.953 21.3033C107.748 21.3033 106.671 21.0623 105.72 20.5804C104.77 20.0984 104.027 19.429 103.491 18.5722C102.969 17.7154 102.708 16.7448 102.708 15.6604C102.708 14.5759 102.969 13.612 103.491 12.7686C104.027 11.9118 104.77 11.2491 105.72 10.7805C106.671 10.2986 107.748 10.0576 108.953 10.0576C110.185 10.0576 111.249 10.3253 112.146 10.8608C113.043 11.383 113.679 12.1126 114.054 13.0497L111.102 14.5559C110.607 13.5786 109.884 13.0899 108.933 13.0899C108.25 13.0899 107.681 13.3175 107.226 13.7727C106.784 14.2279 106.564 14.8571 106.564 15.6604C106.564 16.477 106.784 17.1196 107.226 17.5882C107.681 18.0434 108.25 18.271 108.933 18.271C109.884 18.271 110.607 17.7823 111.102 16.805L114.054 18.3111C113.679 19.2483 113.043 19.9846 112.146 20.5201C111.249 21.0422 110.185 21.3033 108.953 21.3033ZM120.751 17.2468H119.465V21.1226H115.65V10.2383H119.465V14.2546H120.831L123.502 10.2383H127.538L123.883 15.4595L127.779 21.1226H123.281L120.751 17.2468ZM133.286 10.0576C135.093 10.0576 136.472 10.4726 137.423 11.3026C138.373 12.1193 138.849 13.3777 138.849 15.078V21.1226H135.294V19.7168C134.745 20.7745 133.674 21.3033 132.081 21.3033C131.238 21.3033 130.508 21.156 129.892 20.8615C129.276 20.567 128.808 20.172 128.487 19.6767C128.179 19.1679 128.025 18.5923 128.025 17.9497C128.025 16.9188 128.42 16.1222 129.21 15.5599C129.999 14.9843 131.218 14.6964 132.864 14.6964H135.033C134.966 13.5451 134.196 12.9694 132.724 12.9694C132.202 12.9694 131.673 13.0564 131.137 13.2305C130.602 13.3911 130.147 13.6187 129.772 13.9133L128.487 11.3227C129.089 10.9211 129.819 10.6132 130.675 10.399C131.546 10.1714 132.416 10.0576 133.286 10.0576ZM133.146 18.8935C133.587 18.8935 133.976 18.7864 134.31 18.5722C134.645 18.358 134.886 18.0434 135.033 17.6284V16.6845H133.387C132.275 16.6845 131.72 17.0527 131.72 17.789C131.72 18.1237 131.847 18.3915 132.101 18.5923C132.356 18.7931 132.704 18.8935 133.146 18.8935ZM151.386 10.2383V21.1226H147.992V18.1706H146.265L144.337 21.1226H140.301L142.711 17.6484C141.988 17.3271 141.432 16.892 141.044 16.3431C140.669 15.7808 140.481 15.1115 140.481 14.335C140.481 13.0364 140.963 12.0323 141.927 11.3227C142.891 10.5998 144.217 10.2383 145.903 10.2383H151.386ZM145.984 13.2506C144.913 13.2506 144.377 13.6589 144.377 14.4755C144.377 14.9039 144.504 15.2186 144.759 15.4194C145.027 15.6202 145.428 15.7206 145.964 15.7206H147.992V13.2506H145.984ZM170.297 10.2182H163.931V21.1226H160.015V7.06541H170.317L170.297 10.2182ZM184.767 21.1226L184.747 13.6723L181.132 19.7369H179.365L175.75 13.8329V21.1226H172.095V7.06541H175.369L180.309 15.1784L185.128 7.06541H188.402L188.442 21.1226H184.767ZM197.115 15.7407H195.308V21.1226H191.352V7.06541H195.308V12.5276H197.215L200.569 7.06541H204.746L200.348 13.853L204.786 21.1226H200.308L197.115 15.7407Z" fill="white"/>
</svg>
