<svg width="159" height="51" viewBox="0 0 159 51" fill="none" xmlns="http://www.w3.org/2000/svg">
<g clip-path="url(#clip0_140_1506)">
<path d="M33.1309 27.2147H39.4434C40.34 27.1779 41.2379 27.2067 42.1303 27.3012C44.1151 27.5716 46.1256 28.4619 46.1256 30.9072C46.1256 32.9544 44.9392 33.9122 43.5052 34.224V34.348C45.5786 34.7237 46.7686 35.8505 46.7686 38.0705C46.7686 41.7141 43.3463 42.7208 40.5707 42.8561C39.8943 42.8561 39.0258 42.8561 38.4418 42.8561H33.1309V27.2147ZM37.5659 39.8998H39.3658C40.8885 39.8998 42.3853 39.4341 42.3853 37.9466C42.3853 36.5492 41.2544 36.0684 39.1477 36.0684H37.5548L37.5659 39.8998ZM37.6583 33.2925H38.9962C40.8442 33.2925 41.9234 32.9169 41.9234 31.7111C41.9234 30.7532 41.2544 30.2086 39.4508 30.2086H37.6472L37.6583 33.2925Z" fill="white"/>
<path d="M11.2401 43.1827C4.56164 43.1827 0.928589 38.2994 0.928589 32.1391C0.928589 25.9374 5.20103 20.8513 12.2195 20.8513C14.0674 20.8513 15.6937 21.0993 17.1018 21.843V25.8435C15.6872 24.9506 14.0508 24.4878 12.3858 24.51C7.62554 24.51 5.76651 28.0747 5.76651 31.8311C5.76651 36.0156 8.08752 39.3437 11.9571 39.3437C13.6295 39.3459 15.2724 38.896 16.7174 38.0402L17.878 41.2031C15.9169 42.5269 13.6089 43.2194 11.2549 43.1902L11.2401 43.1827ZM86.6104 43.1827C81.6689 43.1827 79.1372 39.4902 79.1372 35.0878C79.1372 30.1558 82.4931 26.899 86.9799 26.899C88.9609 26.899 90.0031 27.301 90.8232 27.7968V31.3352C89.9155 30.6023 88.7822 30.218 87.6231 30.2496C85.0914 30.2496 83.5354 32.1278 83.5354 34.8699C83.5354 37.3191 84.7217 39.7081 87.5564 39.7081C88.6083 39.6397 89.6314 39.3316 90.55 38.8066L91.5848 41.6914C90.0834 42.6231 88.3689 43.141 86.6104 43.1939V43.1827ZM100.285 30.7455V42.8709H95.8911V30.7455H91.6179V27.2108H105.104L103.996 30.7455H100.285ZM121.414 29.0477C121.414 34.5056 121.2 37.3566 120.224 38.6601C119.72 39.3134 118.988 39.7461 118.18 39.8696L119.4 43.1902C120.754 43.1283 122.041 42.5768 123.029 41.6351C124.434 40.2415 124.896 38.476 125.106 36.6128C125.303 34.9247 125.405 33.2267 125.413 31.5268V30.7455H128.847V42.8709H133.241V27.2108H121.414V29.0477ZM21.7697 36.2635C21.8621 38.3745 23.8172 39.6743 25.861 39.6743C27.3394 39.6743 28.4814 39.3963 30.2259 38.5474L31.2016 41.3721C29.3898 42.5528 27.2815 43.1776 25.1292 43.1714C19.6335 43.1714 17.3679 39.201 17.3679 35.0765C17.3679 30.6741 19.955 26.8877 24.5675 26.8877C28.7808 26.8877 31.7116 30.0506 31.7116 34.8887V36.2522L21.7697 36.2635ZM24.4566 30.1745C22.6863 30.1745 21.6773 31.786 21.6773 33.2134H27.2211C27.1288 31.7109 26.3046 30.1745 24.4456 30.1745H24.4566ZM52.039 36.2823C52.1314 38.3934 54.0865 39.693 56.1304 39.693C57.6087 39.693 58.7545 39.4151 60.4952 38.5661L61.4709 41.3909C59.6595 42.5724 57.5509 43.1972 55.3986 43.1902C49.9064 43.1902 47.6373 39.2197 47.6373 35.0953C47.6373 30.6929 50.2243 26.9065 54.8368 26.9065C59.0464 26.9065 61.9772 30.0694 61.9772 34.9075V36.271L52.039 36.2823ZM54.7259 30.1745C52.9556 30.1745 51.9318 31.7672 51.9318 33.1796H57.4756C57.3832 31.677 56.5554 30.1407 54.6964 30.1407L54.7259 30.1745ZM113.528 41.496C112.969 42.0547 112.305 42.4935 111.576 42.7865C110.847 43.0794 110.068 43.2205 109.285 43.2014C106.357 43.2014 104.158 41.2144 104.158 38.1117C104.158 34.7948 106.787 33.0894 110.689 32.9655L113.276 32.8716V32.5636C113.276 30.9183 111.968 30.2685 110.446 30.2685C109.069 30.2619 107.717 30.6372 106.535 31.354L105.193 28.6232C107.3 27.2295 109.311 26.9178 111.417 26.9178C115.483 26.9178 117.645 28.5594 117.645 32.6875V42.8709H114.226L113.528 41.496ZM111.31 35.8616C109.418 35.9254 108.538 36.5753 108.538 37.7398C108.538 38.9042 109.359 39.693 110.852 39.693C111.703 39.7337 112.542 39.4824 113.236 38.9794V35.809L111.31 35.8616ZM67.7872 42.5291V49.1364L63.389 50.5V27.2108H67.0849L67.5728 28.6344C68.7001 27.7367 70.0158 26.899 71.7233 26.899C75.2639 26.899 78.0396 29.6261 78.0396 34.5919C78.0396 39.2423 75.2935 43.1827 70.7476 43.1827C69.7246 43.2103 68.7102 42.9861 67.7909 42.5291H67.7872ZM67.7872 31.9212V39.3362C68.3391 39.7305 68.9974 39.9418 69.6721 39.941C72.6621 39.941 73.6378 37.1801 73.6378 34.5131C73.6452 31.3014 72.6288 30.1745 70.8363 30.1745C69.6795 30.1745 68.3083 31.1361 67.7872 31.94V31.9212Z" fill="white"/>
<path d="M139.462 32.3083V26.5386L135.067 27.9209V42.8974H140.681C144.769 42.8974 148.583 41.7705 148.583 37.4695C148.583 33.8108 145.505 32.3233 141.72 32.3233L139.462 32.3083ZM139.462 39.7834V35.411H140.94C142.499 35.411 144.207 35.6589 144.207 37.5183C144.207 39.3777 142.729 39.7721 141.003 39.7721L139.462 39.7834Z" fill="white"/>
<path d="M155.243 16.975C155.53 16.8744 155.802 16.7313 156.048 16.5505C156.484 15.4024 156.855 14.2297 157.157 13.0384C157.553 11.5129 157.829 9.95786 157.981 8.38806C158.102 7.13891 158.102 5.88088 157.981 4.63174C157.863 3.47479 157.568 2.29906 156.873 1.62668C156.178 0.954302 155.047 0.650039 153.938 0.548619C152.706 0.462147 151.469 0.491068 150.242 0.635014C150.513 0.759246 150.762 0.925243 150.981 1.12709C151.662 1.75815 151.976 2.83621 152.113 3.89174C152.221 4.73087 152.259 5.57781 152.227 6.42351C152.155 8.15504 151.897 9.8733 151.455 11.5471C151.122 12.8817 150.68 14.1858 150.135 15.4462C150.831 15.8857 151.561 16.2687 152.316 16.5919C153.296 16.9976 154.371 17.2567 155.243 16.975Z" fill="white"/>
<path d="M139.214 13.7784C139.154 14.0837 139.14 14.3967 139.173 14.7062C139.934 15.6509 140.746 16.5513 141.605 17.4033C142.714 18.5204 143.909 19.5454 145.179 20.4684C146.184 21.1911 147.252 21.8197 148.369 22.3466C149.407 22.8311 150.56 23.1429 151.477 22.8875C152.394 22.6321 153.214 21.7606 153.868 20.7952C154.569 19.7584 155.167 18.6537 155.654 17.4972C155.404 17.6859 155.128 17.833 154.833 17.9329C153.961 18.2184 152.885 17.9554 151.917 17.5573C151.147 17.2294 150.406 16.8388 149.699 16.3891C148.263 15.4581 146.931 14.3711 145.726 13.1474C144.755 12.1868 143.864 11.1466 143.062 10.0371C142.341 10.4331 141.653 10.8866 141.003 11.3932C140.171 12.0505 139.41 12.8694 139.214 13.7784Z" fill="white"/>
<path d="M149.939 1.25113C149.718 1.05667 149.469 0.897128 149.2 0.777832C147.997 0.967078 146.806 1.22923 145.634 1.5629C144.139 1.9678 142.679 2.49154 141.265 3.12929C140.144 3.6494 139.074 4.27837 138.071 5.00745C137.137 5.6911 136.268 6.55129 136.031 7.49413C135.796 8.43697 136.138 9.60898 136.63 10.672C137.163 11.7974 137.802 12.8679 138.537 13.8686C138.502 13.5554 138.516 13.2384 138.578 12.9295C138.774 12.0167 139.536 11.1978 140.363 10.548C141.031 10.034 141.739 9.57666 142.481 9.18072C143.992 8.37847 145.587 7.74859 147.234 7.30256C148.529 6.92834 149.851 6.66324 151.188 6.50997C151.219 5.67304 151.18 4.83501 151.074 4.00451C150.937 2.94898 150.612 1.87092 149.939 1.25113Z" fill="white"/>
</g>
<defs>
<clipPath id="clip0_140_1506">
<rect width="157.143" height="50" fill="white" transform="translate(0.928589 0.5)"/>
</clipPath>
</defs>
</svg>
