<svg width="179" height="28" viewBox="0 0 179 28" fill="none" xmlns="http://www.w3.org/2000/svg">
<g clip-path="url(#clip0_140_1502)">
<path fill-rule="evenodd" clip-rule="evenodd" d="M0.635742 17.9286C0.635742 17.9286 6.0462 17.9803 8.49728 18.4197C16.3017 19.8014 16.6011 27.0157 16.6011 27.0157C16.6011 27.0157 15.3304 27.0868 11.9768 27.0868C4.15513 27.0868 0.636819 17.9286 0.636819 17.9286H0.635742ZM33.6424 17.9286C33.6424 17.9286 28.233 17.9803 25.7808 18.4197C17.9785 19.8014 17.6802 27.0157 17.6802 27.0157C17.6802 27.0157 18.9499 27.0868 22.3034 27.0868C30.1262 27.0868 33.6434 17.9286 33.6434 17.9286H33.6424ZM20.0548 17.0908C20.0548 18.6566 18.7496 19.9252 17.1396 19.9252C15.5285 19.9252 14.2233 18.6566 14.2233 17.0908C14.2233 15.526 15.5285 14.2563 17.1396 14.2563C18.7496 14.2563 20.0548 15.526 20.0548 17.0908ZM26.0134 14.3016C26.0134 15.8663 24.7082 17.136 23.0982 17.136C21.4882 17.136 20.183 15.8663 20.183 14.3016C20.183 12.7357 21.4882 11.4671 23.0982 11.4671C24.7082 11.4671 26.0134 12.7357 26.0134 14.3016ZM23.362 3.00463C23.362 4.5694 22.0568 5.83909 20.4468 5.83909C18.8357 5.83909 17.5305 4.5694 17.5305 3.00463C17.5305 1.43878 18.8357 0.170166 20.4468 0.170166C22.0568 0.170166 23.362 1.43878 23.362 3.00463V3.00463ZM16.7476 3.00463C16.7476 4.5694 15.4424 5.83909 13.8324 5.83909C12.2224 5.83909 10.9171 4.5694 10.9171 3.00463C10.9171 1.43878 12.2224 0.170166 13.8324 0.170166C15.4424 0.170166 16.7476 1.43878 16.7476 3.00463V3.00463ZM14.0962 14.3016C14.0962 15.8663 12.791 17.136 11.181 17.136C9.5699 17.136 8.26466 15.8663 8.26466 14.3016C8.26466 12.7357 9.5699 11.4671 11.181 11.4671C12.791 11.4671 14.0962 12.7357 14.0962 14.3016ZM27.4856 8.03278C27.4856 9.59755 26.1804 10.8662 24.5704 10.8662C22.9593 10.8662 21.654 9.59755 21.654 8.03386C21.654 6.46801 22.9593 5.1994 24.5704 5.1994C26.1804 5.1994 27.4856 6.46801 27.4856 8.03386V8.03278ZM12.624 8.03278C12.624 9.59755 11.3188 10.8662 9.70882 10.8662C8.09774 10.8662 6.79359 9.59755 6.79359 8.03278C6.79359 6.46694 8.09774 5.19832 9.70882 5.19832C11.3188 5.19832 12.624 6.46694 12.624 8.03278V8.03278ZM48.1722 24.5722C45.0082 24.598 39.4728 23.6999 39.4728 17.3956C39.4728 11.1677 45.0082 10.1156 48.1722 10.2189V8.24494H53.3393V10.2189C56.5022 10.1156 62.0387 11.1666 62.0387 17.3956C62.0387 23.6999 56.5033 24.598 53.3393 24.5722V27.0836H48.1722V24.5722V24.5722ZM48.5416 13.8062C47.2493 13.7814 44.6399 14.2176 44.6399 17.3956C44.6399 20.5725 47.2493 21.0086 48.5416 20.9839V13.8062ZM52.9699 20.9839C54.2622 21.0086 56.8716 20.5736 56.8716 17.3956C56.8716 14.2176 54.2622 13.7814 52.9699 13.8062V20.9839ZM63.9545 18.1128C63.9545 13.3205 67.1185 8.6294 73.8665 8.6294C80.6156 8.6294 83.7785 13.3194 83.7785 18.1128C83.7785 22.9062 80.6156 27.5962 73.8665 27.5962C67.1185 27.5962 63.9556 22.9062 63.9556 18.1128H63.9545ZM78.4531 18.1128C78.4531 14.6526 76.2648 12.936 73.8665 12.936C71.4682 12.936 69.2788 14.6526 69.2788 18.1128C69.2788 21.5729 71.4682 23.2896 73.8665 23.2896C76.2648 23.2896 78.4542 21.5729 78.4542 18.1128H78.4531ZM100.101 26.264C98.4408 27.3657 96.7005 27.5962 95.1196 27.5962C89.6359 27.5962 85.6814 23.8539 85.6814 18.1128C85.6814 12.1143 90.0322 8.6294 95.0399 8.6294C96.6747 8.6294 98.5464 9.0397 100.101 10.0649V15.2665C99.1537 14.1917 97.702 13.1148 95.7259 13.1148C92.8785 13.1148 91.0068 15.3182 91.0068 18.2657C91.0068 20.9839 92.773 23.1108 95.7259 23.1108C97.6493 23.1108 99.1527 22.1114 100.101 21.1626V26.264V26.264ZM108.003 9.14201H114.276L120.841 27.0836H115.305L114.276 23.982H108.003L106.974 27.0836H101.439L108.003 9.14201V9.14201ZM109.031 20.0351H113.249L111.14 13.4228L109.031 20.0351ZM122.64 9.14201H133.712V13.4476H127.807V27.0846H122.64V9.14201V9.14201ZM135.751 9.14201H143.526C148.773 9.14201 150.248 12.6797 150.248 15.1405C150.248 17.626 148.746 21.1626 143.526 21.1626H140.917V27.0836H135.751V9.14201V9.14201ZM140.917 17.2157H142.392C144.687 17.2157 144.924 15.9083 144.924 15.1394C144.924 14.2423 144.607 13.09 142.393 13.09H140.918V17.2157H140.917ZM151.991 18.1128C151.991 13.3205 155.155 8.6294 161.904 8.6294C168.652 8.6294 171.815 13.3194 171.815 18.1128C171.815 22.9062 168.652 27.5962 161.904 27.5962C155.155 27.5962 151.991 22.9062 151.991 18.1128V18.1128ZM166.489 18.1128C166.489 14.6526 164.302 12.936 161.904 12.936C159.503 12.936 157.316 14.6526 157.316 18.1128C157.316 21.5729 159.503 23.2896 161.904 23.2896C164.302 23.2896 166.489 21.5729 166.489 18.1128V18.1128ZM178.594 11.0912C178.594 12.7099 177.357 13.9279 175.678 13.9279C173.998 13.9279 172.76 12.7099 172.76 11.0923C172.76 9.46617 173.998 8.24063 175.678 8.24063C177.358 8.24063 178.594 9.46724 178.594 11.0923V11.0912ZM173.242 11.0912C173.242 12.4589 174.247 13.5068 175.678 13.5068C177.108 13.5068 178.112 12.46 178.112 11.0923C178.112 9.71709 177.108 8.66278 175.678 8.66278C174.247 8.66278 173.243 9.71709 173.243 11.0923L173.242 11.0912ZM175.545 9.43601C175.916 9.43601 176.751 9.49847 176.751 10.4279C176.751 10.9276 176.446 11.2485 176.012 11.3346L177.136 12.7174H176.412L175.416 11.4208H175.256V12.7174H174.677V9.43601H175.545ZM175.256 10.9049H175.473C175.713 10.9049 176.172 10.8812 176.172 10.4279C176.172 9.95186 175.706 9.95186 175.489 9.95186H175.256V10.9049Z" fill="white"/>
</g>
<defs>
<clipPath id="clip0_140_1502">
<rect width="178.769" height="28" fill="white" transform="translate(0.115479)"/>
</clipPath>
</defs>
</svg>
