<?xml version="1.0" encoding="utf-8"?>
<svg xmlns="http://www.w3.org/2000/svg" xmlns:xlink="http://www.w3.org/1999/xlink">
    <symbol viewBox="0 0 12 12" id="rightUpArrow">
        <defs>
            <style>.aacls-1{fill:#fff}</style>
        </defs>
        <g xmlns="http://www.w3.org/2000/svg">
            <path d="M11.8323 0.165039V10.165H10.3323L10.3323 2.72569L1.2257 11.8323L0.165039 10.7716L9.27164 1.66504L1.83231 1.66504L1.83231 0.165039L11.8323 0.165039Z"/>
        </g>
    </symbol>

    <symbol viewBox="0 0 566 566" id="gear">
        <svg xmlns="http://www.w3.org/2000/svg">
            <path fill-rule="evenodd" clip-rule="evenodd" d="M185.471 71.6863C179.769 67.4089 173.477 63.9219 166.763 61.3486C164.604 60.5213 162.402 59.7883 160.162 59.154C143.359 54.3962 125.475 55.4813 109.417 62.1703C108.347 62.6162 107.284 63.0871 106.231 63.5827L106.192 63.6082L105.841 63.8374C102.753 65.3012 99.7641 66.9665 96.8942 68.8227L125.115 112.005C123.425 113.565 121.756 115.152 120.11 116.765C95.4003 140.976 76.5032 170.284 64.6313 202.478C55.3003 203.811 46.2173 206.852 37.8583 211.527C21.5973 220.621 9.17131 235.287 2.87026 252.82L2.90539 252.832L2.89569 252.859L2.73678 253.297C1.61567 256.518 0.701554 259.809 0 263.148L50.4436 273.696C49.1343 306.422 54.7427 339.208 67.0755 369.863C68.5177 373.448 70.0464 376.99 71.6595 380.487C66.0202 388.013 61.7573 396.566 59.1539 405.76C55.3075 419.345 55.2799 433.636 58.9451 447.097C60.1156 451.396 61.6629 455.611 63.5827 459.692L63.6083 459.731L63.8373 460.081C65.3011 463.169 66.9665 466.158 68.8226 469.028L111.96 440.837C123.815 453.682 137.138 465.217 151.721 475.178C167.588 486.015 184.648 494.788 202.488 501.364C203.827 510.666 206.863 519.719 211.523 528.053C218.31 540.19 228.203 550.19 240.074 557.1C244.131 559.469 248.421 561.477 252.897 563.085L253.335 563.244C256.558 564.379 259.853 565.3 263.198 566L273.771 515.546C276.048 515.637 278.328 515.694 280.612 515.717C315.236 516.071 349.354 508.694 380.537 494.298C388.047 499.914 396.577 504.16 405.745 506.756C423.67 511.831 442.824 510.256 459.678 502.32L460.067 502.065C463.148 500.588 466.128 498.91 468.99 497.042L440.833 453.957C467.808 428.997 488.524 397.979 501.24 363.452C510.584 362.123 519.681 359.081 528.052 354.399C540.177 347.619 550.168 337.741 557.077 325.885C559.434 321.854 561.435 317.592 563.041 313.147L563.057 313.154L563.045 313.135L563.084 313.025L563.243 312.588C564.378 309.364 565.299 306.068 566 302.724L515.413 292.236C516.885 255.499 509.638 218.894 494.244 185.457C499.886 177.929 504.151 169.375 506.756 160.177C511.83 142.252 510.255 123.097 502.32 106.244L502.294 106.205L502.065 105.854C500.587 102.773 498.91 99.793 497.041 96.9325L453.949 125.094C431.743 101.051 404.612 81.8529 374.237 68.9066C370.669 67.3856 367.069 65.9568 363.442 64.6205C362.108 55.2932 359.067 46.2142 354.394 37.8584C345.3 21.5973 330.635 9.17134 313.102 2.87027L313.089 2.90533L313.063 2.89569L312.625 2.73676C309.404 1.61566 306.113 0.701558 302.774 0L292.269 50.4563C274.818 49.7595 257.256 51.0258 239.914 54.2915C221.021 57.8497 202.745 63.7148 185.471 71.6863ZM263.014 514.871L262.95 514.865L252.946 562.613L263.014 514.871ZM99.6213 204.817C115.08 168.559 140.943 137.699 173.94 116.14C218.2 87.2889 272.097 77.1729 323.806 88.0113C375.515 98.8496 420.813 129.758 449.762 173.954C471.325 206.948 482.62 245.597 482.216 285.01C481.814 324.424 469.732 362.834 447.499 395.381C425.267 427.928 393.882 453.152 357.314 467.862C320.746 482.572 280.637 486.107 242.058 478.022C203.481 469.935 168.168 450.591 140.584 422.434C113.001 394.278 94.3866 358.574 87.0953 319.839C79.8039 281.103 84.163 241.076 99.6213 204.817Z"/>
        </svg>
    </symbol>
    
    <symbol viewBox="0 0 22 9" id="sliderArrow">
        <g xmlns="http://www.w3.org/2000/svg">
            <path d="M1 7.99968L11 1.33301L21 7.99968" stroke="#2B7EE0" stroke-linecap="round" stroke-linejoin="round"/>
        </g>
    </symbol>

    <symbol viewBox="0 0 14 10" id="checkIcon">
        <g fill="#647391" xmlns="http://www.w3.org/2000/svg">
            <path d="M13.8625 0H12.6633C12.4951 0 12.3356 0.069892 12.2326 0.189485L5.15914 8.30162L1.76736 4.41097C1.71605 4.35199 1.65065 4.3043 1.57607 4.27149C1.50149 4.23867 1.41967 4.22157 1.33674 4.22148H0.137527C0.0225806 4.22148 -0.0408973 4.34107 0.029443 4.42184L4.72852 9.81129C4.94812 10.0629 5.37016 10.0629 5.59148 9.81129L13.9706 0.198804C14.0409 0.119593 13.9774 0 13.8625 0V0Z" fill="#647391"/>
        </g>
    </symbol>

    <symbol width="75" height="15" viewBox="0 0 75 15" id="rusoText">
        <g fill="white" xmlns="http://www.w3.org/2000/svg">
            <path d="M4.95612 0.783999C5.61746 0.783999 6.17212 0.869333 6.62012 1.04C7.07879 1.21067 7.54279 1.488 8.01212 1.872L7.18012 2.848C6.50812 2.304 5.79879 2.032 5.05212 2.032C4.13479 2.032 3.39346 2.384 2.82812 3.088C2.27346 3.792 1.99612 4.92267 1.99612 6.48C1.99612 7.99467 2.27346 9.11467 2.82812 9.84C3.38279 10.5547 4.11879 10.912 5.03612 10.912C5.50546 10.912 5.91079 10.832 6.25212 10.672C6.59346 10.512 6.96679 10.2827 7.37212 9.984L8.14012 10.96C7.80946 11.312 7.37212 11.6053 6.82812 11.84C6.29479 12.0747 5.68146 12.192 4.98812 12.192C4.09212 12.192 3.29212 11.9733 2.58812 11.536C1.89479 11.088 1.35079 10.4373 0.956122 9.584C0.572122 8.72 0.380122 7.68533 0.380122 6.48C0.380122 5.27467 0.582789 4.24533 0.988122 3.392C1.39346 2.528 1.94279 1.87733 2.63612 1.44C3.32946 1.00267 4.10279 0.783999 4.95612 0.783999ZM16.7412 14.4H15.5412L15.3012 12H9.89325L9.65325 14.4H8.45325V10.816H9.04525C9.30125 10.6453 9.50391 10.4533 9.65325 10.24C9.80258 10.016 9.93591 9.632 10.0532 9.088C10.1812 8.544 10.2826 7.74933 10.3572 6.704L10.5812 3.568H15.8612V10.816H16.7412V14.4ZM11.9092 4.736L11.7812 6.512C11.7066 7.504 11.6212 8.26667 11.5252 8.8C11.4292 9.33333 11.2906 9.744 11.1092 10.032C10.9386 10.32 10.6879 10.5813 10.3572 10.816H14.3892V4.736H11.9092ZM25.2631 7.536C25.2631 7.78133 25.2525 8.032 25.2311 8.288H19.8551C19.9191 9.216 20.1538 9.89867 20.5591 10.336C20.9645 10.7733 21.4871 10.992 22.1271 10.992C22.5325 10.992 22.9058 10.9333 23.2471 10.816C23.5885 10.6987 23.9458 10.512 24.3191 10.256L24.9591 11.136C24.0631 11.84 23.0818 12.192 22.0151 12.192C20.8418 12.192 19.9245 11.808 19.2631 11.04C18.6125 10.272 18.2871 9.216 18.2871 7.872C18.2871 6.99733 18.4258 6.224 18.7031 5.552C18.9911 4.86933 19.3965 4.336 19.9191 3.952C20.4525 3.568 21.0765 3.376 21.7911 3.376C22.9111 3.376 23.7698 3.744 24.3671 4.48C24.9645 5.216 25.2631 6.23467 25.2631 7.536ZM23.8071 7.104C23.8071 6.272 23.6418 5.63733 23.3111 5.2C22.9805 4.76267 22.4845 4.544 21.8231 4.544C20.6178 4.544 19.9618 5.42933 19.8551 7.2H23.8071V7.104ZM33.5555 12H32.0835V4.768H29.4755L29.2355 7.584C29.1395 8.72533 29.0168 9.57867 28.8675 10.144C28.7288 10.7093 28.5048 11.1467 28.1955 11.456C27.8968 11.7547 27.4382 12 26.8195 12.192L26.4515 11.024C26.8142 10.896 27.0702 10.7307 27.2195 10.528C27.3688 10.3253 27.4808 10.016 27.5555 9.6C27.6302 9.184 27.7102 8.45867 27.7955 7.424L28.1315 3.568H33.5555V12ZM42.2782 10.032C42.2782 10.3733 42.3369 10.6293 42.4542 10.8C42.5716 10.96 42.7476 11.0827 42.9822 11.168L42.6462 12.192C42.2089 12.1387 41.8569 12.016 41.5902 11.824C41.3236 11.632 41.1262 11.3333 40.9982 10.928C40.4329 11.7707 39.5956 12.192 38.4862 12.192C37.6542 12.192 36.9982 11.9573 36.5182 11.488C36.0382 11.0187 35.7982 10.4053 35.7982 9.648C35.7982 8.752 36.1182 8.064 36.7582 7.584C37.4089 7.104 38.3262 6.864 39.5102 6.864H40.8062V6.24C40.8062 5.64267 40.6622 5.216 40.3742 4.96C40.0862 4.704 39.6436 4.576 39.0462 4.576C38.4276 4.576 37.6702 4.72533 36.7742 5.024L36.4062 3.952C37.4516 3.568 38.4222 3.376 39.3182 3.376C40.3102 3.376 41.0516 3.62133 41.5422 4.112C42.0329 4.592 42.2782 5.28 42.2782 6.176V10.032ZM38.8222 11.088C39.6649 11.088 40.3262 10.6507 40.8062 9.776V7.84H39.7022C38.1449 7.84 37.3662 8.416 37.3662 9.568C37.3662 10.0693 37.4889 10.448 37.7342 10.704C37.9796 10.96 38.3422 11.088 38.8222 11.088ZM46.7734 8.288V12H45.3014V3.568H46.7734V7.104H50.2774V3.568H51.7494V12H50.2774V8.288H46.7734ZM57.9537 3.376C59.1377 3.376 60.0551 3.77067 60.7057 4.56C61.3671 5.34933 61.6977 6.42133 61.6977 7.776C61.6977 8.65067 61.5484 9.424 61.2497 10.096C60.9511 10.7573 60.5191 11.2747 59.9537 11.648C59.3884 12.0107 58.7164 12.192 57.9377 12.192C56.7537 12.192 55.8311 11.7973 55.1697 11.008C54.5084 10.2187 54.1777 9.14667 54.1777 7.792C54.1777 6.91733 54.3271 6.14933 54.6257 5.488C54.9244 4.816 55.3564 4.29867 55.9217 3.936C56.4871 3.56267 57.1644 3.376 57.9537 3.376ZM57.9537 4.56C56.4924 4.56 55.7617 5.63733 55.7617 7.792C55.7617 9.936 56.4871 11.008 57.9377 11.008C59.3884 11.008 60.1137 9.93067 60.1137 7.776C60.1137 5.632 59.3937 4.56 57.9537 4.56ZM72.8119 7.424C73.5372 7.49867 74.0759 7.70667 74.4279 8.048C74.7799 8.38933 74.9559 8.87467 74.9559 9.504C74.9559 10.3467 74.6305 10.976 73.9799 11.392C73.3399 11.7973 72.4812 12 71.4039 12H68.3639V3.68C69.3559 3.47733 70.2785 3.376 71.1319 3.376C72.1665 3.376 72.9879 3.568 73.5959 3.952C74.2145 4.336 74.5239 4.88 74.5239 5.584C74.5239 6.04267 74.3905 6.42667 74.1239 6.736C73.8679 7.04533 73.4305 7.27467 72.8119 7.424ZM71.1479 4.512C70.6999 4.512 70.2625 4.544 69.8359 4.608V6.992H71.3399C71.8732 6.992 72.2839 6.896 72.5719 6.704C72.8705 6.512 73.0199 6.18667 73.0199 5.728C73.0199 5.30133 72.8652 4.992 72.5559 4.8C72.2465 4.608 71.7772 4.512 71.1479 4.512ZM71.1639 10.848C71.8359 10.848 72.3745 10.7627 72.7799 10.592C73.1959 10.4107 73.4039 10.0427 73.4039 9.488C73.4039 8.944 73.2332 8.576 72.8919 8.384C72.5505 8.18133 72.0652 8.08 71.4359 8.08H69.8359V10.848H71.1639Z" fill="white"/>
        </g>
    </symbol>

    <symbol width="61" height="13" viewBox="0 0 61 13" id="rusoLogo">
        <g xmlns="http://www.w3.org/2000/svg">
            <path d="M16.0174 7.34317V0.290527H18.5501V7.2549C18.5501 8.89131 19.5007 10.0162 21.3125 10.0162C23.1244 10.0162 24.0557 8.89018 24.0557 7.2549V0.290527H26.6065V7.32619C26.6065 10.2459 24.8819 12.2332 21.3125 12.2332C17.7409 12.2332 16.0174 10.2278 16.0174 7.34317Z" />
            <path d="M32.6249 10.3684L33.9784 8.46946C34.8057 9.3318 36.089 10.0516 37.7073 10.0516C39.0801 10.0516 39.7477 9.41894 39.7477 8.75012C39.7477 6.67462 32.9939 8.0994 32.9939 3.68471C32.9939 1.73256 34.6823 0.114258 37.4436 0.114258C39.3086 0.114258 40.8557 0.676703 42.0168 1.75067L40.6271 3.57947C39.6787 2.70015 38.4112 2.29614 37.215 2.29614C36.1422 2.29614 35.5447 2.77031 35.5447 3.47422C35.5447 5.3381 42.2804 4.08986 42.2804 8.46946C42.2804 10.6151 40.7504 12.2334 37.5851 12.2334C35.3342 12.2334 33.7159 11.4763 32.6249 10.3684Z" />
            <path d="M48.1407 6.11787C48.1407 2.55307 50.747 0 54.3118 0C57.8936 0 60.4998 2.55307 60.4998 6.11787C60.4998 9.68154 57.8936 12.2346 54.3118 12.2346C50.747 12.2346 48.1407 9.68154 48.1407 6.11787ZM57.9106 6.11787C57.9106 3.90204 56.4926 2.23507 54.3118 2.23507C52.1311 2.23507 50.73 3.90204 50.73 6.11787C50.73 8.31673 52.1311 10.0007 54.3118 10.0007C56.4926 10.0007 57.9106 8.31673 57.9106 6.11787Z" />
            <path d="M7.36038 7.55366C8.62673 7.2549 9.92929 6.14698 9.92929 4.07148C9.92929 1.89073 8.43434 0.290527 5.98878 0.290527H0.500122V2.48825H2.99774H3.18334H5.61985C6.62252 2.48825 7.37848 3.08578 7.37848 4.07148C7.37848 5.05604 6.62139 5.6547 5.61985 5.6547H3.18334H2.99774H0.501254V12.0215H2.99887V7.85356H4.8288L7.13178 12.0227H9.99946L7.36038 7.55366Z" />
        </g>
    </symbol>

    <symbol viewBox="0 0 10 6" id="arrow">
        <g fill="transparent" xmlns="http://www.w3.org/2000/svg">
            <path d="M1 1L5 5L9 1" />
        </g>
    </symbol>

    <symbol viewBox="0 0 14 8" id="selectArrow">
        <g fill="transparent"><path d="M1 0.5L7 6.5L13 0.5"/></g>
    </symbol>

    <symbol viewBox="0 0 18 18" id="searchIcon">
        <g xmlns="http://www.w3.org/2000/svg">
            <path fill-rule="evenodd" clip-rule="evenodd" d="M11.8897 12.42C10.6275 13.5577 8.9565 14.25 7.125 14.25C3.19275 14.25 0 11.0573 0 7.125C0 3.19275 3.19275 0 7.125 0C11.0573 0 14.25 3.19275 14.25 7.125C14.25 8.9565 13.5577 10.6275 12.42 11.8897L18 17.4697L17.4697 18L11.8897 12.42ZM7.125 0.75C10.6432 0.75 13.5 3.60675 13.5 7.125C13.5 10.6432 10.6432 13.5 7.125 13.5C3.60675 13.5 0.75 10.6432 0.75 7.125C0.75 3.60675 3.60675 0.75 7.125 0.75Z" />
        </g>
    </symbol>

    <symbol viewBox="0 0 19 19" id="filterIcon">
        <g xmlns="http://www.w3.org/2000/svg">
            <path d="M7.28375 2.375H0.5L0.5 3.125H7.28375C7.463 4.18738 8.387 5 9.5 5C10.613 5 11.5366 4.18738 11.7162 3.125L18.5 3.125V2.375H11.7162C11.537 1.31263 10.613 0.5 9.5 0.5C8.387 0.5 7.46338 1.31263 7.28375 2.375ZM11 2.75C11 3.57725 10.3273 4.25 9.5 4.25C8.67275 4.25 8 3.57725 8 2.75C8 1.92275 8.67275 1.25 9.5 1.25C10.3273 1.25 11 1.92275 11 2.75ZM0.5 16.625H3.15875C3.33838 17.6874 4.26237 18.5 5.375 18.5C6.48763 18.5 7.41162 17.6874 7.59125 16.625H18.5V15.875H7.59125C7.412 14.8126 6.488 14 5.375 14C4.262 14 3.33838 14.8126 3.15875 15.875H0.5V16.625ZM5.375 14.75C6.20225 14.75 6.875 15.4227 6.875 16.25C6.875 17.0773 6.20225 17.75 5.375 17.75C4.54775 17.75 3.875 17.0773 3.875 16.25C3.875 15.4227 4.54775 14.75 5.375 14.75ZM0.5 9.875H11.7838C11.963 10.9374 12.887 11.75 14 11.75C15.113 11.75 16.0366 10.9374 16.2162 9.875H18.5V9.125H16.2162C16.037 8.06262 15.113 7.25 14 7.25C12.887 7.25 11.9634 8.06262 11.7838 9.125H0.5V9.875ZM14 8C14.8273 8 15.5 8.67275 15.5 9.5C15.5 10.3273 14.8273 11 14 11C13.1727 11 12.5 10.3273 12.5 9.5C12.5 8.67275 13.1727 8 14 8Z" fill="white"/>
        </g>
    </symbol>

    <symbol viewBox="0 0 16 15" id="closeBtn">
        <g xmlns="http://www.w3.org/2000/svg">
            <path fill-rule="evenodd" clip-rule="evenodd" d="M1.53332 0.29368C1.92426 -0.0964286 2.5581 -0.0964286 2.94904 0.29368L8.32847 5.6617L13.7079 0.293681C14.0989 -0.0964275 14.7327 -0.0964279 15.1236 0.293681C15.5146 0.68379 15.5146 1.31628 15.1236 1.70639L9.74419 7.07441L15.7055 13.0231C16.0965 13.4132 16.0965 14.0457 15.7055 14.4358C15.3146 14.8259 14.6808 14.8259 14.2898 14.4358L8.32847 8.48712L2.36712 14.4358C1.97618 14.8259 1.34235 14.8259 0.951407 14.4358C0.560468 14.0457 0.560468 13.4132 0.951407 13.0231L6.91276 7.07441L1.53332 1.70639C1.14238 1.31628 1.14238 0.68379 1.53332 0.29368Z" fill="white"/>
        </g>
    </symbol>

    <symbol viewBox="0 0 100 100" id="thxMessageIcon">
        <g fill="none" xmlns="http://www.w3.org/2000/svg">
            <path fill-rule="evenodd" clip-rule="evenodd" d="M50 0C77.5958 0 100 22.4042 100 50C100 77.5958 77.5958 100 50 100C22.4042 100 0 77.5958 0 50C0 22.4042 22.4042 0 50 0ZM50 4.16667C75.2958 4.16667 95.8333 24.7042 95.8333 50C95.8333 75.2958 75.2958 95.8333 50 95.8333C24.7042 95.8333 4.16667 75.2958 4.16667 50C4.16667 24.7042 24.7042 4.16667 50 4.16667ZM79.1667 35.2375L41.6458 75.0917L20.8333 50.6542L24.0042 47.95L41.8 68.85L76.1333 32.3833L79.1667 35.2375Z" fill="#2B7EE0"/>
        </g>
    </symbol>

    <symbol viewBox="0 0 11 12" id="closeSettingIcon">
        <g xmlns="http://www.w3.org/2000/svg">
            <path fill-rule="evenodd" clip-rule="evenodd" d="M5.5 5.6465L10.6465 0.5L11 0.8535L5.8535 6L11 11.1465L10.6465 11.5L5.5 6.3535L0.3535 11.5L0 11.1465L5.1465 6L0 0.8535L0.3535 0.5L5.5 5.6465Z" />
        </g>
    </symbol>

    <symbol viewBox="0 0 24 24" id="downloadIcon">
        <g xmlns="http://www.w3.org/2000/svg">
            <path d="M5.2798 15.8381C5.1525 15.8381 5.03041 15.8887 4.94039 15.9787C4.85038 16.0687 4.7998 16.1908 4.7998 16.3181V19.262C4.7998 19.3893 4.85038 19.5114 4.94039 19.6014C5.03041 19.6914 5.1525 19.742 5.2798 19.742H18.7198C18.8471 19.742 18.9692 19.6914 19.0592 19.6014C19.1492 19.5114 19.1998 19.3893 19.1998 19.262V16.3181C19.1998 16.1908 19.1492 16.0687 19.0592 15.9787C18.9692 15.8887 18.8471 15.8381 18.7198 15.8381C18.5925 15.8381 18.4704 15.8887 18.3804 15.9787C18.2904 16.0687 18.2398 16.1908 18.2398 16.3181V18.782H5.7598V16.3181C5.7598 16.1908 5.70923 16.0687 5.61922 15.9787C5.5292 15.8887 5.40711 15.8381 5.2798 15.8381Z" fill="#2B7EE0"/>
            <path d="M11.9999 4.38184C11.8726 4.38184 11.7505 4.43241 11.6605 4.52242C11.5705 4.61244 11.5199 4.73453 11.5199 4.86184V15.1866L8.4753 12.2457C8.42998 12.2019 8.37648 12.1675 8.31785 12.1444C8.25923 12.1213 8.19663 12.1099 8.13362 12.111C8.07062 12.1121 8.00845 12.1256 7.95066 12.1507C7.89287 12.1759 7.8406 12.2121 7.79682 12.2574C7.75304 12.3028 7.71862 12.3563 7.69552 12.4149C7.67242 12.4735 7.66109 12.5361 7.66218 12.5991C7.66327 12.6621 7.67676 12.7243 7.70188 12.7821C7.727 12.8399 7.76326 12.8921 7.80858 12.9359L11.6596 16.6564L11.6606 16.6574L11.6663 16.6626C11.6841 16.6799 11.7067 16.6871 11.7259 16.701C11.7556 16.7226 11.7835 16.7466 11.818 16.7606C11.9342 16.8086 12.0647 16.8086 12.1809 16.7606C12.2131 16.7476 12.2385 16.725 12.2663 16.7054C12.2884 16.6905 12.3134 16.6814 12.3331 16.6622L16.1903 12.935C16.2357 12.8911 16.2719 12.8388 16.297 12.7809C16.3221 12.7231 16.3355 12.6609 16.3366 12.5978C16.3376 12.5348 16.3263 12.4721 16.3031 12.4135C16.2799 12.3548 16.2455 12.3013 16.2016 12.256C16.1578 12.2107 16.1054 12.1744 16.0476 12.1493C15.9897 12.1242 15.9275 12.1108 15.8645 12.1097C15.8014 12.1087 15.7388 12.1201 15.6801 12.1432C15.6215 12.1664 15.568 12.2009 15.5227 12.2447L12.4799 15.1866V4.86184C12.4799 4.73453 12.4294 4.61244 12.3393 4.52242C12.2493 4.43241 12.1272 4.38184 11.9999 4.38184V4.38184Z" fill="#2B7EE0"/>
        </gear>
    </symbol>

    <symbol viewBox="0 0 160 120" id="tunelkman">
        <g xmlns="http://www.w3.org/2000/svg">
            <path d="M48.9093 17.5535V24.0746H49.6536C51.8155 24.0746 56.8008 24.7598 59.8369 25.4805C61.9043 25.9766 65.1058 26.9217 65.0704 27.0281C65.0468 27.0753 64.3615 27.7133 63.5228 28.4457C55.6194 35.3685 49.1219 44.4532 45.0581 54.2585C41.9747 61.7247 40.1318 70.2188 39.8482 78.2639L39.7773 80.4258H46.2867H52.8078V79.2089C52.8078 78.5474 52.8905 77.1179 52.985 76.0311C54.0246 64.241 58.4547 53.5497 66.1454 44.276C67.6576 42.4449 71.4143 38.7236 73.3399 37.1287C75.0647 35.7111 78.0536 33.5256 78.278 33.5256C78.3607 33.5256 79.0577 33.9863 79.8492 34.5415L81.2787 35.5693L79.4712 36.7861C68.6617 44.0988 60.8293 55.2154 57.5923 67.8324C56.789 70.9748 56.1747 74.9206 56.0566 77.7795C56.0211 78.6183 55.962 79.587 55.9384 79.9178L55.8794 80.5439H62.2469H68.6145L68.6972 79.268C68.9452 75.2159 69.5359 72.0144 70.67 68.494C73.4581 59.8464 79.294 52.1911 86.9729 47.0994C88.5913 46.0244 90.6824 44.8312 90.8478 44.8903C91.0604 44.9612 92.9742 47.5129 94.2028 49.3559C99.6135 57.4482 102.756 66.462 103.606 76.291C103.666 77.0352 103.725 78.0748 103.725 78.5946C103.725 79.1144 103.76 79.7406 103.796 79.9768L103.878 80.4258H110.317H116.755L116.684 78.0276C116.294 65.7532 112.254 53.148 105.308 42.5984C104.174 40.8618 104.103 40.7319 104.351 40.6728C104.599 40.6138 107.127 40.3775 107.54 40.3775C107.729 40.3775 107.741 39.9994 107.741 33.9981C107.741 30.4895 107.706 27.6187 107.659 27.6187C107.6 27.6187 106.796 27.6778 105.851 27.7369C102.472 27.9732 98.7038 28.5875 95.7622 29.379L94.4864 29.7216L92.986 28.4103C92.1709 27.6896 91.4857 27.0635 91.4621 27.0281C91.4266 26.9217 94.7699 25.9412 96.6955 25.4805C99.7316 24.7598 104.717 24.0746 106.879 24.0746H107.623V17.5535V11.0442L105.863 11.1269C97.3453 11.5049 88.0952 13.8322 80.0028 17.6244L78.3017 18.4277L76.0807 17.4117C67.9056 13.6786 59.1045 11.5049 50.6341 11.1269L48.9093 11.0442V17.5535V17.5535Z" fill="white"/>
            <path d="M24.3359 82.9065V84.7967H26.0489H27.7619V82.9065V81.0164H26.0489H24.3359V82.9065Z" fill="white"/>
            <path d="M30.125 82.9066V84.8086L31.8144 84.7732L33.4919 84.7378V82.9066V81.0755L31.8144 81.0401L30.125 81.0046V82.9066Z" fill="white"/>
            <path d="M0 88.1047V89.9948H3.42596H6.85192V99.1504V108.306H9.21465H11.5774V99.1504V89.9948H14.8852H18.193V88.1047V86.2145H9.09651H0V88.1047Z" fill="white"/>
            <path d="M19.9648 93.7399C19.9648 99.9066 20.0003 101.478 20.142 102.376C20.6855 105.719 22.4812 107.751 25.7181 108.684C26.5332 108.92 26.9113 108.956 28.8841 108.956C30.8688 108.956 31.2351 108.92 32.062 108.684C34.3421 108.023 35.9723 106.759 36.8465 104.963C37.8389 102.955 37.9216 102.045 37.9216 93.1492V86.2146H35.6179H33.3143V93.0901C33.3143 96.8823 33.2552 100.462 33.1961 101.064C32.9244 103.604 32.0502 104.597 29.8174 104.88C26.9467 105.246 25.0802 104.077 24.6903 101.679C24.6194 101.218 24.5722 98.0519 24.5722 93.5627V86.2146H22.2685H19.9648V93.7399Z" fill="white"/>
            <path d="M39.6934 97.2604V108.306H41.997H44.3007V100.651C44.3125 93.858 44.3243 93.0311 44.4897 93.2437C44.5842 93.3737 46.628 96.8114 49.038 100.887L53.4208 108.306H55.7127H58.0045V97.2604V86.2146H55.7009H53.3972V93.799V101.395L48.8371 93.799L44.2889 86.2146H41.9852H39.6934V97.2604Z" fill="white"/>
            <path d="M59.7773 97.2604V108.306H68.2241H76.6709V106.416V104.526H70.5868H64.5028V101.69V98.8552H69.878H75.2532V96.965V95.0748H69.878H64.5028V92.5349V89.995H70.3506H76.1983V88.1048V86.2146H67.9878H59.7773V97.2604Z" fill="white"/>
            <path d="M78.3242 97.2604V108.306H86.0031H93.682V106.416V104.526H88.3068H82.9315V95.3702V86.2146H80.6279H78.3242V97.2604Z" fill="white"/>
            <path d="M94.9824 97.2604V108.306H97.2861H99.5897V99.5404C99.5897 94.7204 99.6134 90.8101 99.6488 90.8337C99.6724 90.8692 100.547 94.6968 101.598 99.3277C102.638 103.971 103.512 107.893 103.547 108.034C103.606 108.306 103.618 108.306 105.945 108.306H108.273L110.21 99.6467C111.273 94.8976 112.195 90.9164 112.242 90.8219C112.301 90.7274 112.348 94.6141 112.348 99.4695V108.306H114.652H116.956V97.2604V86.2146H113.553H110.151L108.107 94.5078C106.973 99.0797 106.016 102.848 105.969 102.907C105.91 102.978 105.296 100.556 102.201 88.0457L101.763 86.2737L98.3729 86.2382L94.9824 86.2146V97.2604V97.2604Z" fill="white"/>
            <path d="M122 97.1777C119.873 103.203 118.125 108.164 118.137 108.212C118.137 108.271 119.188 108.306 120.476 108.306H122.803L123.571 106.121L124.339 103.935H128.545H132.75L133.506 106.121L134.262 108.306H136.59C138.385 108.306 138.929 108.271 138.917 108.153C138.917 108.082 137.204 103.12 135.113 97.1422L131.309 86.2737L128.592 86.25L125.875 86.2146L122 97.1777ZM130.128 95.8427C130.896 98.0519 131.545 99.9302 131.581 100.001C131.616 100.119 130.99 100.155 128.71 100.155C126.418 100.155 125.804 100.119 125.851 100.001C125.875 99.9302 126.395 98.3472 126.985 96.4925C127.588 94.6377 128.178 92.783 128.32 92.3813C128.45 91.9678 128.604 91.6725 128.651 91.7316C128.698 91.7788 129.36 93.6336 130.128 95.8427Z" fill="white"/>
            <path d="M140.228 97.2604V108.306H142.531H144.835V104.786V101.277L146.052 100.001L147.257 98.7134L150.86 103.51L154.463 108.294L157.286 108.306C159.519 108.306 160.074 108.271 159.992 108.153C155.762 102.801 150.387 95.8782 150.387 95.7955C150.387 95.7246 152.254 93.669 154.534 91.2118C156.826 88.7545 158.799 86.6281 158.929 86.4745L159.165 86.2146L156.4 86.2264H153.636L149.324 90.9991C146.95 93.6218 144.977 95.7718 144.929 95.7718C144.87 95.7837 144.835 93.6336 144.835 90.9991V86.2146H142.531H140.228V97.2604Z" fill="white"/>
        </g>
    </symbol>

    <symbol viewBox="0 0 160 120" id="stellar">
        <svg xmlns="http://www.w3.org/2000/svg">
            <g clip-path="url(#clip0_65_150)">
                <path d="M0.452148 113.022V108.355H15.267C15.4074 108.371 15.5489 108.337 15.667 108.259C15.7107 108.21 15.7433 108.153 15.7625 108.09C15.7817 108.027 15.787 107.961 15.7781 107.896V106.037C15.7847 105.976 15.7782 105.913 15.7591 105.855C15.7399 105.796 15.7085 105.742 15.667 105.696C15.5465 105.625 15.4064 105.594 15.267 105.607H6.03733C3.81017 105.607 2.32869 105.306 1.59289 104.704C0.857086 104.101 0.484247 102.909 0.47437 101.126V98.6443C0.47437 96.8962 0.866963 95.7258 1.64474 95.1184C2.42252 94.511 3.86696 94.2147 6.08919 94.2147H21.3336V98.6962H7.304C7.15898 98.6798 7.01318 98.7195 6.89659 98.8073C6.81535 98.9155 6.77828 99.0506 6.79289 99.1851V100.778C6.7791 100.908 6.81628 101.038 6.89659 101.141C7.01853 101.216 7.16138 101.249 7.304 101.237H16.6151C18.8077 101.237 20.2892 101.528 21.0596 102.111C21.8299 102.694 22.2176 103.867 22.2225 105.63V108.467C22.2225 110.353 21.8423 111.588 21.0818 112.17C20.3213 112.753 18.8398 113.039 16.6373 113.03L0.452148 113.022Z" fill="white"/>
                <path d="M30.2143 113.022V98.8888H22.5254V94.2147H44.355V98.8888H36.6661V113.022H30.2143Z" fill="white"/>
                <path d="M45.5186 113.022V94.2147H66.1037V98.6962H51.8519V101.289H61.163V105.496H51.8519V108.459H66.2667V113.044L45.5186 113.022Z" fill="white"/>
                <path d="M67.4072 113.022V94.2147H73.8517V108.148H86.748V113L67.4072 113.022Z" fill="white"/>
                <path d="M87.9336 113.022V94.2147H94.3854V108.148H107.282V113L87.9336 113.022Z" fill="white"/>
                <path d="M128.437 113.022L126.955 110.111H116.859L115.378 113.022H108.444L118.637 94.2147H125.304L135.504 113.022H128.437ZM118.807 106.007H125.015L121.911 100.207H121.859L118.807 106.007Z" fill="white"/>
                <path d="M151.851 113.022L146.777 106.792H143.029V113.022H136.666V94.2147H152.636C154.765 94.2147 156.209 94.5086 156.97 95.0962C157.73 95.6839 158.113 96.795 158.118 98.4295V102.689C158.118 104.237 157.77 105.289 157.073 105.837C156.146 106.462 155.052 106.795 153.933 106.792L159.385 113.022H151.851ZM151.955 99.1851C151.972 99.0479 151.941 98.909 151.866 98.7925C151.752 98.7122 151.612 98.6779 151.473 98.6962H143.029V102.289H151.473C151.603 102.309 151.736 102.285 151.851 102.222C151.925 102.105 151.956 101.967 151.94 101.83L151.955 99.1851Z" fill="white"/>
                <path d="M78.5041 76.363L63.9115 82.2L57.6522 66.563L42.1855 59.9407L48.0892 46.163L49.667 46.6074L71.8152 52.9407L72.2967 54.6148H57.43V64.2593H75.0522L78.2226 75.3852L78.5041 76.363Z" fill="white"/>
                <path d="M117.652 29.7333L111.748 43.511L110.155 43.0666L88.0147 36.7333L87.4221 34.674H100.57V25.4221H84.785L81.5998 14.2888L81.3184 13.3184L95.9258 7.474L102.178 23.1036L117.652 29.7333Z" fill="white"/>
                <path d="M117.273 60.8444L101.651 67.0963L95.0215 82.5778L81.2363 76.6518L81.6882 75.0666L84.7845 64.237H90.8067C95.3746 64.237 98.4511 63.642 100.036 62.4518C101.622 61.2617 102.409 58.7185 102.399 54.8222V48.8074L110.459 46.5037L111.429 46.2296L117.273 60.8444Z" fill="white"/>
                <path d="M78.5933 13L78.1414 14.5926L75.0451 25.4222H68.9711C64.5266 25.4222 61.4673 26.0371 59.8599 27.2815C58.2525 28.5259 57.4303 30.9852 57.4303 34.5556V39.6815C57.4303 40.0815 57.4303 40.4667 57.4303 40.8296L49.3488 43.1482L48.3636 43.4222L42.5488 28.8371L58.1859 22.5778L64.8081 7.09631L78.5933 13Z" fill="white"/>
                <path opacity="0.5" d="M84.7852 25.4222L87.4075 34.6741H100.556V25.4222H84.7852ZM72.2964 54.6222H57.4297V64.2519H75.0519L72.2964 54.6222Z" fill="white"/>
                <path opacity="0.5" d="M102.401 48.8296V54.8148C102.401 58.7111 101.613 61.2543 100.038 62.4445C98.4624 63.6346 95.3859 64.2297 90.8081 64.2297H84.7859L87.5414 54.6H88.0229C88.3144 54.6326 88.608 54.5618 88.8525 54.4C88.9409 54.2997 89.007 54.1819 89.0466 54.0542C89.0861 53.9265 89.0983 53.792 89.0822 53.6593V49.8222C89.1018 49.6895 89.0914 49.554 89.0516 49.4258C89.0119 49.2975 88.9438 49.1799 88.8525 49.0815C88.6054 48.9262 88.3132 48.8584 88.0229 48.8889H68.9711C64.3637 48.8889 61.2871 48.2667 59.7414 47.0222C58.3711 45.9111 57.6007 43.8445 57.46 40.7852C57.46 40.4222 57.46 40.0445 57.46 39.6371V34.5556C57.46 30.9457 58.2698 28.521 59.8896 27.2815C61.497 26.0371 64.5414 25.4222 69.0007 25.4222H75.0748L72.4303 34.6741H71.6155C71.3198 34.6427 71.0226 34.719 70.7785 34.8889C70.6121 35.115 70.5356 35.3948 70.5637 35.6741V38.9556C70.5491 39.0871 70.5605 39.2202 70.5974 39.3473C70.6342 39.4744 70.6958 39.593 70.7785 39.6963C71.0263 39.8569 71.3218 39.9275 71.6155 39.8963H90.8748C95.4155 39.8963 98.4822 40.4889 100.067 41.6963C101.653 42.9037 102.386 45.2741 102.401 48.8296Z" fill="white"/>
            </g>
            <defs>
                <clipPath id="clip0_65_150">
                    <rect width="160" height="106.667" fill="white" transform="translate(0 6.66663)"/>
                </clipPath>
            </defs>
        </svg>
    </symbol>
</svg>

