<?xml version="1.0" encoding="utf-8"?>
<svg xmlns="http://www.w3.org/2000/svg" xmlns:xlink="http://www.w3.org/1999/xlink">
   <symbol viewBox="0 0 12 12" id="rightUpArrow">
        <defs>
            <style>.aacls-1{fill:#fff}</style>
        </defs>
        <g xmlns="http://www.w3.org/2000/svg">
            <path d="M11.8323 0.165039V10.165H10.3323L10.3323 2.72569L1.2257 11.8323L0.165039 10.7716L9.27164 1.66504L1.83231 1.66504L1.83231 0.165039L11.8323 0.165039Z"/>
        </g>
   </symbol>
   <symbol viewBox="0 0 18 18" id="instagram" >
      <g xmlns="http://www.w3.org/2000/svg">
         <path d="M9.02009 4.35938C6.44866 4.35938 4.39955 6.44866 4.39955 8.97991C4.39955 11.5513 6.44866 13.6004 9.02009 13.6004C11.5513 13.6004 13.6406 11.5513 13.6406 8.97991C13.6406 6.44866 11.5513 4.35938 9.02009 4.35938ZM9.02009 11.9933C7.37277 11.9933 6.0067 10.6674 6.0067 8.97991C6.0067 7.33259 7.33259 6.0067 9.02009 6.0067C10.6674 6.0067 11.9933 7.33259 11.9933 8.97991C11.9933 10.6674 10.6674 11.9933 9.02009 11.9933ZM14.8862 4.19866C14.8862 3.59598 14.404 3.11384 13.8013 3.11384C13.1987 3.11384 12.7165 3.59598 12.7165 4.19866C12.7165 4.80134 13.1987 5.28348 13.8013 5.28348C14.404 5.28348 14.8862 4.80134 14.8862 4.19866ZM17.9397 5.28348C17.8594 3.83705 17.5379 2.55134 16.4933 1.5067C15.4487 0.462054 14.1629 0.140625 12.7165 0.0602679C11.2299 -0.0200893 6.77009 -0.0200893 5.28348 0.0602679C3.83705 0.140625 2.59152 0.462054 1.5067 1.5067C0.462054 2.55134 0.140625 3.83705 0.0602679 5.28348C-0.0200893 6.77009 -0.0200893 11.2299 0.0602679 12.7165C0.140625 14.1629 0.462054 15.4085 1.5067 16.4933C2.59152 17.5379 3.83705 17.8594 5.28348 17.9397C6.77009 18.0201 11.2299 18.0201 12.7165 17.9397C14.1629 17.8594 15.4487 17.5379 16.4933 16.4933C17.5379 15.4085 17.8594 14.1629 17.9397 12.7165C18.0201 11.2299 18.0201 6.77009 17.9397 5.28348ZM16.0112 14.2835C15.7299 15.0871 15.0871 15.6897 14.3237 16.0112C13.1183 16.4933 10.3058 16.3728 9.02009 16.3728C7.6942 16.3728 4.8817 16.4933 3.71652 16.0112C2.91295 15.6897 2.31027 15.0871 1.98884 14.2835C1.5067 13.1183 1.62723 10.3058 1.62723 8.97991C1.62723 7.6942 1.5067 4.8817 1.98884 3.67634C2.31027 2.91295 2.91295 2.31027 3.71652 1.98884C4.8817 1.5067 7.6942 1.62723 9.02009 1.62723C10.3058 1.62723 13.1183 1.5067 14.3237 1.98884C15.0871 2.27009 15.6897 2.91295 16.0112 3.67634C16.4933 4.8817 16.3728 7.6942 16.3728 8.97991C16.3728 10.3058 16.4933 13.1183 16.0112 14.2835Z"/>
      </g>
   </symbol>
   <symbol viewBox="0 0 154 50" id="logo" >
      <svg fill="none" xmlns="http://www.w3.org/2000/svg">
         <path d="M62.8384 4.80554V8.70633H56.9549V22.5351H53.0332V4.80554H62.8384Z" fill="white"/>
         <path d="M78.0839 20.2307C76.3925 21.9354 74.1233 22.8895 71.7605 22.8895C69.3977 22.8895 67.1285 21.9354 65.4371 20.2307C63.7004 18.457 62.832 16.2706 62.832 13.6714C62.832 11.0723 63.7004 8.88584 65.4371 7.11213C67.128 5.40648 69.3974 4.45166 71.7605 4.45166C74.1236 4.45166 76.393 5.40648 78.0839 7.11213C79.8206 8.88446 80.689 11.0709 80.689 13.6714C80.689 16.2719 79.8206 18.4584 78.0839 20.2307ZM68.1945 17.4687C69.1571 18.4125 70.4335 18.9387 71.7605 18.9387C73.0875 18.9387 74.3639 18.4125 75.3265 17.4687C76.283 16.49 76.7613 15.2243 76.7613 13.6714C76.7613 12.1186 76.283 10.8521 75.3265 9.87208C74.3639 8.92823 73.0875 8.40203 71.7605 8.40203C70.4335 8.40203 69.1571 8.92823 68.1945 9.87208C67.2393 10.8507 66.7611 12.1172 66.7597 13.6714C66.7584 15.2257 67.2367 16.4914 68.1945 17.4687Z" fill="white"/>
         <path d="M89.3854 4.80559C90.1754 4.78809 90.9606 4.93632 91.6935 5.2413C92.4265 5.54629 93.092 6.00169 93.6497 6.57999C94.2111 7.13478 94.6553 7.80362 94.9543 8.54444C95.2533 9.28525 95.4007 10.082 95.3871 10.8845C95.4007 11.6872 95.2531 12.4841 94.9537 13.225C94.6544 13.9658 94.2097 14.6346 93.6477 15.189C93.09 15.7673 92.4245 16.2227 91.6915 16.5277C90.9586 16.8327 90.1734 16.9809 89.3834 16.9634H86.8103V22.5351H82.8887V4.80559H89.3854ZM89.3854 13.1641C89.6657 13.172 89.9445 13.1173 90.2025 13.0037C90.4605 12.89 90.6917 12.7202 90.8803 12.5057C91.273 12.065 91.4837 11.4833 91.4675 10.8845C91.4837 10.2857 91.273 9.70401 90.8803 9.26333C90.6917 9.04885 90.4605 8.87898 90.2025 8.76535C89.9445 8.65171 89.6657 8.59699 89.3854 8.60492H86.8103V13.16L89.3854 13.1641Z" fill="white"/>
         <path d="M114.507 4.80554V22.5351H110.586V12.2261L106.149 19.7482H105.708L101.271 12.2261V22.5351H97.3496V4.80554H101.271L105.928 12.6734L110.586 4.80554H114.507Z" fill="white"/>
         <path d="M128.634 22.5351L127.714 19.7482H121.113L120.255 22.5351H115.965L121.8 4.80554H126.81L132.655 22.5351H128.634ZM122.301 15.9427H126.459L124.311 9.44135L122.301 15.9427Z" fill="white"/>
         <path d="M150.295 4.80554H154.217V22.5351H134.117V4.80554H138.039V18.6343H142.205V4.80554H146.127V18.6343H150.295V4.80554Z" fill="white"/>
         <path fill-rule="evenodd" clip-rule="evenodd" d="M94.2619 42.8941C92.5699 44.5984 90.3005 45.5523 87.9375 45.5523C85.5745 45.5523 83.3051 44.5984 81.6131 42.8941C79.8764 41.1217 79.008 38.9353 79.008 36.3348C79.008 33.7343 79.8764 31.5478 81.6131 29.7755C83.3051 28.0712 85.5745 27.1173 87.9375 27.1173C90.3005 27.1173 92.5699 28.0712 94.2619 29.7755C95.9986 31.5492 96.867 33.7356 96.867 36.3348C96.867 38.9339 95.9986 41.1204 94.2619 42.8941ZM84.3645 40.1341C85.3281 41.0767 86.6045 41.602 87.9315 41.602C89.2584 41.602 90.5349 41.0767 91.4985 40.1341C92.4537 39.1555 92.9313 37.889 92.9313 36.3348C92.9313 34.7806 92.4537 33.5148 91.4985 32.5375C90.5356 31.5935 89.2588 31.0673 87.9315 31.0673C86.6041 31.0673 85.3274 31.5935 84.3645 32.5375C83.4093 33.5162 82.9317 34.7819 82.9317 36.3348C82.9317 37.8877 83.4093 39.1541 84.3645 40.1341ZM62.8384 31.3719V27.4711H53.0332V45.1985H56.9549V31.3719H62.8384ZM62.103 41.4095V45.1985C62.9083 45.2996 63.7243 45.2619 64.5177 45.0867C65.2828 44.9085 66.0071 44.578 66.6499 44.1136C67.3272 43.6291 67.8662 42.8644 68.267 41.8195C68.6678 40.7746 68.8682 39.5006 68.8682 37.9974V31.3719H72.8881V45.1985H76.8097V27.4711H64.9465V38.1672C64.9465 39.571 64.7094 40.4999 64.2351 40.954C63.7609 41.4082 63.0502 41.56 62.103 41.4095ZM109.949 35.5894C108.869 34.5666 107.448 34.0552 105.684 34.0552L102.987 34.0635V31.3719H110.093V27.4711H99.0713V45.1985H105.684C107.449 45.1971 108.87 44.6864 109.949 43.6664C111.027 42.6463 111.566 41.2998 111.566 39.6269C111.567 37.958 111.028 36.6122 109.949 35.5894ZM107.644 39.6269C107.644 40.8098 106.991 41.4013 105.684 41.4013L102.987 41.4095V37.8545H105.684C106.991 37.8531 107.644 38.4439 107.644 39.6269ZM124.22 45.1985L123.301 42.4137H116.702L115.842 45.1985H111.554L117.387 27.4711H122.397L128.244 45.1985H124.22ZM117.89 38.6144H122.048L119.9 32.1069L117.89 38.6144ZM128.723 41.4095V45.1985C129.529 45.2996 130.345 45.2619 131.138 45.0867C131.903 44.9092 132.628 44.5786 133.27 44.1136C133.948 43.6291 134.487 42.8644 134.887 41.8195C135.288 40.7746 135.489 39.5006 135.489 37.9974V31.3719H139.508V45.1985H143.43V27.4711H131.567V38.1672C131.566 39.571 131.328 40.4999 130.855 40.954C130.383 41.4082 129.672 41.56 128.723 41.4095Z" fill="#647391"/>
         <path fill-rule="evenodd" clip-rule="evenodd" d="M22.4446 9.17839C22.3585 9.21435 22.2682 9.2387 22.1761 9.25085C22.353 9.15057 22.5445 9.08065 22.7431 9.04382C22.6475 9.09346 22.5483 9.13567 22.4466 9.17011L22.4446 9.17839ZM22.3985 9.48273C22.138 9.61523 21.9977 9.65042 22.0218 9.60902C22.2247 9.45229 22.4576 9.34217 22.705 9.28606C22.705 9.32185 22.4297 9.46267 22.3972 9.47926L22.3945 9.48066L22.3985 9.48273ZM19.7073 9.89061C19.6893 9.93823 19.8536 9.89268 20.108 9.78296C20.1141 9.7798 20.1302 9.77243 20.1526 9.76215L20.1526 9.76214L20.1526 9.76213C20.2623 9.71175 20.5237 9.59169 20.5087 9.5573C20.4587 9.50761 19.7413 9.80573 19.7073 9.89061ZM22.0819 10.0003C22.0799 10.0624 22.2723 9.9817 22.4967 9.82643C22.5708 9.77674 22.8333 9.58214 22.7812 9.55316C22.683 9.53039 22.0819 9.87404 22.0819 10.0003ZM22.7893 10.1888C22.5729 10.3958 22.3885 10.46 22.3885 10.373C22.3885 10.2343 22.8313 9.85338 22.9896 9.86373C23.0618 9.89271 22.8854 10.0956 22.7893 10.1888ZM20.0839 10.2674C19.7453 10.4558 19.4828 10.5324 19.5249 10.4372C19.587 10.2716 20.3885 9.8596 20.5468 9.91342C20.5989 9.98174 20.0899 10.2654 20.0839 10.2674ZM20.3064 10.7664C19.9056 11.0521 19.6251 11.1246 19.6491 10.9941C19.6952 10.7581 20.5448 10.2592 20.7111 10.3172C20.8053 10.3772 20.4506 10.6608 20.3104 10.7664H20.3064ZM20.0259 11.5242C20.0079 11.7146 20.3425 11.6277 20.7252 11.2737H20.7172C20.8534 11.1536 21.174 10.8037 21.0277 10.7396C20.7793 10.6961 20.052 11.2633 20.0259 11.5242ZM17.1342 11.9362C17.0922 12.1121 17.4107 12.0521 17.8796 11.6981C17.8856 11.694 18.5168 11.2157 18.3845 11.0936C18.1942 10.9756 17.1984 11.6463 17.1342 11.9362ZM17.4549 12.6463C17.4348 12.9051 17.8356 12.8223 18.3265 12.3627H18.3285C18.5008 12.2012 18.9115 11.7561 18.7292 11.6464C18.4086 11.5615 17.4909 12.2799 17.4549 12.6463ZM19.0539 13.0149C18.595 13.5573 18.0861 13.665 18.0881 13.3296C18.0881 12.9031 18.9176 12.1433 19.3023 12.2158C19.5588 12.3297 19.2102 12.8369 19.0539 13.0149ZM14.9379 13.8058C14.95 14.0563 15.3567 13.8969 15.7935 13.4828C16.1441 13.1474 16.4347 12.7003 16.2924 12.5926C15.9698 12.4394 14.9199 13.3814 14.9379 13.8058ZM19.0179 14.0211C19.1101 14.3999 19.6831 14.1846 20.0398 13.636V13.6278C20.2342 13.3296 20.3824 12.8659 20.1039 12.779C19.6491 12.7334 18.9097 13.576 19.0179 14.0211ZM15.4189 14.6236C15.4269 15.0376 15.9759 14.8679 16.4668 14.2965C16.8034 13.9094 17.0238 13.3939 16.8034 13.2883C16.3806 13.1558 15.4189 14.0895 15.4189 14.6236ZM17.4607 15.0791C17.2724 15.3565 16.8456 15.8016 16.4589 15.7188C15.9259 15.4911 16.547 14.3711 17.2483 14.0482C17.3581 13.9854 17.4859 13.9649 17.609 13.9902C17.9336 14.131 17.7252 14.7106 17.4707 15.0791H17.4607ZM17.4008 16.2054C17.515 16.7602 18.2744 16.6402 18.7172 15.8328C18.9817 15.3504 19.0157 14.777 18.647 14.688C18.0019 14.5989 17.2866 15.6506 17.4008 16.2054ZM13.6254 16.8804C13.7155 17.3338 14.3187 17.2054 14.8136 16.4498C15.062 16.0709 15.3345 15.4022 15.0139 15.1952C14.4268 14.9923 13.5072 16.2593 13.6254 16.8804ZM14.6293 17.8328C14.8016 18.4414 15.5911 18.1764 16.0319 17.3628H16.0339C16.2784 16.9136 16.4306 16.1973 16.0079 16.011C15.4308 15.8247 14.3949 17.015 14.6293 17.8328ZM17.5268 18.22C17.1261 19.1392 16.1984 19.4207 15.9459 18.6962C15.6674 17.8991 16.547 16.657 17.2643 16.833C17.7893 17.0006 17.7332 17.7501 17.5268 18.2283V18.22ZM12.1585 19.2717C12.3268 19.8576 12.992 19.5947 13.3928 18.7811C13.6372 18.3049 13.8015 17.5286 13.4368 17.2885C12.8698 16.9945 11.9261 18.4685 12.1585 19.2717ZM14.7634 19.8184C14.3286 20.8369 13.5051 20.9819 13.2526 20.3153C12.9461 19.5017 13.7355 17.9904 14.563 18.2078C15.106 18.4541 14.9638 19.3257 14.7634 19.8184ZM18.8954 30.6636C18.8794 31.0652 18.6349 31.7256 17.8234 31.6531C16.5792 31.3985 16.2205 29.7299 17.052 29.1813C17.243 29.0578 17.471 29.0107 17.6932 29.0488C18.5608 29.2268 18.9194 30.1005 18.8954 30.6636ZM11.0644 21.9116C11.3308 22.4767 11.9159 22.1807 12.2245 21.3257C12.4028 20.8288 12.525 19.9242 12.0902 19.6198C12.0701 19.6096 12.0493 19.6006 12.0281 19.5929C11.3709 19.3797 10.6636 21.0711 11.0644 21.9116ZM12.3908 30.3965C12.4308 30.7732 12.3707 31.3653 11.8899 31.1894C11.0163 30.7173 10.6476 28.8749 11.2106 28.6678C11.2966 28.6426 11.3885 28.6507 11.4691 28.6906C12.0061 28.9825 12.3367 29.881 12.3908 30.3965ZM10.2066 27.3693C10.5232 27.7357 10.8398 27.3797 10.8819 26.6033C10.9139 26.0382 10.7717 25.0941 10.3529 24.7712C10.3199 24.7481 10.2822 24.7332 10.2427 24.7277C9.65763 24.6532 9.62958 26.7027 10.2066 27.3693ZM20.5146 22.361C20.2942 23.4458 19.112 23.7956 18.5851 22.9303C18.1062 22.1353 18.6512 20.8041 19.663 20.86C20.4645 21.005 20.6088 21.8579 20.5086 22.363L20.5146 22.361ZM18.5889 33.4716C18.6307 33.3623 18.6472 33.2445 18.6369 33.1275C18.609 32.7898 18.4773 32.4702 18.261 32.2154C18.0447 31.9606 17.7551 31.784 17.4347 31.7114C17.2452 31.677 17.0501 31.7129 16.8837 31.8129C16.1904 32.26 16.6353 33.6864 17.7633 33.9307C17.8746 33.9548 17.9898 33.9516 18.0997 33.9214C18.2096 33.8911 18.3111 33.8347 18.3961 33.7566C18.481 33.6785 18.5471 33.5809 18.5889 33.4716ZM21.739 28.6407C21.6047 29.7172 20.4065 30.0609 19.7353 29.2121C19.0901 28.3985 19.4728 27.0632 20.5929 27.0963C20.7667 27.119 20.9345 27.1771 21.0866 27.2672C21.2386 27.3573 21.3718 27.4776 21.4786 27.6212C21.5853 27.7648 21.6635 27.9288 21.7085 28.1038C21.7536 28.2788 21.7646 28.4613 21.741 28.6407H21.739ZM10.4571 29.916C10.7316 30.1707 10.8919 29.8705 10.8218 29.237C10.7657 28.7256 10.5192 27.8686 10.1465 27.5601C10.1073 27.531 10.0606 27.5144 10.0123 27.5125C9.59151 27.5518 9.94015 29.4378 10.4571 29.916ZM22.286 25.7772C22.1498 26.8393 20.9235 27.2264 20.3004 26.3983C19.6773 25.5702 20.1261 24.2763 21.2301 24.297C22.1237 24.415 22.3522 25.268 22.286 25.7772ZM17.5951 19.5202C17.9358 20.1765 18.9136 19.9757 19.2482 18.9716C19.3964 18.5203 19.4004 17.7481 18.7693 17.5949C17.8937 17.508 17.2305 18.8163 17.5951 19.5202ZM21.3001 31.3675C21.224 32.3613 20.0037 32.62 19.3505 31.7816C18.7675 31.0322 19.0921 29.8915 20.132 29.9329C20.4659 29.9758 20.7718 30.1475 20.9884 30.4135C21.205 30.6795 21.3163 31.0203 21.3001 31.3675ZM14.4288 33.7155C14.575 34.2869 14.3166 34.5436 13.8677 34.2931C13.0783 33.8376 12.5273 32.4878 13.0663 32.3119C13.1526 32.2906 13.2431 32.2956 13.3267 32.3264C13.8998 32.5562 14.3286 33.2911 14.4328 33.7134L14.4288 33.7155ZM9.61553 23.4209C9.77983 23.6714 10.0483 23.3381 10.2026 22.6943C10.3208 22.2057 10.3869 21.3466 10.1565 21.0505C10.137 21.0318 10.1137 21.0177 10.0884 21.0091C9.65961 20.9139 9.27089 22.8992 9.61553 23.4209ZM11.1264 20.1435C10.8599 20.7997 10.4892 21.0916 10.3369 20.7645C10.0484 20.1662 10.7717 18.3672 11.2226 18.5846C11.2364 18.5916 11.2493 18.6007 11.2606 18.6115C11.4951 18.8806 11.3267 19.6694 11.1324 20.1435H11.1264ZM15.5591 35.0737C16.1361 35.4298 16.5609 35.1979 16.4327 34.5768C16.356 34.2812 16.2101 34.0096 16.0077 33.7861C15.8054 33.5626 15.5529 33.3941 15.2725 33.2953C15.1695 33.2665 15.061 33.2665 14.958 33.2953C14.4009 33.4734 14.7736 34.5872 15.5591 35.0737ZM12.6734 32.7506C12.8276 33.293 12.6894 33.5435 12.3528 33.3324C11.7176 32.9328 11.0864 31.4133 11.4992 31.2766C11.5674 31.2612 11.6387 31.2723 11.6996 31.3077C12.1865 31.583 12.5531 32.3428 12.6693 32.7568L12.6734 32.7506ZM9.37503 26.0856C9.52331 26.2575 9.66757 25.9242 9.70965 25.3134H9.70764C9.74972 24.7172 9.6856 23.9285 9.48524 23.6469C9.47458 23.6332 9.46118 23.622 9.44597 23.6142C9.43075 23.6063 9.41408 23.602 9.39708 23.6014C9.06246 23.6386 9.04443 25.7068 9.37503 26.0856ZM22.8111 22.9821C22.6748 23.9965 21.5388 24.3837 20.9677 23.6032C20.4347 22.8786 20.8735 21.6158 21.8774 21.6241C22.6348 21.7193 22.8792 22.4708 22.8111 22.9738V22.9821ZM20.106 20.5927C20.7892 20.6237 21.1238 19.9944 21.204 19.6569H21.2C21.3162 19.1725 21.188 18.4562 20.5428 18.3444C20.3264 18.3312 20.1128 18.3996 19.9417 18.5369C19.1963 19.1021 19.1703 20.425 20.106 20.5927ZM20.9555 33.7673C20.9354 34.6243 19.8955 34.8251 19.2403 34.0964C18.6392 33.4257 18.9117 32.5375 19.7212 32.5396H19.8254C20.1242 32.5704 20.4024 32.7107 20.6097 32.9351C20.8171 33.1596 20.9397 33.4533 20.9555 33.7631V33.7673ZM12.3929 17.7272C11.9921 18.4166 11.5713 18.5553 11.4872 18.2117C11.3369 17.6072 12.2386 16.158 12.6493 16.3485C12.6618 16.3546 12.6738 16.3615 12.6854 16.3692C12.9118 16.6197 12.6253 17.338 12.3929 17.7314V17.7272ZM17.4127 35.6928C18.0479 36.1441 18.665 35.9329 18.5688 35.2974L18.5608 35.3036C18.4991 35.0217 18.3601 34.7642 18.1604 34.5619C17.9606 34.3596 17.7087 34.221 17.4347 34.1629C17.3527 34.1485 17.2692 34.1451 17.1863 34.1525C16.5471 34.2436 16.6834 35.1731 17.4127 35.6928ZM11.1845 31.6429C11.3147 32.0859 11.2967 32.3447 11.1404 32.264L11.1043 32.2412C10.5894 31.794 10.0684 30.1917 10.3189 30.171C10.3557 30.1734 10.3908 30.1879 10.4191 30.2124C10.7317 30.4836 11.0603 31.233 11.1845 31.6615V31.6429ZM9.59745 28.6799C9.69963 28.7669 9.7357 28.4688 9.6816 27.9719H9.68561C9.63151 27.5103 9.47322 26.6925 9.28487 26.4048C9.26684 26.3841 9.2448 26.3634 9.22276 26.3634C8.99635 26.4027 9.32895 28.4502 9.59745 28.6799ZM24.28 29.1936C24.2623 29.4175 24.1783 29.6303 24.0394 29.8031C23.9004 29.9759 23.7134 30.1003 23.5036 30.1593C23.2938 30.2184 23.0716 30.2092 22.867 30.1331C22.6625 30.057 22.4856 29.9176 22.3604 29.7339C21.8415 29.0362 22.2062 27.8997 23.198 27.8707C23.3536 27.8802 23.5057 27.9221 23.6452 27.9939C23.7847 28.0658 23.9088 28.166 24.0098 28.2886C24.1109 28.4112 24.1869 28.5536 24.2334 28.7074C24.2798 28.8611 24.2956 29.023 24.28 29.1832V29.1936ZM24.7429 26.3322C24.7311 26.5447 24.6584 26.7488 24.5342 26.9186C24.4099 27.0884 24.2396 27.2163 24.0449 27.2859C23.8502 27.3556 23.6398 27.3639 23.4405 27.3098C23.2413 27.2557 23.062 27.1417 22.9255 26.9822C22.3805 26.3487 22.611 25.0838 23.715 25.0548C23.8653 25.0644 24.0121 25.1057 24.1464 25.176C24.2807 25.2464 24.3997 25.3445 24.496 25.4641C24.5923 25.5837 24.6638 25.7225 24.7063 25.8718C24.7487 26.021 24.7612 26.1777 24.7429 26.3322ZM19.2123 17.2592C19.7352 17.3027 20.0819 16.8017 20.2041 16.4995L20.2061 16.5015C20.3564 16.1248 20.4125 15.4851 19.9236 15.3671C19.7504 15.3508 19.5773 15.4001 19.4367 15.5058C18.8115 15.9115 18.4609 17.0833 19.2123 17.2592ZM23.471 32.554C23.6577 32.3924 23.7767 32.1623 23.803 31.9121L23.811 31.9163C23.8189 31.7655 23.7974 31.6146 23.748 31.4726C23.6985 31.3305 23.6221 31.2001 23.5231 31.089C23.4242 30.9778 23.3047 30.8883 23.1718 30.8256C23.0389 30.7629 22.8952 30.7283 22.7491 30.7238C22.5127 30.7112 22.2795 30.7844 22.0899 30.9308C21.4227 31.467 21.7433 32.6822 22.8012 32.7795C23.0443 32.7965 23.2843 32.7157 23.471 32.554ZM23.3121 20.2739C23.1518 21.1641 22.162 21.483 21.7092 20.7915C21.2864 20.1477 21.6911 19.0546 22.5447 19.0504C23.0556 19.0836 23.4223 19.6715 23.3141 20.2739H23.3121ZM14.7755 36.171C15.052 36.2683 15.1241 36.0551 14.9458 35.6783C14.7875 35.3409 14.3567 34.7799 13.8979 34.5873C13.8349 34.5582 13.7642 34.5524 13.6975 34.5708C13.3188 34.7219 14.1543 35.964 14.7755 36.171ZM9.58142 21.4562C9.45319 21.924 9.31894 22.1973 9.25683 22.1166C9.09453 21.9095 9.5133 19.978 9.72969 19.949C9.74973 19.949 9.76175 19.9677 9.77177 19.9863C9.83188 20.1768 9.74372 20.8641 9.58142 21.4562ZM16.3466 36.9123C16.7573 37.0966 16.9637 36.9227 16.8054 36.5086V36.5148C16.7015 36.2802 16.5526 36.0699 16.3676 35.8966C16.1826 35.7233 15.9655 35.5906 15.7294 35.5066C15.6402 35.4767 15.5442 35.4767 15.4549 35.5066C15.0863 35.6929 15.6693 36.6121 16.3466 36.9123ZM20.7551 35.8895L20.7552 35.8978C20.7564 35.9935 20.7633 36.5339 20.0679 36.4878C19.1842 36.3491 18.7394 35.4072 19.2043 35.0387C19.3584 34.9355 19.5433 34.8929 19.7252 34.9186C19.9762 34.9429 20.2126 35.0511 20.3988 35.2266C20.585 35.4022 20.7108 35.6356 20.7571 35.8916L20.7551 35.8895ZM10.0243 19.5368C10.0924 19.6817 10.3048 19.4333 10.5272 18.9447L10.5212 18.9426C10.6956 18.5596 10.94 17.862 10.8599 17.6135C10.8574 17.6105 10.8548 17.6067 10.8521 17.6029C10.8439 17.5912 10.8348 17.5783 10.8258 17.5783C10.5713 17.4665 9.86203 19.1973 10.0243 19.5368ZM13.3166 34.7839C13.517 35.1565 13.517 35.3594 13.3166 35.289L13.2726 35.2683C12.6895 34.9247 11.9822 33.7074 12.2146 33.6121C12.2401 33.6064 12.2664 33.6063 12.2919 33.6116C12.3174 33.617 12.3416 33.6277 12.3629 33.6432C12.7476 33.8688 13.1403 34.4485 13.3106 34.7839H13.3166ZM8.97026 24.7274C9.02837 24.6757 9.07044 24.2596 9.09248 24.0173V24.0153C9.14334 23.5242 9.14871 23.0293 9.10851 22.5371C9.10246 22.5217 9.09362 22.5077 9.08247 22.4957C8.99631 22.5661 8.81197 24.5949 8.97026 24.7274ZM13.9579 15.5036C13.9018 15.576 13.3969 16.2075 13.0983 16.0439C12.7477 15.6878 13.7856 14.3877 14.2524 14.3505C14.2917 14.3467 14.331 14.3561 14.3646 14.3774C14.565 14.5844 14.2164 15.1744 13.9639 15.5056L13.9579 15.5036ZM24.9697 24.0882C25.0848 23.9304 25.1517 23.7406 25.1617 23.5432C25.1813 23.3998 25.1723 23.2538 25.1352 23.1141C25.0981 22.9744 25.0338 22.844 24.9461 22.731C24.8585 22.6179 24.7494 22.5246 24.6255 22.4567C24.5017 22.3888 24.3657 22.3479 24.226 22.3363C23.2943 22.3694 22.9557 23.4998 23.4786 24.1415C23.604 24.2908 23.7698 24.3979 23.9545 24.4491C24.1393 24.5003 24.3346 24.4933 24.5155 24.429C24.6964 24.3647 24.8545 24.246 24.9697 24.0882ZM21.9134 17.102C21.8333 17.4042 21.5467 17.9094 20.9997 17.8928C20.2443 17.7645 20.3305 16.6631 20.9677 16.1849C21.1018 16.0735 21.2707 16.0168 21.4425 16.0255C21.9415 16.1124 22.0156 16.7086 21.9074 17.102H21.9134ZM21.6811 34.5851C22.2161 35.2641 23.3021 35.0778 23.3662 34.2953V34.3035C23.3963 33.9143 23.1077 33.345 22.3644 33.2684C21.5328 33.2643 21.2503 34.0385 21.6811 34.5851ZM10.1305 30.4731C10.1972 30.659 10.2397 30.8532 10.2567 31.0507H10.2427C10.0784 30.8851 9.52335 29.26 9.56142 29.0529H9.57745C9.5874 29.0641 9.59676 29.0759 9.60551 29.0881C9.82083 29.5338 9.99654 29.9987 10.1305 30.4772V30.4731ZM11.8699 16.603C11.5593 17.0771 11.2868 17.2924 11.2347 17.1081C11.1245 16.7086 12.0682 15.2449 12.3087 15.4333C12.3151 15.4393 12.3205 15.4463 12.3247 15.454C12.4048 15.661 12.0863 16.2821 11.8679 16.603H11.8699ZM18.3525 37.6018C18.9075 37.6784 18.7713 37.2064 18.7532 37.1525H18.7512C18.6638 36.9356 18.5271 36.7435 18.3528 36.5925C18.1784 36.4415 17.9715 36.3361 17.7494 36.2851C17.6319 36.2564 17.5083 36.2718 17.4008 36.3286C17.0521 36.5667 17.6031 37.4341 18.3525 37.6018ZM11.952 33.7631C12.0942 34.0364 12.1984 34.2993 12.1083 34.2662C11.8658 34.1751 10.9742 32.6887 11.0924 32.5748C11.1084 32.5583 11.1385 32.5748 11.1706 32.6059C11.4776 32.9545 11.7395 33.3428 11.95 33.7611L11.952 33.7631ZM9.13341 27.3084C9.12732 27.1952 9.10039 26.9171 9.07846 26.6924H9.07645C9.07645 26.6821 8.96825 25.589 8.92217 25.2743V25.2785C8.96204 25.8881 9.05745 26.6987 9.13341 27.3084ZM9.13341 27.3084C9.13399 27.3193 9.13438 27.3286 9.13456 27.3363C9.13485 27.33 9.13485 27.3238 9.13456 27.3176L9.13341 27.3084ZM23.7851 17.6383C23.7633 17.8452 23.6704 18.0373 23.5234 18.1797C23.3764 18.3221 23.1849 18.4054 22.9836 18.4146C22.1821 18.3256 22.2202 17.2553 22.7271 16.8205C22.853 16.7071 23.015 16.6459 23.182 16.6487C23.717 16.7087 23.8312 17.2863 23.7831 17.6383H23.7851ZM24.0678 21.3195C24.5226 21.864 25.4423 21.6135 25.5004 20.7378L25.4904 20.7357C25.5265 20.3589 25.3281 19.742 24.6889 19.7006C23.9656 19.6964 23.5709 20.7253 24.0678 21.3195ZM26.835 29.6657C26.8163 29.8582 26.7432 30.0408 26.6247 30.1907C26.5063 30.3405 26.3478 30.4511 26.1689 30.5085C25.9901 30.5659 25.7988 30.5676 25.6191 30.5134C25.4393 30.4593 25.2789 30.3516 25.1579 30.2039C25.0455 30.0582 24.9747 29.883 24.9535 29.6979C24.9323 29.5129 24.9616 29.3254 25.0381 29.1566C25.1146 28.9878 25.2351 28.8445 25.3862 28.7428C25.5373 28.6411 25.713 28.585 25.8933 28.5809C26.0266 28.58 26.1586 28.6083 26.2805 28.664C26.4024 28.7198 26.5115 28.8016 26.6005 28.9042C26.6896 29.0067 26.7565 29.1276 26.7969 29.2589C26.8373 29.3902 26.8503 29.5288 26.835 29.6657ZM27.2859 26.7732C27.2673 27.0167 27.1638 27.2449 26.9947 27.4154C26.8255 27.586 26.6022 27.6874 26.3662 27.7007C25.4285 27.6655 25.164 26.5124 25.7651 25.9555C25.9275 25.8033 26.1371 25.716 26.3562 25.7091C26.4873 25.7094 26.6169 25.7379 26.7367 25.7927C26.8566 25.8476 26.9642 25.9276 27.0525 26.0276C27.1409 26.1277 27.2082 26.2456 27.25 26.374C27.2919 26.5023 27.3076 26.6383 27.2959 26.7732H27.2859ZM20.1582 14.636C20.3004 15.0873 20.9336 14.8534 21.2161 14.2468C21.3564 13.9425 21.4145 13.4581 21.0879 13.3815C20.6731 13.3256 19.9979 14.1247 20.1582 14.636ZM23.0035 36.374C23.0035 36.9496 22.148 37.1794 21.615 36.5956C21.1822 36.1215 21.4647 35.546 22.1179 35.5708C22.729 35.635 23.0075 36.0884 23.0015 36.374H23.0035ZM20.7471 37.6826C20.8353 38.0966 20.3664 38.2912 19.8094 37.9372C19.2965 37.6101 19.1742 37.0926 19.583 36.9684C19.6692 36.9446 19.7591 36.939 19.8475 36.9518C20.0483 36.9753 20.2389 37.056 20.3978 37.1851C20.5567 37.3142 20.6777 37.4865 20.7471 37.6826ZM25.9952 32.9084C26.1618 32.7659 26.274 32.5669 26.312 32.3469C26.3601 31.964 26.1116 31.4133 25.4123 31.3822C25.1719 31.3847 24.9411 31.48 24.7651 31.6493C24.2382 32.1627 24.5147 33.086 25.4023 33.1254C25.6186 33.1278 25.8287 33.051 25.9952 32.9084ZM12.8258 14.8907C12.8258 15.1143 13.1324 14.9486 13.5111 14.5284H13.507C13.8316 14.1682 14.1342 13.7003 14.0561 13.5699C13.8557 13.3711 12.8258 14.4766 12.8258 14.8907ZM15.8155 37.3782C15.9918 37.6122 16.0159 37.7509 15.8977 37.7322C15.519 37.6763 14.5592 36.7261 14.7295 36.575C14.7528 36.5538 14.7946 36.5615 14.8329 36.5686L14.8329 36.5686C14.8507 36.5718 14.8678 36.575 14.8818 36.575C15.244 36.7687 15.5623 37.0396 15.8155 37.3699V37.3782ZM9.33041 20.6757C9.34006 20.6486 9.37044 20.5632 9.50329 20.1083L9.49928 20.1104L9.51067 20.071C9.56747 19.8747 9.78064 19.1379 9.8339 18.9159V18.8869L9.81586 18.9386L9.79783 18.9904C9.65926 19.4128 9.5102 19.9697 9.38562 20.4353L9.32897 20.6466V20.6797L9.33041 20.6757ZM11.0858 32.8545L11.0858 32.8547L11.0859 32.8547L11.0859 32.8547C11.137 32.9519 11.1882 33.0493 11.2366 33.1481C10.9781 32.6699 10.6355 32.0302 10.4031 31.5396L10.4231 31.5727C10.5614 31.8343 10.6965 32.0982 10.8314 32.3618C10.8823 32.4611 10.9331 32.5604 10.9841 32.6596L10.9801 32.6513C11.0147 32.7192 11.0502 32.7869 11.0858 32.8545ZM17.3986 38.3969C17.589 38.43 17.613 38.2954 17.4567 38.0677V38.0781C17.2173 37.7529 16.8935 37.5045 16.523 37.3618C16.4627 37.34 16.397 37.34 16.3367 37.3618C16.0922 37.5025 16.9157 38.312 17.3986 38.3969ZM22.6208 14.7893C22.4345 15.3855 21.8294 15.6298 21.619 15.2033C21.4086 14.7769 21.8494 13.9446 22.3323 13.9612C22.6168 13.9902 22.7591 14.3918 22.6309 14.8059L22.6208 14.7893ZM10.1365 18.2635C10.2617 18.0983 10.3674 17.9183 10.4511 17.7273L10.4411 17.7252C10.62 17.3763 10.7708 17.0128 10.8919 16.6383C10.8948 16.6282 10.8948 16.6174 10.8919 16.6073C10.7958 16.6632 10.0424 18.1517 10.1365 18.2635ZM27.6125 23.9636C27.6076 24.1427 27.5494 24.3159 27.4458 24.4596C27.3422 24.6033 27.1982 24.7105 27.0335 24.7666C26.8688 24.8227 26.6914 24.825 26.5254 24.7732C26.3594 24.7214 26.2128 24.6179 26.1058 24.477C26.0048 24.3662 25.9324 24.2309 25.8955 24.0836C25.8585 23.9363 25.8581 23.7818 25.8943 23.6343C25.9305 23.4868 26.0021 23.3511 26.1026 23.2397C26.203 23.1284 26.329 23.0451 26.4688 22.9974C26.6087 22.9498 26.7579 22.9393 26.9028 22.9671C27.0476 22.9948 27.1833 23.0599 27.2973 23.1562C27.4113 23.2525 27.5 23.377 27.5551 23.5181C27.6102 23.6593 27.6299 23.8125 27.6125 23.9636ZM14.545 36.9413C14.6072 36.9372 14.4829 36.7509 14.3447 36.577H14.3527C14.099 36.2524 13.8045 35.9641 13.4771 35.7199C13.441 35.695 13.403 35.6826 13.3849 35.695C13.2747 35.7696 14.0642 36.6598 14.4769 36.9144C14.4981 36.9271 14.5211 36.9362 14.545 36.9413ZM25.7509 34.6949C25.6627 35.3574 24.697 35.5664 24.2762 35.0158C23.9676 34.6141 24.154 33.9206 24.9434 33.8896C25.6026 33.9227 25.785 34.403 25.7449 34.6949H25.7509ZM19.1641 38.635C19.1741 38.6495 19.3644 38.9953 18.9637 38.9331C18.4427 38.8089 17.8497 38.2251 18.0681 38.0512C18.103 38.0297 18.142 38.0161 18.1825 38.0115C18.2229 38.0069 18.2638 38.0112 18.3025 38.0243C18.6506 38.1148 18.9557 38.3315 19.1621 38.635H19.1641ZM24.5948 18.5596C24.9875 19.073 25.6848 18.8018 25.7449 18.1145C25.785 17.657 25.4624 17.2201 25.0837 17.2201C24.5167 17.2553 24.2021 18.0462 24.5948 18.5596ZM11.8118 15.514C11.6114 15.781 11.411 16.0212 11.385 15.9549C11.3149 15.7831 12.2085 14.4747 12.3407 14.5554C12.3439 14.5634 12.3439 14.5723 12.3407 14.5803C12.3187 14.7583 11.9681 15.2862 11.8038 15.514H11.8118ZM13.4088 36.0262C13.3283 35.9019 13.2378 35.7849 13.1383 35.6763V35.6742C12.982 35.4755 12.6053 34.9973 12.405 34.8109L12.405 34.8109C12.3749 34.784 12.3749 34.784 12.3629 34.784C12.6736 35.2306 13.0238 35.6464 13.4088 36.0262ZM15.501 12.6298C15.1183 12.9507 14.8057 13.0873 14.8177 12.93C14.8438 12.6153 15.8837 11.7769 16.07 11.9218C16.1261 12.0501 15.7113 12.4538 15.501 12.6298ZM21.7152 38.2582C22.1239 38.6391 22.7932 38.5501 22.7671 38.1174L22.7771 38.1154C22.7631 37.9042 22.5267 37.5833 22.0438 37.5315H21.9636C21.5028 37.5419 21.3685 37.9352 21.7152 38.2582ZM27.7909 21.1374C27.8005 21.2871 27.765 21.4362 27.6891 21.5641C27.6132 21.692 27.5008 21.7925 27.3673 21.8515C27.2338 21.9106 27.0859 21.9254 26.9439 21.8939C26.8019 21.8624 26.6729 21.7861 26.5747 21.6756C26.1439 21.2119 26.3222 20.3362 27.0135 20.2679C27.1202 20.2711 27.2251 20.2962 27.3223 20.3419C27.4194 20.3875 27.5068 20.4527 27.5792 20.5337C27.6516 20.6147 27.7076 20.7098 27.744 20.8135C27.7803 20.9171 27.7963 21.0273 27.7909 21.1374ZM23.2782 15.6733C23.5588 16.075 24.1058 15.8203 24.1959 15.2593V15.251C24.24 14.9633 24.1378 14.5202 23.7712 14.4809C23.2923 14.4933 22.9977 15.2717 23.2782 15.6733ZM25.2119 36.755C25.1377 37.2767 24.2842 37.401 23.9616 36.9372C23.7472 36.6308 23.8935 36.1423 24.5286 36.1236C25.0836 36.1567 25.2399 36.5273 25.2079 36.755H25.2119ZM20.9355 39.1092C21.0357 39.3618 20.7652 39.4529 20.3986 39.2872C19.9718 39.0947 19.7474 38.7241 19.9978 38.6248C20.0628 38.6048 20.131 38.5992 20.1982 38.6082C20.3483 38.6301 20.4917 38.6864 20.6179 38.7731C20.7441 38.8598 20.8499 38.9747 20.9275 39.1092H20.9355ZM27.9875 30.4918C28.4022 31.0093 29.2738 30.6946 29.36 29.997V29.9908C29.374 29.8827 29.3645 29.7728 29.3321 29.669C29.2998 29.5652 29.2455 29.4702 29.1731 29.3909C29.1007 29.3115 29.0122 29.2499 28.9138 29.2104C28.8155 29.1709 28.7098 29.1546 28.6046 29.1627C27.8913 29.2496 27.6228 30.0384 27.9875 30.4918ZM21.3925 11.7623C21.0899 12.1411 20.6872 12.3005 20.6732 12.0459C20.6571 11.7457 21.2562 11.1557 21.5528 11.1826C21.7331 11.2427 21.5227 11.5967 21.3925 11.7623ZM13.0502 13.8638C13.0623 13.93 13.2726 13.7913 13.5492 13.516H13.5512C13.7315 13.3359 14.1102 12.9177 14.1222 12.781V12.7686C14.0801 12.721 13.8277 12.8887 13.5211 13.2034C13.2506 13.4746 13.0382 13.7975 13.0502 13.8638ZM29.8048 27.1376C29.7906 27.3376 29.7097 27.5263 29.576 27.6716C29.4423 27.8169 29.264 27.9099 29.0715 27.9347C28.3101 27.9471 28.0697 27.0196 28.5565 26.5414C28.6868 26.4119 28.8555 26.3316 29.0354 26.3137C29.1403 26.3103 29.2447 26.3296 29.3419 26.3704C29.4391 26.4112 29.527 26.4725 29.5998 26.5505C29.6727 26.6286 29.7289 26.7215 29.7649 26.8233C29.8009 26.9251 29.8159 27.0336 29.8088 27.1418L29.8048 27.1376ZM27.3783 33.0509C27.7409 33.5602 28.6085 33.3117 28.7268 32.6658C28.742 32.5669 28.7347 32.4657 28.7053 32.3702C28.6759 32.2748 28.6253 32.1877 28.5575 32.1161C28.4898 32.0445 28.4067 31.9902 28.315 31.9577C28.2233 31.9252 28.1255 31.9153 28.0295 31.9288C27.3783 31.9951 27.0898 32.6369 27.3783 33.0509ZM22.2622 12.2385C22.168 12.4041 21.9456 12.6836 21.7012 12.6712C21.3705 12.5946 21.627 11.9921 22.0237 11.7251C22.0921 11.6676 22.1781 11.6375 22.2662 11.6402C22.4465 11.6671 22.4085 11.9777 22.2662 12.2385H22.2622ZM17.0339 38.7489C17.094 38.7986 17.2844 38.9559 17.2343 38.9559C17.074 38.9559 16.1042 38.2666 16.1964 38.2107C16.2084 38.2107 16.2385 38.2107 16.2685 38.2251C16.5425 38.3704 16.8016 38.5438 17.042 38.7427L17.0339 38.7489ZM29.9472 24.6422C30.0163 24.5255 30.0504 24.3902 30.0453 24.2535C30.0484 24.1527 30.0314 24.0523 29.9954 23.9585C29.9594 23.8648 29.9052 23.7796 29.8361 23.7084C29.767 23.6372 29.6844 23.5814 29.5936 23.5444C29.5027 23.5075 29.4055 23.4902 29.308 23.4937C29.1717 23.5141 29.0439 23.5741 28.9393 23.6666C28.8347 23.7591 28.7577 23.8804 28.7172 24.0163C28.6767 24.1523 28.6744 24.2973 28.7105 24.4346C28.7466 24.5718 28.8197 24.6957 28.9213 24.7917C29.019 24.8841 29.1409 24.9447 29.2718 24.9656C29.4027 24.9866 29.5367 24.967 29.6568 24.9095C29.777 24.8519 29.878 24.759 29.9472 24.6422ZM23.3062 12.6712C23.1559 13.1184 22.7632 13.2509 22.647 12.9797C22.5047 12.6423 22.8875 12.0792 23.162 12.0999C23.3804 12.135 23.3763 12.4559 23.3062 12.6712ZM18.5509 39.5109C18.613 39.5088 18.5709 39.4384 18.4367 39.3225C18.2147 39.1307 17.9635 38.9782 17.6933 38.8712C17.6876 38.8712 17.6809 38.8706 17.6738 38.8697L17.659 38.8678C17.6314 38.864 17.6008 38.8598 17.5871 38.8712C17.4849 38.9581 18.3325 39.5109 18.5509 39.5109ZM27.7539 18.7679C27.8009 18.6672 27.8167 18.554 27.799 18.4437H27.795C27.7928 18.2684 27.7269 18.1004 27.6104 17.973C27.4938 17.8457 27.3351 17.7683 27.1658 17.7564C26.6168 17.804 26.5347 18.6031 26.9354 18.9406C27.0168 19.0142 27.1183 19.06 27.2259 19.0717C27.3335 19.0835 27.4419 19.0606 27.5365 19.0062C27.631 18.9519 27.707 18.8686 27.7539 18.7679ZM28.0294 35.0158C27.9172 35.5541 27.0817 35.7404 26.8272 35.285C26.6268 34.9496 26.9093 34.4569 27.4483 34.4279C27.9092 34.4279 28.0935 34.7301 28.0354 35.0158H28.0294ZM25.7776 16.0213C25.8597 15.9188 25.9004 15.7875 25.8912 15.6548H25.8973C25.8993 15.4229 25.771 15.0275 25.4164 15.0089C25.3252 15.0097 25.2376 15.0451 25.1699 15.1082C24.8494 15.396 24.9035 16.1765 25.4504 16.2055C25.5784 16.1898 25.6955 16.1239 25.7776 16.0213ZM15.7394 38.0615C15.8343 38.1286 15.9223 38.2056 16.0019 38.2913C15.6339 38.0601 15.2895 37.791 14.974 37.4881C14.99 37.4881 14.99 37.4881 15.0201 37.5088L15.0201 37.5088C15.1864 37.6144 15.503 37.8669 15.7394 38.0615ZM22.0218 39.5647C22.3364 39.7697 22.7351 39.7076 22.677 39.4612C22.6489 39.3349 22.4786 39.1362 22.13 39.0968C22.0749 39.0922 22.0195 39.0963 21.9657 39.1093C21.7413 39.1693 21.7693 39.3991 22.0218 39.5647ZM24.731 38.4487C24.6849 38.8027 24.0678 38.8773 23.8113 38.5605C23.643 38.3535 23.7372 38.0222 24.212 38.016C24.6288 38.0388 24.755 38.2934 24.735 38.4487H24.731ZM17.1443 11.2612C17.2344 11.3233 17.6051 11.1018 17.7173 11.0335L17.7073 11.0211L17.7122 11.0179C17.7688 10.9822 18.2881 10.654 18.2443 10.5615C18.1681 10.5325 17.8496 10.6691 17.567 10.8472C17.3907 10.9631 17.1022 11.1743 17.1443 11.2612ZM12.1946 14.4622C12.114 14.5776 12.0256 14.6869 11.9301 14.7893C12.1666 14.4251 12.4284 14.0791 12.7135 13.7542C12.7146 13.7617 12.7146 13.7694 12.7135 13.7769C12.6574 13.866 12.4871 14.0958 12.2046 14.4601L12.1946 14.4622ZM19.9236 39.9457C19.9997 39.9395 19.9817 39.8773 19.8735 39.778L19.8715 39.7863C19.685 39.6212 19.4653 39.501 19.2283 39.4343C19.1902 39.4198 19.1241 39.4074 19.0981 39.4343C18.9999 39.5316 19.6852 39.9622 19.9236 39.9457ZM15.5471 11.8286C15.2525 12.0356 15.0562 12.1329 15.0722 12.0501C15.1063 11.8637 16.0099 11.1992 16.1021 11.2924C16.1021 11.3959 15.7014 11.7064 15.5431 11.8203L15.5471 11.8286ZM30.0208 21.7512C30.0728 21.6493 30.0926 21.5331 30.0774 21.419C30.0722 21.2453 30.0013 21.0806 29.8799 20.9602C29.7586 20.8399 29.5964 20.7734 29.4282 20.7752C28.9073 20.8497 28.8191 21.5515 29.1738 21.8848C29.2528 21.966 29.3546 22.0195 29.4647 22.0378C29.5747 22.0562 29.6876 22.0383 29.7874 21.9869C29.8871 21.9355 29.9688 21.853 30.0208 21.7512ZM24.5266 13.0667C24.4745 13.4476 24.1379 13.6319 23.9656 13.3752C23.7652 13.0791 24.0137 12.5471 24.2742 12.5574C24.4906 12.5823 24.5527 12.8762 24.5266 13.0667ZM26.3322 37.1919C26.5346 37.5356 27.1938 37.4114 27.298 37.0097V37.0077C27.3441 36.8276 27.2399 36.5709 26.8392 36.5709C26.3963 36.6061 26.186 36.9476 26.3322 37.1919ZM21.2863 40.2811C21.4025 40.2894 21.4285 40.2376 21.3504 40.1507C21.2121 40.0137 21.0367 39.9234 20.8475 39.8919C20.7493 39.8774 20.7152 39.8981 20.7032 39.9126C20.6231 40.0058 21.0258 40.2604 21.2863 40.2811ZM13.9239 12.605C13.8366 12.6968 13.7367 12.7749 13.6274 12.8369C13.7256 12.6671 14.3667 12.0709 14.4289 12.0936C14.4298 12.0984 14.4298 12.1034 14.4289 12.1081C14.2759 12.2887 14.1105 12.4575 13.9339 12.6133L13.9239 12.605ZM30.7509 30.5622C31.0394 30.9969 31.6645 30.6864 31.7307 30.1978H31.7267C31.7384 30.1255 31.7336 30.0514 31.7128 29.9813C31.6919 29.9112 31.6555 29.8471 31.6065 29.794C31.5575 29.741 31.4972 29.7005 31.4305 29.6757C31.3637 29.6509 31.2922 29.6426 31.2217 29.6513C30.7909 29.7341 30.5305 30.2289 30.7509 30.5622ZM27.0877 16.3318C27.3582 16.5657 27.6848 16.3566 27.6427 15.9778H27.6347C27.6274 15.8543 27.5782 15.7374 27.4958 15.6476C27.4133 15.5579 27.3029 15.501 27.1839 15.4871C26.8472 15.5265 26.7851 16.0689 27.0877 16.3318ZM32.1715 27.3634C32.1415 27.8644 31.5704 28.1211 31.2779 27.7629C31.2181 27.6803 31.1798 27.5832 31.1668 27.481C31.1539 27.3787 31.1666 27.2747 31.2039 27.179C31.2411 27.0833 31.3016 26.9991 31.3795 26.9346C31.4574 26.8701 31.5501 26.8274 31.6486 26.8106C31.7203 26.8019 31.7929 26.8103 31.8609 26.8353C31.9289 26.8602 31.9905 26.901 32.0409 26.9544C32.0912 27.0078 32.129 27.0725 32.1513 27.1434C32.1736 27.2143 32.1799 27.2896 32.1695 27.3634H32.1715ZM22.9176 10.7271C22.9376 10.8409 23.1259 10.7643 23.2862 10.5325C23.3383 10.4559 23.4646 10.2302 23.3644 10.2033C23.2081 10.2012 22.8895 10.5718 22.9176 10.7271ZM31.0493 32.846C30.9592 33.289 30.3521 33.5002 30.1337 33.1607C29.9633 32.8978 30.1918 32.434 30.6145 32.3843C31.0033 32.3616 31.0874 32.6535 31.0493 32.846ZM29.8791 18.7522C29.8974 18.829 29.8917 18.9097 29.8629 18.9829C29.8341 19.0561 29.7837 19.118 29.7188 19.1598C29.6539 19.2016 29.5778 19.2211 29.5015 19.2156C29.4253 19.2101 29.3526 19.1798 29.294 19.129C28.9894 18.8972 28.9935 18.3382 29.3842 18.2761C29.5089 18.2786 29.6284 18.3286 29.7197 18.4164C29.811 18.5043 29.8678 18.6239 29.8791 18.7522ZM25.4705 13.7023C25.6448 13.8493 25.8853 13.7209 25.8713 13.4125H25.8592C25.8532 13.2655 25.7711 13.015 25.5707 13.015C25.3183 13.0316 25.2481 13.5077 25.4705 13.7023ZM24.3343 39.7283C24.3343 39.9353 23.9135 39.9643 23.7492 39.7718C23.639 39.6434 23.7332 39.4819 23.9836 39.4881C24.2341 39.4944 24.3363 39.6434 24.3343 39.7283ZM18.5875 39.7773L18.5871 39.777L18.5868 39.7769C18.562 39.7649 18.5373 39.753 18.5129 39.7407H18.5048L18.0019 39.4944H17.9739C17.9899 39.5068 18.0941 39.5689 18.2945 39.66L18.6952 39.8401H18.7132C18.6718 39.818 18.6295 39.7976 18.5875 39.7773ZM17.8656 10.402C17.6212 10.5262 17.4649 10.5801 17.4769 10.5304C17.4889 10.4807 18.2503 10.019 18.3184 10.1039C18.3184 10.1619 17.9898 10.3378 17.8656 10.402ZM23.6289 11.0542C23.677 11.1867 23.8534 11.079 23.9395 10.872C23.9876 10.754 24.0036 10.5801 23.9115 10.5615C23.7612 10.5656 23.5809 10.9217 23.6289 11.0542ZM32.3499 24.444C32.3499 24.858 31.9151 25.1292 31.6146 24.8001C31.5569 24.7354 31.5168 24.6562 31.4982 24.5704C31.4796 24.4846 31.4831 24.3953 31.5085 24.3113C31.5339 24.2274 31.5802 24.1519 31.6428 24.0923C31.7054 24.0328 31.782 23.9912 31.865 23.972C31.9278 23.9683 31.9906 23.978 32.0496 24.0004C32.1086 24.0228 32.1625 24.0575 32.2079 24.1024C32.2534 24.1472 32.2894 24.2012 32.3139 24.261C32.3383 24.3209 32.3506 24.3853 32.3499 24.4502V24.444ZM25.9114 38.7552C26.0256 38.9767 26.4804 38.9166 26.5606 38.6703C26.6067 38.5254 26.4604 38.4032 26.26 38.4032C25.9835 38.4198 25.8373 38.6102 25.9114 38.7552ZM22.7832 40.4302C22.8313 40.5109 22.7271 40.5482 22.5668 40.5068C22.4065 40.4654 22.2583 40.337 22.3324 40.2853C22.37 40.2651 22.413 40.2585 22.4546 40.2667C22.5173 40.2691 22.5789 40.2849 22.6354 40.3131C22.692 40.3412 22.7423 40.3811 22.7832 40.4302ZM19.8415 40.2645C19.7949 40.2379 19.7467 40.2143 19.6972 40.1942V40.1879C19.5495 40.1165 19.3983 40.053 19.2444 39.9975H19.2063C19.4072 40.1118 19.6204 40.2014 19.8415 40.2645ZM30.1917 35.1981C30.0835 35.5314 29.5545 35.6618 29.4363 35.3844C29.3662 35.225 29.4804 34.8958 29.8711 34.842C30.1937 34.8254 30.2378 35.049 30.1897 35.1981H30.1917ZM15.6674 11.2033C15.6874 11.2261 15.8858 11.1018 15.9479 11.0625L15.9579 11.0563C16.1014 10.9664 16.2356 10.8616 16.3586 10.7437C16.3146 10.7002 15.6794 11.1205 15.6674 11.2033ZM20.9532 40.5829L20.9537 40.5834C20.7791 40.5528 20.611 40.4911 20.4568 40.4012H20.4988C20.6264 40.4363 20.7511 40.482 20.8715 40.5379C20.9428 40.5708 20.9508 40.5802 20.9532 40.5829ZM32.2324 21.7663C32.2526 21.7048 32.253 21.6382 32.2337 21.5764C32.2255 21.4814 32.1818 21.3934 32.1119 21.3312C32.0419 21.2689 31.9512 21.2373 31.859 21.2431C31.5324 21.3114 31.5625 21.7482 31.7729 21.9056C31.822 21.9461 31.8825 21.9692 31.9453 21.9714C32.0081 21.9736 32.07 21.9549 32.1217 21.9179C32.1734 21.881 32.2122 21.8278 32.2324 21.7663ZM29.2579 37.1692C29.1697 37.3762 28.8091 37.4839 28.7249 37.2831C28.6688 37.1506 28.8411 36.9684 29.0495 36.9415C29.2098 36.929 29.314 37.0408 29.2499 37.1692H29.2579ZM24.5447 11.3441C24.6109 11.4372 24.7371 11.3668 24.7571 11.1805C24.7671 11.0936 24.7772 10.9549 24.6609 10.9528C24.5447 10.9507 24.4786 11.2509 24.5447 11.3441ZM29.1698 16.4292C29.3361 16.543 29.4703 16.4002 29.4363 16.2221V16.2201C29.4237 16.1497 29.389 16.0856 29.3375 16.0377C29.2861 15.9898 29.2208 15.9607 29.1517 15.9551H29.1337C28.9694 15.9965 28.9694 16.2967 29.1698 16.4292ZM27.2821 13.6982C27.3101 13.8514 27.2119 13.9777 27.0817 13.8928C26.9074 13.779 26.9114 13.4974 27.0476 13.4664H27.0536C27.1699 13.4664 27.254 13.603 27.276 13.7003L27.2821 13.6982ZM22.0618 40.8174C22.0719 40.8153 22.0578 40.8029 22.0258 40.7884C21.9481 40.7533 21.8667 40.7276 21.7833 40.7118C21.7794 40.7118 21.7761 40.7094 21.7728 40.7069C21.7659 40.7018 21.7587 40.6965 21.7453 40.7118C21.7252 40.7346 22.0178 40.8319 22.0618 40.8174ZM14.6734 11.7271L14.5592 11.8224C14.5752 11.8037 14.9199 11.5098 14.9599 11.487V11.4973L14.6914 11.7271H14.6734ZM25.6649 40.0037C25.8653 39.9188 25.8653 39.9188 25.8753 39.894C25.8893 39.8588 25.8132 39.8256 25.7411 39.8256C25.715 39.8257 25.6893 39.8307 25.6649 39.8401L25.6638 39.8409L25.6606 39.8429L25.6606 39.8429L25.6605 39.843C25.6345 39.8585 25.5074 39.9345 25.6649 40.0037ZM20.4266 9.33161C20.357 9.36088 20.2833 9.37836 20.2082 9.38337C20.2082 9.35852 20.3906 9.29848 20.3926 9.29848C20.4658 9.28087 20.5401 9.26842 20.615 9.26122C20.6076 9.26396 20.598 9.26787 20.5861 9.27274C20.5531 9.28626 20.5018 9.30726 20.4266 9.33161ZM23.9095 40.6517C23.9688 40.642 24.0271 40.6267 24.0838 40.6062L24.0918 40.6041C24.0573 40.5745 24.0144 40.5571 23.9696 40.5544H23.9395C23.8514 40.5627 23.8414 40.5958 23.9095 40.6517ZM18.2985 9.8161C18.2427 9.84172 18.1842 9.86048 18.1242 9.872C18.1242 9.84716 18.2504 9.7954 18.4428 9.74572L18.4324 9.75109L18.4324 9.7511C18.4057 9.765 18.3598 9.78897 18.2985 9.8161ZM18.2544 23.5641C19.1762 23.0651 20.1461 24.0838 19.8576 25.2412V25.2329C19.7971 25.4547 19.6896 25.6598 19.543 25.8333C19.1161 26.3095 17.6973 26.6387 17.5671 24.6138C17.2785 25.1728 17.0381 25.3716 16.5431 25.4669C16.875 25.8395 17.0632 26.3249 17.0721 26.8313C17.155 26.6722 17.271 26.534 17.4116 26.4266C17.5523 26.3193 17.7142 26.2453 17.8857 26.2102C18.9498 26.0321 19.7534 27.6057 19.0881 28.5788C18.7294 29.0964 17.3707 29.5788 16.9258 27.5974C16.6513 28.1046 16.4249 28.2744 15.9559 28.3303C16.8617 29.4753 16.7715 30.9474 15.4389 30.8812C15.6775 31.0238 15.8824 31.2195 16.0387 31.454C16.195 31.6886 16.2989 31.9562 16.3427 32.2373C16.4589 33.1173 15.7816 33.4838 15.0722 32.9227C14.4831 32.4589 13.7757 30.8936 15.1263 30.7321C14.7092 30.4055 14.4323 29.9232 14.3548 29.3883C14.1462 29.6909 14.0531 29.826 13.9249 29.8863C13.8215 29.935 13.6952 29.935 13.4671 29.935C13.8034 30.2361 14.0477 30.6317 14.1704 31.0737C14.4209 31.9537 14.0181 32.5293 13.4049 32.1773C12.9601 31.9205 11.6335 30.0964 13.1044 29.7217C12.7232 29.3528 12.4793 28.8575 12.415 28.322L12.4105 28.3308C12.2824 28.5791 12.0957 28.941 11.6996 28.7527C11.0463 28.438 10.3209 26.1646 11.5714 25.8333C11.2868 25.3199 11.2287 24.9451 11.2868 24.2287C11.1726 24.4979 10.9942 24.9058 10.6856 24.8747C10.0043 24.8022 9.97223 22.6531 10.6455 22.1707C10.9201 21.974 11.5433 22.1831 11.381 23.8519C11.6455 23.2866 11.8459 23.121 12.2467 23.1376C11.7036 21.8394 12.413 21.0008 12.5613 20.8476C12.5753 20.8331 13.8438 19.7834 13.8258 22.0609C14.1584 21.6261 14.3929 21.4957 14.8277 21.5081C14.1704 20.4377 15.0482 19.0939 15.8778 19.0774L15.8935 19.0807C16.0916 19.1232 16.1187 19.129 16.2144 19.2037C16.6874 19.5805 16.8377 21.4129 15.2846 21.7607C15.5712 22.1106 15.6614 22.3963 15.6854 22.9823C16.0341 22.591 16.2726 22.4771 16.7014 22.4916C16.5457 22.2944 16.4299 22.067 16.3607 21.8228C16.1042 20.7503 17.1543 19.6095 17.9438 20.1043C18.4428 20.4107 18.9979 22.1851 17.1583 22.6883C17.5951 23.15 17.7054 23.5061 17.6533 24.2743C17.7777 23.979 17.9878 23.7309 18.2544 23.5641ZM13.0262 24.4999C13.1718 24.272 13.3987 24.1127 13.6574 24.0569H13.6614L13.7115 24.0403C13.5477 23.6973 13.4843 23.3123 13.5292 22.9326C13.2506 23.3177 13.0122 23.4585 12.6815 23.4378C12.8856 23.754 13.0046 24.1206 13.0262 24.4999ZM14.97 25.5642C15.1525 25.3322 15.4159 25.1835 15.7034 25.1501L15.7054 25.1439H15.7636C15.5089 24.8416 15.3668 24.4555 15.3628 24.0548C15.1911 24.3189 14.9291 24.506 14.6293 24.5786C14.8142 24.876 14.9307 25.2131 14.97 25.5642ZM12.7079 27.1355C12.7973 27.0392 12.9059 26.9644 13.0262 26.9162L13.0743 26.8955C12.879 26.5842 12.7581 26.2293 12.7216 25.8603C12.6522 25.9727 12.5546 26.0636 12.4393 26.1233C12.3239 26.1831 12.195 26.2095 12.0663 26.1998C12.3165 26.5784 12.4689 27.0167 12.5092 27.4732C12.5508 27.3469 12.6186 27.2317 12.7079 27.1355ZM14.7217 28.23C14.8521 28.1207 15.0084 28.0496 15.1744 28.0239L15.1624 28.0156H15.2305C14.9521 27.7307 14.7635 27.3655 14.6895 26.968C14.6168 27.0883 14.5209 27.192 14.4079 27.2725C14.2948 27.353 14.1669 27.4086 14.0322 27.4359C14.2612 27.7981 14.399 28.2138 14.433 28.645C14.4916 28.4825 14.5913 28.3392 14.7217 28.23Z" fill="url(#paint0_linear_487_336)"/>
         <path fill-rule="evenodd" clip-rule="evenodd" d="M20.8748 4.58937V0C21.1691 0.00144292 21.463 0.0228842 21.7546 0.0641849H21.7946C21.8939 0.07854 21.9927 0.0951816 22.0908 0.114073C23.5633 0.397446 24.9035 1.18704 25.8905 2.35913C25.907 2.37867 25.9233 2.39829 25.9395 2.41799C26.053 2.55593 26.1609 2.69801 26.2629 2.84385C26.6257 3.36227 26.9149 3.92817 27.1244 4.52421C28.745 4.77126 30.3386 5.22395 31.868 5.87851C33.2717 6.47926 34.5973 7.2397 35.8223 8.14092L38.9562 4.89461C39.1638 5.10934 39.3579 5.33756 39.5374 5.57787L39.5614 5.611L39.5629 5.61302L39.5654 5.611C40.5324 6.93359 41.0041 8.57272 40.8936 10.2263C40.8368 11.076 40.6283 11.9001 40.2852 12.6597C40.4837 12.9358 40.6758 13.2174 40.8614 13.5043C42.4409 15.9467 43.4921 18.697 43.9602 21.5682H48.3927C48.3926 21.8721 48.3732 22.1758 48.3346 22.4771V22.5185C48.1127 24.1599 47.324 25.6631 46.1138 26.7509C45.4929 27.3092 44.7825 27.7387 44.0212 28.0246C43.5558 31.264 42.3538 34.3428 40.5173 37.0071L43.6694 40.2501C43.4614 40.4651 43.2398 40.6657 43.0061 40.8506L42.9741 40.8754L42.9661 40.8817V40.8837L42.9652 40.8823C42.6383 41.1366 42.2916 41.3575 41.9298 41.5436C40.8747 42.0883 39.6913 42.3366 38.5001 42.2516C37.6762 42.1929 36.8773 41.9767 36.1411 41.6209C33.5981 43.5733 30.6439 44.8751 27.5238 45.4211V50C27.2296 49.9999 26.9358 49.9799 26.6441 49.94L26.6081 49.94L26.604 49.94C25.214 49.7394 23.9264 49.0904 22.9208 48.0936C22.7772 47.9512 22.6393 47.8018 22.5077 47.6455C21.9691 47.0059 21.5543 46.2745 21.2776 45.4908C18.3519 45.0453 15.5452 43.9341 13.0662 42.2227C12.9027 42.1098 12.741 41.9946 12.5811 41.877L9.44248 45.1199C9.23438 44.9049 9.04024 44.676 8.86134 44.4345L8.8373 44.4014C8.59123 44.0649 8.37723 43.7079 8.19675 43.3353C7.66531 42.242 7.42273 41.0144 7.5053 39.7789C7.56193 38.9314 7.76957 38.1094 8.11121 37.3515C7.13512 35.9935 6.31869 34.51 5.68554 32.9306C5.10362 31.4791 4.68655 29.9716 4.43716 28.438H0C0.00139654 28.134 0.0221485 27.8303 0.0621215 27.5291V27.4877L0.0625011 27.4849C0.257449 26.0499 0.885522 24.7208 1.84956 23.6826C1.98736 23.5342 2.13204 23.3917 2.28329 23.2558C2.90404 22.6977 3.61418 22.2683 4.37517 21.9822C4.42362 21.6433 4.48029 21.3051 4.5452 20.9679C5.10026 18.0848 6.2404 15.3701 7.87633 12.9966L4.73727 9.75609C4.9451 9.5416 5.16599 9.34105 5.39857 9.15566L5.43063 9.13081L5.43259 9.12928L5.43063 9.12667C6.71071 8.12759 8.29715 7.64021 9.89759 7.75435C10.7203 7.81303 11.5182 8.02863 12.2536 8.38343C14.6258 6.56371 17.3684 5.30071 20.2899 4.70029C20.4845 4.66029 20.6795 4.62332 20.8748 4.58937ZM11.8333 41.2997L8.85973 44.372L11.8376 41.3032C11.8362 41.302 11.8348 41.3008 11.8333 41.2997ZM14.6655 10.2605C17.4876 8.31265 20.8054 7.27318 24.1994 7.27359C28.7485 7.27907 33.1099 9.14883 36.3264 12.4726C39.543 15.7964 41.3522 20.3028 41.3569 25.0031C41.3569 28.5098 40.3505 31.9377 38.4649 34.8533C36.5793 37.769 33.8992 40.0414 30.7636 41.3832C27.628 42.7251 24.1776 43.0761 20.8489 42.3918C17.5203 41.7075 14.4627 40.0188 12.063 37.539C9.66326 35.0593 8.02913 31.9 7.36725 28.4607C6.70537 25.0214 7.04547 21.4565 8.34455 18.2169C9.64362 14.9773 11.8433 12.2084 14.6655 10.2605Z" fill="white"/>
            <defs>
               <linearGradient id="paint0_linear_487_336" x1="8.8939" y1="24.9342" x2="37.1018" y2="24.9958" gradientUnits="userSpaceOnUse">
                  <stop stop-color="#647391"/>
                  <stop offset="1" stop-color="#647391" stop-opacity="0"/>
               </linearGradient>
            </defs>
         </svg>
   </symbol>
   
</svg>