<?xml version="1.0" encoding="utf-8"?>
<svg xmlns="http://www.w3.org/2000/svg" xmlns:xlink="http://www.w3.org/1999/xlink">
    <symbol viewBox="0 0 12 12" id="rightUpArrow">
        <defs>
            <style>.aacls-1{fill:#fff}</style>
        </defs>
        <g xmlns="http://www.w3.org/2000/svg">
            <path d="M11.8323 0.165039V10.165H10.3323L10.3323 2.72569L1.2257 11.8323L0.165039 10.7716L9.27164 1.66504L1.83231 1.66504L1.83231 0.165039L11.8323 0.165039Z"/>
        </g>
    </symbol>

    <symbol viewBox="0 0 566 566" id="gear">
        <svg xmlns="http://www.w3.org/2000/svg">
            <path fill-rule="evenodd" clip-rule="evenodd" d="M185.471 71.6863C179.769 67.4089 173.477 63.9219 166.763 61.3486C164.604 60.5213 162.402 59.7883 160.162 59.154C143.359 54.3962 125.475 55.4813 109.417 62.1703C108.347 62.6162 107.284 63.0871 106.231 63.5827L106.192 63.6082L105.841 63.8374C102.753 65.3012 99.7641 66.9665 96.8942 68.8227L125.115 112.005C123.425 113.565 121.756 115.152 120.11 116.765C95.4003 140.976 76.5032 170.284 64.6313 202.478C55.3003 203.811 46.2173 206.852 37.8583 211.527C21.5973 220.621 9.17131 235.287 2.87026 252.82L2.90539 252.832L2.89569 252.859L2.73678 253.297C1.61567 256.518 0.701554 259.809 0 263.148L50.4436 273.696C49.1343 306.422 54.7427 339.208 67.0755 369.863C68.5177 373.448 70.0464 376.99 71.6595 380.487C66.0202 388.013 61.7573 396.566 59.1539 405.76C55.3075 419.345 55.2799 433.636 58.9451 447.097C60.1156 451.396 61.6629 455.611 63.5827 459.692L63.6083 459.731L63.8373 460.081C65.3011 463.169 66.9665 466.158 68.8226 469.028L111.96 440.837C123.815 453.682 137.138 465.217 151.721 475.178C167.588 486.015 184.648 494.788 202.488 501.364C203.827 510.666 206.863 519.719 211.523 528.053C218.31 540.19 228.203 550.19 240.074 557.1C244.131 559.469 248.421 561.477 252.897 563.085L253.335 563.244C256.558 564.379 259.853 565.3 263.198 566L273.771 515.546C276.048 515.637 278.328 515.694 280.612 515.717C315.236 516.071 349.354 508.694 380.537 494.298C388.047 499.914 396.577 504.16 405.745 506.756C423.67 511.831 442.824 510.256 459.678 502.32L460.067 502.065C463.148 500.588 466.128 498.91 468.99 497.042L440.833 453.957C467.808 428.997 488.524 397.979 501.24 363.452C510.584 362.123 519.681 359.081 528.052 354.399C540.177 347.619 550.168 337.741 557.077 325.885C559.434 321.854 561.435 317.592 563.041 313.147L563.057 313.154L563.045 313.135L563.084 313.025L563.243 312.588C564.378 309.364 565.299 306.068 566 302.724L515.413 292.236C516.885 255.499 509.638 218.894 494.244 185.457C499.886 177.929 504.151 169.375 506.756 160.177C511.83 142.252 510.255 123.097 502.32 106.244L502.294 106.205L502.065 105.854C500.587 102.773 498.91 99.793 497.041 96.9325L453.949 125.094C431.743 101.051 404.612 81.8529 374.237 68.9066C370.669 67.3856 367.069 65.9568 363.442 64.6205C362.108 55.2932 359.067 46.2142 354.394 37.8584C345.3 21.5973 330.635 9.17134 313.102 2.87027L313.089 2.90533L313.063 2.89569L312.625 2.73676C309.404 1.61566 306.113 0.701558 302.774 0L292.269 50.4563C274.818 49.7595 257.256 51.0258 239.914 54.2915C221.021 57.8497 202.745 63.7148 185.471 71.6863ZM263.014 514.871L262.95 514.865L252.946 562.613L263.014 514.871ZM99.6213 204.817C115.08 168.559 140.943 137.699 173.94 116.14C218.2 87.2889 272.097 77.1729 323.806 88.0113C375.515 98.8496 420.813 129.758 449.762 173.954C471.325 206.948 482.62 245.597 482.216 285.01C481.814 324.424 469.732 362.834 447.499 395.381C425.267 427.928 393.882 453.152 357.314 467.862C320.746 482.572 280.637 486.107 242.058 478.022C203.481 469.935 168.168 450.591 140.584 422.434C113.001 394.278 94.3866 358.574 87.0953 319.839C79.8039 281.103 84.163 241.076 99.6213 204.817Z"/>
        </svg>
    </symbol>
    
    <symbol viewBox="0 0 22 9" id="sliderArrow">
        <g xmlns="http://www.w3.org/2000/svg">
            <path d="M1 7.99968L11 1.33301L21 7.99968" stroke="#2B7EE0" stroke-linecap="round" stroke-linejoin="round"/>
        </g>
    </symbol>

    <symbol viewBox="0 0 14 10" id="checkIcon">
        <g fill="#647391" xmlns="http://www.w3.org/2000/svg">
            <path d="M13.8625 0H12.6633C12.4951 0 12.3356 0.069892 12.2326 0.189485L5.15914 8.30162L1.76736 4.41097C1.71605 4.35199 1.65065 4.3043 1.57607 4.27149C1.50149 4.23867 1.41967 4.22157 1.33674 4.22148H0.137527C0.0225806 4.22148 -0.0408973 4.34107 0.029443 4.42184L4.72852 9.81129C4.94812 10.0629 5.37016 10.0629 5.59148 9.81129L13.9706 0.198804C14.0409 0.119593 13.9774 0 13.8625 0V0Z" fill="#647391"/>
        </g>
    </symbol>

    <symbol width="75" height="15" viewBox="0 0 75 15" id="rusoText">
        <g fill="white" xmlns="http://www.w3.org/2000/svg">
            <path d="M4.95612 0.783999C5.61746 0.783999 6.17212 0.869333 6.62012 1.04C7.07879 1.21067 7.54279 1.488 8.01212 1.872L7.18012 2.848C6.50812 2.304 5.79879 2.032 5.05212 2.032C4.13479 2.032 3.39346 2.384 2.82812 3.088C2.27346 3.792 1.99612 4.92267 1.99612 6.48C1.99612 7.99467 2.27346 9.11467 2.82812 9.84C3.38279 10.5547 4.11879 10.912 5.03612 10.912C5.50546 10.912 5.91079 10.832 6.25212 10.672C6.59346 10.512 6.96679 10.2827 7.37212 9.984L8.14012 10.96C7.80946 11.312 7.37212 11.6053 6.82812 11.84C6.29479 12.0747 5.68146 12.192 4.98812 12.192C4.09212 12.192 3.29212 11.9733 2.58812 11.536C1.89479 11.088 1.35079 10.4373 0.956122 9.584C0.572122 8.72 0.380122 7.68533 0.380122 6.48C0.380122 5.27467 0.582789 4.24533 0.988122 3.392C1.39346 2.528 1.94279 1.87733 2.63612 1.44C3.32946 1.00267 4.10279 0.783999 4.95612 0.783999ZM16.7412 14.4H15.5412L15.3012 12H9.89325L9.65325 14.4H8.45325V10.816H9.04525C9.30125 10.6453 9.50391 10.4533 9.65325 10.24C9.80258 10.016 9.93591 9.632 10.0532 9.088C10.1812 8.544 10.2826 7.74933 10.3572 6.704L10.5812 3.568H15.8612V10.816H16.7412V14.4ZM11.9092 4.736L11.7812 6.512C11.7066 7.504 11.6212 8.26667 11.5252 8.8C11.4292 9.33333 11.2906 9.744 11.1092 10.032C10.9386 10.32 10.6879 10.5813 10.3572 10.816H14.3892V4.736H11.9092ZM25.2631 7.536C25.2631 7.78133 25.2525 8.032 25.2311 8.288H19.8551C19.9191 9.216 20.1538 9.89867 20.5591 10.336C20.9645 10.7733 21.4871 10.992 22.1271 10.992C22.5325 10.992 22.9058 10.9333 23.2471 10.816C23.5885 10.6987 23.9458 10.512 24.3191 10.256L24.9591 11.136C24.0631 11.84 23.0818 12.192 22.0151 12.192C20.8418 12.192 19.9245 11.808 19.2631 11.04C18.6125 10.272 18.2871 9.216 18.2871 7.872C18.2871 6.99733 18.4258 6.224 18.7031 5.552C18.9911 4.86933 19.3965 4.336 19.9191 3.952C20.4525 3.568 21.0765 3.376 21.7911 3.376C22.9111 3.376 23.7698 3.744 24.3671 4.48C24.9645 5.216 25.2631 6.23467 25.2631 7.536ZM23.8071 7.104C23.8071 6.272 23.6418 5.63733 23.3111 5.2C22.9805 4.76267 22.4845 4.544 21.8231 4.544C20.6178 4.544 19.9618 5.42933 19.8551 7.2H23.8071V7.104ZM33.5555 12H32.0835V4.768H29.4755L29.2355 7.584C29.1395 8.72533 29.0168 9.57867 28.8675 10.144C28.7288 10.7093 28.5048 11.1467 28.1955 11.456C27.8968 11.7547 27.4382 12 26.8195 12.192L26.4515 11.024C26.8142 10.896 27.0702 10.7307 27.2195 10.528C27.3688 10.3253 27.4808 10.016 27.5555 9.6C27.6302 9.184 27.7102 8.45867 27.7955 7.424L28.1315 3.568H33.5555V12ZM42.2782 10.032C42.2782 10.3733 42.3369 10.6293 42.4542 10.8C42.5716 10.96 42.7476 11.0827 42.9822 11.168L42.6462 12.192C42.2089 12.1387 41.8569 12.016 41.5902 11.824C41.3236 11.632 41.1262 11.3333 40.9982 10.928C40.4329 11.7707 39.5956 12.192 38.4862 12.192C37.6542 12.192 36.9982 11.9573 36.5182 11.488C36.0382 11.0187 35.7982 10.4053 35.7982 9.648C35.7982 8.752 36.1182 8.064 36.7582 7.584C37.4089 7.104 38.3262 6.864 39.5102 6.864H40.8062V6.24C40.8062 5.64267 40.6622 5.216 40.3742 4.96C40.0862 4.704 39.6436 4.576 39.0462 4.576C38.4276 4.576 37.6702 4.72533 36.7742 5.024L36.4062 3.952C37.4516 3.568 38.4222 3.376 39.3182 3.376C40.3102 3.376 41.0516 3.62133 41.5422 4.112C42.0329 4.592 42.2782 5.28 42.2782 6.176V10.032ZM38.8222 11.088C39.6649 11.088 40.3262 10.6507 40.8062 9.776V7.84H39.7022C38.1449 7.84 37.3662 8.416 37.3662 9.568C37.3662 10.0693 37.4889 10.448 37.7342 10.704C37.9796 10.96 38.3422 11.088 38.8222 11.088ZM46.7734 8.288V12H45.3014V3.568H46.7734V7.104H50.2774V3.568H51.7494V12H50.2774V8.288H46.7734ZM57.9537 3.376C59.1377 3.376 60.0551 3.77067 60.7057 4.56C61.3671 5.34933 61.6977 6.42133 61.6977 7.776C61.6977 8.65067 61.5484 9.424 61.2497 10.096C60.9511 10.7573 60.5191 11.2747 59.9537 11.648C59.3884 12.0107 58.7164 12.192 57.9377 12.192C56.7537 12.192 55.8311 11.7973 55.1697 11.008C54.5084 10.2187 54.1777 9.14667 54.1777 7.792C54.1777 6.91733 54.3271 6.14933 54.6257 5.488C54.9244 4.816 55.3564 4.29867 55.9217 3.936C56.4871 3.56267 57.1644 3.376 57.9537 3.376ZM57.9537 4.56C56.4924 4.56 55.7617 5.63733 55.7617 7.792C55.7617 9.936 56.4871 11.008 57.9377 11.008C59.3884 11.008 60.1137 9.93067 60.1137 7.776C60.1137 5.632 59.3937 4.56 57.9537 4.56ZM72.8119 7.424C73.5372 7.49867 74.0759 7.70667 74.4279 8.048C74.7799 8.38933 74.9559 8.87467 74.9559 9.504C74.9559 10.3467 74.6305 10.976 73.9799 11.392C73.3399 11.7973 72.4812 12 71.4039 12H68.3639V3.68C69.3559 3.47733 70.2785 3.376 71.1319 3.376C72.1665 3.376 72.9879 3.568 73.5959 3.952C74.2145 4.336 74.5239 4.88 74.5239 5.584C74.5239 6.04267 74.3905 6.42667 74.1239 6.736C73.8679 7.04533 73.4305 7.27467 72.8119 7.424ZM71.1479 4.512C70.6999 4.512 70.2625 4.544 69.8359 4.608V6.992H71.3399C71.8732 6.992 72.2839 6.896 72.5719 6.704C72.8705 6.512 73.0199 6.18667 73.0199 5.728C73.0199 5.30133 72.8652 4.992 72.5559 4.8C72.2465 4.608 71.7772 4.512 71.1479 4.512ZM71.1639 10.848C71.8359 10.848 72.3745 10.7627 72.7799 10.592C73.1959 10.4107 73.4039 10.0427 73.4039 9.488C73.4039 8.944 73.2332 8.576 72.8919 8.384C72.5505 8.18133 72.0652 8.08 71.4359 8.08H69.8359V10.848H71.1639Z" fill="white"/>
        </g>
    </symbol>

    <symbol width="61" height="13" viewBox="0 0 61 13" id="rusoLogo">
        <g xmlns="http://www.w3.org/2000/svg">
            <path d="M16.0174 7.34317V0.290527H18.5501V7.2549C18.5501 8.89131 19.5007 10.0162 21.3125 10.0162C23.1244 10.0162 24.0557 8.89018 24.0557 7.2549V0.290527H26.6065V7.32619C26.6065 10.2459 24.8819 12.2332 21.3125 12.2332C17.7409 12.2332 16.0174 10.2278 16.0174 7.34317Z" />
            <path d="M32.6249 10.3684L33.9784 8.46946C34.8057 9.3318 36.089 10.0516 37.7073 10.0516C39.0801 10.0516 39.7477 9.41894 39.7477 8.75012C39.7477 6.67462 32.9939 8.0994 32.9939 3.68471C32.9939 1.73256 34.6823 0.114258 37.4436 0.114258C39.3086 0.114258 40.8557 0.676703 42.0168 1.75067L40.6271 3.57947C39.6787 2.70015 38.4112 2.29614 37.215 2.29614C36.1422 2.29614 35.5447 2.77031 35.5447 3.47422C35.5447 5.3381 42.2804 4.08986 42.2804 8.46946C42.2804 10.6151 40.7504 12.2334 37.5851 12.2334C35.3342 12.2334 33.7159 11.4763 32.6249 10.3684Z" />
            <path d="M48.1407 6.11787C48.1407 2.55307 50.747 0 54.3118 0C57.8936 0 60.4998 2.55307 60.4998 6.11787C60.4998 9.68154 57.8936 12.2346 54.3118 12.2346C50.747 12.2346 48.1407 9.68154 48.1407 6.11787ZM57.9106 6.11787C57.9106 3.90204 56.4926 2.23507 54.3118 2.23507C52.1311 2.23507 50.73 3.90204 50.73 6.11787C50.73 8.31673 52.1311 10.0007 54.3118 10.0007C56.4926 10.0007 57.9106 8.31673 57.9106 6.11787Z" />
            <path d="M7.36038 7.55366C8.62673 7.2549 9.92929 6.14698 9.92929 4.07148C9.92929 1.89073 8.43434 0.290527 5.98878 0.290527H0.500122V2.48825H2.99774H3.18334H5.61985C6.62252 2.48825 7.37848 3.08578 7.37848 4.07148C7.37848 5.05604 6.62139 5.6547 5.61985 5.6547H3.18334H2.99774H0.501254V12.0215H2.99887V7.85356H4.8288L7.13178 12.0227H9.99946L7.36038 7.55366Z" />
        </g>
    </symbol>

    <symbol viewBox="0 0 10 6" id="arrow">
        <g fill="transparent" xmlns="http://www.w3.org/2000/svg">
            <path d="M1 1L5 5L9 1" />
        </g>
    </symbol>

    <symbol viewBox="0 0 14 8" id="selectArrow">
        <g fill="transparent"><path d="M1 0.5L7 6.5L13 0.5"/></g>
    </symbol>
</svg>

