<?xml version="1.0" encoding="utf-8"?>
<svg xmlns="http://www.w3.org/2000/svg" xmlns:xlink="http://www.w3.org/1999/xlink">
    <symbol viewBox="0 0 12 12" id="rightUpArrow">
        <defs>
            <style>.aacls-1{fill:#fff}</style>
        </defs>
        <g xmlns="http://www.w3.org/2000/svg">
            <path d="M11.8323 0.165039V10.165H10.3323L10.3323 2.72569L1.2257 11.8323L0.165039 10.7716L9.27164 1.66504L1.83231 1.66504L1.83231 0.165039L11.8323 0.165039Z"/>
        </g>
    </symbol>

    <symbol viewBox="0 0 566 566" id="gear">
        <svg xmlns="http://www.w3.org/2000/svg">
            <path fill-rule="evenodd" clip-rule="evenodd" d="M185.471 71.6863C179.769 67.4089 173.477 63.9219 166.763 61.3486C164.604 60.5213 162.402 59.7883 160.162 59.154C143.359 54.3962 125.475 55.4813 109.417 62.1703C108.347 62.6162 107.284 63.0871 106.231 63.5827L106.192 63.6082L105.841 63.8374C102.753 65.3012 99.7641 66.9665 96.8942 68.8227L125.115 112.005C123.425 113.565 121.756 115.152 120.11 116.765C95.4003 140.976 76.5032 170.284 64.6313 202.478C55.3003 203.811 46.2173 206.852 37.8583 211.527C21.5973 220.621 9.17131 235.287 2.87026 252.82L2.90539 252.832L2.89569 252.859L2.73678 253.297C1.61567 256.518 0.701554 259.809 0 263.148L50.4436 273.696C49.1343 306.422 54.7427 339.208 67.0755 369.863C68.5177 373.448 70.0464 376.99 71.6595 380.487C66.0202 388.013 61.7573 396.566 59.1539 405.76C55.3075 419.345 55.2799 433.636 58.9451 447.097C60.1156 451.396 61.6629 455.611 63.5827 459.692L63.6083 459.731L63.8373 460.081C65.3011 463.169 66.9665 466.158 68.8226 469.028L111.96 440.837C123.815 453.682 137.138 465.217 151.721 475.178C167.588 486.015 184.648 494.788 202.488 501.364C203.827 510.666 206.863 519.719 211.523 528.053C218.31 540.19 228.203 550.19 240.074 557.1C244.131 559.469 248.421 561.477 252.897 563.085L253.335 563.244C256.558 564.379 259.853 565.3 263.198 566L273.771 515.546C276.048 515.637 278.328 515.694 280.612 515.717C315.236 516.071 349.354 508.694 380.537 494.298C388.047 499.914 396.577 504.16 405.745 506.756C423.67 511.831 442.824 510.256 459.678 502.32L460.067 502.065C463.148 500.588 466.128 498.91 468.99 497.042L440.833 453.957C467.808 428.997 488.524 397.979 501.24 363.452C510.584 362.123 519.681 359.081 528.052 354.399C540.177 347.619 550.168 337.741 557.077 325.885C559.434 321.854 561.435 317.592 563.041 313.147L563.057 313.154L563.045 313.135L563.084 313.025L563.243 312.588C564.378 309.364 565.299 306.068 566 302.724L515.413 292.236C516.885 255.499 509.638 218.894 494.244 185.457C499.886 177.929 504.151 169.375 506.756 160.177C511.83 142.252 510.255 123.097 502.32 106.244L502.294 106.205L502.065 105.854C500.587 102.773 498.91 99.793 497.041 96.9325L453.949 125.094C431.743 101.051 404.612 81.8529 374.237 68.9066C370.669 67.3856 367.069 65.9568 363.442 64.6205C362.108 55.2932 359.067 46.2142 354.394 37.8584C345.3 21.5973 330.635 9.17134 313.102 2.87027L313.089 2.90533L313.063 2.89569L312.625 2.73676C309.404 1.61566 306.113 0.701558 302.774 0L292.269 50.4563C274.818 49.7595 257.256 51.0258 239.914 54.2915C221.021 57.8497 202.745 63.7148 185.471 71.6863ZM263.014 514.871L262.95 514.865L252.946 562.613L263.014 514.871ZM99.6213 204.817C115.08 168.559 140.943 137.699 173.94 116.14C218.2 87.2889 272.097 77.1729 323.806 88.0113C375.515 98.8496 420.813 129.758 449.762 173.954C471.325 206.948 482.62 245.597 482.216 285.01C481.814 324.424 469.732 362.834 447.499 395.381C425.267 427.928 393.882 453.152 357.314 467.862C320.746 482.572 280.637 486.107 242.058 478.022C203.481 469.935 168.168 450.591 140.584 422.434C113.001 394.278 94.3866 358.574 87.0953 319.839C79.8039 281.103 84.163 241.076 99.6213 204.817Z"/>
        </svg>
    </symbol>
    
    <symbol viewBox="0 0 22 9" id="sliderArrow">
        <g xmlns="http://www.w3.org/2000/svg">
            <path d="M1 7.99968L11 1.33301L21 7.99968" stroke="#2B7EE0" stroke-linecap="round" stroke-linejoin="round"/>
        </g>
    </symbol>

</svg>