<?xml version="1.0" encoding="utf-8"?>
<svg xmlns="http://www.w3.org/2000/svg" xmlns:xlink="http://www.w3.org/1999/xlink">
    <symbol viewBox="0 0 12 12" id="rightUpArrow">
        <defs>
            <style>.aacls-1{fill:#fff}</style>
        </defs>
        <g xmlns="http://www.w3.org/2000/svg">
            <path d="M11.8323 0.165039V10.165H10.3323L10.3323 2.72569L1.2257 11.8323L0.165039 10.7716L9.27164 1.66504L1.83231 1.66504L1.83231 0.165039L11.8323 0.165039Z"/>
        </g>
    </symbol>

    <symbol viewBox="0 0 549 567" id="gear">
        <svg xmlns="http://www.w3.org/2000/svg">
            <path fill-rule="evenodd" clip-rule="evenodd" d="M179.745 71.7804C174.219 67.4974 168.121 64.0058 161.614 61.4291C159.522 60.6007 157.388 59.8668 155.217 59.2316C138.933 54.4676 121.601 55.5541 106.039 62.2519C105.002 62.6984 103.972 63.1699 102.951 63.6662L102.913 63.6917L102.573 63.9212C99.5804 65.3869 96.6839 67.0544 93.9026 68.913L121.252 112.152C119.614 113.714 117.997 115.303 116.402 116.918C92.4549 141.161 74.1412 170.508 62.6358 202.744C53.5929 204.079 44.7904 207.124 36.6894 211.805C20.9305 220.911 8.88815 235.596 2.78164 253.152L2.81569 253.164L2.80629 253.191L2.65228 253.629C1.56579 256.855 0.679894 260.15 0 263.493L48.8862 274.055C47.6173 306.824 53.0525 339.653 65.0046 370.349C66.4023 373.938 67.8838 377.485 69.4471 380.986C63.9819 388.522 59.8506 397.087 57.3276 406.293C53.5999 419.895 53.5732 434.205 57.1252 447.684C58.2596 451.989 59.7591 456.209 61.6196 460.295L61.6444 460.334L61.8664 460.685C63.285 463.777 64.8989 466.77 66.6977 469.644L108.503 441.416C119.992 454.278 132.904 465.828 147.037 475.802C162.414 486.653 178.947 495.437 196.236 502.022C197.534 511.336 200.476 520.401 204.992 528.746C211.57 540.899 221.157 550.912 232.662 557.831C236.594 560.203 240.751 562.214 245.089 563.824L245.513 563.983C248.637 565.12 251.83 566.042 255.072 566.743L265.318 516.223C267.525 516.314 269.735 516.371 271.948 516.394C305.503 516.748 338.568 509.362 368.788 494.947C376.066 500.57 384.333 504.822 393.218 507.421C410.589 512.503 429.152 510.926 445.486 502.979L445.523 502.954L445.863 502.724C448.849 501.245 451.737 499.565 454.51 497.694L427.223 454.553C453.365 429.56 473.441 398.501 485.764 363.929C494.82 362.598 503.636 359.552 511.749 354.864C523.499 348.075 533.182 338.184 539.878 326.313C542.162 322.276 544.101 318.009 545.657 313.558L545.673 313.565L545.661 313.546L545.699 313.436L545.853 312.998C546.953 309.77 547.846 306.47 548.525 303.121L499.5 292.62C500.926 255.834 493.903 219.181 478.984 185.7C484.452 178.163 488.586 169.597 491.11 160.387C496.028 142.439 494.501 123.259 486.811 106.383L486.786 106.344L486.564 105.993C485.132 102.908 483.506 99.924 481.695 97.0597L439.934 125.258C418.413 101.184 392.12 81.9603 362.683 68.997C359.225 67.4741 355.736 66.0434 352.221 64.7053C350.928 55.3658 347.981 46.2749 343.452 37.9081C334.639 21.6257 320.427 9.18338 303.435 2.87404L303.423 2.90914L303.397 2.89949L302.973 2.74035C299.851 1.61778 296.662 0.702479 293.426 0L283.245 50.5225C266.333 49.8248 249.313 51.0928 232.507 54.3628C214.197 57.9256 196.485 63.7984 179.745 71.7804ZM254.894 515.547L254.832 515.541L245.136 563.352L254.894 515.547ZM96.5455 205.086C111.527 168.78 136.591 137.88 168.57 116.292C211.463 87.4035 263.696 77.2742 313.809 88.1268C363.921 98.9794 407.821 129.928 435.876 174.182C456.773 207.22 467.719 245.919 467.328 285.384C466.938 324.85 455.229 363.31 433.683 395.9C412.137 428.49 381.721 453.747 346.282 468.476C310.843 483.205 271.972 486.745 234.585 478.649C197.199 470.552 162.976 451.182 136.244 422.989C109.512 394.796 91.4725 359.045 84.4063 320.259C77.34 281.472 81.5645 241.392 96.5455 205.086Z" fill="black"/>
        </svg>
    </symbol>
    
    <symbol viewBox="0 0 22 9" id="sliderArrow">
        <g xmlns="http://www.w3.org/2000/svg">
            <path d="M1 7.99968L11 1.33301L21 7.99968" stroke="#2B7EE0" stroke-linecap="round" stroke-linejoin="round"/>
        </g>
    </symbol>
</svg>