<svg width="160" height="120" viewBox="0 0 160 120" fill="none" xmlns="http://www.w3.org/2000/svg">
<g clip-path="url(#clip0_65_150)">
<path d="M0.452148 113.022V108.355H15.267C15.4074 108.371 15.5489 108.337 15.667 108.259C15.7107 108.21 15.7433 108.153 15.7625 108.09C15.7817 108.027 15.787 107.961 15.7781 107.896V106.037C15.7847 105.976 15.7782 105.913 15.7591 105.855C15.7399 105.796 15.7085 105.742 15.667 105.696C15.5465 105.625 15.4064 105.594 15.267 105.607H6.03733C3.81017 105.607 2.32869 105.306 1.59289 104.704C0.857086 104.101 0.484247 102.909 0.47437 101.126V98.6443C0.47437 96.8962 0.866963 95.7258 1.64474 95.1184C2.42252 94.511 3.86696 94.2147 6.08919 94.2147H21.3336V98.6962H7.304C7.15898 98.6798 7.01318 98.7195 6.89659 98.8073C6.81535 98.9155 6.77828 99.0506 6.79289 99.1851V100.778C6.7791 100.908 6.81628 101.038 6.89659 101.141C7.01853 101.216 7.16138 101.249 7.304 101.237H16.6151C18.8077 101.237 20.2892 101.528 21.0596 102.111C21.8299 102.694 22.2176 103.867 22.2225 105.63V108.467C22.2225 110.353 21.8423 111.588 21.0818 112.17C20.3213 112.753 18.8398 113.039 16.6373 113.03L0.452148 113.022Z" fill="white"/>
<path d="M30.2143 113.022V98.8888H22.5254V94.2147H44.355V98.8888H36.6661V113.022H30.2143Z" fill="white"/>
<path d="M45.5186 113.022V94.2147H66.1037V98.6962H51.8519V101.289H61.163V105.496H51.8519V108.459H66.2667V113.044L45.5186 113.022Z" fill="white"/>
<path d="M67.4072 113.022V94.2147H73.8517V108.148H86.748V113L67.4072 113.022Z" fill="white"/>
<path d="M87.9336 113.022V94.2147H94.3854V108.148H107.282V113L87.9336 113.022Z" fill="white"/>
<path d="M128.437 113.022L126.955 110.111H116.859L115.378 113.022H108.444L118.637 94.2147H125.304L135.504 113.022H128.437ZM118.807 106.007H125.015L121.911 100.207H121.859L118.807 106.007Z" fill="white"/>
<path d="M151.851 113.022L146.777 106.792H143.029V113.022H136.666V94.2147H152.636C154.765 94.2147 156.209 94.5086 156.97 95.0962C157.73 95.6839 158.113 96.795 158.118 98.4295V102.689C158.118 104.237 157.77 105.289 157.073 105.837C156.146 106.462 155.052 106.795 153.933 106.792L159.385 113.022H151.851ZM151.955 99.1851C151.972 99.0479 151.941 98.909 151.866 98.7925C151.752 98.7122 151.612 98.6779 151.473 98.6962H143.029V102.289H151.473C151.603 102.309 151.736 102.285 151.851 102.222C151.925 102.105 151.956 101.967 151.94 101.83L151.955 99.1851Z" fill="white"/>
<path d="M78.5041 76.363L63.9115 82.2L57.6522 66.563L42.1855 59.9407L48.0892 46.163L49.667 46.6074L71.8152 52.9407L72.2967 54.6148H57.43V64.2593H75.0522L78.2226 75.3852L78.5041 76.363Z" fill="white"/>
<path d="M117.652 29.7333L111.748 43.511L110.155 43.0666L88.0147 36.7333L87.4221 34.674H100.57V25.4221H84.785L81.5998 14.2888L81.3184 13.3184L95.9258 7.474L102.178 23.1036L117.652 29.7333Z" fill="white"/>
<path d="M117.273 60.8444L101.651 67.0963L95.0215 82.5778L81.2363 76.6518L81.6882 75.0666L84.7845 64.237H90.8067C95.3746 64.237 98.4511 63.642 100.036 62.4518C101.622 61.2617 102.409 58.7185 102.399 54.8222V48.8074L110.459 46.5037L111.429 46.2296L117.273 60.8444Z" fill="white"/>
<path d="M78.5933 13L78.1414 14.5926L75.0451 25.4222H68.9711C64.5266 25.4222 61.4673 26.0371 59.8599 27.2815C58.2525 28.5259 57.4303 30.9852 57.4303 34.5556V39.6815C57.4303 40.0815 57.4303 40.4667 57.4303 40.8296L49.3488 43.1482L48.3636 43.4222L42.5488 28.8371L58.1859 22.5778L64.8081 7.09631L78.5933 13Z" fill="white"/>
<path opacity="0.5" d="M84.7852 25.4222L87.4075 34.6741H100.556V25.4222H84.7852ZM72.2964 54.6222H57.4297V64.2519H75.0519L72.2964 54.6222Z" fill="white"/>
<path opacity="0.5" d="M102.401 48.8296V54.8148C102.401 58.7111 101.613 61.2543 100.038 62.4445C98.4624 63.6346 95.3859 64.2297 90.8081 64.2297H84.7859L87.5414 54.6H88.0229C88.3144 54.6326 88.608 54.5618 88.8525 54.4C88.9409 54.2997 89.007 54.1819 89.0466 54.0542C89.0861 53.9265 89.0983 53.792 89.0822 53.6593V49.8222C89.1018 49.6895 89.0914 49.554 89.0516 49.4258C89.0119 49.2975 88.9438 49.1799 88.8525 49.0815C88.6054 48.9262 88.3132 48.8584 88.0229 48.8889H68.9711C64.3637 48.8889 61.2871 48.2667 59.7414 47.0222C58.3711 45.9111 57.6007 43.8445 57.46 40.7852C57.46 40.4222 57.46 40.0445 57.46 39.6371V34.5556C57.46 30.9457 58.2698 28.521 59.8896 27.2815C61.497 26.0371 64.5414 25.4222 69.0007 25.4222H75.0748L72.4303 34.6741H71.6155C71.3198 34.6427 71.0226 34.719 70.7785 34.8889C70.6121 35.115 70.5356 35.3948 70.5637 35.6741V38.9556C70.5491 39.0871 70.5605 39.2202 70.5974 39.3473C70.6342 39.4744 70.6958 39.593 70.7785 39.6963C71.0263 39.8569 71.3218 39.9275 71.6155 39.8963H90.8748C95.4155 39.8963 98.4822 40.4889 100.067 41.6963C101.653 42.9037 102.386 45.2741 102.401 48.8296Z" fill="white"/>
</g>
<defs>
<clipPath id="clip0_65_150">
<rect width="160" height="106.667" fill="white" transform="translate(0 6.66663)"/>
</clipPath>
</defs>
</svg>
