<svg width="160" height="120" viewBox="0 0 160 120" fill="none" xmlns="http://www.w3.org/2000/svg">
<path d="M48.9093 17.5535V24.0746H49.6536C51.8155 24.0746 56.8008 24.7598 59.8369 25.4805C61.9043 25.9766 65.1058 26.9217 65.0704 27.0281C65.0468 27.0753 64.3615 27.7133 63.5228 28.4457C55.6194 35.3685 49.1219 44.4532 45.0581 54.2585C41.9747 61.7247 40.1318 70.2188 39.8482 78.2639L39.7773 80.4258H46.2867H52.8078V79.2089C52.8078 78.5474 52.8905 77.1179 52.985 76.0311C54.0246 64.241 58.4547 53.5497 66.1454 44.276C67.6576 42.4449 71.4143 38.7236 73.3399 37.1287C75.0647 35.7111 78.0536 33.5256 78.278 33.5256C78.3607 33.5256 79.0577 33.9863 79.8492 34.5415L81.2787 35.5693L79.4712 36.7861C68.6617 44.0988 60.8293 55.2154 57.5923 67.8324C56.789 70.9748 56.1747 74.9206 56.0566 77.7795C56.0211 78.6183 55.962 79.587 55.9384 79.9178L55.8794 80.5439H62.2469H68.6145L68.6972 79.268C68.9452 75.2159 69.5359 72.0144 70.67 68.494C73.4581 59.8464 79.294 52.1911 86.9729 47.0994C88.5913 46.0244 90.6824 44.8312 90.8478 44.8903C91.0604 44.9612 92.9742 47.5129 94.2028 49.3559C99.6135 57.4482 102.756 66.462 103.606 76.291C103.666 77.0352 103.725 78.0748 103.725 78.5946C103.725 79.1144 103.76 79.7406 103.796 79.9768L103.878 80.4258H110.317H116.755L116.684 78.0276C116.294 65.7532 112.254 53.148 105.308 42.5984C104.174 40.8618 104.103 40.7319 104.351 40.6728C104.599 40.6138 107.127 40.3775 107.54 40.3775C107.729 40.3775 107.741 39.9994 107.741 33.9981C107.741 30.4895 107.706 27.6187 107.659 27.6187C107.6 27.6187 106.796 27.6778 105.851 27.7369C102.472 27.9732 98.7038 28.5875 95.7622 29.379L94.4864 29.7216L92.986 28.4103C92.1709 27.6896 91.4857 27.0635 91.4621 27.0281C91.4266 26.9217 94.7699 25.9412 96.6955 25.4805C99.7316 24.7598 104.717 24.0746 106.879 24.0746H107.623V17.5535V11.0442L105.863 11.1269C97.3453 11.5049 88.0952 13.8322 80.0028 17.6244L78.3017 18.4277L76.0807 17.4117C67.9056 13.6786 59.1045 11.5049 50.6341 11.1269L48.9093 11.0442V17.5535V17.5535Z" fill="white"/>
<path d="M24.3359 82.9065V84.7967H26.0489H27.7619V82.9065V81.0164H26.0489H24.3359V82.9065Z" fill="white"/>
<path d="M30.125 82.9066V84.8086L31.8144 84.7732L33.4919 84.7378V82.9066V81.0755L31.8144 81.0401L30.125 81.0046V82.9066Z" fill="white"/>
<path d="M0 88.1047V89.9948H3.42596H6.85192V99.1504V108.306H9.21465H11.5774V99.1504V89.9948H14.8852H18.193V88.1047V86.2145H9.09651H0V88.1047Z" fill="white"/>
<path d="M19.9648 93.7399C19.9648 99.9066 20.0003 101.478 20.142 102.376C20.6855 105.719 22.4812 107.751 25.7181 108.684C26.5332 108.92 26.9113 108.956 28.8841 108.956C30.8688 108.956 31.2351 108.92 32.062 108.684C34.3421 108.023 35.9723 106.759 36.8465 104.963C37.8389 102.955 37.9216 102.045 37.9216 93.1492V86.2146H35.6179H33.3143V93.0901C33.3143 96.8823 33.2552 100.462 33.1961 101.064C32.9244 103.604 32.0502 104.597 29.8174 104.88C26.9467 105.246 25.0802 104.077 24.6903 101.679C24.6194 101.218 24.5722 98.0519 24.5722 93.5627V86.2146H22.2685H19.9648V93.7399Z" fill="white"/>
<path d="M39.6934 97.2604V108.306H41.997H44.3007V100.651C44.3125 93.858 44.3243 93.0311 44.4897 93.2437C44.5842 93.3737 46.628 96.8114 49.038 100.887L53.4208 108.306H55.7127H58.0045V97.2604V86.2146H55.7009H53.3972V93.799V101.395L48.8371 93.799L44.2889 86.2146H41.9852H39.6934V97.2604Z" fill="white"/>
<path d="M59.7773 97.2604V108.306H68.2241H76.6709V106.416V104.526H70.5868H64.5028V101.69V98.8552H69.878H75.2532V96.965V95.0748H69.878H64.5028V92.5349V89.995H70.3506H76.1983V88.1048V86.2146H67.9878H59.7773V97.2604Z" fill="white"/>
<path d="M78.3242 97.2604V108.306H86.0031H93.682V106.416V104.526H88.3068H82.9315V95.3702V86.2146H80.6279H78.3242V97.2604Z" fill="white"/>
<path d="M94.9824 97.2604V108.306H97.2861H99.5897V99.5404C99.5897 94.7204 99.6134 90.8101 99.6488 90.8337C99.6724 90.8692 100.547 94.6968 101.598 99.3277C102.638 103.971 103.512 107.893 103.547 108.034C103.606 108.306 103.618 108.306 105.945 108.306H108.273L110.21 99.6467C111.273 94.8976 112.195 90.9164 112.242 90.8219C112.301 90.7274 112.348 94.6141 112.348 99.4695V108.306H114.652H116.956V97.2604V86.2146H113.553H110.151L108.107 94.5078C106.973 99.0797 106.016 102.848 105.969 102.907C105.91 102.978 105.296 100.556 102.201 88.0457L101.763 86.2737L98.3729 86.2382L94.9824 86.2146V97.2604V97.2604Z" fill="white"/>
<path d="M122 97.1777C119.873 103.203 118.125 108.164 118.137 108.212C118.137 108.271 119.188 108.306 120.476 108.306H122.803L123.571 106.121L124.339 103.935H128.545H132.75L133.506 106.121L134.262 108.306H136.59C138.385 108.306 138.929 108.271 138.917 108.153C138.917 108.082 137.204 103.12 135.113 97.1422L131.309 86.2737L128.592 86.25L125.875 86.2146L122 97.1777ZM130.128 95.8427C130.896 98.0519 131.545 99.9302 131.581 100.001C131.616 100.119 130.99 100.155 128.71 100.155C126.418 100.155 125.804 100.119 125.851 100.001C125.875 99.9302 126.395 98.3472 126.985 96.4925C127.588 94.6377 128.178 92.783 128.32 92.3813C128.45 91.9678 128.604 91.6725 128.651 91.7316C128.698 91.7788 129.36 93.6336 130.128 95.8427Z" fill="white"/>
<path d="M140.228 97.2604V108.306H142.531H144.835V104.786V101.277L146.052 100.001L147.257 98.7134L150.86 103.51L154.463 108.294L157.286 108.306C159.519 108.306 160.074 108.271 159.992 108.153C155.762 102.801 150.387 95.8782 150.387 95.7955C150.387 95.7246 152.254 93.669 154.534 91.2118C156.826 88.7545 158.799 86.6281 158.929 86.4745L159.165 86.2146L156.4 86.2264H153.636L149.324 90.9991C146.95 93.6218 144.977 95.7718 144.929 95.7718C144.87 95.7837 144.835 93.6336 144.835 90.9991V86.2146H142.531H140.228V97.2604Z" fill="white"/>
</svg>
